%TF.GenerationSoftware,KiCad,Pcbnew,9.0.2-9.0.2-0~ubuntu25.04.1*%
%TF.CreationDate,2025-06-29T21:17:19+02:00*%
%TF.ProjectId,aecp_Nano_V4_main_board,61656370-5f4e-4616-9e6f-5f56345f6d61,rev?*%
%TF.SameCoordinates,Original*%
%TF.FileFunction,Copper,L1,Top*%
%TF.FilePolarity,Positive*%
%FSLAX46Y46*%
G04 Gerber Fmt 4.6, Leading zero omitted, Abs format (unit mm)*
G04 Created by KiCad (PCBNEW 9.0.2-9.0.2-0~ubuntu25.04.1) date 2025-06-29 21:17:19*
%MOMM*%
%LPD*%
G01*
G04 APERTURE LIST*
G04 Aperture macros list*
%AMRoundRect*
0 Rectangle with rounded corners*
0 $1 Rounding radius*
0 $2 $3 $4 $5 $6 $7 $8 $9 X,Y pos of 4 corners*
0 Add a 4 corners polygon primitive as box body*
4,1,4,$2,$3,$4,$5,$6,$7,$8,$9,$2,$3,0*
0 Add four circle primitives for the rounded corners*
1,1,$1+$1,$2,$3*
1,1,$1+$1,$4,$5*
1,1,$1+$1,$6,$7*
1,1,$1+$1,$8,$9*
0 Add four rect primitives between the rounded corners*
20,1,$1+$1,$2,$3,$4,$5,0*
20,1,$1+$1,$4,$5,$6,$7,0*
20,1,$1+$1,$6,$7,$8,$9,0*
20,1,$1+$1,$8,$9,$2,$3,0*%
G04 Aperture macros list end*
%TA.AperFunction,ComponentPad*%
%ADD10C,0.800000*%
%TD*%
%TA.AperFunction,ComponentPad*%
%ADD11C,6.000000*%
%TD*%
%TA.AperFunction,ComponentPad*%
%ADD12R,3.000000X3.000000*%
%TD*%
%TA.AperFunction,ComponentPad*%
%ADD13C,3.000000*%
%TD*%
%TA.AperFunction,ComponentPad*%
%ADD14RoundRect,0.249999X-0.850001X-0.850001X0.850001X-0.850001X0.850001X0.850001X-0.850001X0.850001X0*%
%TD*%
%TA.AperFunction,ComponentPad*%
%ADD15C,2.200000*%
%TD*%
%TA.AperFunction,ComponentPad*%
%ADD16C,1.600000*%
%TD*%
%TA.AperFunction,ComponentPad*%
%ADD17RoundRect,0.250000X0.550000X0.550000X-0.550000X0.550000X-0.550000X-0.550000X0.550000X-0.550000X0*%
%TD*%
%TA.AperFunction,ComponentPad*%
%ADD18R,1.700000X1.700000*%
%TD*%
%TA.AperFunction,ComponentPad*%
%ADD19C,1.700000*%
%TD*%
%TA.AperFunction,ComponentPad*%
%ADD20O,1.905000X3.096000*%
%TD*%
%TA.AperFunction,ComponentPad*%
%ADD21O,3.096000X1.905000*%
%TD*%
%TA.AperFunction,ComponentPad*%
%ADD22RoundRect,0.250000X-0.550000X-0.550000X0.550000X-0.550000X0.550000X0.550000X-0.550000X0.550000X0*%
%TD*%
%TA.AperFunction,ComponentPad*%
%ADD23R,2.286000X1.574800*%
%TD*%
%TA.AperFunction,ComponentPad*%
%ADD24O,2.286000X1.574800*%
%TD*%
%TA.AperFunction,ViaPad*%
%ADD25C,0.600000*%
%TD*%
%TA.AperFunction,Conductor*%
%ADD26C,2.032000*%
%TD*%
%TA.AperFunction,Conductor*%
%ADD27C,0.610000*%
%TD*%
%TA.AperFunction,Profile*%
%ADD28C,0.050000*%
%TD*%
G04 APERTURE END LIST*
D10*
%TO.P,H2,1*%
%TO.N,N/C*%
X139750000Y-50000000D03*
X140409010Y-48409010D03*
X140409010Y-51590990D03*
X142000000Y-47750000D03*
D11*
X142000000Y-50000000D03*
D10*
X142000000Y-52250000D03*
X143590990Y-48409010D03*
X143590990Y-51590990D03*
X144250000Y-50000000D03*
%TD*%
D12*
%TO.P,P1,1,P1*%
%TO.N,Net-(P1-P1)*%
X103360000Y-124500000D03*
D13*
%TO.P,P1,2,P2*%
%TO.N,Net-(P1-P2)*%
X103360000Y-119420000D03*
%TD*%
D12*
%TO.P,P2,1,P1*%
%TO.N,+5V*%
X103360000Y-66700000D03*
D13*
%TO.P,P2,2,P2*%
%TO.N,GND*%
X103360000Y-61620000D03*
%TO.P,P2,3,P3*%
%TO.N,Net-(P2-P3)*%
X103360000Y-56540000D03*
%TD*%
D14*
%TO.P,D1,1,K*%
%TO.N,Net-(D1-K)*%
X114610000Y-124980000D03*
D15*
%TO.P,D1,2,A*%
%TO.N,+5V*%
X124770000Y-124980000D03*
%TD*%
D12*
%TO.P,P6,1,P1*%
%TO.N,Net-(D1-K)*%
X103360000Y-113960000D03*
D13*
%TO.P,P6,2,P2*%
%TO.N,GND*%
X103360000Y-108880000D03*
%TD*%
D16*
%TO.P,C2,1*%
%TO.N,+5V*%
X128650000Y-121260000D03*
%TO.P,C2,2*%
%TO.N,GND*%
X128650000Y-116260000D03*
%TD*%
D17*
%TO.P,C4,1*%
%TO.N,Net-(D1-K)*%
X115970000Y-109470000D03*
D16*
%TO.P,C4,2*%
%TO.N,GND*%
X113470000Y-109470000D03*
%TD*%
D18*
%TO.P,J1,1,Pin_1*%
%TO.N,+5V*%
X123840000Y-53560000D03*
D19*
%TO.P,J1,2,Pin_2*%
%TO.N,GND*%
X121300000Y-53560000D03*
%TO.P,J1,3,Pin_3*%
%TO.N,Net-(J1-Pin_3)*%
X118760000Y-53560000D03*
%TO.P,J1,4,Pin_4*%
%TO.N,Net-(J1-Pin_4)*%
X116220000Y-53560000D03*
%TD*%
D20*
%TO.P,U2,1,IN*%
%TO.N,Net-(D1-K)*%
X117080000Y-119710000D03*
%TO.P,U2,2,GND*%
%TO.N,GND*%
X119620000Y-119710000D03*
%TO.P,U2,3,OUT*%
%TO.N,+5V*%
X122160000Y-119710000D03*
%TD*%
D10*
%TO.P,H1,1*%
%TO.N,N/C*%
X97750000Y-50000000D03*
X98409010Y-48409010D03*
X98409010Y-51590990D03*
X100000000Y-47750000D03*
D11*
X100000000Y-50000000D03*
D10*
X100000000Y-52250000D03*
X101590990Y-48409010D03*
X101590990Y-51590990D03*
X102250000Y-50000000D03*
%TD*%
D12*
%TO.P,P3,1,P1*%
%TO.N,GND*%
X103360000Y-82340000D03*
D13*
%TO.P,P3,2,P2*%
%TO.N,Net-(P3-P2)*%
X103360000Y-77260000D03*
%TO.P,P3,3,P3*%
%TO.N,Net-(P3-P3)*%
X103360000Y-72180000D03*
%TD*%
D21*
%TO.P,Q1,1,G*%
%TO.N,Net-(Q1-G)*%
X134010000Y-69810000D03*
%TO.P,Q1,2,C*%
%TO.N,Net-(P1-P1)*%
X134010000Y-72350000D03*
%TO.P,Q1,3,E*%
%TO.N,GND*%
X134010000Y-74890000D03*
%TD*%
D12*
%TO.P,P4,1,P1*%
%TO.N,Net-(P4-P1)*%
X103360000Y-92940000D03*
D13*
%TO.P,P4,2,P2*%
%TO.N,GND*%
X103360000Y-87860000D03*
%TD*%
D10*
%TO.P,H4,1*%
%TO.N,N/C*%
X139750000Y-131000000D03*
X140409010Y-129409010D03*
X140409010Y-132590990D03*
X142000000Y-128750000D03*
D11*
X142000000Y-131000000D03*
D10*
X142000000Y-133250000D03*
X143590990Y-129409010D03*
X143590990Y-132590990D03*
X144250000Y-131000000D03*
%TD*%
D21*
%TO.P,Q2,1,G*%
%TO.N,Net-(Q2-G)*%
X134010000Y-106540000D03*
%TO.P,Q2,2,C*%
%TO.N,Net-(P1-P2)*%
X134010000Y-109080000D03*
%TO.P,Q2,3,E*%
%TO.N,GND*%
X134010000Y-111620000D03*
%TD*%
D22*
%TO.P,C1,1*%
%TO.N,+5V*%
X123200000Y-109210000D03*
D16*
%TO.P,C1,2*%
%TO.N,GND*%
X125700000Y-109210000D03*
%TD*%
%TO.P,C3,1*%
%TO.N,Net-(D1-K)*%
X110460000Y-121260000D03*
%TO.P,C3,2*%
%TO.N,GND*%
X110460000Y-116260000D03*
%TD*%
D10*
%TO.P,H3,1*%
%TO.N,N/C*%
X97750000Y-131000000D03*
X98409010Y-129409010D03*
X98409010Y-132590990D03*
X100000000Y-128750000D03*
D11*
X100000000Y-131000000D03*
D10*
X100000000Y-133250000D03*
X101590990Y-129409010D03*
X101590990Y-132590990D03*
X102250000Y-131000000D03*
%TD*%
D11*
%TO.P,HS2,1*%
%TO.N,unconnected-(HS2-Pad1)_1*%
X138310000Y-121760000D03*
%TO.N,unconnected-(HS2-Pad1)*%
X138310000Y-96360000D03*
%TD*%
%TO.P,HS1,1*%
%TO.N,unconnected-(HS1-Pad1)*%
X138310000Y-85030000D03*
%TO.N,unconnected-(HS1-Pad1)_1*%
X138310000Y-59630000D03*
%TD*%
D23*
%TO.P,U1,1,(led)(SCK)D13*%
%TO.N,unconnected-(U1-(led)(SCK)D13-Pad1)*%
X112660000Y-62370000D03*
D24*
%TO.P,U1,2,3V3*%
%TO.N,Net-(P3-P3)*%
X112660000Y-64910000D03*
%TO.P,U1,3,Aref*%
%TO.N,unconnected-(U1-Aref-Pad3)*%
X112660000Y-67450000D03*
%TO.P,U1,4,A0*%
%TO.N,Net-(P3-P2)*%
X112660000Y-69990000D03*
%TO.P,U1,5,A1*%
%TO.N,unconnected-(U1-A1-Pad5)*%
X112660000Y-72530000D03*
%TO.P,U1,6,A2*%
%TO.N,unconnected-(U1-A2-Pad6)*%
X112660000Y-75070000D03*
%TO.P,U1,7,A3*%
%TO.N,unconnected-(U1-A3-Pad7)*%
X112660000Y-77610000D03*
%TO.P,U1,8,A4(SDA)*%
%TO.N,Net-(P4-P1)*%
X112660000Y-80150000D03*
%TO.P,U1,9,A5(SCL)*%
%TO.N,Net-(P5-P1)*%
X112660000Y-82690000D03*
%TO.P,U1,10,A6*%
%TO.N,unconnected-(U1-A6-Pad10)*%
X112660000Y-85230000D03*
%TO.P,U1,11,A7*%
%TO.N,unconnected-(U1-A7-Pad11)*%
X112660000Y-87770000D03*
%TO.P,U1,12,5V*%
%TO.N,+5V*%
X112660000Y-90310000D03*
%TO.P,U1,13,RST*%
%TO.N,unconnected-(U1-RST-Pad13)*%
X112660000Y-92850000D03*
%TO.P,U1,14,GND*%
%TO.N,GND*%
X112660000Y-95390000D03*
%TO.P,U1,15,Vin*%
%TO.N,unconnected-(U1-Vin-Pad15)*%
X112660000Y-97930000D03*
%TO.P,U1,16,(TX)D0*%
%TO.N,unconnected-(U1-(TX)D0-Pad16)*%
X127900000Y-97930000D03*
%TO.P,U1,17,(RX)D1*%
%TO.N,unconnected-(U1-(RX)D1-Pad17)*%
X127900000Y-95390000D03*
%TO.P,U1,18,RST*%
%TO.N,unconnected-(U1-RST-Pad18)*%
X127900000Y-92850000D03*
%TO.P,U1,19,GND*%
%TO.N,GND*%
X127900000Y-90310000D03*
%TO.P,U1,20,(int2)D2*%
%TO.N,Net-(P2-P3)*%
X127900000Y-87770000D03*
%TO.P,U1,21,(int3)#D3*%
%TO.N,unconnected-(U1-(int3)#D3-Pad21)*%
X127900000Y-85230000D03*
%TO.P,U1,22,D4*%
%TO.N,Net-(Q2-G)*%
X127900000Y-82690000D03*
%TO.P,U1,23,#D5*%
%TO.N,unconnected-(U1-#D5-Pad23)*%
X127900000Y-80150000D03*
%TO.P,U1,24,#D6*%
%TO.N,unconnected-(U1-#D6-Pad24)*%
X127900000Y-77610000D03*
%TO.P,U1,25,D7*%
%TO.N,unconnected-(U1-D7-Pad25)*%
X127900000Y-75070000D03*
%TO.P,U1,26,D8*%
%TO.N,Net-(Q1-G)*%
X127900000Y-72530000D03*
%TO.P,U1,27,#D9*%
%TO.N,unconnected-(U1-#D9-Pad27)*%
X127900000Y-69990000D03*
%TO.P,U1,28,(SS)#D10*%
%TO.N,unconnected-(U1-(SS)#D10-Pad28)*%
X127900000Y-67450000D03*
%TO.P,U1,29,(MOSI)#D11*%
%TO.N,Net-(J1-Pin_3)*%
X127900000Y-64910000D03*
%TO.P,U1,30,(MISO)D12*%
%TO.N,Net-(J1-Pin_4)*%
X127900000Y-62370000D03*
%TD*%
D12*
%TO.P,P5,1,P1*%
%TO.N,Net-(P5-P1)*%
X103360000Y-103460000D03*
D13*
%TO.P,P5,2,P2*%
%TO.N,GND*%
X103360000Y-98380000D03*
%TD*%
D25*
%TO.N,+5V*%
X112330000Y-59550000D03*
%TD*%
D26*
%TO.N,GND*%
X103360000Y-98380000D02*
X106430000Y-98380000D01*
X126760000Y-112880000D02*
X132750000Y-112880000D01*
X105030000Y-61620000D02*
X108210000Y-64800000D01*
X108210000Y-98000000D02*
X108210000Y-100160000D01*
X110820000Y-95390000D02*
X108210000Y-98000000D01*
X105960000Y-108880000D02*
X109960000Y-112880000D01*
X103360000Y-108880000D02*
X105960000Y-108880000D01*
X127700000Y-116260000D02*
X123380000Y-116260000D01*
X125860000Y-112880000D02*
X126760000Y-112880000D01*
X114750000Y-112880000D02*
X118130000Y-116260000D01*
X127900000Y-90310000D02*
X130063000Y-90310000D01*
X125700000Y-110900000D02*
X123720000Y-112880000D01*
D27*
X121310000Y-53570000D02*
X121310000Y-109500000D01*
D26*
X131793000Y-92040000D02*
X131793000Y-101530000D01*
X109960000Y-112880000D02*
X117930000Y-112880000D01*
X112660000Y-95390000D02*
X110820000Y-95390000D01*
X123380000Y-116260000D02*
X116900000Y-116260000D01*
X126956500Y-112880000D02*
X126760000Y-112880000D01*
X129840000Y-109996500D02*
X126956500Y-112880000D01*
X134010000Y-74890000D02*
X131793000Y-77107000D01*
D27*
X121300000Y-53560000D02*
X121310000Y-53570000D01*
D26*
X125700000Y-109210000D02*
X125700000Y-110900000D01*
X112880000Y-108880000D02*
X113470000Y-109470000D01*
X132750000Y-112880000D02*
X134010000Y-111620000D01*
X117930000Y-112880000D02*
X123720000Y-112880000D01*
X118130000Y-116260000D02*
X116900000Y-116260000D01*
X106430000Y-98380000D02*
X108210000Y-100160000D01*
X108210000Y-84380000D02*
X108210000Y-90910000D01*
X103360000Y-108880000D02*
X112880000Y-108880000D01*
X131793000Y-101530000D02*
X129840000Y-103483000D01*
X105160000Y-87860000D02*
X108210000Y-90910000D01*
X128650000Y-116260000D02*
X127700000Y-116260000D01*
X108210000Y-64800000D02*
X108210000Y-84380000D01*
X103360000Y-87860000D02*
X105160000Y-87860000D01*
X119620000Y-117750000D02*
X118130000Y-116260000D01*
X108210000Y-90910000D02*
X108210000Y-94430000D01*
X103360000Y-82340000D02*
X106170000Y-82340000D01*
X130063000Y-90310000D02*
X131793000Y-92040000D01*
X129840000Y-103483000D02*
X129840000Y-109996500D01*
X131793000Y-77107000D02*
X131793000Y-92040000D01*
X124610000Y-112880000D02*
X123720000Y-112880000D01*
X103360000Y-61620000D02*
X105030000Y-61620000D01*
X108210000Y-94430000D02*
X108210000Y-98000000D01*
X116900000Y-116260000D02*
X110460000Y-116260000D01*
X106170000Y-82340000D02*
X108210000Y-84380000D01*
X109960000Y-112880000D02*
X114750000Y-112880000D01*
X108210000Y-100160000D02*
X108210000Y-106630000D01*
X123720000Y-112880000D02*
X125860000Y-112880000D01*
D27*
X121310000Y-109500000D02*
X117930000Y-112880000D01*
D26*
X119620000Y-119710000D02*
X119620000Y-117750000D01*
X108210000Y-106630000D02*
X105960000Y-108880000D01*
D27*
%TO.N,+5V*%
X112330000Y-52620000D02*
X112330000Y-59550000D01*
X123840000Y-53180000D02*
X123850000Y-53170000D01*
X122540000Y-50760000D02*
X114190000Y-50760000D01*
X123850000Y-52070000D02*
X122540000Y-50760000D01*
X123840000Y-53560000D02*
X123840000Y-53180000D01*
X123850000Y-53170000D02*
X123850000Y-52070000D01*
X114190000Y-50760000D02*
X112330000Y-52620000D01*
%TD*%
D28*
X96000000Y-46000000D02*
X146000000Y-46000000D01*
X146000000Y-135000000D01*
X96000000Y-135000000D01*
X96000000Y-46000000D01*
M02*
