%TF.GenerationSoftware,KiCad,Pcbnew,9.0.2-9.0.2-0~ubuntu25.04.1*%
%TF.CreationDate,2025-06-29T21:17:21+02:00*%
%TF.ProjectId,aecp_Nano_V4_main_board,61656370-5f4e-4616-9e6f-5f56345f6d61,rev?*%
%TF.SameCoordinates,Original*%
%TF.FileFunction,Soldermask,Top*%
%TF.FilePolarity,Negative*%
%FSLAX46Y46*%
G04 Gerber Fmt 4.6, Leading zero omitted, Abs format (unit mm)*
G04 Created by KiCad (PCBNEW 9.0.2-9.0.2-0~ubuntu25.04.1) date 2025-06-29 21:17:21*
%MOMM*%
%LPD*%
G01*
G04 APERTURE LIST*
G04 Aperture macros list*
%AMRoundRect*
0 Rectangle with rounded corners*
0 $1 Rounding radius*
0 $2 $3 $4 $5 $6 $7 $8 $9 X,Y pos of 4 corners*
0 Add a 4 corners polygon primitive as box body*
4,1,4,$2,$3,$4,$5,$6,$7,$8,$9,$2,$3,0*
0 Add four circle primitives for the rounded corners*
1,1,$1+$1,$2,$3*
1,1,$1+$1,$4,$5*
1,1,$1+$1,$6,$7*
1,1,$1+$1,$8,$9*
0 Add four rect primitives between the rounded corners*
20,1,$1+$1,$2,$3,$4,$5,0*
20,1,$1+$1,$4,$5,$6,$7,0*
20,1,$1+$1,$6,$7,$8,$9,0*
20,1,$1+$1,$8,$9,$2,$3,0*%
G04 Aperture macros list end*
%ADD10C,0.800000*%
%ADD11C,6.000000*%
%ADD12R,3.000000X3.000000*%
%ADD13C,3.000000*%
%ADD14RoundRect,0.249999X-0.850001X-0.850001X0.850001X-0.850001X0.850001X0.850001X-0.850001X0.850001X0*%
%ADD15C,2.200000*%
%ADD16C,1.600000*%
%ADD17RoundRect,0.250000X0.550000X0.550000X-0.550000X0.550000X-0.550000X-0.550000X0.550000X-0.550000X0*%
%ADD18R,1.700000X1.700000*%
%ADD19C,1.700000*%
%ADD20O,1.905000X3.096000*%
%ADD21O,3.096000X1.905000*%
%ADD22RoundRect,0.250000X-0.550000X-0.550000X0.550000X-0.550000X0.550000X0.550000X-0.550000X0.550000X0*%
%ADD23R,2.286000X1.574800*%
%ADD24O,2.286000X1.574800*%
%TA.AperFunction,Profile*%
%ADD25C,0.050000*%
%TD*%
G04 APERTURE END LIST*
D10*
%TO.C,H2*%
X139750000Y-50000000D03*
X140409010Y-48409010D03*
X140409010Y-51590990D03*
X142000000Y-47750000D03*
D11*
X142000000Y-50000000D03*
D10*
X142000000Y-52250000D03*
X143590990Y-48409010D03*
X143590990Y-51590990D03*
X144250000Y-50000000D03*
%TD*%
D12*
%TO.C,P1*%
X103360000Y-124500000D03*
D13*
X103360000Y-119420000D03*
%TD*%
D12*
%TO.C,P2*%
X103360000Y-66700000D03*
D13*
X103360000Y-61620000D03*
X103360000Y-56540000D03*
%TD*%
D14*
%TO.C,D1*%
X114610000Y-124980000D03*
D15*
X124770000Y-124980000D03*
%TD*%
D12*
%TO.C,P6*%
X103360000Y-113960000D03*
D13*
X103360000Y-108880000D03*
%TD*%
D16*
%TO.C,C2*%
X128650000Y-121260000D03*
X128650000Y-116260000D03*
%TD*%
D17*
%TO.C,C4*%
X115970000Y-109470000D03*
D16*
X113470000Y-109470000D03*
%TD*%
D18*
%TO.C,J1*%
X123840000Y-53560000D03*
D19*
X121300000Y-53560000D03*
X118760000Y-53560000D03*
X116220000Y-53560000D03*
%TD*%
D20*
%TO.C,U2*%
X117080000Y-119710000D03*
X119620000Y-119710000D03*
X122160000Y-119710000D03*
%TD*%
D10*
%TO.C,H1*%
X97750000Y-50000000D03*
X98409010Y-48409010D03*
X98409010Y-51590990D03*
X100000000Y-47750000D03*
D11*
X100000000Y-50000000D03*
D10*
X100000000Y-52250000D03*
X101590990Y-48409010D03*
X101590990Y-51590990D03*
X102250000Y-50000000D03*
%TD*%
D12*
%TO.C,P3*%
X103360000Y-82340000D03*
D13*
X103360000Y-77260000D03*
X103360000Y-72180000D03*
%TD*%
D21*
%TO.C,Q1*%
X134010000Y-69810000D03*
X134010000Y-72350000D03*
X134010000Y-74890000D03*
%TD*%
D12*
%TO.C,P4*%
X103360000Y-92940000D03*
D13*
X103360000Y-87860000D03*
%TD*%
D10*
%TO.C,H4*%
X139750000Y-131000000D03*
X140409010Y-129409010D03*
X140409010Y-132590990D03*
X142000000Y-128750000D03*
D11*
X142000000Y-131000000D03*
D10*
X142000000Y-133250000D03*
X143590990Y-129409010D03*
X143590990Y-132590990D03*
X144250000Y-131000000D03*
%TD*%
D21*
%TO.C,Q2*%
X134010000Y-106540000D03*
X134010000Y-109080000D03*
X134010000Y-111620000D03*
%TD*%
D22*
%TO.C,C1*%
X123200000Y-109210000D03*
D16*
X125700000Y-109210000D03*
%TD*%
%TO.C,C3*%
X110460000Y-121260000D03*
X110460000Y-116260000D03*
%TD*%
D10*
%TO.C,H3*%
X97750000Y-131000000D03*
X98409010Y-129409010D03*
X98409010Y-132590990D03*
X100000000Y-128750000D03*
D11*
X100000000Y-131000000D03*
D10*
X100000000Y-133250000D03*
X101590990Y-129409010D03*
X101590990Y-132590990D03*
X102250000Y-131000000D03*
%TD*%
D11*
%TO.C,HS2*%
X138310000Y-121760000D03*
X138310000Y-96360000D03*
%TD*%
%TO.C,HS1*%
X138310000Y-85030000D03*
X138310000Y-59630000D03*
%TD*%
D23*
%TO.C,U1*%
X112660000Y-62370000D03*
D24*
X112660000Y-64910000D03*
X112660000Y-67450000D03*
X112660000Y-69990000D03*
X112660000Y-72530000D03*
X112660000Y-75070000D03*
X112660000Y-77610000D03*
X112660000Y-80150000D03*
X112660000Y-82690000D03*
X112660000Y-85230000D03*
X112660000Y-87770000D03*
X112660000Y-90310000D03*
X112660000Y-92850000D03*
X112660000Y-95390000D03*
X112660000Y-97930000D03*
X127900000Y-97930000D03*
X127900000Y-95390000D03*
X127900000Y-92850000D03*
X127900000Y-90310000D03*
X127900000Y-87770000D03*
X127900000Y-85230000D03*
X127900000Y-82690000D03*
X127900000Y-80150000D03*
X127900000Y-77610000D03*
X127900000Y-75070000D03*
X127900000Y-72530000D03*
X127900000Y-69990000D03*
X127900000Y-67450000D03*
X127900000Y-64910000D03*
X127900000Y-62370000D03*
%TD*%
D12*
%TO.C,P5*%
X103360000Y-103460000D03*
D13*
X103360000Y-98380000D03*
%TD*%
D25*
X96000000Y-46000000D02*
X146000000Y-46000000D01*
X146000000Y-135000000D01*
X96000000Y-135000000D01*
X96000000Y-46000000D01*
M02*
