%TF.GenerationSoftware,KiCad,Pcbnew,9.0.2-9.0.2-0~ubuntu25.04.1*%
%TF.CreationDate,2025-06-29T21:17:20+02:00*%
%TF.ProjectId,aecp_Nano_V4_main_board,61656370-5f4e-4616-9e6f-5f56345f6d61,rev?*%
%TF.SameCoordinates,Original*%
%TF.FileFunction,Legend,Top*%
%TF.FilePolarity,Positive*%
%FSLAX46Y46*%
G04 Gerber Fmt 4.6, Leading zero omitted, Abs format (unit mm)*
G04 Created by KiCad (PCBNEW 9.0.2-9.0.2-0~ubuntu25.04.1) date 2025-06-29 21:17:20*
%MOMM*%
%LPD*%
G01*
G04 APERTURE LIST*
%ADD10C,0.300000*%
%ADD11C,0.150000*%
%ADD12C,0.304800*%
%ADD13C,0.120000*%
%ADD14C,0.100000*%
%ADD15C,0.381000*%
%ADD16R,2.286000X1.574800*%
%ADD17O,2.286000X1.574800*%
%TA.AperFunction,Profile*%
%ADD18C,0.050000*%
%TD*%
G04 APERTURE END LIST*
D10*
X96882257Y-88599774D02*
X96810828Y-88742632D01*
X96810828Y-88742632D02*
X96810828Y-88956917D01*
X96810828Y-88956917D02*
X96882257Y-89171203D01*
X96882257Y-89171203D02*
X97025114Y-89314060D01*
X97025114Y-89314060D02*
X97167971Y-89385489D01*
X97167971Y-89385489D02*
X97453685Y-89456917D01*
X97453685Y-89456917D02*
X97667971Y-89456917D01*
X97667971Y-89456917D02*
X97953685Y-89385489D01*
X97953685Y-89385489D02*
X98096542Y-89314060D01*
X98096542Y-89314060D02*
X98239400Y-89171203D01*
X98239400Y-89171203D02*
X98310828Y-88956917D01*
X98310828Y-88956917D02*
X98310828Y-88814060D01*
X98310828Y-88814060D02*
X98239400Y-88599774D01*
X98239400Y-88599774D02*
X98167971Y-88528346D01*
X98167971Y-88528346D02*
X97667971Y-88528346D01*
X97667971Y-88528346D02*
X97667971Y-88814060D01*
X97310828Y-87885489D02*
X98310828Y-87885489D01*
X97453685Y-87885489D02*
X97382257Y-87814060D01*
X97382257Y-87814060D02*
X97310828Y-87671203D01*
X97310828Y-87671203D02*
X97310828Y-87456917D01*
X97310828Y-87456917D02*
X97382257Y-87314060D01*
X97382257Y-87314060D02*
X97525114Y-87242632D01*
X97525114Y-87242632D02*
X98310828Y-87242632D01*
X98310828Y-85885489D02*
X96810828Y-85885489D01*
X98239400Y-85885489D02*
X98310828Y-86028346D01*
X98310828Y-86028346D02*
X98310828Y-86314060D01*
X98310828Y-86314060D02*
X98239400Y-86456917D01*
X98239400Y-86456917D02*
X98167971Y-86528346D01*
X98167971Y-86528346D02*
X98025114Y-86599774D01*
X98025114Y-86599774D02*
X97596542Y-86599774D01*
X97596542Y-86599774D02*
X97453685Y-86528346D01*
X97453685Y-86528346D02*
X97382257Y-86456917D01*
X97382257Y-86456917D02*
X97310828Y-86314060D01*
X97310828Y-86314060D02*
X97310828Y-86028346D01*
X97310828Y-86028346D02*
X97382257Y-85885489D01*
X98310828Y-57135489D02*
X96810828Y-57135489D01*
X97310828Y-56421203D02*
X98310828Y-56421203D01*
X97453685Y-56421203D02*
X97382257Y-56349774D01*
X97382257Y-56349774D02*
X97310828Y-56206917D01*
X97310828Y-56206917D02*
X97310828Y-55992631D01*
X97310828Y-55992631D02*
X97382257Y-55849774D01*
X97382257Y-55849774D02*
X97525114Y-55778346D01*
X97525114Y-55778346D02*
X98310828Y-55778346D01*
X98167971Y-119618346D02*
X98239400Y-119689774D01*
X98239400Y-119689774D02*
X98310828Y-119904060D01*
X98310828Y-119904060D02*
X98310828Y-120046917D01*
X98310828Y-120046917D02*
X98239400Y-120261203D01*
X98239400Y-120261203D02*
X98096542Y-120404060D01*
X98096542Y-120404060D02*
X97953685Y-120475489D01*
X97953685Y-120475489D02*
X97667971Y-120546917D01*
X97667971Y-120546917D02*
X97453685Y-120546917D01*
X97453685Y-120546917D02*
X97167971Y-120475489D01*
X97167971Y-120475489D02*
X97025114Y-120404060D01*
X97025114Y-120404060D02*
X96882257Y-120261203D01*
X96882257Y-120261203D02*
X96810828Y-120046917D01*
X96810828Y-120046917D02*
X96810828Y-119904060D01*
X96810828Y-119904060D02*
X96882257Y-119689774D01*
X96882257Y-119689774D02*
X96953685Y-119618346D01*
X96953685Y-119046917D02*
X96882257Y-118975489D01*
X96882257Y-118975489D02*
X96810828Y-118832632D01*
X96810828Y-118832632D02*
X96810828Y-118475489D01*
X96810828Y-118475489D02*
X96882257Y-118332632D01*
X96882257Y-118332632D02*
X96953685Y-118261203D01*
X96953685Y-118261203D02*
X97096542Y-118189774D01*
X97096542Y-118189774D02*
X97239400Y-118189774D01*
X97239400Y-118189774D02*
X97453685Y-118261203D01*
X97453685Y-118261203D02*
X98310828Y-119118346D01*
X98310828Y-119118346D02*
X98310828Y-118189774D01*
X96882257Y-82939774D02*
X96810828Y-83082632D01*
X96810828Y-83082632D02*
X96810828Y-83296917D01*
X96810828Y-83296917D02*
X96882257Y-83511203D01*
X96882257Y-83511203D02*
X97025114Y-83654060D01*
X97025114Y-83654060D02*
X97167971Y-83725489D01*
X97167971Y-83725489D02*
X97453685Y-83796917D01*
X97453685Y-83796917D02*
X97667971Y-83796917D01*
X97667971Y-83796917D02*
X97953685Y-83725489D01*
X97953685Y-83725489D02*
X98096542Y-83654060D01*
X98096542Y-83654060D02*
X98239400Y-83511203D01*
X98239400Y-83511203D02*
X98310828Y-83296917D01*
X98310828Y-83296917D02*
X98310828Y-83154060D01*
X98310828Y-83154060D02*
X98239400Y-82939774D01*
X98239400Y-82939774D02*
X98167971Y-82868346D01*
X98167971Y-82868346D02*
X97667971Y-82868346D01*
X97667971Y-82868346D02*
X97667971Y-83154060D01*
X97310828Y-82225489D02*
X98310828Y-82225489D01*
X97453685Y-82225489D02*
X97382257Y-82154060D01*
X97382257Y-82154060D02*
X97310828Y-82011203D01*
X97310828Y-82011203D02*
X97310828Y-81796917D01*
X97310828Y-81796917D02*
X97382257Y-81654060D01*
X97382257Y-81654060D02*
X97525114Y-81582632D01*
X97525114Y-81582632D02*
X98310828Y-81582632D01*
X98310828Y-80225489D02*
X96810828Y-80225489D01*
X98239400Y-80225489D02*
X98310828Y-80368346D01*
X98310828Y-80368346D02*
X98310828Y-80654060D01*
X98310828Y-80654060D02*
X98239400Y-80796917D01*
X98239400Y-80796917D02*
X98167971Y-80868346D01*
X98167971Y-80868346D02*
X98025114Y-80939774D01*
X98025114Y-80939774D02*
X97596542Y-80939774D01*
X97596542Y-80939774D02*
X97453685Y-80868346D01*
X97453685Y-80868346D02*
X97382257Y-80796917D01*
X97382257Y-80796917D02*
X97310828Y-80654060D01*
X97310828Y-80654060D02*
X97310828Y-80368346D01*
X97310828Y-80368346D02*
X97382257Y-80225489D01*
X96882257Y-99279774D02*
X96810828Y-99422632D01*
X96810828Y-99422632D02*
X96810828Y-99636917D01*
X96810828Y-99636917D02*
X96882257Y-99851203D01*
X96882257Y-99851203D02*
X97025114Y-99994060D01*
X97025114Y-99994060D02*
X97167971Y-100065489D01*
X97167971Y-100065489D02*
X97453685Y-100136917D01*
X97453685Y-100136917D02*
X97667971Y-100136917D01*
X97667971Y-100136917D02*
X97953685Y-100065489D01*
X97953685Y-100065489D02*
X98096542Y-99994060D01*
X98096542Y-99994060D02*
X98239400Y-99851203D01*
X98239400Y-99851203D02*
X98310828Y-99636917D01*
X98310828Y-99636917D02*
X98310828Y-99494060D01*
X98310828Y-99494060D02*
X98239400Y-99279774D01*
X98239400Y-99279774D02*
X98167971Y-99208346D01*
X98167971Y-99208346D02*
X97667971Y-99208346D01*
X97667971Y-99208346D02*
X97667971Y-99494060D01*
X97310828Y-98565489D02*
X98310828Y-98565489D01*
X97453685Y-98565489D02*
X97382257Y-98494060D01*
X97382257Y-98494060D02*
X97310828Y-98351203D01*
X97310828Y-98351203D02*
X97310828Y-98136917D01*
X97310828Y-98136917D02*
X97382257Y-97994060D01*
X97382257Y-97994060D02*
X97525114Y-97922632D01*
X97525114Y-97922632D02*
X98310828Y-97922632D01*
X98310828Y-96565489D02*
X96810828Y-96565489D01*
X98239400Y-96565489D02*
X98310828Y-96708346D01*
X98310828Y-96708346D02*
X98310828Y-96994060D01*
X98310828Y-96994060D02*
X98239400Y-97136917D01*
X98239400Y-97136917D02*
X98167971Y-97208346D01*
X98167971Y-97208346D02*
X98025114Y-97279774D01*
X98025114Y-97279774D02*
X97596542Y-97279774D01*
X97596542Y-97279774D02*
X97453685Y-97208346D01*
X97453685Y-97208346D02*
X97382257Y-97136917D01*
X97382257Y-97136917D02*
X97310828Y-96994060D01*
X97310828Y-96994060D02*
X97310828Y-96708346D01*
X97310828Y-96708346D02*
X97382257Y-96565489D01*
X98167971Y-124648346D02*
X98239400Y-124719774D01*
X98239400Y-124719774D02*
X98310828Y-124934060D01*
X98310828Y-124934060D02*
X98310828Y-125076917D01*
X98310828Y-125076917D02*
X98239400Y-125291203D01*
X98239400Y-125291203D02*
X98096542Y-125434060D01*
X98096542Y-125434060D02*
X97953685Y-125505489D01*
X97953685Y-125505489D02*
X97667971Y-125576917D01*
X97667971Y-125576917D02*
X97453685Y-125576917D01*
X97453685Y-125576917D02*
X97167971Y-125505489D01*
X97167971Y-125505489D02*
X97025114Y-125434060D01*
X97025114Y-125434060D02*
X96882257Y-125291203D01*
X96882257Y-125291203D02*
X96810828Y-125076917D01*
X96810828Y-125076917D02*
X96810828Y-124934060D01*
X96810828Y-124934060D02*
X96882257Y-124719774D01*
X96882257Y-124719774D02*
X96953685Y-124648346D01*
X98310828Y-123219774D02*
X98310828Y-124076917D01*
X98310828Y-123648346D02*
X96810828Y-123648346D01*
X96810828Y-123648346D02*
X97025114Y-123791203D01*
X97025114Y-123791203D02*
X97167971Y-123934060D01*
X97167971Y-123934060D02*
X97239400Y-124076917D01*
X96882257Y-62439774D02*
X96810828Y-62582632D01*
X96810828Y-62582632D02*
X96810828Y-62796917D01*
X96810828Y-62796917D02*
X96882257Y-63011203D01*
X96882257Y-63011203D02*
X97025114Y-63154060D01*
X97025114Y-63154060D02*
X97167971Y-63225489D01*
X97167971Y-63225489D02*
X97453685Y-63296917D01*
X97453685Y-63296917D02*
X97667971Y-63296917D01*
X97667971Y-63296917D02*
X97953685Y-63225489D01*
X97953685Y-63225489D02*
X98096542Y-63154060D01*
X98096542Y-63154060D02*
X98239400Y-63011203D01*
X98239400Y-63011203D02*
X98310828Y-62796917D01*
X98310828Y-62796917D02*
X98310828Y-62654060D01*
X98310828Y-62654060D02*
X98239400Y-62439774D01*
X98239400Y-62439774D02*
X98167971Y-62368346D01*
X98167971Y-62368346D02*
X97667971Y-62368346D01*
X97667971Y-62368346D02*
X97667971Y-62654060D01*
X97310828Y-61725489D02*
X98310828Y-61725489D01*
X97453685Y-61725489D02*
X97382257Y-61654060D01*
X97382257Y-61654060D02*
X97310828Y-61511203D01*
X97310828Y-61511203D02*
X97310828Y-61296917D01*
X97310828Y-61296917D02*
X97382257Y-61154060D01*
X97382257Y-61154060D02*
X97525114Y-61082632D01*
X97525114Y-61082632D02*
X98310828Y-61082632D01*
X98310828Y-59725489D02*
X96810828Y-59725489D01*
X98239400Y-59725489D02*
X98310828Y-59868346D01*
X98310828Y-59868346D02*
X98310828Y-60154060D01*
X98310828Y-60154060D02*
X98239400Y-60296917D01*
X98239400Y-60296917D02*
X98167971Y-60368346D01*
X98167971Y-60368346D02*
X98025114Y-60439774D01*
X98025114Y-60439774D02*
X97596542Y-60439774D01*
X97596542Y-60439774D02*
X97453685Y-60368346D01*
X97453685Y-60368346D02*
X97382257Y-60296917D01*
X97382257Y-60296917D02*
X97310828Y-60154060D01*
X97310828Y-60154060D02*
X97310828Y-59868346D01*
X97310828Y-59868346D02*
X97382257Y-59725489D01*
X108198572Y-128342425D02*
X108912858Y-128342425D01*
X108055715Y-128770996D02*
X108555715Y-127270996D01*
X108555715Y-127270996D02*
X109055715Y-128770996D01*
X109770000Y-128770996D02*
X109627143Y-128699568D01*
X109627143Y-128699568D02*
X109555714Y-128556710D01*
X109555714Y-128556710D02*
X109555714Y-127270996D01*
X110555714Y-128770996D02*
X110412857Y-128699568D01*
X110412857Y-128699568D02*
X110341428Y-128556710D01*
X110341428Y-128556710D02*
X110341428Y-127270996D01*
X111770000Y-127770996D02*
X111770000Y-128770996D01*
X111127142Y-127770996D02*
X111127142Y-128556710D01*
X111127142Y-128556710D02*
X111198571Y-128699568D01*
X111198571Y-128699568D02*
X111341428Y-128770996D01*
X111341428Y-128770996D02*
X111555714Y-128770996D01*
X111555714Y-128770996D02*
X111698571Y-128699568D01*
X111698571Y-128699568D02*
X111770000Y-128628139D01*
X112484285Y-128770996D02*
X112484285Y-127770996D01*
X112484285Y-127913853D02*
X112555714Y-127842425D01*
X112555714Y-127842425D02*
X112698571Y-127770996D01*
X112698571Y-127770996D02*
X112912857Y-127770996D01*
X112912857Y-127770996D02*
X113055714Y-127842425D01*
X113055714Y-127842425D02*
X113127143Y-127985282D01*
X113127143Y-127985282D02*
X113127143Y-128770996D01*
X113127143Y-127985282D02*
X113198571Y-127842425D01*
X113198571Y-127842425D02*
X113341428Y-127770996D01*
X113341428Y-127770996D02*
X113555714Y-127770996D01*
X113555714Y-127770996D02*
X113698571Y-127842425D01*
X113698571Y-127842425D02*
X113770000Y-127985282D01*
X113770000Y-127985282D02*
X113770000Y-128770996D01*
X115127143Y-128770996D02*
X115127143Y-127985282D01*
X115127143Y-127985282D02*
X115055714Y-127842425D01*
X115055714Y-127842425D02*
X114912857Y-127770996D01*
X114912857Y-127770996D02*
X114627143Y-127770996D01*
X114627143Y-127770996D02*
X114484285Y-127842425D01*
X115127143Y-128699568D02*
X114984285Y-128770996D01*
X114984285Y-128770996D02*
X114627143Y-128770996D01*
X114627143Y-128770996D02*
X114484285Y-128699568D01*
X114484285Y-128699568D02*
X114412857Y-128556710D01*
X114412857Y-128556710D02*
X114412857Y-128413853D01*
X114412857Y-128413853D02*
X114484285Y-128270996D01*
X114484285Y-128270996D02*
X114627143Y-128199568D01*
X114627143Y-128199568D02*
X114984285Y-128199568D01*
X114984285Y-128199568D02*
X115127143Y-128128139D01*
X116484286Y-127770996D02*
X116484286Y-128985282D01*
X116484286Y-128985282D02*
X116412857Y-129128139D01*
X116412857Y-129128139D02*
X116341428Y-129199568D01*
X116341428Y-129199568D02*
X116198571Y-129270996D01*
X116198571Y-129270996D02*
X115984286Y-129270996D01*
X115984286Y-129270996D02*
X115841428Y-129199568D01*
X116484286Y-128699568D02*
X116341428Y-128770996D01*
X116341428Y-128770996D02*
X116055714Y-128770996D01*
X116055714Y-128770996D02*
X115912857Y-128699568D01*
X115912857Y-128699568D02*
X115841428Y-128628139D01*
X115841428Y-128628139D02*
X115770000Y-128485282D01*
X115770000Y-128485282D02*
X115770000Y-128056710D01*
X115770000Y-128056710D02*
X115841428Y-127913853D01*
X115841428Y-127913853D02*
X115912857Y-127842425D01*
X115912857Y-127842425D02*
X116055714Y-127770996D01*
X116055714Y-127770996D02*
X116341428Y-127770996D01*
X116341428Y-127770996D02*
X116484286Y-127842425D01*
X117770000Y-128699568D02*
X117627143Y-128770996D01*
X117627143Y-128770996D02*
X117341429Y-128770996D01*
X117341429Y-128770996D02*
X117198571Y-128699568D01*
X117198571Y-128699568D02*
X117127143Y-128556710D01*
X117127143Y-128556710D02*
X117127143Y-127985282D01*
X117127143Y-127985282D02*
X117198571Y-127842425D01*
X117198571Y-127842425D02*
X117341429Y-127770996D01*
X117341429Y-127770996D02*
X117627143Y-127770996D01*
X117627143Y-127770996D02*
X117770000Y-127842425D01*
X117770000Y-127842425D02*
X117841429Y-127985282D01*
X117841429Y-127985282D02*
X117841429Y-128128139D01*
X117841429Y-128128139D02*
X117127143Y-128270996D01*
X120198571Y-128699568D02*
X120055714Y-128770996D01*
X120055714Y-128770996D02*
X119770000Y-128770996D01*
X119770000Y-128770996D02*
X119627142Y-128699568D01*
X119627142Y-128699568D02*
X119555714Y-128556710D01*
X119555714Y-128556710D02*
X119555714Y-127985282D01*
X119555714Y-127985282D02*
X119627142Y-127842425D01*
X119627142Y-127842425D02*
X119770000Y-127770996D01*
X119770000Y-127770996D02*
X120055714Y-127770996D01*
X120055714Y-127770996D02*
X120198571Y-127842425D01*
X120198571Y-127842425D02*
X120270000Y-127985282D01*
X120270000Y-127985282D02*
X120270000Y-128128139D01*
X120270000Y-128128139D02*
X119555714Y-128270996D01*
X120055714Y-127199568D02*
X119841428Y-127413853D01*
X121127142Y-128770996D02*
X120984285Y-128699568D01*
X120984285Y-128699568D02*
X120912856Y-128556710D01*
X120912856Y-128556710D02*
X120912856Y-127270996D01*
X122269999Y-128699568D02*
X122127142Y-128770996D01*
X122127142Y-128770996D02*
X121841428Y-128770996D01*
X121841428Y-128770996D02*
X121698570Y-128699568D01*
X121698570Y-128699568D02*
X121627142Y-128556710D01*
X121627142Y-128556710D02*
X121627142Y-127985282D01*
X121627142Y-127985282D02*
X121698570Y-127842425D01*
X121698570Y-127842425D02*
X121841428Y-127770996D01*
X121841428Y-127770996D02*
X122127142Y-127770996D01*
X122127142Y-127770996D02*
X122269999Y-127842425D01*
X122269999Y-127842425D02*
X122341428Y-127985282D01*
X122341428Y-127985282D02*
X122341428Y-128128139D01*
X122341428Y-128128139D02*
X121627142Y-128270996D01*
X123627142Y-128699568D02*
X123484284Y-128770996D01*
X123484284Y-128770996D02*
X123198570Y-128770996D01*
X123198570Y-128770996D02*
X123055713Y-128699568D01*
X123055713Y-128699568D02*
X122984284Y-128628139D01*
X122984284Y-128628139D02*
X122912856Y-128485282D01*
X122912856Y-128485282D02*
X122912856Y-128056710D01*
X122912856Y-128056710D02*
X122984284Y-127913853D01*
X122984284Y-127913853D02*
X123055713Y-127842425D01*
X123055713Y-127842425D02*
X123198570Y-127770996D01*
X123198570Y-127770996D02*
X123484284Y-127770996D01*
X123484284Y-127770996D02*
X123627142Y-127842425D01*
X124055713Y-127770996D02*
X124627141Y-127770996D01*
X124269998Y-127270996D02*
X124269998Y-128556710D01*
X124269998Y-128556710D02*
X124341427Y-128699568D01*
X124341427Y-128699568D02*
X124484284Y-128770996D01*
X124484284Y-128770996D02*
X124627141Y-128770996D01*
X125127141Y-128770996D02*
X125127141Y-127770996D01*
X125127141Y-128056710D02*
X125198570Y-127913853D01*
X125198570Y-127913853D02*
X125269999Y-127842425D01*
X125269999Y-127842425D02*
X125412856Y-127770996D01*
X125412856Y-127770996D02*
X125555713Y-127770996D01*
X126269998Y-128770996D02*
X126127141Y-128699568D01*
X126127141Y-128699568D02*
X126055712Y-128628139D01*
X126055712Y-128628139D02*
X125984284Y-128485282D01*
X125984284Y-128485282D02*
X125984284Y-128056710D01*
X125984284Y-128056710D02*
X126055712Y-127913853D01*
X126055712Y-127913853D02*
X126127141Y-127842425D01*
X126127141Y-127842425D02*
X126269998Y-127770996D01*
X126269998Y-127770996D02*
X126484284Y-127770996D01*
X126484284Y-127770996D02*
X126627141Y-127842425D01*
X126627141Y-127842425D02*
X126698570Y-127913853D01*
X126698570Y-127913853D02*
X126769998Y-128056710D01*
X126769998Y-128056710D02*
X126769998Y-128485282D01*
X126769998Y-128485282D02*
X126698570Y-128628139D01*
X126698570Y-128628139D02*
X126627141Y-128699568D01*
X126627141Y-128699568D02*
X126484284Y-128770996D01*
X126484284Y-128770996D02*
X126269998Y-128770996D01*
X127412855Y-127770996D02*
X127412855Y-128770996D01*
X127412855Y-127913853D02*
X127484284Y-127842425D01*
X127484284Y-127842425D02*
X127627141Y-127770996D01*
X127627141Y-127770996D02*
X127841427Y-127770996D01*
X127841427Y-127770996D02*
X127984284Y-127842425D01*
X127984284Y-127842425D02*
X128055713Y-127985282D01*
X128055713Y-127985282D02*
X128055713Y-128770996D01*
X128769998Y-128770996D02*
X128769998Y-127770996D01*
X128769998Y-127270996D02*
X128698570Y-127342425D01*
X128698570Y-127342425D02*
X128769998Y-127413853D01*
X128769998Y-127413853D02*
X128841427Y-127342425D01*
X128841427Y-127342425D02*
X128769998Y-127270996D01*
X128769998Y-127270996D02*
X128769998Y-127413853D01*
X130127142Y-127770996D02*
X130127142Y-129270996D01*
X130127142Y-128699568D02*
X129984284Y-128770996D01*
X129984284Y-128770996D02*
X129698570Y-128770996D01*
X129698570Y-128770996D02*
X129555713Y-128699568D01*
X129555713Y-128699568D02*
X129484284Y-128628139D01*
X129484284Y-128628139D02*
X129412856Y-128485282D01*
X129412856Y-128485282D02*
X129412856Y-128056710D01*
X129412856Y-128056710D02*
X129484284Y-127913853D01*
X129484284Y-127913853D02*
X129555713Y-127842425D01*
X129555713Y-127842425D02*
X129698570Y-127770996D01*
X129698570Y-127770996D02*
X129984284Y-127770996D01*
X129984284Y-127770996D02*
X130127142Y-127842425D01*
X131484285Y-127770996D02*
X131484285Y-128770996D01*
X130841427Y-127770996D02*
X130841427Y-128556710D01*
X130841427Y-128556710D02*
X130912856Y-128699568D01*
X130912856Y-128699568D02*
X131055713Y-128770996D01*
X131055713Y-128770996D02*
X131269999Y-128770996D01*
X131269999Y-128770996D02*
X131412856Y-128699568D01*
X131412856Y-128699568D02*
X131484285Y-128628139D01*
X132769999Y-128699568D02*
X132627142Y-128770996D01*
X132627142Y-128770996D02*
X132341428Y-128770996D01*
X132341428Y-128770996D02*
X132198570Y-128699568D01*
X132198570Y-128699568D02*
X132127142Y-128556710D01*
X132127142Y-128556710D02*
X132127142Y-127985282D01*
X132127142Y-127985282D02*
X132198570Y-127842425D01*
X132198570Y-127842425D02*
X132341428Y-127770996D01*
X132341428Y-127770996D02*
X132627142Y-127770996D01*
X132627142Y-127770996D02*
X132769999Y-127842425D01*
X132769999Y-127842425D02*
X132841428Y-127985282D01*
X132841428Y-127985282D02*
X132841428Y-128128139D01*
X132841428Y-128128139D02*
X132127142Y-128270996D01*
X113091429Y-131114484D02*
X112948571Y-131185912D01*
X112948571Y-131185912D02*
X112662857Y-131185912D01*
X112662857Y-131185912D02*
X112520000Y-131114484D01*
X112520000Y-131114484D02*
X112448571Y-131043055D01*
X112448571Y-131043055D02*
X112377143Y-130900198D01*
X112377143Y-130900198D02*
X112377143Y-130471626D01*
X112377143Y-130471626D02*
X112448571Y-130328769D01*
X112448571Y-130328769D02*
X112520000Y-130257341D01*
X112520000Y-130257341D02*
X112662857Y-130185912D01*
X112662857Y-130185912D02*
X112948571Y-130185912D01*
X112948571Y-130185912D02*
X113091429Y-130257341D01*
X114377143Y-131185912D02*
X114377143Y-130400198D01*
X114377143Y-130400198D02*
X114305714Y-130257341D01*
X114305714Y-130257341D02*
X114162857Y-130185912D01*
X114162857Y-130185912D02*
X113877143Y-130185912D01*
X113877143Y-130185912D02*
X113734285Y-130257341D01*
X114377143Y-131114484D02*
X114234285Y-131185912D01*
X114234285Y-131185912D02*
X113877143Y-131185912D01*
X113877143Y-131185912D02*
X113734285Y-131114484D01*
X113734285Y-131114484D02*
X113662857Y-130971626D01*
X113662857Y-130971626D02*
X113662857Y-130828769D01*
X113662857Y-130828769D02*
X113734285Y-130685912D01*
X113734285Y-130685912D02*
X113877143Y-130614484D01*
X113877143Y-130614484D02*
X114234285Y-130614484D01*
X114234285Y-130614484D02*
X114377143Y-130543055D01*
X115091428Y-131185912D02*
X115091428Y-130185912D01*
X115091428Y-130471626D02*
X115162857Y-130328769D01*
X115162857Y-130328769D02*
X115234286Y-130257341D01*
X115234286Y-130257341D02*
X115377143Y-130185912D01*
X115377143Y-130185912D02*
X115520000Y-130185912D01*
X115805714Y-130185912D02*
X116377142Y-130185912D01*
X116019999Y-129685912D02*
X116019999Y-130971626D01*
X116019999Y-130971626D02*
X116091428Y-131114484D01*
X116091428Y-131114484D02*
X116234285Y-131185912D01*
X116234285Y-131185912D02*
X116377142Y-131185912D01*
X117091428Y-131185912D02*
X116948571Y-131114484D01*
X116948571Y-131114484D02*
X116877142Y-131043055D01*
X116877142Y-131043055D02*
X116805714Y-130900198D01*
X116805714Y-130900198D02*
X116805714Y-130471626D01*
X116805714Y-130471626D02*
X116877142Y-130328769D01*
X116877142Y-130328769D02*
X116948571Y-130257341D01*
X116948571Y-130257341D02*
X117091428Y-130185912D01*
X117091428Y-130185912D02*
X117305714Y-130185912D01*
X117305714Y-130185912D02*
X117448571Y-130257341D01*
X117448571Y-130257341D02*
X117520000Y-130328769D01*
X117520000Y-130328769D02*
X117591428Y-130471626D01*
X117591428Y-130471626D02*
X117591428Y-130900198D01*
X117591428Y-130900198D02*
X117520000Y-131043055D01*
X117520000Y-131043055D02*
X117448571Y-131114484D01*
X117448571Y-131114484D02*
X117305714Y-131185912D01*
X117305714Y-131185912D02*
X117091428Y-131185912D01*
X118877143Y-130185912D02*
X118877143Y-131400198D01*
X118877143Y-131400198D02*
X118805714Y-131543055D01*
X118805714Y-131543055D02*
X118734285Y-131614484D01*
X118734285Y-131614484D02*
X118591428Y-131685912D01*
X118591428Y-131685912D02*
X118377143Y-131685912D01*
X118377143Y-131685912D02*
X118234285Y-131614484D01*
X118877143Y-131114484D02*
X118734285Y-131185912D01*
X118734285Y-131185912D02*
X118448571Y-131185912D01*
X118448571Y-131185912D02*
X118305714Y-131114484D01*
X118305714Y-131114484D02*
X118234285Y-131043055D01*
X118234285Y-131043055D02*
X118162857Y-130900198D01*
X118162857Y-130900198D02*
X118162857Y-130471626D01*
X118162857Y-130471626D02*
X118234285Y-130328769D01*
X118234285Y-130328769D02*
X118305714Y-130257341D01*
X118305714Y-130257341D02*
X118448571Y-130185912D01*
X118448571Y-130185912D02*
X118734285Y-130185912D01*
X118734285Y-130185912D02*
X118877143Y-130257341D01*
X119591428Y-131185912D02*
X119591428Y-130185912D01*
X119591428Y-130471626D02*
X119662857Y-130328769D01*
X119662857Y-130328769D02*
X119734286Y-130257341D01*
X119734286Y-130257341D02*
X119877143Y-130185912D01*
X119877143Y-130185912D02*
X120020000Y-130185912D01*
X121162857Y-131185912D02*
X121162857Y-130400198D01*
X121162857Y-130400198D02*
X121091428Y-130257341D01*
X121091428Y-130257341D02*
X120948571Y-130185912D01*
X120948571Y-130185912D02*
X120662857Y-130185912D01*
X120662857Y-130185912D02*
X120519999Y-130257341D01*
X121162857Y-131114484D02*
X121019999Y-131185912D01*
X121019999Y-131185912D02*
X120662857Y-131185912D01*
X120662857Y-131185912D02*
X120519999Y-131114484D01*
X120519999Y-131114484D02*
X120448571Y-130971626D01*
X120448571Y-130971626D02*
X120448571Y-130828769D01*
X120448571Y-130828769D02*
X120519999Y-130685912D01*
X120519999Y-130685912D02*
X120662857Y-130614484D01*
X120662857Y-130614484D02*
X121019999Y-130614484D01*
X121019999Y-130614484D02*
X121162857Y-130543055D01*
X121877142Y-130185912D02*
X121877142Y-131685912D01*
X121877142Y-130257341D02*
X122020000Y-130185912D01*
X122020000Y-130185912D02*
X122305714Y-130185912D01*
X122305714Y-130185912D02*
X122448571Y-130257341D01*
X122448571Y-130257341D02*
X122520000Y-130328769D01*
X122520000Y-130328769D02*
X122591428Y-130471626D01*
X122591428Y-130471626D02*
X122591428Y-130900198D01*
X122591428Y-130900198D02*
X122520000Y-131043055D01*
X122520000Y-131043055D02*
X122448571Y-131114484D01*
X122448571Y-131114484D02*
X122305714Y-131185912D01*
X122305714Y-131185912D02*
X122020000Y-131185912D01*
X122020000Y-131185912D02*
X121877142Y-131114484D01*
X123234285Y-131185912D02*
X123234285Y-129685912D01*
X123877143Y-131185912D02*
X123877143Y-130400198D01*
X123877143Y-130400198D02*
X123805714Y-130257341D01*
X123805714Y-130257341D02*
X123662857Y-130185912D01*
X123662857Y-130185912D02*
X123448571Y-130185912D01*
X123448571Y-130185912D02*
X123305714Y-130257341D01*
X123305714Y-130257341D02*
X123234285Y-130328769D01*
X124591428Y-131185912D02*
X124591428Y-130185912D01*
X124591428Y-129685912D02*
X124520000Y-129757341D01*
X124520000Y-129757341D02*
X124591428Y-129828769D01*
X124591428Y-129828769D02*
X124662857Y-129757341D01*
X124662857Y-129757341D02*
X124591428Y-129685912D01*
X124591428Y-129685912D02*
X124591428Y-129828769D01*
X125948572Y-130185912D02*
X125948572Y-131685912D01*
X125948572Y-131114484D02*
X125805714Y-131185912D01*
X125805714Y-131185912D02*
X125520000Y-131185912D01*
X125520000Y-131185912D02*
X125377143Y-131114484D01*
X125377143Y-131114484D02*
X125305714Y-131043055D01*
X125305714Y-131043055D02*
X125234286Y-130900198D01*
X125234286Y-130900198D02*
X125234286Y-130471626D01*
X125234286Y-130471626D02*
X125305714Y-130328769D01*
X125305714Y-130328769D02*
X125377143Y-130257341D01*
X125377143Y-130257341D02*
X125520000Y-130185912D01*
X125520000Y-130185912D02*
X125805714Y-130185912D01*
X125805714Y-130185912D02*
X125948572Y-130257341D01*
X127305715Y-130185912D02*
X127305715Y-131185912D01*
X126662857Y-130185912D02*
X126662857Y-130971626D01*
X126662857Y-130971626D02*
X126734286Y-131114484D01*
X126734286Y-131114484D02*
X126877143Y-131185912D01*
X126877143Y-131185912D02*
X127091429Y-131185912D01*
X127091429Y-131185912D02*
X127234286Y-131114484D01*
X127234286Y-131114484D02*
X127305715Y-131043055D01*
X128591429Y-131114484D02*
X128448572Y-131185912D01*
X128448572Y-131185912D02*
X128162858Y-131185912D01*
X128162858Y-131185912D02*
X128020000Y-131114484D01*
X128020000Y-131114484D02*
X127948572Y-130971626D01*
X127948572Y-130971626D02*
X127948572Y-130400198D01*
X127948572Y-130400198D02*
X128020000Y-130257341D01*
X128020000Y-130257341D02*
X128162858Y-130185912D01*
X128162858Y-130185912D02*
X128448572Y-130185912D01*
X128448572Y-130185912D02*
X128591429Y-130257341D01*
X128591429Y-130257341D02*
X128662858Y-130400198D01*
X128662858Y-130400198D02*
X128662858Y-130543055D01*
X128662858Y-130543055D02*
X127948572Y-130685912D01*
X113198571Y-132600828D02*
X113198571Y-134100828D01*
X113198571Y-132672257D02*
X113341429Y-132600828D01*
X113341429Y-132600828D02*
X113627143Y-132600828D01*
X113627143Y-132600828D02*
X113770000Y-132672257D01*
X113770000Y-132672257D02*
X113841429Y-132743685D01*
X113841429Y-132743685D02*
X113912857Y-132886542D01*
X113912857Y-132886542D02*
X113912857Y-133315114D01*
X113912857Y-133315114D02*
X113841429Y-133457971D01*
X113841429Y-133457971D02*
X113770000Y-133529400D01*
X113770000Y-133529400D02*
X113627143Y-133600828D01*
X113627143Y-133600828D02*
X113341429Y-133600828D01*
X113341429Y-133600828D02*
X113198571Y-133529400D01*
X114770000Y-133600828D02*
X114627143Y-133529400D01*
X114627143Y-133529400D02*
X114555714Y-133457971D01*
X114555714Y-133457971D02*
X114484286Y-133315114D01*
X114484286Y-133315114D02*
X114484286Y-132886542D01*
X114484286Y-132886542D02*
X114555714Y-132743685D01*
X114555714Y-132743685D02*
X114627143Y-132672257D01*
X114627143Y-132672257D02*
X114770000Y-132600828D01*
X114770000Y-132600828D02*
X114984286Y-132600828D01*
X114984286Y-132600828D02*
X115127143Y-132672257D01*
X115127143Y-132672257D02*
X115198572Y-132743685D01*
X115198572Y-132743685D02*
X115270000Y-132886542D01*
X115270000Y-132886542D02*
X115270000Y-133315114D01*
X115270000Y-133315114D02*
X115198572Y-133457971D01*
X115198572Y-133457971D02*
X115127143Y-133529400D01*
X115127143Y-133529400D02*
X114984286Y-133600828D01*
X114984286Y-133600828D02*
X114770000Y-133600828D01*
X116555715Y-132600828D02*
X116555715Y-133600828D01*
X115912857Y-132600828D02*
X115912857Y-133386542D01*
X115912857Y-133386542D02*
X115984286Y-133529400D01*
X115984286Y-133529400D02*
X116127143Y-133600828D01*
X116127143Y-133600828D02*
X116341429Y-133600828D01*
X116341429Y-133600828D02*
X116484286Y-133529400D01*
X116484286Y-133529400D02*
X116555715Y-133457971D01*
X117270000Y-133600828D02*
X117270000Y-132600828D01*
X117270000Y-132886542D02*
X117341429Y-132743685D01*
X117341429Y-132743685D02*
X117412858Y-132672257D01*
X117412858Y-132672257D02*
X117555715Y-132600828D01*
X117555715Y-132600828D02*
X117698572Y-132600828D01*
X119341428Y-133600828D02*
X119341428Y-132100828D01*
X119341428Y-132100828D02*
X119912857Y-132100828D01*
X119912857Y-132100828D02*
X120055714Y-132172257D01*
X120055714Y-132172257D02*
X120127143Y-132243685D01*
X120127143Y-132243685D02*
X120198571Y-132386542D01*
X120198571Y-132386542D02*
X120198571Y-132600828D01*
X120198571Y-132600828D02*
X120127143Y-132743685D01*
X120127143Y-132743685D02*
X120055714Y-132815114D01*
X120055714Y-132815114D02*
X119912857Y-132886542D01*
X119912857Y-132886542D02*
X119341428Y-132886542D01*
X121484286Y-133600828D02*
X121484286Y-132815114D01*
X121484286Y-132815114D02*
X121412857Y-132672257D01*
X121412857Y-132672257D02*
X121270000Y-132600828D01*
X121270000Y-132600828D02*
X120984286Y-132600828D01*
X120984286Y-132600828D02*
X120841428Y-132672257D01*
X121484286Y-133529400D02*
X121341428Y-133600828D01*
X121341428Y-133600828D02*
X120984286Y-133600828D01*
X120984286Y-133600828D02*
X120841428Y-133529400D01*
X120841428Y-133529400D02*
X120770000Y-133386542D01*
X120770000Y-133386542D02*
X120770000Y-133243685D01*
X120770000Y-133243685D02*
X120841428Y-133100828D01*
X120841428Y-133100828D02*
X120984286Y-133029400D01*
X120984286Y-133029400D02*
X121341428Y-133029400D01*
X121341428Y-133029400D02*
X121484286Y-132957971D01*
X122198571Y-132600828D02*
X122198571Y-133600828D01*
X122198571Y-132743685D02*
X122270000Y-132672257D01*
X122270000Y-132672257D02*
X122412857Y-132600828D01*
X122412857Y-132600828D02*
X122627143Y-132600828D01*
X122627143Y-132600828D02*
X122770000Y-132672257D01*
X122770000Y-132672257D02*
X122841429Y-132815114D01*
X122841429Y-132815114D02*
X122841429Y-133600828D01*
X123555714Y-133600828D02*
X123555714Y-132100828D01*
X124198572Y-133600828D02*
X124198572Y-132815114D01*
X124198572Y-132815114D02*
X124127143Y-132672257D01*
X124127143Y-132672257D02*
X123984286Y-132600828D01*
X123984286Y-132600828D02*
X123770000Y-132600828D01*
X123770000Y-132600828D02*
X123627143Y-132672257D01*
X123627143Y-132672257D02*
X123555714Y-132743685D01*
X125555715Y-133600828D02*
X125555715Y-132815114D01*
X125555715Y-132815114D02*
X125484286Y-132672257D01*
X125484286Y-132672257D02*
X125341429Y-132600828D01*
X125341429Y-132600828D02*
X125055715Y-132600828D01*
X125055715Y-132600828D02*
X124912857Y-132672257D01*
X125555715Y-133529400D02*
X125412857Y-133600828D01*
X125412857Y-133600828D02*
X125055715Y-133600828D01*
X125055715Y-133600828D02*
X124912857Y-133529400D01*
X124912857Y-133529400D02*
X124841429Y-133386542D01*
X124841429Y-133386542D02*
X124841429Y-133243685D01*
X124841429Y-133243685D02*
X124912857Y-133100828D01*
X124912857Y-133100828D02*
X125055715Y-133029400D01*
X125055715Y-133029400D02*
X125412857Y-133029400D01*
X125412857Y-133029400D02*
X125555715Y-132957971D01*
X126270000Y-133600828D02*
X126270000Y-132600828D01*
X126270000Y-132886542D02*
X126341429Y-132743685D01*
X126341429Y-132743685D02*
X126412858Y-132672257D01*
X126412858Y-132672257D02*
X126555715Y-132600828D01*
X126555715Y-132600828D02*
X126698572Y-132600828D01*
X127841429Y-133600828D02*
X127841429Y-132100828D01*
X127841429Y-133529400D02*
X127698571Y-133600828D01*
X127698571Y-133600828D02*
X127412857Y-133600828D01*
X127412857Y-133600828D02*
X127270000Y-133529400D01*
X127270000Y-133529400D02*
X127198571Y-133457971D01*
X127198571Y-133457971D02*
X127127143Y-133315114D01*
X127127143Y-133315114D02*
X127127143Y-132886542D01*
X127127143Y-132886542D02*
X127198571Y-132743685D01*
X127198571Y-132743685D02*
X127270000Y-132672257D01*
X127270000Y-132672257D02*
X127412857Y-132600828D01*
X127412857Y-132600828D02*
X127698571Y-132600828D01*
X127698571Y-132600828D02*
X127841429Y-132672257D01*
X98310828Y-78045489D02*
X96810828Y-78045489D01*
X97310828Y-77331203D02*
X98310828Y-77331203D01*
X97453685Y-77331203D02*
X97382257Y-77259774D01*
X97382257Y-77259774D02*
X97310828Y-77116917D01*
X97310828Y-77116917D02*
X97310828Y-76902631D01*
X97310828Y-76902631D02*
X97382257Y-76759774D01*
X97382257Y-76759774D02*
X97525114Y-76688346D01*
X97525114Y-76688346D02*
X98310828Y-76688346D01*
X96810828Y-74578346D02*
X96810828Y-73649774D01*
X96810828Y-73649774D02*
X97382257Y-74149774D01*
X97382257Y-74149774D02*
X97382257Y-73935489D01*
X97382257Y-73935489D02*
X97453685Y-73792632D01*
X97453685Y-73792632D02*
X97525114Y-73721203D01*
X97525114Y-73721203D02*
X97667971Y-73649774D01*
X97667971Y-73649774D02*
X98025114Y-73649774D01*
X98025114Y-73649774D02*
X98167971Y-73721203D01*
X98167971Y-73721203D02*
X98239400Y-73792632D01*
X98239400Y-73792632D02*
X98310828Y-73935489D01*
X98310828Y-73935489D02*
X98310828Y-74364060D01*
X98310828Y-74364060D02*
X98239400Y-74506917D01*
X98239400Y-74506917D02*
X98167971Y-74578346D01*
X96810828Y-73221203D02*
X98310828Y-72721203D01*
X98310828Y-72721203D02*
X96810828Y-72221203D01*
X96810828Y-71864061D02*
X96810828Y-70935489D01*
X96810828Y-70935489D02*
X97382257Y-71435489D01*
X97382257Y-71435489D02*
X97382257Y-71221204D01*
X97382257Y-71221204D02*
X97453685Y-71078347D01*
X97453685Y-71078347D02*
X97525114Y-71006918D01*
X97525114Y-71006918D02*
X97667971Y-70935489D01*
X97667971Y-70935489D02*
X98025114Y-70935489D01*
X98025114Y-70935489D02*
X98167971Y-71006918D01*
X98167971Y-71006918D02*
X98239400Y-71078347D01*
X98239400Y-71078347D02*
X98310828Y-71221204D01*
X98310828Y-71221204D02*
X98310828Y-71649775D01*
X98310828Y-71649775D02*
X98239400Y-71792632D01*
X98239400Y-71792632D02*
X98167971Y-71864061D01*
X98239400Y-104256917D02*
X98310828Y-104042632D01*
X98310828Y-104042632D02*
X98310828Y-103685489D01*
X98310828Y-103685489D02*
X98239400Y-103542632D01*
X98239400Y-103542632D02*
X98167971Y-103471203D01*
X98167971Y-103471203D02*
X98025114Y-103399774D01*
X98025114Y-103399774D02*
X97882257Y-103399774D01*
X97882257Y-103399774D02*
X97739400Y-103471203D01*
X97739400Y-103471203D02*
X97667971Y-103542632D01*
X97667971Y-103542632D02*
X97596542Y-103685489D01*
X97596542Y-103685489D02*
X97525114Y-103971203D01*
X97525114Y-103971203D02*
X97453685Y-104114060D01*
X97453685Y-104114060D02*
X97382257Y-104185489D01*
X97382257Y-104185489D02*
X97239400Y-104256917D01*
X97239400Y-104256917D02*
X97096542Y-104256917D01*
X97096542Y-104256917D02*
X96953685Y-104185489D01*
X96953685Y-104185489D02*
X96882257Y-104114060D01*
X96882257Y-104114060D02*
X96810828Y-103971203D01*
X96810828Y-103971203D02*
X96810828Y-103614060D01*
X96810828Y-103614060D02*
X96882257Y-103399774D01*
X96810828Y-102971203D02*
X98310828Y-102471203D01*
X98310828Y-102471203D02*
X96810828Y-101971203D01*
X129310225Y-49375912D02*
X130167368Y-49375912D01*
X129738796Y-50875912D02*
X129738796Y-49375912D01*
X130881653Y-50875912D02*
X130738796Y-50804484D01*
X130738796Y-50804484D02*
X130667367Y-50733055D01*
X130667367Y-50733055D02*
X130595939Y-50590198D01*
X130595939Y-50590198D02*
X130595939Y-50161626D01*
X130595939Y-50161626D02*
X130667367Y-50018769D01*
X130667367Y-50018769D02*
X130738796Y-49947341D01*
X130738796Y-49947341D02*
X130881653Y-49875912D01*
X130881653Y-49875912D02*
X131095939Y-49875912D01*
X131095939Y-49875912D02*
X131238796Y-49947341D01*
X131238796Y-49947341D02*
X131310225Y-50018769D01*
X131310225Y-50018769D02*
X131381653Y-50161626D01*
X131381653Y-50161626D02*
X131381653Y-50590198D01*
X131381653Y-50590198D02*
X131310225Y-50733055D01*
X131310225Y-50733055D02*
X131238796Y-50804484D01*
X131238796Y-50804484D02*
X131095939Y-50875912D01*
X131095939Y-50875912D02*
X130881653Y-50875912D01*
X131810225Y-49875912D02*
X132381653Y-49875912D01*
X132024510Y-49375912D02*
X132024510Y-50661626D01*
X132024510Y-50661626D02*
X132095939Y-50804484D01*
X132095939Y-50804484D02*
X132238796Y-50875912D01*
X132238796Y-50875912D02*
X132381653Y-50875912D01*
X133095939Y-50875912D02*
X132953082Y-50804484D01*
X132953082Y-50804484D02*
X132881653Y-50733055D01*
X132881653Y-50733055D02*
X132810225Y-50590198D01*
X132810225Y-50590198D02*
X132810225Y-50161626D01*
X132810225Y-50161626D02*
X132881653Y-50018769D01*
X132881653Y-50018769D02*
X132953082Y-49947341D01*
X132953082Y-49947341D02*
X133095939Y-49875912D01*
X133095939Y-49875912D02*
X133310225Y-49875912D01*
X133310225Y-49875912D02*
X133453082Y-49947341D01*
X133453082Y-49947341D02*
X133524511Y-50018769D01*
X133524511Y-50018769D02*
X133595939Y-50161626D01*
X133595939Y-50161626D02*
X133595939Y-50590198D01*
X133595939Y-50590198D02*
X133524511Y-50733055D01*
X133524511Y-50733055D02*
X133453082Y-50804484D01*
X133453082Y-50804484D02*
X133310225Y-50875912D01*
X133310225Y-50875912D02*
X133095939Y-50875912D01*
X134024511Y-49875912D02*
X134595939Y-49875912D01*
X134238796Y-50875912D02*
X134238796Y-49590198D01*
X134238796Y-49590198D02*
X134310225Y-49447341D01*
X134310225Y-49447341D02*
X134453082Y-49375912D01*
X134453082Y-49375912D02*
X134595939Y-49375912D01*
X129453082Y-51933685D02*
X129524510Y-51862257D01*
X129524510Y-51862257D02*
X129667368Y-51790828D01*
X129667368Y-51790828D02*
X130024510Y-51790828D01*
X130024510Y-51790828D02*
X130167368Y-51862257D01*
X130167368Y-51862257D02*
X130238796Y-51933685D01*
X130238796Y-51933685D02*
X130310225Y-52076542D01*
X130310225Y-52076542D02*
X130310225Y-52219400D01*
X130310225Y-52219400D02*
X130238796Y-52433685D01*
X130238796Y-52433685D02*
X129381653Y-53290828D01*
X129381653Y-53290828D02*
X130310225Y-53290828D01*
X131238796Y-51790828D02*
X131381653Y-51790828D01*
X131381653Y-51790828D02*
X131524510Y-51862257D01*
X131524510Y-51862257D02*
X131595939Y-51933685D01*
X131595939Y-51933685D02*
X131667367Y-52076542D01*
X131667367Y-52076542D02*
X131738796Y-52362257D01*
X131738796Y-52362257D02*
X131738796Y-52719400D01*
X131738796Y-52719400D02*
X131667367Y-53005114D01*
X131667367Y-53005114D02*
X131595939Y-53147971D01*
X131595939Y-53147971D02*
X131524510Y-53219400D01*
X131524510Y-53219400D02*
X131381653Y-53290828D01*
X131381653Y-53290828D02*
X131238796Y-53290828D01*
X131238796Y-53290828D02*
X131095939Y-53219400D01*
X131095939Y-53219400D02*
X131024510Y-53147971D01*
X131024510Y-53147971D02*
X130953081Y-53005114D01*
X130953081Y-53005114D02*
X130881653Y-52719400D01*
X130881653Y-52719400D02*
X130881653Y-52362257D01*
X130881653Y-52362257D02*
X130953081Y-52076542D01*
X130953081Y-52076542D02*
X131024510Y-51933685D01*
X131024510Y-51933685D02*
X131095939Y-51862257D01*
X131095939Y-51862257D02*
X131238796Y-51790828D01*
X132310224Y-51933685D02*
X132381652Y-51862257D01*
X132381652Y-51862257D02*
X132524510Y-51790828D01*
X132524510Y-51790828D02*
X132881652Y-51790828D01*
X132881652Y-51790828D02*
X133024510Y-51862257D01*
X133024510Y-51862257D02*
X133095938Y-51933685D01*
X133095938Y-51933685D02*
X133167367Y-52076542D01*
X133167367Y-52076542D02*
X133167367Y-52219400D01*
X133167367Y-52219400D02*
X133095938Y-52433685D01*
X133095938Y-52433685D02*
X132238795Y-53290828D01*
X132238795Y-53290828D02*
X133167367Y-53290828D01*
X134524509Y-51790828D02*
X133810223Y-51790828D01*
X133810223Y-51790828D02*
X133738795Y-52505114D01*
X133738795Y-52505114D02*
X133810223Y-52433685D01*
X133810223Y-52433685D02*
X133953081Y-52362257D01*
X133953081Y-52362257D02*
X134310223Y-52362257D01*
X134310223Y-52362257D02*
X134453081Y-52433685D01*
X134453081Y-52433685D02*
X134524509Y-52505114D01*
X134524509Y-52505114D02*
X134595938Y-52647971D01*
X134595938Y-52647971D02*
X134595938Y-53005114D01*
X134595938Y-53005114D02*
X134524509Y-53147971D01*
X134524509Y-53147971D02*
X134453081Y-53219400D01*
X134453081Y-53219400D02*
X134310223Y-53290828D01*
X134310223Y-53290828D02*
X133953081Y-53290828D01*
X133953081Y-53290828D02*
X133810223Y-53219400D01*
X133810223Y-53219400D02*
X133738795Y-53147971D01*
X96882257Y-109139774D02*
X96810828Y-109282632D01*
X96810828Y-109282632D02*
X96810828Y-109496917D01*
X96810828Y-109496917D02*
X96882257Y-109711203D01*
X96882257Y-109711203D02*
X97025114Y-109854060D01*
X97025114Y-109854060D02*
X97167971Y-109925489D01*
X97167971Y-109925489D02*
X97453685Y-109996917D01*
X97453685Y-109996917D02*
X97667971Y-109996917D01*
X97667971Y-109996917D02*
X97953685Y-109925489D01*
X97953685Y-109925489D02*
X98096542Y-109854060D01*
X98096542Y-109854060D02*
X98239400Y-109711203D01*
X98239400Y-109711203D02*
X98310828Y-109496917D01*
X98310828Y-109496917D02*
X98310828Y-109354060D01*
X98310828Y-109354060D02*
X98239400Y-109139774D01*
X98239400Y-109139774D02*
X98167971Y-109068346D01*
X98167971Y-109068346D02*
X97667971Y-109068346D01*
X97667971Y-109068346D02*
X97667971Y-109354060D01*
X97310828Y-108425489D02*
X98310828Y-108425489D01*
X97453685Y-108425489D02*
X97382257Y-108354060D01*
X97382257Y-108354060D02*
X97310828Y-108211203D01*
X97310828Y-108211203D02*
X97310828Y-107996917D01*
X97310828Y-107996917D02*
X97382257Y-107854060D01*
X97382257Y-107854060D02*
X97525114Y-107782632D01*
X97525114Y-107782632D02*
X98310828Y-107782632D01*
X98310828Y-106425489D02*
X96810828Y-106425489D01*
X98239400Y-106425489D02*
X98310828Y-106568346D01*
X98310828Y-106568346D02*
X98310828Y-106854060D01*
X98310828Y-106854060D02*
X98239400Y-106996917D01*
X98239400Y-106996917D02*
X98167971Y-107068346D01*
X98167971Y-107068346D02*
X98025114Y-107139774D01*
X98025114Y-107139774D02*
X97596542Y-107139774D01*
X97596542Y-107139774D02*
X97453685Y-107068346D01*
X97453685Y-107068346D02*
X97382257Y-106996917D01*
X97382257Y-106996917D02*
X97310828Y-106854060D01*
X97310828Y-106854060D02*
X97310828Y-106568346D01*
X97310828Y-106568346D02*
X97382257Y-106425489D01*
X98310828Y-114329774D02*
X98310828Y-115186917D01*
X98310828Y-114758346D02*
X96810828Y-114758346D01*
X96810828Y-114758346D02*
X97025114Y-114901203D01*
X97025114Y-114901203D02*
X97167971Y-115044060D01*
X97167971Y-115044060D02*
X97239400Y-115186917D01*
X96953685Y-113758346D02*
X96882257Y-113686918D01*
X96882257Y-113686918D02*
X96810828Y-113544061D01*
X96810828Y-113544061D02*
X96810828Y-113186918D01*
X96810828Y-113186918D02*
X96882257Y-113044061D01*
X96882257Y-113044061D02*
X96953685Y-112972632D01*
X96953685Y-112972632D02*
X97096542Y-112901203D01*
X97096542Y-112901203D02*
X97239400Y-112901203D01*
X97239400Y-112901203D02*
X97453685Y-112972632D01*
X97453685Y-112972632D02*
X98310828Y-113829775D01*
X98310828Y-113829775D02*
X98310828Y-112901203D01*
X96810828Y-112472632D02*
X98310828Y-111972632D01*
X98310828Y-111972632D02*
X96810828Y-111472632D01*
X96810828Y-67051203D02*
X96810828Y-67765489D01*
X96810828Y-67765489D02*
X97525114Y-67836917D01*
X97525114Y-67836917D02*
X97453685Y-67765489D01*
X97453685Y-67765489D02*
X97382257Y-67622632D01*
X97382257Y-67622632D02*
X97382257Y-67265489D01*
X97382257Y-67265489D02*
X97453685Y-67122632D01*
X97453685Y-67122632D02*
X97525114Y-67051203D01*
X97525114Y-67051203D02*
X97667971Y-66979774D01*
X97667971Y-66979774D02*
X98025114Y-66979774D01*
X98025114Y-66979774D02*
X98167971Y-67051203D01*
X98167971Y-67051203D02*
X98239400Y-67122632D01*
X98239400Y-67122632D02*
X98310828Y-67265489D01*
X98310828Y-67265489D02*
X98310828Y-67622632D01*
X98310828Y-67622632D02*
X98239400Y-67765489D01*
X98239400Y-67765489D02*
X98167971Y-67836917D01*
X96810828Y-66551203D02*
X98310828Y-66051203D01*
X98310828Y-66051203D02*
X96810828Y-65551203D01*
X98239400Y-94256917D02*
X98310828Y-94042632D01*
X98310828Y-94042632D02*
X98310828Y-93685489D01*
X98310828Y-93685489D02*
X98239400Y-93542632D01*
X98239400Y-93542632D02*
X98167971Y-93471203D01*
X98167971Y-93471203D02*
X98025114Y-93399774D01*
X98025114Y-93399774D02*
X97882257Y-93399774D01*
X97882257Y-93399774D02*
X97739400Y-93471203D01*
X97739400Y-93471203D02*
X97667971Y-93542632D01*
X97667971Y-93542632D02*
X97596542Y-93685489D01*
X97596542Y-93685489D02*
X97525114Y-93971203D01*
X97525114Y-93971203D02*
X97453685Y-94114060D01*
X97453685Y-94114060D02*
X97382257Y-94185489D01*
X97382257Y-94185489D02*
X97239400Y-94256917D01*
X97239400Y-94256917D02*
X97096542Y-94256917D01*
X97096542Y-94256917D02*
X96953685Y-94185489D01*
X96953685Y-94185489D02*
X96882257Y-94114060D01*
X96882257Y-94114060D02*
X96810828Y-93971203D01*
X96810828Y-93971203D02*
X96810828Y-93614060D01*
X96810828Y-93614060D02*
X96882257Y-93399774D01*
X98167971Y-91899775D02*
X98239400Y-91971203D01*
X98239400Y-91971203D02*
X98310828Y-92185489D01*
X98310828Y-92185489D02*
X98310828Y-92328346D01*
X98310828Y-92328346D02*
X98239400Y-92542632D01*
X98239400Y-92542632D02*
X98096542Y-92685489D01*
X98096542Y-92685489D02*
X97953685Y-92756918D01*
X97953685Y-92756918D02*
X97667971Y-92828346D01*
X97667971Y-92828346D02*
X97453685Y-92828346D01*
X97453685Y-92828346D02*
X97167971Y-92756918D01*
X97167971Y-92756918D02*
X97025114Y-92685489D01*
X97025114Y-92685489D02*
X96882257Y-92542632D01*
X96882257Y-92542632D02*
X96810828Y-92328346D01*
X96810828Y-92328346D02*
X96810828Y-92185489D01*
X96810828Y-92185489D02*
X96882257Y-91971203D01*
X96882257Y-91971203D02*
X96953685Y-91899775D01*
D11*
X136948095Y-50424819D02*
X136948095Y-49424819D01*
X136948095Y-49901009D02*
X137519523Y-49901009D01*
X137519523Y-50424819D02*
X137519523Y-49424819D01*
X137948095Y-49520057D02*
X137995714Y-49472438D01*
X137995714Y-49472438D02*
X138090952Y-49424819D01*
X138090952Y-49424819D02*
X138329047Y-49424819D01*
X138329047Y-49424819D02*
X138424285Y-49472438D01*
X138424285Y-49472438D02*
X138471904Y-49520057D01*
X138471904Y-49520057D02*
X138519523Y-49615295D01*
X138519523Y-49615295D02*
X138519523Y-49710533D01*
X138519523Y-49710533D02*
X138471904Y-49853390D01*
X138471904Y-49853390D02*
X137900476Y-50424819D01*
X137900476Y-50424819D02*
X138519523Y-50424819D01*
X103814819Y-122698094D02*
X102814819Y-122698094D01*
X102814819Y-122698094D02*
X102814819Y-122317142D01*
X102814819Y-122317142D02*
X102862438Y-122221904D01*
X102862438Y-122221904D02*
X102910057Y-122174285D01*
X102910057Y-122174285D02*
X103005295Y-122126666D01*
X103005295Y-122126666D02*
X103148152Y-122126666D01*
X103148152Y-122126666D02*
X103243390Y-122174285D01*
X103243390Y-122174285D02*
X103291009Y-122221904D01*
X103291009Y-122221904D02*
X103338628Y-122317142D01*
X103338628Y-122317142D02*
X103338628Y-122698094D01*
X103814819Y-121174285D02*
X103814819Y-121745713D01*
X103814819Y-121459999D02*
X102814819Y-121459999D01*
X102814819Y-121459999D02*
X102957676Y-121555237D01*
X102957676Y-121555237D02*
X103052914Y-121650475D01*
X103052914Y-121650475D02*
X103100533Y-121745713D01*
X103794819Y-59838094D02*
X102794819Y-59838094D01*
X102794819Y-59838094D02*
X102794819Y-59457142D01*
X102794819Y-59457142D02*
X102842438Y-59361904D01*
X102842438Y-59361904D02*
X102890057Y-59314285D01*
X102890057Y-59314285D02*
X102985295Y-59266666D01*
X102985295Y-59266666D02*
X103128152Y-59266666D01*
X103128152Y-59266666D02*
X103223390Y-59314285D01*
X103223390Y-59314285D02*
X103271009Y-59361904D01*
X103271009Y-59361904D02*
X103318628Y-59457142D01*
X103318628Y-59457142D02*
X103318628Y-59838094D01*
X102890057Y-58885713D02*
X102842438Y-58838094D01*
X102842438Y-58838094D02*
X102794819Y-58742856D01*
X102794819Y-58742856D02*
X102794819Y-58504761D01*
X102794819Y-58504761D02*
X102842438Y-58409523D01*
X102842438Y-58409523D02*
X102890057Y-58361904D01*
X102890057Y-58361904D02*
X102985295Y-58314285D01*
X102985295Y-58314285D02*
X103080533Y-58314285D01*
X103080533Y-58314285D02*
X103223390Y-58361904D01*
X103223390Y-58361904D02*
X103794819Y-58933332D01*
X103794819Y-58933332D02*
X103794819Y-58314285D01*
X119341905Y-125434819D02*
X119341905Y-124434819D01*
X119341905Y-124434819D02*
X119580000Y-124434819D01*
X119580000Y-124434819D02*
X119722857Y-124482438D01*
X119722857Y-124482438D02*
X119818095Y-124577676D01*
X119818095Y-124577676D02*
X119865714Y-124672914D01*
X119865714Y-124672914D02*
X119913333Y-124863390D01*
X119913333Y-124863390D02*
X119913333Y-125006247D01*
X119913333Y-125006247D02*
X119865714Y-125196723D01*
X119865714Y-125196723D02*
X119818095Y-125291961D01*
X119818095Y-125291961D02*
X119722857Y-125387200D01*
X119722857Y-125387200D02*
X119580000Y-125434819D01*
X119580000Y-125434819D02*
X119341905Y-125434819D01*
X120865714Y-125434819D02*
X120294286Y-125434819D01*
X120580000Y-125434819D02*
X120580000Y-124434819D01*
X120580000Y-124434819D02*
X120484762Y-124577676D01*
X120484762Y-124577676D02*
X120389524Y-124672914D01*
X120389524Y-124672914D02*
X120294286Y-124720533D01*
X117677142Y-122944819D02*
X117105714Y-122944819D01*
X117391428Y-122944819D02*
X117391428Y-121944819D01*
X117391428Y-121944819D02*
X117296190Y-122087676D01*
X117296190Y-122087676D02*
X117200952Y-122182914D01*
X117200952Y-122182914D02*
X117105714Y-122230533D01*
X118105714Y-122944819D02*
X118105714Y-121944819D01*
X118105714Y-121944819D02*
X118677142Y-122944819D01*
X118677142Y-122944819D02*
X118677142Y-121944819D01*
X119581904Y-122278152D02*
X119581904Y-122944819D01*
X119343809Y-121897200D02*
X119105714Y-122611485D01*
X119105714Y-122611485D02*
X119724761Y-122611485D01*
X120296190Y-121944819D02*
X120391428Y-121944819D01*
X120391428Y-121944819D02*
X120486666Y-121992438D01*
X120486666Y-121992438D02*
X120534285Y-122040057D01*
X120534285Y-122040057D02*
X120581904Y-122135295D01*
X120581904Y-122135295D02*
X120629523Y-122325771D01*
X120629523Y-122325771D02*
X120629523Y-122563866D01*
X120629523Y-122563866D02*
X120581904Y-122754342D01*
X120581904Y-122754342D02*
X120534285Y-122849580D01*
X120534285Y-122849580D02*
X120486666Y-122897200D01*
X120486666Y-122897200D02*
X120391428Y-122944819D01*
X120391428Y-122944819D02*
X120296190Y-122944819D01*
X120296190Y-122944819D02*
X120200952Y-122897200D01*
X120200952Y-122897200D02*
X120153333Y-122849580D01*
X120153333Y-122849580D02*
X120105714Y-122754342D01*
X120105714Y-122754342D02*
X120058095Y-122563866D01*
X120058095Y-122563866D02*
X120058095Y-122325771D01*
X120058095Y-122325771D02*
X120105714Y-122135295D01*
X120105714Y-122135295D02*
X120153333Y-122040057D01*
X120153333Y-122040057D02*
X120200952Y-121992438D01*
X120200952Y-121992438D02*
X120296190Y-121944819D01*
X121248571Y-121944819D02*
X121343809Y-121944819D01*
X121343809Y-121944819D02*
X121439047Y-121992438D01*
X121439047Y-121992438D02*
X121486666Y-122040057D01*
X121486666Y-122040057D02*
X121534285Y-122135295D01*
X121534285Y-122135295D02*
X121581904Y-122325771D01*
X121581904Y-122325771D02*
X121581904Y-122563866D01*
X121581904Y-122563866D02*
X121534285Y-122754342D01*
X121534285Y-122754342D02*
X121486666Y-122849580D01*
X121486666Y-122849580D02*
X121439047Y-122897200D01*
X121439047Y-122897200D02*
X121343809Y-122944819D01*
X121343809Y-122944819D02*
X121248571Y-122944819D01*
X121248571Y-122944819D02*
X121153333Y-122897200D01*
X121153333Y-122897200D02*
X121105714Y-122849580D01*
X121105714Y-122849580D02*
X121058095Y-122754342D01*
X121058095Y-122754342D02*
X121010476Y-122563866D01*
X121010476Y-122563866D02*
X121010476Y-122325771D01*
X121010476Y-122325771D02*
X121058095Y-122135295D01*
X121058095Y-122135295D02*
X121105714Y-122040057D01*
X121105714Y-122040057D02*
X121153333Y-121992438D01*
X121153333Y-121992438D02*
X121248571Y-121944819D01*
X121915238Y-121944819D02*
X122581904Y-121944819D01*
X122581904Y-121944819D02*
X122153333Y-122944819D01*
X114348095Y-123334819D02*
X114348095Y-122334819D01*
X114919523Y-123334819D02*
X114490952Y-122763390D01*
X114919523Y-122334819D02*
X114348095Y-122906247D01*
X103814819Y-112158094D02*
X102814819Y-112158094D01*
X102814819Y-112158094D02*
X102814819Y-111777142D01*
X102814819Y-111777142D02*
X102862438Y-111681904D01*
X102862438Y-111681904D02*
X102910057Y-111634285D01*
X102910057Y-111634285D02*
X103005295Y-111586666D01*
X103005295Y-111586666D02*
X103148152Y-111586666D01*
X103148152Y-111586666D02*
X103243390Y-111634285D01*
X103243390Y-111634285D02*
X103291009Y-111681904D01*
X103291009Y-111681904D02*
X103338628Y-111777142D01*
X103338628Y-111777142D02*
X103338628Y-112158094D01*
X102814819Y-110729523D02*
X102814819Y-110919999D01*
X102814819Y-110919999D02*
X102862438Y-111015237D01*
X102862438Y-111015237D02*
X102910057Y-111062856D01*
X102910057Y-111062856D02*
X103052914Y-111158094D01*
X103052914Y-111158094D02*
X103243390Y-111205713D01*
X103243390Y-111205713D02*
X103624342Y-111205713D01*
X103624342Y-111205713D02*
X103719580Y-111158094D01*
X103719580Y-111158094D02*
X103767200Y-111110475D01*
X103767200Y-111110475D02*
X103814819Y-111015237D01*
X103814819Y-111015237D02*
X103814819Y-110824761D01*
X103814819Y-110824761D02*
X103767200Y-110729523D01*
X103767200Y-110729523D02*
X103719580Y-110681904D01*
X103719580Y-110681904D02*
X103624342Y-110634285D01*
X103624342Y-110634285D02*
X103386247Y-110634285D01*
X103386247Y-110634285D02*
X103291009Y-110681904D01*
X103291009Y-110681904D02*
X103243390Y-110729523D01*
X103243390Y-110729523D02*
X103195771Y-110824761D01*
X103195771Y-110824761D02*
X103195771Y-111015237D01*
X103195771Y-111015237D02*
X103243390Y-111110475D01*
X103243390Y-111110475D02*
X103291009Y-111158094D01*
X103291009Y-111158094D02*
X103386247Y-111205713D01*
X129009580Y-118926666D02*
X129057200Y-118974285D01*
X129057200Y-118974285D02*
X129104819Y-119117142D01*
X129104819Y-119117142D02*
X129104819Y-119212380D01*
X129104819Y-119212380D02*
X129057200Y-119355237D01*
X129057200Y-119355237D02*
X128961961Y-119450475D01*
X128961961Y-119450475D02*
X128866723Y-119498094D01*
X128866723Y-119498094D02*
X128676247Y-119545713D01*
X128676247Y-119545713D02*
X128533390Y-119545713D01*
X128533390Y-119545713D02*
X128342914Y-119498094D01*
X128342914Y-119498094D02*
X128247676Y-119450475D01*
X128247676Y-119450475D02*
X128152438Y-119355237D01*
X128152438Y-119355237D02*
X128104819Y-119212380D01*
X128104819Y-119212380D02*
X128104819Y-119117142D01*
X128104819Y-119117142D02*
X128152438Y-118974285D01*
X128152438Y-118974285D02*
X128200057Y-118926666D01*
X128200057Y-118545713D02*
X128152438Y-118498094D01*
X128152438Y-118498094D02*
X128104819Y-118402856D01*
X128104819Y-118402856D02*
X128104819Y-118164761D01*
X128104819Y-118164761D02*
X128152438Y-118069523D01*
X128152438Y-118069523D02*
X128200057Y-118021904D01*
X128200057Y-118021904D02*
X128295295Y-117974285D01*
X128295295Y-117974285D02*
X128390533Y-117974285D01*
X128390533Y-117974285D02*
X128533390Y-118021904D01*
X128533390Y-118021904D02*
X129104819Y-118593332D01*
X129104819Y-118593332D02*
X129104819Y-117974285D01*
X126274819Y-119879047D02*
X126274819Y-120450475D01*
X126274819Y-120164761D02*
X125274819Y-120164761D01*
X125274819Y-120164761D02*
X125417676Y-120259999D01*
X125417676Y-120259999D02*
X125512914Y-120355237D01*
X125512914Y-120355237D02*
X125560533Y-120450475D01*
X125274819Y-119259999D02*
X125274819Y-119164761D01*
X125274819Y-119164761D02*
X125322438Y-119069523D01*
X125322438Y-119069523D02*
X125370057Y-119021904D01*
X125370057Y-119021904D02*
X125465295Y-118974285D01*
X125465295Y-118974285D02*
X125655771Y-118926666D01*
X125655771Y-118926666D02*
X125893866Y-118926666D01*
X125893866Y-118926666D02*
X126084342Y-118974285D01*
X126084342Y-118974285D02*
X126179580Y-119021904D01*
X126179580Y-119021904D02*
X126227200Y-119069523D01*
X126227200Y-119069523D02*
X126274819Y-119164761D01*
X126274819Y-119164761D02*
X126274819Y-119259999D01*
X126274819Y-119259999D02*
X126227200Y-119355237D01*
X126227200Y-119355237D02*
X126179580Y-119402856D01*
X126179580Y-119402856D02*
X126084342Y-119450475D01*
X126084342Y-119450475D02*
X125893866Y-119498094D01*
X125893866Y-119498094D02*
X125655771Y-119498094D01*
X125655771Y-119498094D02*
X125465295Y-119450475D01*
X125465295Y-119450475D02*
X125370057Y-119402856D01*
X125370057Y-119402856D02*
X125322438Y-119355237D01*
X125322438Y-119355237D02*
X125274819Y-119259999D01*
X125274819Y-118307618D02*
X125274819Y-118212380D01*
X125274819Y-118212380D02*
X125322438Y-118117142D01*
X125322438Y-118117142D02*
X125370057Y-118069523D01*
X125370057Y-118069523D02*
X125465295Y-118021904D01*
X125465295Y-118021904D02*
X125655771Y-117974285D01*
X125655771Y-117974285D02*
X125893866Y-117974285D01*
X125893866Y-117974285D02*
X126084342Y-118021904D01*
X126084342Y-118021904D02*
X126179580Y-118069523D01*
X126179580Y-118069523D02*
X126227200Y-118117142D01*
X126227200Y-118117142D02*
X126274819Y-118212380D01*
X126274819Y-118212380D02*
X126274819Y-118307618D01*
X126274819Y-118307618D02*
X126227200Y-118402856D01*
X126227200Y-118402856D02*
X126179580Y-118450475D01*
X126179580Y-118450475D02*
X126084342Y-118498094D01*
X126084342Y-118498094D02*
X125893866Y-118545713D01*
X125893866Y-118545713D02*
X125655771Y-118545713D01*
X125655771Y-118545713D02*
X125465295Y-118498094D01*
X125465295Y-118498094D02*
X125370057Y-118450475D01*
X125370057Y-118450475D02*
X125322438Y-118402856D01*
X125322438Y-118402856D02*
X125274819Y-118307618D01*
X125608152Y-117545713D02*
X126274819Y-117545713D01*
X125703390Y-117545713D02*
X125655771Y-117498094D01*
X125655771Y-117498094D02*
X125608152Y-117402856D01*
X125608152Y-117402856D02*
X125608152Y-117259999D01*
X125608152Y-117259999D02*
X125655771Y-117164761D01*
X125655771Y-117164761D02*
X125751009Y-117117142D01*
X125751009Y-117117142D02*
X126274819Y-117117142D01*
X116453333Y-107839580D02*
X116405714Y-107887200D01*
X116405714Y-107887200D02*
X116262857Y-107934819D01*
X116262857Y-107934819D02*
X116167619Y-107934819D01*
X116167619Y-107934819D02*
X116024762Y-107887200D01*
X116024762Y-107887200D02*
X115929524Y-107791961D01*
X115929524Y-107791961D02*
X115881905Y-107696723D01*
X115881905Y-107696723D02*
X115834286Y-107506247D01*
X115834286Y-107506247D02*
X115834286Y-107363390D01*
X115834286Y-107363390D02*
X115881905Y-107172914D01*
X115881905Y-107172914D02*
X115929524Y-107077676D01*
X115929524Y-107077676D02*
X116024762Y-106982438D01*
X116024762Y-106982438D02*
X116167619Y-106934819D01*
X116167619Y-106934819D02*
X116262857Y-106934819D01*
X116262857Y-106934819D02*
X116405714Y-106982438D01*
X116405714Y-106982438D02*
X116453333Y-107030057D01*
X117310476Y-107268152D02*
X117310476Y-107934819D01*
X117072381Y-106887200D02*
X116834286Y-107601485D01*
X116834286Y-107601485D02*
X117453333Y-107601485D01*
X109113333Y-104014819D02*
X108541905Y-104014819D01*
X108827619Y-104014819D02*
X108827619Y-103014819D01*
X108827619Y-103014819D02*
X108732381Y-103157676D01*
X108732381Y-103157676D02*
X108637143Y-103252914D01*
X108637143Y-103252914D02*
X108541905Y-103300533D01*
X109732381Y-103014819D02*
X109827619Y-103014819D01*
X109827619Y-103014819D02*
X109922857Y-103062438D01*
X109922857Y-103062438D02*
X109970476Y-103110057D01*
X109970476Y-103110057D02*
X110018095Y-103205295D01*
X110018095Y-103205295D02*
X110065714Y-103395771D01*
X110065714Y-103395771D02*
X110065714Y-103633866D01*
X110065714Y-103633866D02*
X110018095Y-103824342D01*
X110018095Y-103824342D02*
X109970476Y-103919580D01*
X109970476Y-103919580D02*
X109922857Y-103967200D01*
X109922857Y-103967200D02*
X109827619Y-104014819D01*
X109827619Y-104014819D02*
X109732381Y-104014819D01*
X109732381Y-104014819D02*
X109637143Y-103967200D01*
X109637143Y-103967200D02*
X109589524Y-103919580D01*
X109589524Y-103919580D02*
X109541905Y-103824342D01*
X109541905Y-103824342D02*
X109494286Y-103633866D01*
X109494286Y-103633866D02*
X109494286Y-103395771D01*
X109494286Y-103395771D02*
X109541905Y-103205295D01*
X109541905Y-103205295D02*
X109589524Y-103110057D01*
X109589524Y-103110057D02*
X109637143Y-103062438D01*
X109637143Y-103062438D02*
X109732381Y-103014819D01*
X110684762Y-103014819D02*
X110780000Y-103014819D01*
X110780000Y-103014819D02*
X110875238Y-103062438D01*
X110875238Y-103062438D02*
X110922857Y-103110057D01*
X110922857Y-103110057D02*
X110970476Y-103205295D01*
X110970476Y-103205295D02*
X111018095Y-103395771D01*
X111018095Y-103395771D02*
X111018095Y-103633866D01*
X111018095Y-103633866D02*
X110970476Y-103824342D01*
X110970476Y-103824342D02*
X110922857Y-103919580D01*
X110922857Y-103919580D02*
X110875238Y-103967200D01*
X110875238Y-103967200D02*
X110780000Y-104014819D01*
X110780000Y-104014819D02*
X110684762Y-104014819D01*
X110684762Y-104014819D02*
X110589524Y-103967200D01*
X110589524Y-103967200D02*
X110541905Y-103919580D01*
X110541905Y-103919580D02*
X110494286Y-103824342D01*
X110494286Y-103824342D02*
X110446667Y-103633866D01*
X110446667Y-103633866D02*
X110446667Y-103395771D01*
X110446667Y-103395771D02*
X110494286Y-103205295D01*
X110494286Y-103205295D02*
X110541905Y-103110057D01*
X110541905Y-103110057D02*
X110589524Y-103062438D01*
X110589524Y-103062438D02*
X110684762Y-103014819D01*
X111637143Y-103014819D02*
X111732381Y-103014819D01*
X111732381Y-103014819D02*
X111827619Y-103062438D01*
X111827619Y-103062438D02*
X111875238Y-103110057D01*
X111875238Y-103110057D02*
X111922857Y-103205295D01*
X111922857Y-103205295D02*
X111970476Y-103395771D01*
X111970476Y-103395771D02*
X111970476Y-103633866D01*
X111970476Y-103633866D02*
X111922857Y-103824342D01*
X111922857Y-103824342D02*
X111875238Y-103919580D01*
X111875238Y-103919580D02*
X111827619Y-103967200D01*
X111827619Y-103967200D02*
X111732381Y-104014819D01*
X111732381Y-104014819D02*
X111637143Y-104014819D01*
X111637143Y-104014819D02*
X111541905Y-103967200D01*
X111541905Y-103967200D02*
X111494286Y-103919580D01*
X111494286Y-103919580D02*
X111446667Y-103824342D01*
X111446667Y-103824342D02*
X111399048Y-103633866D01*
X111399048Y-103633866D02*
X111399048Y-103395771D01*
X111399048Y-103395771D02*
X111446667Y-103205295D01*
X111446667Y-103205295D02*
X111494286Y-103110057D01*
X111494286Y-103110057D02*
X111541905Y-103062438D01*
X111541905Y-103062438D02*
X111637143Y-103014819D01*
X112399048Y-103348152D02*
X112399048Y-104348152D01*
X112875238Y-103871961D02*
X112922857Y-103967200D01*
X112922857Y-103967200D02*
X113018095Y-104014819D01*
X112399048Y-103871961D02*
X112446667Y-103967200D01*
X112446667Y-103967200D02*
X112541905Y-104014819D01*
X112541905Y-104014819D02*
X112732381Y-104014819D01*
X112732381Y-104014819D02*
X112827619Y-103967200D01*
X112827619Y-103967200D02*
X112875238Y-103871961D01*
X112875238Y-103871961D02*
X112875238Y-103348152D01*
X126246666Y-53014819D02*
X126246666Y-53729104D01*
X126246666Y-53729104D02*
X126199047Y-53871961D01*
X126199047Y-53871961D02*
X126103809Y-53967200D01*
X126103809Y-53967200D02*
X125960952Y-54014819D01*
X125960952Y-54014819D02*
X125865714Y-54014819D01*
X127246666Y-54014819D02*
X126675238Y-54014819D01*
X126960952Y-54014819D02*
X126960952Y-53014819D01*
X126960952Y-53014819D02*
X126865714Y-53157676D01*
X126865714Y-53157676D02*
X126770476Y-53252914D01*
X126770476Y-53252914D02*
X126675238Y-53300533D01*
X117720475Y-56629580D02*
X117672856Y-56677200D01*
X117672856Y-56677200D02*
X117529999Y-56724819D01*
X117529999Y-56724819D02*
X117434761Y-56724819D01*
X117434761Y-56724819D02*
X117291904Y-56677200D01*
X117291904Y-56677200D02*
X117196666Y-56581961D01*
X117196666Y-56581961D02*
X117149047Y-56486723D01*
X117149047Y-56486723D02*
X117101428Y-56296247D01*
X117101428Y-56296247D02*
X117101428Y-56153390D01*
X117101428Y-56153390D02*
X117149047Y-55962914D01*
X117149047Y-55962914D02*
X117196666Y-55867676D01*
X117196666Y-55867676D02*
X117291904Y-55772438D01*
X117291904Y-55772438D02*
X117434761Y-55724819D01*
X117434761Y-55724819D02*
X117529999Y-55724819D01*
X117529999Y-55724819D02*
X117672856Y-55772438D01*
X117672856Y-55772438D02*
X117720475Y-55820057D01*
X118291904Y-56724819D02*
X118196666Y-56677200D01*
X118196666Y-56677200D02*
X118149047Y-56629580D01*
X118149047Y-56629580D02*
X118101428Y-56534342D01*
X118101428Y-56534342D02*
X118101428Y-56248628D01*
X118101428Y-56248628D02*
X118149047Y-56153390D01*
X118149047Y-56153390D02*
X118196666Y-56105771D01*
X118196666Y-56105771D02*
X118291904Y-56058152D01*
X118291904Y-56058152D02*
X118434761Y-56058152D01*
X118434761Y-56058152D02*
X118529999Y-56105771D01*
X118529999Y-56105771D02*
X118577618Y-56153390D01*
X118577618Y-56153390D02*
X118625237Y-56248628D01*
X118625237Y-56248628D02*
X118625237Y-56534342D01*
X118625237Y-56534342D02*
X118577618Y-56629580D01*
X118577618Y-56629580D02*
X118529999Y-56677200D01*
X118529999Y-56677200D02*
X118434761Y-56724819D01*
X118434761Y-56724819D02*
X118291904Y-56724819D01*
X119053809Y-56058152D02*
X119053809Y-56724819D01*
X119053809Y-56153390D02*
X119101428Y-56105771D01*
X119101428Y-56105771D02*
X119196666Y-56058152D01*
X119196666Y-56058152D02*
X119339523Y-56058152D01*
X119339523Y-56058152D02*
X119434761Y-56105771D01*
X119434761Y-56105771D02*
X119482380Y-56201009D01*
X119482380Y-56201009D02*
X119482380Y-56724819D01*
X119958571Y-56058152D02*
X119958571Y-56724819D01*
X119958571Y-56153390D02*
X120006190Y-56105771D01*
X120006190Y-56105771D02*
X120101428Y-56058152D01*
X120101428Y-56058152D02*
X120244285Y-56058152D01*
X120244285Y-56058152D02*
X120339523Y-56105771D01*
X120339523Y-56105771D02*
X120387142Y-56201009D01*
X120387142Y-56201009D02*
X120387142Y-56724819D01*
X120625238Y-56820057D02*
X121387142Y-56820057D01*
X121958571Y-56201009D02*
X122101428Y-56248628D01*
X122101428Y-56248628D02*
X122149047Y-56296247D01*
X122149047Y-56296247D02*
X122196666Y-56391485D01*
X122196666Y-56391485D02*
X122196666Y-56534342D01*
X122196666Y-56534342D02*
X122149047Y-56629580D01*
X122149047Y-56629580D02*
X122101428Y-56677200D01*
X122101428Y-56677200D02*
X122006190Y-56724819D01*
X122006190Y-56724819D02*
X121625238Y-56724819D01*
X121625238Y-56724819D02*
X121625238Y-55724819D01*
X121625238Y-55724819D02*
X121958571Y-55724819D01*
X121958571Y-55724819D02*
X122053809Y-55772438D01*
X122053809Y-55772438D02*
X122101428Y-55820057D01*
X122101428Y-55820057D02*
X122149047Y-55915295D01*
X122149047Y-55915295D02*
X122149047Y-56010533D01*
X122149047Y-56010533D02*
X122101428Y-56105771D01*
X122101428Y-56105771D02*
X122053809Y-56153390D01*
X122053809Y-56153390D02*
X121958571Y-56201009D01*
X121958571Y-56201009D02*
X121625238Y-56201009D01*
X122482381Y-55724819D02*
X123053809Y-55724819D01*
X122768095Y-56724819D02*
X122768095Y-55724819D01*
X118948095Y-113274819D02*
X118948095Y-114084342D01*
X118948095Y-114084342D02*
X118995714Y-114179580D01*
X118995714Y-114179580D02*
X119043333Y-114227200D01*
X119043333Y-114227200D02*
X119138571Y-114274819D01*
X119138571Y-114274819D02*
X119329047Y-114274819D01*
X119329047Y-114274819D02*
X119424285Y-114227200D01*
X119424285Y-114227200D02*
X119471904Y-114179580D01*
X119471904Y-114179580D02*
X119519523Y-114084342D01*
X119519523Y-114084342D02*
X119519523Y-113274819D01*
X119948095Y-113370057D02*
X119995714Y-113322438D01*
X119995714Y-113322438D02*
X120090952Y-113274819D01*
X120090952Y-113274819D02*
X120329047Y-113274819D01*
X120329047Y-113274819D02*
X120424285Y-113322438D01*
X120424285Y-113322438D02*
X120471904Y-113370057D01*
X120471904Y-113370057D02*
X120519523Y-113465295D01*
X120519523Y-113465295D02*
X120519523Y-113560533D01*
X120519523Y-113560533D02*
X120471904Y-113703390D01*
X120471904Y-113703390D02*
X119900476Y-114274819D01*
X119900476Y-114274819D02*
X120519523Y-114274819D01*
X116602380Y-115844819D02*
X116126190Y-115844819D01*
X116126190Y-115844819D02*
X116126190Y-114844819D01*
X116935714Y-115844819D02*
X116935714Y-114844819D01*
X116935714Y-114844819D02*
X117269047Y-115559104D01*
X117269047Y-115559104D02*
X117602380Y-114844819D01*
X117602380Y-114844819D02*
X117602380Y-115844819D01*
X117983333Y-114844819D02*
X118649999Y-114844819D01*
X118649999Y-114844819D02*
X118221428Y-115844819D01*
X119173809Y-115273390D02*
X119078571Y-115225771D01*
X119078571Y-115225771D02*
X119030952Y-115178152D01*
X119030952Y-115178152D02*
X118983333Y-115082914D01*
X118983333Y-115082914D02*
X118983333Y-115035295D01*
X118983333Y-115035295D02*
X119030952Y-114940057D01*
X119030952Y-114940057D02*
X119078571Y-114892438D01*
X119078571Y-114892438D02*
X119173809Y-114844819D01*
X119173809Y-114844819D02*
X119364285Y-114844819D01*
X119364285Y-114844819D02*
X119459523Y-114892438D01*
X119459523Y-114892438D02*
X119507142Y-114940057D01*
X119507142Y-114940057D02*
X119554761Y-115035295D01*
X119554761Y-115035295D02*
X119554761Y-115082914D01*
X119554761Y-115082914D02*
X119507142Y-115178152D01*
X119507142Y-115178152D02*
X119459523Y-115225771D01*
X119459523Y-115225771D02*
X119364285Y-115273390D01*
X119364285Y-115273390D02*
X119173809Y-115273390D01*
X119173809Y-115273390D02*
X119078571Y-115321009D01*
X119078571Y-115321009D02*
X119030952Y-115368628D01*
X119030952Y-115368628D02*
X118983333Y-115463866D01*
X118983333Y-115463866D02*
X118983333Y-115654342D01*
X118983333Y-115654342D02*
X119030952Y-115749580D01*
X119030952Y-115749580D02*
X119078571Y-115797200D01*
X119078571Y-115797200D02*
X119173809Y-115844819D01*
X119173809Y-115844819D02*
X119364285Y-115844819D01*
X119364285Y-115844819D02*
X119459523Y-115797200D01*
X119459523Y-115797200D02*
X119507142Y-115749580D01*
X119507142Y-115749580D02*
X119554761Y-115654342D01*
X119554761Y-115654342D02*
X119554761Y-115463866D01*
X119554761Y-115463866D02*
X119507142Y-115368628D01*
X119507142Y-115368628D02*
X119459523Y-115321009D01*
X119459523Y-115321009D02*
X119364285Y-115273390D01*
X120173809Y-114844819D02*
X120269047Y-114844819D01*
X120269047Y-114844819D02*
X120364285Y-114892438D01*
X120364285Y-114892438D02*
X120411904Y-114940057D01*
X120411904Y-114940057D02*
X120459523Y-115035295D01*
X120459523Y-115035295D02*
X120507142Y-115225771D01*
X120507142Y-115225771D02*
X120507142Y-115463866D01*
X120507142Y-115463866D02*
X120459523Y-115654342D01*
X120459523Y-115654342D02*
X120411904Y-115749580D01*
X120411904Y-115749580D02*
X120364285Y-115797200D01*
X120364285Y-115797200D02*
X120269047Y-115844819D01*
X120269047Y-115844819D02*
X120173809Y-115844819D01*
X120173809Y-115844819D02*
X120078571Y-115797200D01*
X120078571Y-115797200D02*
X120030952Y-115749580D01*
X120030952Y-115749580D02*
X119983333Y-115654342D01*
X119983333Y-115654342D02*
X119935714Y-115463866D01*
X119935714Y-115463866D02*
X119935714Y-115225771D01*
X119935714Y-115225771D02*
X119983333Y-115035295D01*
X119983333Y-115035295D02*
X120030952Y-114940057D01*
X120030952Y-114940057D02*
X120078571Y-114892438D01*
X120078571Y-114892438D02*
X120173809Y-114844819D01*
X121411904Y-114844819D02*
X120935714Y-114844819D01*
X120935714Y-114844819D02*
X120888095Y-115321009D01*
X120888095Y-115321009D02*
X120935714Y-115273390D01*
X120935714Y-115273390D02*
X121030952Y-115225771D01*
X121030952Y-115225771D02*
X121269047Y-115225771D01*
X121269047Y-115225771D02*
X121364285Y-115273390D01*
X121364285Y-115273390D02*
X121411904Y-115321009D01*
X121411904Y-115321009D02*
X121459523Y-115416247D01*
X121459523Y-115416247D02*
X121459523Y-115654342D01*
X121459523Y-115654342D02*
X121411904Y-115749580D01*
X121411904Y-115749580D02*
X121364285Y-115797200D01*
X121364285Y-115797200D02*
X121269047Y-115844819D01*
X121269047Y-115844819D02*
X121030952Y-115844819D01*
X121030952Y-115844819D02*
X120935714Y-115797200D01*
X120935714Y-115797200D02*
X120888095Y-115749580D01*
X122459523Y-115749580D02*
X122411904Y-115797200D01*
X122411904Y-115797200D02*
X122269047Y-115844819D01*
X122269047Y-115844819D02*
X122173809Y-115844819D01*
X122173809Y-115844819D02*
X122030952Y-115797200D01*
X122030952Y-115797200D02*
X121935714Y-115701961D01*
X121935714Y-115701961D02*
X121888095Y-115606723D01*
X121888095Y-115606723D02*
X121840476Y-115416247D01*
X121840476Y-115416247D02*
X121840476Y-115273390D01*
X121840476Y-115273390D02*
X121888095Y-115082914D01*
X121888095Y-115082914D02*
X121935714Y-114987676D01*
X121935714Y-114987676D02*
X122030952Y-114892438D01*
X122030952Y-114892438D02*
X122173809Y-114844819D01*
X122173809Y-114844819D02*
X122269047Y-114844819D01*
X122269047Y-114844819D02*
X122411904Y-114892438D01*
X122411904Y-114892438D02*
X122459523Y-114940057D01*
X122745238Y-114844819D02*
X123316666Y-114844819D01*
X123030952Y-115844819D02*
X123030952Y-114844819D01*
X103558095Y-50544819D02*
X103558095Y-49544819D01*
X103558095Y-50021009D02*
X104129523Y-50021009D01*
X104129523Y-50544819D02*
X104129523Y-49544819D01*
X105129523Y-50544819D02*
X104558095Y-50544819D01*
X104843809Y-50544819D02*
X104843809Y-49544819D01*
X104843809Y-49544819D02*
X104748571Y-49687676D01*
X104748571Y-49687676D02*
X104653333Y-49782914D01*
X104653333Y-49782914D02*
X104558095Y-49830533D01*
X103754819Y-75478094D02*
X102754819Y-75478094D01*
X102754819Y-75478094D02*
X102754819Y-75097142D01*
X102754819Y-75097142D02*
X102802438Y-75001904D01*
X102802438Y-75001904D02*
X102850057Y-74954285D01*
X102850057Y-74954285D02*
X102945295Y-74906666D01*
X102945295Y-74906666D02*
X103088152Y-74906666D01*
X103088152Y-74906666D02*
X103183390Y-74954285D01*
X103183390Y-74954285D02*
X103231009Y-75001904D01*
X103231009Y-75001904D02*
X103278628Y-75097142D01*
X103278628Y-75097142D02*
X103278628Y-75478094D01*
X102754819Y-74573332D02*
X102754819Y-73954285D01*
X102754819Y-73954285D02*
X103135771Y-74287618D01*
X103135771Y-74287618D02*
X103135771Y-74144761D01*
X103135771Y-74144761D02*
X103183390Y-74049523D01*
X103183390Y-74049523D02*
X103231009Y-74001904D01*
X103231009Y-74001904D02*
X103326247Y-73954285D01*
X103326247Y-73954285D02*
X103564342Y-73954285D01*
X103564342Y-73954285D02*
X103659580Y-74001904D01*
X103659580Y-74001904D02*
X103707200Y-74049523D01*
X103707200Y-74049523D02*
X103754819Y-74144761D01*
X103754819Y-74144761D02*
X103754819Y-74430475D01*
X103754819Y-74430475D02*
X103707200Y-74525713D01*
X103707200Y-74525713D02*
X103659580Y-74573332D01*
X144000057Y-72475238D02*
X143952438Y-72570476D01*
X143952438Y-72570476D02*
X143857200Y-72665714D01*
X143857200Y-72665714D02*
X143714342Y-72808571D01*
X143714342Y-72808571D02*
X143666723Y-72903809D01*
X143666723Y-72903809D02*
X143666723Y-72999047D01*
X143904819Y-72951428D02*
X143857200Y-73046666D01*
X143857200Y-73046666D02*
X143761961Y-73141904D01*
X143761961Y-73141904D02*
X143571485Y-73189523D01*
X143571485Y-73189523D02*
X143238152Y-73189523D01*
X143238152Y-73189523D02*
X143047676Y-73141904D01*
X143047676Y-73141904D02*
X142952438Y-73046666D01*
X142952438Y-73046666D02*
X142904819Y-72951428D01*
X142904819Y-72951428D02*
X142904819Y-72760952D01*
X142904819Y-72760952D02*
X142952438Y-72665714D01*
X142952438Y-72665714D02*
X143047676Y-72570476D01*
X143047676Y-72570476D02*
X143238152Y-72522857D01*
X143238152Y-72522857D02*
X143571485Y-72522857D01*
X143571485Y-72522857D02*
X143761961Y-72570476D01*
X143761961Y-72570476D02*
X143857200Y-72665714D01*
X143857200Y-72665714D02*
X143904819Y-72760952D01*
X143904819Y-72760952D02*
X143904819Y-72951428D01*
X143904819Y-71570476D02*
X143904819Y-72141904D01*
X143904819Y-71856190D02*
X142904819Y-71856190D01*
X142904819Y-71856190D02*
X143047676Y-71951428D01*
X143047676Y-71951428D02*
X143142914Y-72046666D01*
X143142914Y-72046666D02*
X143190533Y-72141904D01*
X132264819Y-76254761D02*
X131264819Y-76254761D01*
X132264819Y-75207143D02*
X131788628Y-75540476D01*
X132264819Y-75778571D02*
X131264819Y-75778571D01*
X131264819Y-75778571D02*
X131264819Y-75397619D01*
X131264819Y-75397619D02*
X131312438Y-75302381D01*
X131312438Y-75302381D02*
X131360057Y-75254762D01*
X131360057Y-75254762D02*
X131455295Y-75207143D01*
X131455295Y-75207143D02*
X131598152Y-75207143D01*
X131598152Y-75207143D02*
X131693390Y-75254762D01*
X131693390Y-75254762D02*
X131741009Y-75302381D01*
X131741009Y-75302381D02*
X131788628Y-75397619D01*
X131788628Y-75397619D02*
X131788628Y-75778571D01*
X131312438Y-74254762D02*
X131264819Y-74350000D01*
X131264819Y-74350000D02*
X131264819Y-74492857D01*
X131264819Y-74492857D02*
X131312438Y-74635714D01*
X131312438Y-74635714D02*
X131407676Y-74730952D01*
X131407676Y-74730952D02*
X131502914Y-74778571D01*
X131502914Y-74778571D02*
X131693390Y-74826190D01*
X131693390Y-74826190D02*
X131836247Y-74826190D01*
X131836247Y-74826190D02*
X132026723Y-74778571D01*
X132026723Y-74778571D02*
X132121961Y-74730952D01*
X132121961Y-74730952D02*
X132217200Y-74635714D01*
X132217200Y-74635714D02*
X132264819Y-74492857D01*
X132264819Y-74492857D02*
X132264819Y-74397619D01*
X132264819Y-74397619D02*
X132217200Y-74254762D01*
X132217200Y-74254762D02*
X132169580Y-74207143D01*
X132169580Y-74207143D02*
X131836247Y-74207143D01*
X131836247Y-74207143D02*
X131836247Y-74397619D01*
X131741009Y-73445238D02*
X131788628Y-73302381D01*
X131788628Y-73302381D02*
X131836247Y-73254762D01*
X131836247Y-73254762D02*
X131931485Y-73207143D01*
X131931485Y-73207143D02*
X132074342Y-73207143D01*
X132074342Y-73207143D02*
X132169580Y-73254762D01*
X132169580Y-73254762D02*
X132217200Y-73302381D01*
X132217200Y-73302381D02*
X132264819Y-73397619D01*
X132264819Y-73397619D02*
X132264819Y-73778571D01*
X132264819Y-73778571D02*
X131264819Y-73778571D01*
X131264819Y-73778571D02*
X131264819Y-73445238D01*
X131264819Y-73445238D02*
X131312438Y-73350000D01*
X131312438Y-73350000D02*
X131360057Y-73302381D01*
X131360057Y-73302381D02*
X131455295Y-73254762D01*
X131455295Y-73254762D02*
X131550533Y-73254762D01*
X131550533Y-73254762D02*
X131645771Y-73302381D01*
X131645771Y-73302381D02*
X131693390Y-73350000D01*
X131693390Y-73350000D02*
X131741009Y-73445238D01*
X131741009Y-73445238D02*
X131741009Y-73778571D01*
X132264819Y-72254762D02*
X132264819Y-72826190D01*
X132264819Y-72540476D02*
X131264819Y-72540476D01*
X131264819Y-72540476D02*
X131407676Y-72635714D01*
X131407676Y-72635714D02*
X131502914Y-72730952D01*
X131502914Y-72730952D02*
X131550533Y-72826190D01*
X131598152Y-71397619D02*
X132264819Y-71397619D01*
X131217200Y-71635714D02*
X131931485Y-71873809D01*
X131931485Y-71873809D02*
X131931485Y-71254762D01*
X132169580Y-70302381D02*
X132217200Y-70350000D01*
X132217200Y-70350000D02*
X132264819Y-70492857D01*
X132264819Y-70492857D02*
X132264819Y-70588095D01*
X132264819Y-70588095D02*
X132217200Y-70730952D01*
X132217200Y-70730952D02*
X132121961Y-70826190D01*
X132121961Y-70826190D02*
X132026723Y-70873809D01*
X132026723Y-70873809D02*
X131836247Y-70921428D01*
X131836247Y-70921428D02*
X131693390Y-70921428D01*
X131693390Y-70921428D02*
X131502914Y-70873809D01*
X131502914Y-70873809D02*
X131407676Y-70826190D01*
X131407676Y-70826190D02*
X131312438Y-70730952D01*
X131312438Y-70730952D02*
X131264819Y-70588095D01*
X131264819Y-70588095D02*
X131264819Y-70492857D01*
X131264819Y-70492857D02*
X131312438Y-70350000D01*
X131312438Y-70350000D02*
X131360057Y-70302381D01*
X131598152Y-69445238D02*
X132264819Y-69445238D01*
X131217200Y-69683333D02*
X131931485Y-69921428D01*
X131931485Y-69921428D02*
X131931485Y-69302381D01*
X131264819Y-68730952D02*
X131264819Y-68635714D01*
X131264819Y-68635714D02*
X131312438Y-68540476D01*
X131312438Y-68540476D02*
X131360057Y-68492857D01*
X131360057Y-68492857D02*
X131455295Y-68445238D01*
X131455295Y-68445238D02*
X131645771Y-68397619D01*
X131645771Y-68397619D02*
X131883866Y-68397619D01*
X131883866Y-68397619D02*
X132074342Y-68445238D01*
X132074342Y-68445238D02*
X132169580Y-68492857D01*
X132169580Y-68492857D02*
X132217200Y-68540476D01*
X132217200Y-68540476D02*
X132264819Y-68635714D01*
X132264819Y-68635714D02*
X132264819Y-68730952D01*
X132264819Y-68730952D02*
X132217200Y-68826190D01*
X132217200Y-68826190D02*
X132169580Y-68873809D01*
X132169580Y-68873809D02*
X132074342Y-68921428D01*
X132074342Y-68921428D02*
X131883866Y-68969047D01*
X131883866Y-68969047D02*
X131645771Y-68969047D01*
X131645771Y-68969047D02*
X131455295Y-68921428D01*
X131455295Y-68921428D02*
X131360057Y-68873809D01*
X131360057Y-68873809D02*
X131312438Y-68826190D01*
X131312438Y-68826190D02*
X131264819Y-68730952D01*
X103814819Y-91138094D02*
X102814819Y-91138094D01*
X102814819Y-91138094D02*
X102814819Y-90757142D01*
X102814819Y-90757142D02*
X102862438Y-90661904D01*
X102862438Y-90661904D02*
X102910057Y-90614285D01*
X102910057Y-90614285D02*
X103005295Y-90566666D01*
X103005295Y-90566666D02*
X103148152Y-90566666D01*
X103148152Y-90566666D02*
X103243390Y-90614285D01*
X103243390Y-90614285D02*
X103291009Y-90661904D01*
X103291009Y-90661904D02*
X103338628Y-90757142D01*
X103338628Y-90757142D02*
X103338628Y-91138094D01*
X103148152Y-89709523D02*
X103814819Y-89709523D01*
X102767200Y-89947618D02*
X103481485Y-90185713D01*
X103481485Y-90185713D02*
X103481485Y-89566666D01*
X136748095Y-131244819D02*
X136748095Y-130244819D01*
X136748095Y-130721009D02*
X137319523Y-130721009D01*
X137319523Y-131244819D02*
X137319523Y-130244819D01*
X138224285Y-130578152D02*
X138224285Y-131244819D01*
X137986190Y-130197200D02*
X137748095Y-130911485D01*
X137748095Y-130911485D02*
X138367142Y-130911485D01*
X144000057Y-109115238D02*
X143952438Y-109210476D01*
X143952438Y-109210476D02*
X143857200Y-109305714D01*
X143857200Y-109305714D02*
X143714342Y-109448571D01*
X143714342Y-109448571D02*
X143666723Y-109543809D01*
X143666723Y-109543809D02*
X143666723Y-109639047D01*
X143904819Y-109591428D02*
X143857200Y-109686666D01*
X143857200Y-109686666D02*
X143761961Y-109781904D01*
X143761961Y-109781904D02*
X143571485Y-109829523D01*
X143571485Y-109829523D02*
X143238152Y-109829523D01*
X143238152Y-109829523D02*
X143047676Y-109781904D01*
X143047676Y-109781904D02*
X142952438Y-109686666D01*
X142952438Y-109686666D02*
X142904819Y-109591428D01*
X142904819Y-109591428D02*
X142904819Y-109400952D01*
X142904819Y-109400952D02*
X142952438Y-109305714D01*
X142952438Y-109305714D02*
X143047676Y-109210476D01*
X143047676Y-109210476D02*
X143238152Y-109162857D01*
X143238152Y-109162857D02*
X143571485Y-109162857D01*
X143571485Y-109162857D02*
X143761961Y-109210476D01*
X143761961Y-109210476D02*
X143857200Y-109305714D01*
X143857200Y-109305714D02*
X143904819Y-109400952D01*
X143904819Y-109400952D02*
X143904819Y-109591428D01*
X143000057Y-108781904D02*
X142952438Y-108734285D01*
X142952438Y-108734285D02*
X142904819Y-108639047D01*
X142904819Y-108639047D02*
X142904819Y-108400952D01*
X142904819Y-108400952D02*
X142952438Y-108305714D01*
X142952438Y-108305714D02*
X143000057Y-108258095D01*
X143000057Y-108258095D02*
X143095295Y-108210476D01*
X143095295Y-108210476D02*
X143190533Y-108210476D01*
X143190533Y-108210476D02*
X143333390Y-108258095D01*
X143333390Y-108258095D02*
X143904819Y-108829523D01*
X143904819Y-108829523D02*
X143904819Y-108210476D01*
X132264819Y-112984761D02*
X131264819Y-112984761D01*
X132264819Y-111937143D02*
X131788628Y-112270476D01*
X132264819Y-112508571D02*
X131264819Y-112508571D01*
X131264819Y-112508571D02*
X131264819Y-112127619D01*
X131264819Y-112127619D02*
X131312438Y-112032381D01*
X131312438Y-112032381D02*
X131360057Y-111984762D01*
X131360057Y-111984762D02*
X131455295Y-111937143D01*
X131455295Y-111937143D02*
X131598152Y-111937143D01*
X131598152Y-111937143D02*
X131693390Y-111984762D01*
X131693390Y-111984762D02*
X131741009Y-112032381D01*
X131741009Y-112032381D02*
X131788628Y-112127619D01*
X131788628Y-112127619D02*
X131788628Y-112508571D01*
X131312438Y-110984762D02*
X131264819Y-111080000D01*
X131264819Y-111080000D02*
X131264819Y-111222857D01*
X131264819Y-111222857D02*
X131312438Y-111365714D01*
X131312438Y-111365714D02*
X131407676Y-111460952D01*
X131407676Y-111460952D02*
X131502914Y-111508571D01*
X131502914Y-111508571D02*
X131693390Y-111556190D01*
X131693390Y-111556190D02*
X131836247Y-111556190D01*
X131836247Y-111556190D02*
X132026723Y-111508571D01*
X132026723Y-111508571D02*
X132121961Y-111460952D01*
X132121961Y-111460952D02*
X132217200Y-111365714D01*
X132217200Y-111365714D02*
X132264819Y-111222857D01*
X132264819Y-111222857D02*
X132264819Y-111127619D01*
X132264819Y-111127619D02*
X132217200Y-110984762D01*
X132217200Y-110984762D02*
X132169580Y-110937143D01*
X132169580Y-110937143D02*
X131836247Y-110937143D01*
X131836247Y-110937143D02*
X131836247Y-111127619D01*
X131741009Y-110175238D02*
X131788628Y-110032381D01*
X131788628Y-110032381D02*
X131836247Y-109984762D01*
X131836247Y-109984762D02*
X131931485Y-109937143D01*
X131931485Y-109937143D02*
X132074342Y-109937143D01*
X132074342Y-109937143D02*
X132169580Y-109984762D01*
X132169580Y-109984762D02*
X132217200Y-110032381D01*
X132217200Y-110032381D02*
X132264819Y-110127619D01*
X132264819Y-110127619D02*
X132264819Y-110508571D01*
X132264819Y-110508571D02*
X131264819Y-110508571D01*
X131264819Y-110508571D02*
X131264819Y-110175238D01*
X131264819Y-110175238D02*
X131312438Y-110080000D01*
X131312438Y-110080000D02*
X131360057Y-110032381D01*
X131360057Y-110032381D02*
X131455295Y-109984762D01*
X131455295Y-109984762D02*
X131550533Y-109984762D01*
X131550533Y-109984762D02*
X131645771Y-110032381D01*
X131645771Y-110032381D02*
X131693390Y-110080000D01*
X131693390Y-110080000D02*
X131741009Y-110175238D01*
X131741009Y-110175238D02*
X131741009Y-110508571D01*
X132264819Y-108984762D02*
X132264819Y-109556190D01*
X132264819Y-109270476D02*
X131264819Y-109270476D01*
X131264819Y-109270476D02*
X131407676Y-109365714D01*
X131407676Y-109365714D02*
X131502914Y-109460952D01*
X131502914Y-109460952D02*
X131550533Y-109556190D01*
X131598152Y-108127619D02*
X132264819Y-108127619D01*
X131217200Y-108365714D02*
X131931485Y-108603809D01*
X131931485Y-108603809D02*
X131931485Y-107984762D01*
X132169580Y-107032381D02*
X132217200Y-107080000D01*
X132217200Y-107080000D02*
X132264819Y-107222857D01*
X132264819Y-107222857D02*
X132264819Y-107318095D01*
X132264819Y-107318095D02*
X132217200Y-107460952D01*
X132217200Y-107460952D02*
X132121961Y-107556190D01*
X132121961Y-107556190D02*
X132026723Y-107603809D01*
X132026723Y-107603809D02*
X131836247Y-107651428D01*
X131836247Y-107651428D02*
X131693390Y-107651428D01*
X131693390Y-107651428D02*
X131502914Y-107603809D01*
X131502914Y-107603809D02*
X131407676Y-107556190D01*
X131407676Y-107556190D02*
X131312438Y-107460952D01*
X131312438Y-107460952D02*
X131264819Y-107318095D01*
X131264819Y-107318095D02*
X131264819Y-107222857D01*
X131264819Y-107222857D02*
X131312438Y-107080000D01*
X131312438Y-107080000D02*
X131360057Y-107032381D01*
X131598152Y-106175238D02*
X132264819Y-106175238D01*
X131217200Y-106413333D02*
X131931485Y-106651428D01*
X131931485Y-106651428D02*
X131931485Y-106032381D01*
X131264819Y-105460952D02*
X131264819Y-105365714D01*
X131264819Y-105365714D02*
X131312438Y-105270476D01*
X131312438Y-105270476D02*
X131360057Y-105222857D01*
X131360057Y-105222857D02*
X131455295Y-105175238D01*
X131455295Y-105175238D02*
X131645771Y-105127619D01*
X131645771Y-105127619D02*
X131883866Y-105127619D01*
X131883866Y-105127619D02*
X132074342Y-105175238D01*
X132074342Y-105175238D02*
X132169580Y-105222857D01*
X132169580Y-105222857D02*
X132217200Y-105270476D01*
X132217200Y-105270476D02*
X132264819Y-105365714D01*
X132264819Y-105365714D02*
X132264819Y-105460952D01*
X132264819Y-105460952D02*
X132217200Y-105556190D01*
X132217200Y-105556190D02*
X132169580Y-105603809D01*
X132169580Y-105603809D02*
X132074342Y-105651428D01*
X132074342Y-105651428D02*
X131883866Y-105699047D01*
X131883866Y-105699047D02*
X131645771Y-105699047D01*
X131645771Y-105699047D02*
X131455295Y-105651428D01*
X131455295Y-105651428D02*
X131360057Y-105603809D01*
X131360057Y-105603809D02*
X131312438Y-105556190D01*
X131312438Y-105556190D02*
X131264819Y-105460952D01*
X123213333Y-107869580D02*
X123165714Y-107917200D01*
X123165714Y-107917200D02*
X123022857Y-107964819D01*
X123022857Y-107964819D02*
X122927619Y-107964819D01*
X122927619Y-107964819D02*
X122784762Y-107917200D01*
X122784762Y-107917200D02*
X122689524Y-107821961D01*
X122689524Y-107821961D02*
X122641905Y-107726723D01*
X122641905Y-107726723D02*
X122594286Y-107536247D01*
X122594286Y-107536247D02*
X122594286Y-107393390D01*
X122594286Y-107393390D02*
X122641905Y-107202914D01*
X122641905Y-107202914D02*
X122689524Y-107107676D01*
X122689524Y-107107676D02*
X122784762Y-107012438D01*
X122784762Y-107012438D02*
X122927619Y-106964819D01*
X122927619Y-106964819D02*
X123022857Y-106964819D01*
X123022857Y-106964819D02*
X123165714Y-107012438D01*
X123165714Y-107012438D02*
X123213333Y-107060057D01*
X124165714Y-107964819D02*
X123594286Y-107964819D01*
X123880000Y-107964819D02*
X123880000Y-106964819D01*
X123880000Y-106964819D02*
X123784762Y-107107676D01*
X123784762Y-107107676D02*
X123689524Y-107202914D01*
X123689524Y-107202914D02*
X123594286Y-107250533D01*
X127225714Y-105754819D02*
X126654286Y-105754819D01*
X126940000Y-105754819D02*
X126940000Y-104754819D01*
X126940000Y-104754819D02*
X126844762Y-104897676D01*
X126844762Y-104897676D02*
X126749524Y-104992914D01*
X126749524Y-104992914D02*
X126654286Y-105040533D01*
X127844762Y-104754819D02*
X127940000Y-104754819D01*
X127940000Y-104754819D02*
X128035238Y-104802438D01*
X128035238Y-104802438D02*
X128082857Y-104850057D01*
X128082857Y-104850057D02*
X128130476Y-104945295D01*
X128130476Y-104945295D02*
X128178095Y-105135771D01*
X128178095Y-105135771D02*
X128178095Y-105373866D01*
X128178095Y-105373866D02*
X128130476Y-105564342D01*
X128130476Y-105564342D02*
X128082857Y-105659580D01*
X128082857Y-105659580D02*
X128035238Y-105707200D01*
X128035238Y-105707200D02*
X127940000Y-105754819D01*
X127940000Y-105754819D02*
X127844762Y-105754819D01*
X127844762Y-105754819D02*
X127749524Y-105707200D01*
X127749524Y-105707200D02*
X127701905Y-105659580D01*
X127701905Y-105659580D02*
X127654286Y-105564342D01*
X127654286Y-105564342D02*
X127606667Y-105373866D01*
X127606667Y-105373866D02*
X127606667Y-105135771D01*
X127606667Y-105135771D02*
X127654286Y-104945295D01*
X127654286Y-104945295D02*
X127701905Y-104850057D01*
X127701905Y-104850057D02*
X127749524Y-104802438D01*
X127749524Y-104802438D02*
X127844762Y-104754819D01*
X128606667Y-105088152D02*
X128606667Y-106088152D01*
X129082857Y-105611961D02*
X129130476Y-105707200D01*
X129130476Y-105707200D02*
X129225714Y-105754819D01*
X128606667Y-105611961D02*
X128654286Y-105707200D01*
X128654286Y-105707200D02*
X128749524Y-105754819D01*
X128749524Y-105754819D02*
X128940000Y-105754819D01*
X128940000Y-105754819D02*
X129035238Y-105707200D01*
X129035238Y-105707200D02*
X129082857Y-105611961D01*
X129082857Y-105611961D02*
X129082857Y-105088152D01*
X110819580Y-118946666D02*
X110867200Y-118994285D01*
X110867200Y-118994285D02*
X110914819Y-119137142D01*
X110914819Y-119137142D02*
X110914819Y-119232380D01*
X110914819Y-119232380D02*
X110867200Y-119375237D01*
X110867200Y-119375237D02*
X110771961Y-119470475D01*
X110771961Y-119470475D02*
X110676723Y-119518094D01*
X110676723Y-119518094D02*
X110486247Y-119565713D01*
X110486247Y-119565713D02*
X110343390Y-119565713D01*
X110343390Y-119565713D02*
X110152914Y-119518094D01*
X110152914Y-119518094D02*
X110057676Y-119470475D01*
X110057676Y-119470475D02*
X109962438Y-119375237D01*
X109962438Y-119375237D02*
X109914819Y-119232380D01*
X109914819Y-119232380D02*
X109914819Y-119137142D01*
X109914819Y-119137142D02*
X109962438Y-118994285D01*
X109962438Y-118994285D02*
X110010057Y-118946666D01*
X109914819Y-118613332D02*
X109914819Y-117994285D01*
X109914819Y-117994285D02*
X110295771Y-118327618D01*
X110295771Y-118327618D02*
X110295771Y-118184761D01*
X110295771Y-118184761D02*
X110343390Y-118089523D01*
X110343390Y-118089523D02*
X110391009Y-118041904D01*
X110391009Y-118041904D02*
X110486247Y-117994285D01*
X110486247Y-117994285D02*
X110724342Y-117994285D01*
X110724342Y-117994285D02*
X110819580Y-118041904D01*
X110819580Y-118041904D02*
X110867200Y-118089523D01*
X110867200Y-118089523D02*
X110914819Y-118184761D01*
X110914819Y-118184761D02*
X110914819Y-118470475D01*
X110914819Y-118470475D02*
X110867200Y-118565713D01*
X110867200Y-118565713D02*
X110819580Y-118613332D01*
X113914819Y-119879047D02*
X113914819Y-120450475D01*
X113914819Y-120164761D02*
X112914819Y-120164761D01*
X112914819Y-120164761D02*
X113057676Y-120259999D01*
X113057676Y-120259999D02*
X113152914Y-120355237D01*
X113152914Y-120355237D02*
X113200533Y-120450475D01*
X112914819Y-119259999D02*
X112914819Y-119164761D01*
X112914819Y-119164761D02*
X112962438Y-119069523D01*
X112962438Y-119069523D02*
X113010057Y-119021904D01*
X113010057Y-119021904D02*
X113105295Y-118974285D01*
X113105295Y-118974285D02*
X113295771Y-118926666D01*
X113295771Y-118926666D02*
X113533866Y-118926666D01*
X113533866Y-118926666D02*
X113724342Y-118974285D01*
X113724342Y-118974285D02*
X113819580Y-119021904D01*
X113819580Y-119021904D02*
X113867200Y-119069523D01*
X113867200Y-119069523D02*
X113914819Y-119164761D01*
X113914819Y-119164761D02*
X113914819Y-119259999D01*
X113914819Y-119259999D02*
X113867200Y-119355237D01*
X113867200Y-119355237D02*
X113819580Y-119402856D01*
X113819580Y-119402856D02*
X113724342Y-119450475D01*
X113724342Y-119450475D02*
X113533866Y-119498094D01*
X113533866Y-119498094D02*
X113295771Y-119498094D01*
X113295771Y-119498094D02*
X113105295Y-119450475D01*
X113105295Y-119450475D02*
X113010057Y-119402856D01*
X113010057Y-119402856D02*
X112962438Y-119355237D01*
X112962438Y-119355237D02*
X112914819Y-119259999D01*
X112914819Y-118307618D02*
X112914819Y-118212380D01*
X112914819Y-118212380D02*
X112962438Y-118117142D01*
X112962438Y-118117142D02*
X113010057Y-118069523D01*
X113010057Y-118069523D02*
X113105295Y-118021904D01*
X113105295Y-118021904D02*
X113295771Y-117974285D01*
X113295771Y-117974285D02*
X113533866Y-117974285D01*
X113533866Y-117974285D02*
X113724342Y-118021904D01*
X113724342Y-118021904D02*
X113819580Y-118069523D01*
X113819580Y-118069523D02*
X113867200Y-118117142D01*
X113867200Y-118117142D02*
X113914819Y-118212380D01*
X113914819Y-118212380D02*
X113914819Y-118307618D01*
X113914819Y-118307618D02*
X113867200Y-118402856D01*
X113867200Y-118402856D02*
X113819580Y-118450475D01*
X113819580Y-118450475D02*
X113724342Y-118498094D01*
X113724342Y-118498094D02*
X113533866Y-118545713D01*
X113533866Y-118545713D02*
X113295771Y-118545713D01*
X113295771Y-118545713D02*
X113105295Y-118498094D01*
X113105295Y-118498094D02*
X113010057Y-118450475D01*
X113010057Y-118450475D02*
X112962438Y-118402856D01*
X112962438Y-118402856D02*
X112914819Y-118307618D01*
X113248152Y-117545713D02*
X113914819Y-117545713D01*
X113343390Y-117545713D02*
X113295771Y-117498094D01*
X113295771Y-117498094D02*
X113248152Y-117402856D01*
X113248152Y-117402856D02*
X113248152Y-117259999D01*
X113248152Y-117259999D02*
X113295771Y-117164761D01*
X113295771Y-117164761D02*
X113391009Y-117117142D01*
X113391009Y-117117142D02*
X113914819Y-117117142D01*
X104058095Y-131274819D02*
X104058095Y-130274819D01*
X104058095Y-130751009D02*
X104629523Y-130751009D01*
X104629523Y-131274819D02*
X104629523Y-130274819D01*
X105010476Y-130274819D02*
X105629523Y-130274819D01*
X105629523Y-130274819D02*
X105296190Y-130655771D01*
X105296190Y-130655771D02*
X105439047Y-130655771D01*
X105439047Y-130655771D02*
X105534285Y-130703390D01*
X105534285Y-130703390D02*
X105581904Y-130751009D01*
X105581904Y-130751009D02*
X105629523Y-130846247D01*
X105629523Y-130846247D02*
X105629523Y-131084342D01*
X105629523Y-131084342D02*
X105581904Y-131179580D01*
X105581904Y-131179580D02*
X105534285Y-131227200D01*
X105534285Y-131227200D02*
X105439047Y-131274819D01*
X105439047Y-131274819D02*
X105153333Y-131274819D01*
X105153333Y-131274819D02*
X105058095Y-131227200D01*
X105058095Y-131227200D02*
X105010476Y-131179580D01*
X141784819Y-110258094D02*
X140784819Y-110258094D01*
X141261009Y-110258094D02*
X141261009Y-109686666D01*
X141784819Y-109686666D02*
X140784819Y-109686666D01*
X141737200Y-109258094D02*
X141784819Y-109115237D01*
X141784819Y-109115237D02*
X141784819Y-108877142D01*
X141784819Y-108877142D02*
X141737200Y-108781904D01*
X141737200Y-108781904D02*
X141689580Y-108734285D01*
X141689580Y-108734285D02*
X141594342Y-108686666D01*
X141594342Y-108686666D02*
X141499104Y-108686666D01*
X141499104Y-108686666D02*
X141403866Y-108734285D01*
X141403866Y-108734285D02*
X141356247Y-108781904D01*
X141356247Y-108781904D02*
X141308628Y-108877142D01*
X141308628Y-108877142D02*
X141261009Y-109067618D01*
X141261009Y-109067618D02*
X141213390Y-109162856D01*
X141213390Y-109162856D02*
X141165771Y-109210475D01*
X141165771Y-109210475D02*
X141070533Y-109258094D01*
X141070533Y-109258094D02*
X140975295Y-109258094D01*
X140975295Y-109258094D02*
X140880057Y-109210475D01*
X140880057Y-109210475D02*
X140832438Y-109162856D01*
X140832438Y-109162856D02*
X140784819Y-109067618D01*
X140784819Y-109067618D02*
X140784819Y-108829523D01*
X140784819Y-108829523D02*
X140832438Y-108686666D01*
X140880057Y-108305713D02*
X140832438Y-108258094D01*
X140832438Y-108258094D02*
X140784819Y-108162856D01*
X140784819Y-108162856D02*
X140784819Y-107924761D01*
X140784819Y-107924761D02*
X140832438Y-107829523D01*
X140832438Y-107829523D02*
X140880057Y-107781904D01*
X140880057Y-107781904D02*
X140975295Y-107734285D01*
X140975295Y-107734285D02*
X141070533Y-107734285D01*
X141070533Y-107734285D02*
X141213390Y-107781904D01*
X141213390Y-107781904D02*
X141784819Y-108353332D01*
X141784819Y-108353332D02*
X141784819Y-107734285D01*
X141784819Y-73638094D02*
X140784819Y-73638094D01*
X141261009Y-73638094D02*
X141261009Y-73066666D01*
X141784819Y-73066666D02*
X140784819Y-73066666D01*
X141737200Y-72638094D02*
X141784819Y-72495237D01*
X141784819Y-72495237D02*
X141784819Y-72257142D01*
X141784819Y-72257142D02*
X141737200Y-72161904D01*
X141737200Y-72161904D02*
X141689580Y-72114285D01*
X141689580Y-72114285D02*
X141594342Y-72066666D01*
X141594342Y-72066666D02*
X141499104Y-72066666D01*
X141499104Y-72066666D02*
X141403866Y-72114285D01*
X141403866Y-72114285D02*
X141356247Y-72161904D01*
X141356247Y-72161904D02*
X141308628Y-72257142D01*
X141308628Y-72257142D02*
X141261009Y-72447618D01*
X141261009Y-72447618D02*
X141213390Y-72542856D01*
X141213390Y-72542856D02*
X141165771Y-72590475D01*
X141165771Y-72590475D02*
X141070533Y-72638094D01*
X141070533Y-72638094D02*
X140975295Y-72638094D01*
X140975295Y-72638094D02*
X140880057Y-72590475D01*
X140880057Y-72590475D02*
X140832438Y-72542856D01*
X140832438Y-72542856D02*
X140784819Y-72447618D01*
X140784819Y-72447618D02*
X140784819Y-72209523D01*
X140784819Y-72209523D02*
X140832438Y-72066666D01*
X141784819Y-71114285D02*
X141784819Y-71685713D01*
X141784819Y-71399999D02*
X140784819Y-71399999D01*
X140784819Y-71399999D02*
X140927676Y-71495237D01*
X140927676Y-71495237D02*
X141022914Y-71590475D01*
X141022914Y-71590475D02*
X141070533Y-71685713D01*
D12*
X123118687Y-68804666D02*
X124558021Y-68804666D01*
X124558021Y-68804666D02*
X124727354Y-68720000D01*
X124727354Y-68720000D02*
X124812021Y-68635333D01*
X124812021Y-68635333D02*
X124896687Y-68466000D01*
X124896687Y-68466000D02*
X124896687Y-68127333D01*
X124896687Y-68127333D02*
X124812021Y-67958000D01*
X124812021Y-67958000D02*
X124727354Y-67873333D01*
X124727354Y-67873333D02*
X124558021Y-67788666D01*
X124558021Y-67788666D02*
X123118687Y-67788666D01*
X124896687Y-66010666D02*
X124896687Y-67026666D01*
X124896687Y-66518666D02*
X123118687Y-66518666D01*
X123118687Y-66518666D02*
X123372687Y-66687999D01*
X123372687Y-66687999D02*
X123542021Y-66857333D01*
X123542021Y-66857333D02*
X123626687Y-67026666D01*
X117403687Y-91707001D02*
X117403687Y-90860334D01*
X117911687Y-91876334D02*
X116133687Y-91283668D01*
X116133687Y-91283668D02*
X117911687Y-90691001D01*
X117911687Y-90098334D02*
X116726354Y-90098334D01*
X117065021Y-90098334D02*
X116895687Y-90013668D01*
X116895687Y-90013668D02*
X116811021Y-89929001D01*
X116811021Y-89929001D02*
X116726354Y-89759668D01*
X116726354Y-89759668D02*
X116726354Y-89590334D01*
X117911687Y-88235667D02*
X116133687Y-88235667D01*
X117827021Y-88235667D02*
X117911687Y-88405001D01*
X117911687Y-88405001D02*
X117911687Y-88743667D01*
X117911687Y-88743667D02*
X117827021Y-88913001D01*
X117827021Y-88913001D02*
X117742354Y-88997667D01*
X117742354Y-88997667D02*
X117573021Y-89082334D01*
X117573021Y-89082334D02*
X117065021Y-89082334D01*
X117065021Y-89082334D02*
X116895687Y-88997667D01*
X116895687Y-88997667D02*
X116811021Y-88913001D01*
X116811021Y-88913001D02*
X116726354Y-88743667D01*
X116726354Y-88743667D02*
X116726354Y-88405001D01*
X116726354Y-88405001D02*
X116811021Y-88235667D01*
X116726354Y-86627000D02*
X117911687Y-86627000D01*
X116726354Y-87389000D02*
X117657687Y-87389000D01*
X117657687Y-87389000D02*
X117827021Y-87304334D01*
X117827021Y-87304334D02*
X117911687Y-87135000D01*
X117911687Y-87135000D02*
X117911687Y-86881000D01*
X117911687Y-86881000D02*
X117827021Y-86711667D01*
X117827021Y-86711667D02*
X117742354Y-86627000D01*
X117911687Y-85780333D02*
X116726354Y-85780333D01*
X116133687Y-85780333D02*
X116218354Y-85865000D01*
X116218354Y-85865000D02*
X116303021Y-85780333D01*
X116303021Y-85780333D02*
X116218354Y-85695667D01*
X116218354Y-85695667D02*
X116133687Y-85780333D01*
X116133687Y-85780333D02*
X116303021Y-85780333D01*
X116726354Y-84933666D02*
X117911687Y-84933666D01*
X116895687Y-84933666D02*
X116811021Y-84849000D01*
X116811021Y-84849000D02*
X116726354Y-84679666D01*
X116726354Y-84679666D02*
X116726354Y-84425666D01*
X116726354Y-84425666D02*
X116811021Y-84256333D01*
X116811021Y-84256333D02*
X116980354Y-84171666D01*
X116980354Y-84171666D02*
X117911687Y-84171666D01*
X117911687Y-83070999D02*
X117827021Y-83240333D01*
X117827021Y-83240333D02*
X117742354Y-83324999D01*
X117742354Y-83324999D02*
X117573021Y-83409666D01*
X117573021Y-83409666D02*
X117065021Y-83409666D01*
X117065021Y-83409666D02*
X116895687Y-83324999D01*
X116895687Y-83324999D02*
X116811021Y-83240333D01*
X116811021Y-83240333D02*
X116726354Y-83070999D01*
X116726354Y-83070999D02*
X116726354Y-82816999D01*
X116726354Y-82816999D02*
X116811021Y-82647666D01*
X116811021Y-82647666D02*
X116895687Y-82562999D01*
X116895687Y-82562999D02*
X117065021Y-82478333D01*
X117065021Y-82478333D02*
X117573021Y-82478333D01*
X117573021Y-82478333D02*
X117742354Y-82562999D01*
X117742354Y-82562999D02*
X117827021Y-82647666D01*
X117827021Y-82647666D02*
X117911687Y-82816999D01*
X117911687Y-82816999D02*
X117911687Y-83070999D01*
X118081021Y-82139666D02*
X118081021Y-80784999D01*
X117911687Y-80361665D02*
X116133687Y-80361665D01*
X116133687Y-80361665D02*
X117911687Y-79345665D01*
X117911687Y-79345665D02*
X116133687Y-79345665D01*
X117911687Y-77736998D02*
X116980354Y-77736998D01*
X116980354Y-77736998D02*
X116811021Y-77821665D01*
X116811021Y-77821665D02*
X116726354Y-77990998D01*
X116726354Y-77990998D02*
X116726354Y-78329665D01*
X116726354Y-78329665D02*
X116811021Y-78498998D01*
X117827021Y-77736998D02*
X117911687Y-77906332D01*
X117911687Y-77906332D02*
X117911687Y-78329665D01*
X117911687Y-78329665D02*
X117827021Y-78498998D01*
X117827021Y-78498998D02*
X117657687Y-78583665D01*
X117657687Y-78583665D02*
X117488354Y-78583665D01*
X117488354Y-78583665D02*
X117319021Y-78498998D01*
X117319021Y-78498998D02*
X117234354Y-78329665D01*
X117234354Y-78329665D02*
X117234354Y-77906332D01*
X117234354Y-77906332D02*
X117149687Y-77736998D01*
X116726354Y-76890331D02*
X117911687Y-76890331D01*
X116895687Y-76890331D02*
X116811021Y-76805665D01*
X116811021Y-76805665D02*
X116726354Y-76636331D01*
X116726354Y-76636331D02*
X116726354Y-76382331D01*
X116726354Y-76382331D02*
X116811021Y-76212998D01*
X116811021Y-76212998D02*
X116980354Y-76128331D01*
X116980354Y-76128331D02*
X117911687Y-76128331D01*
X117911687Y-75027664D02*
X117827021Y-75196998D01*
X117827021Y-75196998D02*
X117742354Y-75281664D01*
X117742354Y-75281664D02*
X117573021Y-75366331D01*
X117573021Y-75366331D02*
X117065021Y-75366331D01*
X117065021Y-75366331D02*
X116895687Y-75281664D01*
X116895687Y-75281664D02*
X116811021Y-75196998D01*
X116811021Y-75196998D02*
X116726354Y-75027664D01*
X116726354Y-75027664D02*
X116726354Y-74773664D01*
X116726354Y-74773664D02*
X116811021Y-74604331D01*
X116811021Y-74604331D02*
X116895687Y-74519664D01*
X116895687Y-74519664D02*
X117065021Y-74434998D01*
X117065021Y-74434998D02*
X117573021Y-74434998D01*
X117573021Y-74434998D02*
X117742354Y-74519664D01*
X117742354Y-74519664D02*
X117827021Y-74604331D01*
X117827021Y-74604331D02*
X117911687Y-74773664D01*
X117911687Y-74773664D02*
X117911687Y-75027664D01*
X118081021Y-74096331D02*
X118081021Y-72741664D01*
X116133687Y-72572330D02*
X117911687Y-71979664D01*
X117911687Y-71979664D02*
X116133687Y-71386997D01*
X116133687Y-70963664D02*
X116133687Y-69862997D01*
X116133687Y-69862997D02*
X116811021Y-70455664D01*
X116811021Y-70455664D02*
X116811021Y-70201664D01*
X116811021Y-70201664D02*
X116895687Y-70032330D01*
X116895687Y-70032330D02*
X116980354Y-69947664D01*
X116980354Y-69947664D02*
X117149687Y-69862997D01*
X117149687Y-69862997D02*
X117573021Y-69862997D01*
X117573021Y-69862997D02*
X117742354Y-69947664D01*
X117742354Y-69947664D02*
X117827021Y-70032330D01*
X117827021Y-70032330D02*
X117911687Y-70201664D01*
X117911687Y-70201664D02*
X117911687Y-70709664D01*
X117911687Y-70709664D02*
X117827021Y-70878997D01*
X117827021Y-70878997D02*
X117742354Y-70963664D01*
D11*
X103814819Y-101658094D02*
X102814819Y-101658094D01*
X102814819Y-101658094D02*
X102814819Y-101277142D01*
X102814819Y-101277142D02*
X102862438Y-101181904D01*
X102862438Y-101181904D02*
X102910057Y-101134285D01*
X102910057Y-101134285D02*
X103005295Y-101086666D01*
X103005295Y-101086666D02*
X103148152Y-101086666D01*
X103148152Y-101086666D02*
X103243390Y-101134285D01*
X103243390Y-101134285D02*
X103291009Y-101181904D01*
X103291009Y-101181904D02*
X103338628Y-101277142D01*
X103338628Y-101277142D02*
X103338628Y-101658094D01*
X102814819Y-100181904D02*
X102814819Y-100658094D01*
X102814819Y-100658094D02*
X103291009Y-100705713D01*
X103291009Y-100705713D02*
X103243390Y-100658094D01*
X103243390Y-100658094D02*
X103195771Y-100562856D01*
X103195771Y-100562856D02*
X103195771Y-100324761D01*
X103195771Y-100324761D02*
X103243390Y-100229523D01*
X103243390Y-100229523D02*
X103291009Y-100181904D01*
X103291009Y-100181904D02*
X103386247Y-100134285D01*
X103386247Y-100134285D02*
X103624342Y-100134285D01*
X103624342Y-100134285D02*
X103719580Y-100181904D01*
X103719580Y-100181904D02*
X103767200Y-100229523D01*
X103767200Y-100229523D02*
X103814819Y-100324761D01*
X103814819Y-100324761D02*
X103814819Y-100562856D01*
X103814819Y-100562856D02*
X103767200Y-100658094D01*
X103767200Y-100658094D02*
X103719580Y-100705713D01*
D13*
%TO.C,P1*%
X99550000Y-116880000D02*
X99550000Y-127040000D01*
X99550000Y-127040000D02*
X107170000Y-127040000D01*
X105900000Y-116880000D02*
X105900000Y-127040000D01*
X107170000Y-116880000D02*
X99550000Y-116880000D01*
X107170000Y-127040000D02*
X107170000Y-116880000D01*
%TO.C,P2*%
X99550000Y-69240000D02*
X99550000Y-54000000D01*
X105900000Y-69240000D02*
X105900000Y-54000000D01*
X107170000Y-54000000D02*
X99550000Y-54000000D01*
X107170000Y-69240000D02*
X99550000Y-69240000D01*
X107170000Y-69240000D02*
X107170000Y-54000000D01*
%TO.C,D1*%
X115950000Y-124980000D02*
X116970000Y-124980000D01*
X117750000Y-123510000D02*
X117750000Y-126450000D01*
X117870000Y-123510000D02*
X117870000Y-126450000D01*
X117990000Y-123510000D02*
X117990000Y-126450000D01*
X123430000Y-124980000D02*
X122410000Y-124980000D01*
X116970000Y-123510000D02*
X122410000Y-123510000D01*
X122410000Y-126450000D01*
X116970000Y-126450000D01*
X116970000Y-123510000D01*
%TO.C,P6*%
X99550000Y-106340000D02*
X99550000Y-116500000D01*
X99550000Y-116500000D02*
X107170000Y-116500000D01*
X105900000Y-106340000D02*
X105900000Y-116500000D01*
X107170000Y-106340000D02*
X99550000Y-106340000D01*
X107170000Y-116500000D02*
X107170000Y-106340000D01*
%TO.C,C2*%
X126780000Y-115140000D02*
X130520000Y-115140000D01*
X126780000Y-122380000D02*
X126780000Y-115140000D01*
X126780000Y-122380000D02*
X130520000Y-122380000D01*
X130520000Y-122380000D02*
X130520000Y-115140000D01*
%TO.C,C4*%
X109640000Y-110069000D02*
X109640000Y-108871000D01*
X109680000Y-110332000D02*
X109680000Y-108608000D01*
X109720000Y-110532000D02*
X109720000Y-108408000D01*
X109760000Y-110700000D02*
X109760000Y-108240000D01*
X109800000Y-110847000D02*
X109800000Y-108093000D01*
X109840000Y-110979000D02*
X109840000Y-107961000D01*
X109880000Y-111100000D02*
X109880000Y-107840000D01*
X109920000Y-111212000D02*
X109920000Y-107728000D01*
X109960000Y-111316000D02*
X109960000Y-107624000D01*
X110000000Y-111414000D02*
X110000000Y-107526000D01*
X110040000Y-111507000D02*
X110040000Y-107433000D01*
X110080000Y-111594000D02*
X110080000Y-107346000D01*
X110120000Y-111678000D02*
X110120000Y-107262000D01*
X110160000Y-111758000D02*
X110160000Y-107182000D01*
X110200000Y-111835000D02*
X110200000Y-107105000D01*
X110240000Y-111909000D02*
X110240000Y-107031000D01*
X110280000Y-111980000D02*
X110280000Y-106960000D01*
X110320000Y-112048000D02*
X110320000Y-106892000D01*
X110360000Y-112114000D02*
X110360000Y-106826000D01*
X110400000Y-112178000D02*
X110400000Y-106762000D01*
X110440000Y-112240000D02*
X110440000Y-106700000D01*
X110480000Y-112300000D02*
X110480000Y-106640000D01*
X110520000Y-112358000D02*
X110520000Y-106582000D01*
X110560000Y-112415000D02*
X110560000Y-106525000D01*
X110600000Y-112470000D02*
X110600000Y-106470000D01*
X110640000Y-112523000D02*
X110640000Y-106417000D01*
X110680000Y-112575000D02*
X110680000Y-106365000D01*
X110720000Y-112626000D02*
X110720000Y-106314000D01*
X110760000Y-112675000D02*
X110760000Y-106265000D01*
X110800000Y-112724000D02*
X110800000Y-106216000D01*
X110840000Y-112771000D02*
X110840000Y-106169000D01*
X110880000Y-112817000D02*
X110880000Y-106123000D01*
X110920000Y-112861000D02*
X110920000Y-106079000D01*
X110960000Y-112905000D02*
X110960000Y-106035000D01*
X111000000Y-112948000D02*
X111000000Y-105992000D01*
X111040000Y-112990000D02*
X111040000Y-105950000D01*
X111080000Y-113031000D02*
X111080000Y-105909000D01*
X111120000Y-113071000D02*
X111120000Y-105869000D01*
X111160000Y-113110000D02*
X111160000Y-105830000D01*
X111200000Y-113148000D02*
X111200000Y-105792000D01*
X111240000Y-113186000D02*
X111240000Y-105754000D01*
X111280000Y-113222000D02*
X111280000Y-105718000D01*
X111320000Y-113258000D02*
X111320000Y-105682000D01*
X111360000Y-113293000D02*
X111360000Y-105647000D01*
X111400000Y-113328000D02*
X111400000Y-105612000D01*
X111440000Y-113361000D02*
X111440000Y-105579000D01*
X111480000Y-113394000D02*
X111480000Y-105546000D01*
X111520000Y-113427000D02*
X111520000Y-105513000D01*
X111560000Y-113458000D02*
X111560000Y-105482000D01*
X111600000Y-113490000D02*
X111600000Y-105450000D01*
X111640000Y-113520000D02*
X111640000Y-105420000D01*
X111680000Y-113550000D02*
X111680000Y-105390000D01*
X111720000Y-113579000D02*
X111720000Y-105361000D01*
X111760000Y-113608000D02*
X111760000Y-105332000D01*
X111800000Y-113636000D02*
X111800000Y-105304000D01*
X111840000Y-113663000D02*
X111840000Y-105277000D01*
X111880000Y-113690000D02*
X111880000Y-105250000D01*
X111920000Y-113717000D02*
X111920000Y-105223000D01*
X111960000Y-113742000D02*
X111960000Y-105198000D01*
X112000000Y-113768000D02*
X112000000Y-105172000D01*
X112040000Y-113793000D02*
X112040000Y-105147000D01*
X112080000Y-113817000D02*
X112080000Y-105123000D01*
X112120000Y-113841000D02*
X112120000Y-105099000D01*
X112160000Y-113864000D02*
X112160000Y-105076000D01*
X112200000Y-113887000D02*
X112200000Y-105053000D01*
X112240000Y-113909000D02*
X112240000Y-105031000D01*
X112280000Y-113931000D02*
X112280000Y-105009000D01*
X112320000Y-113953000D02*
X112320000Y-104987000D01*
X112360000Y-113974000D02*
X112360000Y-104966000D01*
X112400000Y-113994000D02*
X112400000Y-104946000D01*
X112440000Y-108430000D02*
X112440000Y-104926000D01*
X112440000Y-114014000D02*
X112440000Y-110510000D01*
X112480000Y-108430000D02*
X112480000Y-104906000D01*
X112480000Y-114034000D02*
X112480000Y-110510000D01*
X112520000Y-108430000D02*
X112520000Y-104887000D01*
X112520000Y-114053000D02*
X112520000Y-110510000D01*
X112560000Y-108430000D02*
X112560000Y-104868000D01*
X112560000Y-114072000D02*
X112560000Y-110510000D01*
X112600000Y-108430000D02*
X112600000Y-104850000D01*
X112600000Y-114090000D02*
X112600000Y-110510000D01*
X112640000Y-108430000D02*
X112640000Y-104832000D01*
X112640000Y-114108000D02*
X112640000Y-110510000D01*
X112680000Y-108430000D02*
X112680000Y-104814000D01*
X112680000Y-114126000D02*
X112680000Y-110510000D01*
X112720000Y-108430000D02*
X112720000Y-104797000D01*
X112720000Y-114143000D02*
X112720000Y-110510000D01*
X112760000Y-108430000D02*
X112760000Y-104780000D01*
X112760000Y-114160000D02*
X112760000Y-110510000D01*
X112800000Y-108430000D02*
X112800000Y-104764000D01*
X112800000Y-114176000D02*
X112800000Y-110510000D01*
X112840000Y-108430000D02*
X112840000Y-104748000D01*
X112840000Y-114192000D02*
X112840000Y-110510000D01*
X112880000Y-108430000D02*
X112880000Y-104732000D01*
X112880000Y-114208000D02*
X112880000Y-110510000D01*
X112920000Y-108430000D02*
X112920000Y-104717000D01*
X112920000Y-114223000D02*
X112920000Y-110510000D01*
X112960000Y-108430000D02*
X112960000Y-104702000D01*
X112960000Y-114238000D02*
X112960000Y-110510000D01*
X113000000Y-108430000D02*
X113000000Y-104688000D01*
X113000000Y-114252000D02*
X113000000Y-110510000D01*
X113040000Y-108430000D02*
X113040000Y-104673000D01*
X113040000Y-114267000D02*
X113040000Y-110510000D01*
X113080000Y-108430000D02*
X113080000Y-104660000D01*
X113080000Y-114280000D02*
X113080000Y-110510000D01*
X113120000Y-108430000D02*
X113120000Y-104646000D01*
X113120000Y-114294000D02*
X113120000Y-110510000D01*
X113160000Y-108430000D02*
X113160000Y-104633000D01*
X113160000Y-114307000D02*
X113160000Y-110510000D01*
X113200000Y-108430000D02*
X113200000Y-104621000D01*
X113200000Y-114319000D02*
X113200000Y-110510000D01*
X113240000Y-108430000D02*
X113240000Y-104609000D01*
X113240000Y-114331000D02*
X113240000Y-110510000D01*
X113280000Y-108430000D02*
X113280000Y-104597000D01*
X113280000Y-114343000D02*
X113280000Y-110510000D01*
X113320000Y-108430000D02*
X113320000Y-104585000D01*
X113320000Y-114355000D02*
X113320000Y-110510000D01*
X113360000Y-108430000D02*
X113360000Y-104574000D01*
X113360000Y-114366000D02*
X113360000Y-110510000D01*
X113400000Y-108430000D02*
X113400000Y-104563000D01*
X113400000Y-114377000D02*
X113400000Y-110510000D01*
X113440000Y-108430000D02*
X113440000Y-104553000D01*
X113440000Y-114387000D02*
X113440000Y-110510000D01*
X113480000Y-108430000D02*
X113480000Y-104542000D01*
X113480000Y-114398000D02*
X113480000Y-110510000D01*
X113520000Y-108430000D02*
X113520000Y-104533000D01*
X113520000Y-114407000D02*
X113520000Y-110510000D01*
X113560000Y-108430000D02*
X113560000Y-104523000D01*
X113560000Y-114417000D02*
X113560000Y-110510000D01*
X113600000Y-108430000D02*
X113600000Y-104514000D01*
X113600000Y-114426000D02*
X113600000Y-110510000D01*
X113640000Y-108430000D02*
X113640000Y-104505000D01*
X113640000Y-114435000D02*
X113640000Y-110510000D01*
X113680000Y-108430000D02*
X113680000Y-104497000D01*
X113680000Y-114443000D02*
X113680000Y-110510000D01*
X113720000Y-108430000D02*
X113720000Y-104489000D01*
X113720000Y-114451000D02*
X113720000Y-110510000D01*
X113760000Y-108430000D02*
X113760000Y-104481000D01*
X113760000Y-114459000D02*
X113760000Y-110510000D01*
X113800000Y-108430000D02*
X113800000Y-104473000D01*
X113800000Y-114467000D02*
X113800000Y-110510000D01*
X113840000Y-108430000D02*
X113840000Y-104466000D01*
X113840000Y-114474000D02*
X113840000Y-110510000D01*
X113880000Y-108430000D02*
X113880000Y-104459000D01*
X113880000Y-114481000D02*
X113880000Y-110510000D01*
X113920000Y-108430000D02*
X113920000Y-104453000D01*
X113920000Y-114487000D02*
X113920000Y-110510000D01*
X113960000Y-108430000D02*
X113960000Y-104447000D01*
X113960000Y-114493000D02*
X113960000Y-110510000D01*
X114000000Y-108430000D02*
X114000000Y-104441000D01*
X114000000Y-114499000D02*
X114000000Y-110510000D01*
X114040000Y-108430000D02*
X114040000Y-104435000D01*
X114040000Y-114505000D02*
X114040000Y-110510000D01*
X114080000Y-108430000D02*
X114080000Y-104430000D01*
X114080000Y-114510000D02*
X114080000Y-110510000D01*
X114120000Y-108430000D02*
X114120000Y-104425000D01*
X114120000Y-114515000D02*
X114120000Y-110510000D01*
X114160000Y-108430000D02*
X114160000Y-104421000D01*
X114160000Y-114519000D02*
X114160000Y-110510000D01*
X114200000Y-108430000D02*
X114200000Y-104416000D01*
X114200000Y-114524000D02*
X114200000Y-110510000D01*
X114240000Y-108430000D02*
X114240000Y-104413000D01*
X114240000Y-114527000D02*
X114240000Y-110510000D01*
X114280000Y-108430000D02*
X114280000Y-104409000D01*
X114280000Y-114531000D02*
X114280000Y-110510000D01*
X114320000Y-108430000D02*
X114320000Y-104406000D01*
X114320000Y-114534000D02*
X114320000Y-110510000D01*
X114360000Y-108430000D02*
X114360000Y-104403000D01*
X114360000Y-114537000D02*
X114360000Y-110510000D01*
X114400000Y-108430000D02*
X114400000Y-104400000D01*
X114400000Y-114540000D02*
X114400000Y-110510000D01*
X114440000Y-108430000D02*
X114440000Y-104398000D01*
X114440000Y-114542000D02*
X114440000Y-110510000D01*
X114480000Y-108430000D02*
X114480000Y-104396000D01*
X114480000Y-114544000D02*
X114480000Y-110510000D01*
X114520000Y-114546000D02*
X114520000Y-104394000D01*
X114560000Y-114547000D02*
X114560000Y-104393000D01*
X114600000Y-114549000D02*
X114600000Y-104391000D01*
X114640000Y-114549000D02*
X114640000Y-104391000D01*
X114680000Y-114550000D02*
X114680000Y-104390000D01*
X114720000Y-114550000D02*
X114720000Y-104390000D01*
X119699646Y-112845000D02*
X119699646Y-111845000D01*
X120199646Y-112345000D02*
X119199646Y-112345000D01*
X119840000Y-109470000D02*
G75*
G02*
X109600000Y-109470000I-5120000J0D01*
G01*
X109600000Y-109470000D02*
G75*
G02*
X119840000Y-109470000I5120000J0D01*
G01*
%TO.C,J1*%
X114840000Y-52180000D02*
X114840000Y-54940000D01*
X122570000Y-52180000D02*
X114840000Y-52180000D01*
X122570000Y-52180000D02*
X122570000Y-54940000D01*
X122570000Y-54940000D02*
X114840000Y-54940000D01*
X123840000Y-52180000D02*
X125220000Y-52180000D01*
X125220000Y-52180000D02*
X125220000Y-53560000D01*
%TO.C,U2*%
X114510000Y-116450000D02*
X114510000Y-121070000D01*
X114510000Y-116450000D02*
X124730000Y-116450000D01*
X114510000Y-117830000D02*
X124730000Y-117830000D01*
X114510000Y-121070000D02*
X124730000Y-121070000D01*
X117770000Y-116450000D02*
X117770000Y-117830000D01*
X121470000Y-116450000D02*
X121470000Y-117830000D01*
X124730000Y-116450000D02*
X124730000Y-121070000D01*
%TO.C,P3*%
X99550000Y-84880000D02*
X99550000Y-69640000D01*
X105900000Y-84880000D02*
X105900000Y-69640000D01*
X107170000Y-69640000D02*
X99550000Y-69640000D01*
X107170000Y-84880000D02*
X99550000Y-84880000D01*
X107170000Y-84880000D02*
X107170000Y-69640000D01*
%TO.C,Q1*%
X132650000Y-67240000D02*
X132650000Y-77460000D01*
X135890000Y-67240000D02*
X135890000Y-77460000D01*
X137270000Y-67240000D02*
X132650000Y-67240000D01*
X137270000Y-67240000D02*
X137270000Y-77460000D01*
X137270000Y-70500000D02*
X135890000Y-70500000D01*
X137270000Y-74200000D02*
X135890000Y-74200000D01*
X137270000Y-77460000D02*
X132650000Y-77460000D01*
%TO.C,P4*%
X99550000Y-85320000D02*
X99550000Y-95480000D01*
X99550000Y-95480000D02*
X107170000Y-95480000D01*
X105900000Y-85320000D02*
X105900000Y-95480000D01*
X107170000Y-85320000D02*
X99550000Y-85320000D01*
X107170000Y-95480000D02*
X107170000Y-85320000D01*
%TO.C,Q2*%
X132650000Y-103970000D02*
X132650000Y-114190000D01*
X135890000Y-103970000D02*
X135890000Y-114190000D01*
X137270000Y-103970000D02*
X132650000Y-103970000D01*
X137270000Y-103970000D02*
X137270000Y-114190000D01*
X137270000Y-107230000D02*
X135890000Y-107230000D01*
X137270000Y-110930000D02*
X135890000Y-110930000D01*
X137270000Y-114190000D02*
X132650000Y-114190000D01*
%TO.C,C1*%
X120949759Y-107371000D02*
X121579759Y-107371000D01*
X121264759Y-107056000D02*
X121264759Y-107686000D01*
X124450000Y-105980000D02*
X124450000Y-112440000D01*
X124490000Y-105980000D02*
X124490000Y-112440000D01*
X124530000Y-105981000D02*
X124530000Y-112439000D01*
X124570000Y-105982000D02*
X124570000Y-112438000D01*
X124610000Y-105984000D02*
X124610000Y-112436000D01*
X124650000Y-105986000D02*
X124650000Y-112434000D01*
X124690000Y-105989000D02*
X124690000Y-108170000D01*
X124690000Y-110250000D02*
X124690000Y-112431000D01*
X124730000Y-105992000D02*
X124730000Y-108170000D01*
X124730000Y-110250000D02*
X124730000Y-112428000D01*
X124770000Y-105996000D02*
X124770000Y-108170000D01*
X124770000Y-110250000D02*
X124770000Y-112424000D01*
X124810000Y-106000000D02*
X124810000Y-108170000D01*
X124810000Y-110250000D02*
X124810000Y-112420000D01*
X124850000Y-106005000D02*
X124850000Y-108170000D01*
X124850000Y-110250000D02*
X124850000Y-112415000D01*
X124890000Y-106010000D02*
X124890000Y-108170000D01*
X124890000Y-110250000D02*
X124890000Y-112410000D01*
X124930000Y-106015000D02*
X124930000Y-108170000D01*
X124930000Y-110250000D02*
X124930000Y-112405000D01*
X124970000Y-106022000D02*
X124970000Y-108170000D01*
X124970000Y-110250000D02*
X124970000Y-112398000D01*
X125010000Y-106028000D02*
X125010000Y-108170000D01*
X125010000Y-110250000D02*
X125010000Y-112392000D01*
X125050000Y-106036000D02*
X125050000Y-108170000D01*
X125050000Y-110250000D02*
X125050000Y-112384000D01*
X125090000Y-106043000D02*
X125090000Y-108170000D01*
X125090000Y-110250000D02*
X125090000Y-112377000D01*
X125130000Y-106051000D02*
X125130000Y-108170000D01*
X125130000Y-110250000D02*
X125130000Y-112369000D01*
X125170000Y-106060000D02*
X125170000Y-108170000D01*
X125170000Y-110250000D02*
X125170000Y-112360000D01*
X125210000Y-106070000D02*
X125210000Y-108170000D01*
X125210000Y-110250000D02*
X125210000Y-112350000D01*
X125250000Y-106079000D02*
X125250000Y-108170000D01*
X125250000Y-110250000D02*
X125250000Y-112341000D01*
X125290000Y-106090000D02*
X125290000Y-108170000D01*
X125290000Y-110250000D02*
X125290000Y-112330000D01*
X125330000Y-106101000D02*
X125330000Y-108170000D01*
X125330000Y-110250000D02*
X125330000Y-112319000D01*
X125370000Y-106112000D02*
X125370000Y-108170000D01*
X125370000Y-110250000D02*
X125370000Y-112308000D01*
X125410000Y-106124000D02*
X125410000Y-108170000D01*
X125410000Y-110250000D02*
X125410000Y-112296000D01*
X125450000Y-106137000D02*
X125450000Y-108170000D01*
X125450000Y-110250000D02*
X125450000Y-112283000D01*
X125490000Y-106150000D02*
X125490000Y-108170000D01*
X125490000Y-110250000D02*
X125490000Y-112270000D01*
X125530000Y-106163000D02*
X125530000Y-108170000D01*
X125530000Y-110250000D02*
X125530000Y-112257000D01*
X125570000Y-106178000D02*
X125570000Y-108170000D01*
X125570000Y-110250000D02*
X125570000Y-112242000D01*
X125610000Y-106193000D02*
X125610000Y-108170000D01*
X125610000Y-110250000D02*
X125610000Y-112227000D01*
X125650000Y-106208000D02*
X125650000Y-108170000D01*
X125650000Y-110250000D02*
X125650000Y-112212000D01*
X125690000Y-106224000D02*
X125690000Y-108170000D01*
X125690000Y-110250000D02*
X125690000Y-112196000D01*
X125730000Y-106241000D02*
X125730000Y-108170000D01*
X125730000Y-110250000D02*
X125730000Y-112179000D01*
X125770000Y-106258000D02*
X125770000Y-108170000D01*
X125770000Y-110250000D02*
X125770000Y-112162000D01*
X125810000Y-106276000D02*
X125810000Y-108170000D01*
X125810000Y-110250000D02*
X125810000Y-112144000D01*
X125850000Y-106295000D02*
X125850000Y-108170000D01*
X125850000Y-110250000D02*
X125850000Y-112125000D01*
X125890000Y-106314000D02*
X125890000Y-108170000D01*
X125890000Y-110250000D02*
X125890000Y-112106000D01*
X125930000Y-106334000D02*
X125930000Y-108170000D01*
X125930000Y-110250000D02*
X125930000Y-112086000D01*
X125970000Y-106355000D02*
X125970000Y-108170000D01*
X125970000Y-110250000D02*
X125970000Y-112065000D01*
X126010000Y-106376000D02*
X126010000Y-108170000D01*
X126010000Y-110250000D02*
X126010000Y-112044000D01*
X126050000Y-106398000D02*
X126050000Y-108170000D01*
X126050000Y-110250000D02*
X126050000Y-112022000D01*
X126090000Y-106421000D02*
X126090000Y-108170000D01*
X126090000Y-110250000D02*
X126090000Y-111999000D01*
X126130000Y-106445000D02*
X126130000Y-108170000D01*
X126130000Y-110250000D02*
X126130000Y-111975000D01*
X126170000Y-106469000D02*
X126170000Y-108170000D01*
X126170000Y-110250000D02*
X126170000Y-111951000D01*
X126210000Y-106494000D02*
X126210000Y-108170000D01*
X126210000Y-110250000D02*
X126210000Y-111926000D01*
X126250000Y-106520000D02*
X126250000Y-108170000D01*
X126250000Y-110250000D02*
X126250000Y-111900000D01*
X126290000Y-106547000D02*
X126290000Y-108170000D01*
X126290000Y-110250000D02*
X126290000Y-111873000D01*
X126330000Y-106574000D02*
X126330000Y-108170000D01*
X126330000Y-110250000D02*
X126330000Y-111846000D01*
X126370000Y-106603000D02*
X126370000Y-108170000D01*
X126370000Y-110250000D02*
X126370000Y-111817000D01*
X126410000Y-106633000D02*
X126410000Y-108170000D01*
X126410000Y-110250000D02*
X126410000Y-111787000D01*
X126450000Y-106663000D02*
X126450000Y-108170000D01*
X126450000Y-110250000D02*
X126450000Y-111757000D01*
X126490000Y-106694000D02*
X126490000Y-108170000D01*
X126490000Y-110250000D02*
X126490000Y-111726000D01*
X126530000Y-106727000D02*
X126530000Y-108170000D01*
X126530000Y-110250000D02*
X126530000Y-111693000D01*
X126570000Y-106760000D02*
X126570000Y-108170000D01*
X126570000Y-110250000D02*
X126570000Y-111660000D01*
X126610000Y-106795000D02*
X126610000Y-108170000D01*
X126610000Y-110250000D02*
X126610000Y-111625000D01*
X126650000Y-106831000D02*
X126650000Y-108170000D01*
X126650000Y-110250000D02*
X126650000Y-111589000D01*
X126690000Y-106868000D02*
X126690000Y-108170000D01*
X126690000Y-110250000D02*
X126690000Y-111552000D01*
X126730000Y-106906000D02*
X126730000Y-108170000D01*
X126730000Y-110250000D02*
X126730000Y-111514000D01*
X126770000Y-106946000D02*
X126770000Y-111474000D01*
X126810000Y-106987000D02*
X126810000Y-111433000D01*
X126850000Y-107029000D02*
X126850000Y-111391000D01*
X126890000Y-107073000D02*
X126890000Y-111347000D01*
X126930000Y-107119000D02*
X126930000Y-111301000D01*
X126970000Y-107166000D02*
X126970000Y-111254000D01*
X127010000Y-107215000D02*
X127010000Y-111205000D01*
X127050000Y-107267000D02*
X127050000Y-111153000D01*
X127090000Y-107320000D02*
X127090000Y-111100000D01*
X127130000Y-107376000D02*
X127130000Y-111044000D01*
X127170000Y-107435000D02*
X127170000Y-110985000D01*
X127210000Y-107496000D02*
X127210000Y-110924000D01*
X127250000Y-107561000D02*
X127250000Y-110859000D01*
X127290000Y-107629000D02*
X127290000Y-110791000D01*
X127330000Y-107701000D02*
X127330000Y-110719000D01*
X127370000Y-107778000D02*
X127370000Y-110642000D01*
X127410000Y-107860000D02*
X127410000Y-110560000D01*
X127450000Y-107949000D02*
X127450000Y-110471000D01*
X127490000Y-108045000D02*
X127490000Y-110375000D01*
X127530000Y-108152000D02*
X127530000Y-110268000D01*
X127570000Y-108271000D02*
X127570000Y-110149000D01*
X127610000Y-108409000D02*
X127610000Y-110011000D01*
X127650000Y-108577000D02*
X127650000Y-109843000D01*
X127690000Y-108808000D02*
X127690000Y-109612000D01*
X127720000Y-109210000D02*
G75*
G02*
X121180000Y-109210000I-3270000J0D01*
G01*
X121180000Y-109210000D02*
G75*
G02*
X127720000Y-109210000I3270000J0D01*
G01*
%TO.C,C3*%
X108590000Y-115140000D02*
X112330000Y-115140000D01*
X108590000Y-122380000D02*
X108590000Y-115140000D01*
X108590000Y-122380000D02*
X112330000Y-122380000D01*
X112330000Y-122380000D02*
X112330000Y-115140000D01*
%TO.C,HS2*%
X131680000Y-91550000D02*
X131800000Y-91430000D01*
X131680000Y-126570000D02*
X131800000Y-126690000D01*
X131700000Y-96370000D02*
X131760000Y-96190000D01*
X131700000Y-121750000D02*
X131760000Y-121930000D01*
X131710000Y-100490000D02*
X135420000Y-98880000D01*
X131710000Y-101160000D02*
X131710000Y-100490000D01*
X131710000Y-116960000D02*
X131710000Y-117630000D01*
X131710000Y-117630000D02*
X135420000Y-119240000D01*
X131760000Y-96190000D02*
X134560000Y-96850000D01*
X131760000Y-121930000D02*
X134560000Y-121270000D01*
X131800000Y-91430000D02*
X135570000Y-93580000D01*
X131800000Y-126690000D02*
X135570000Y-124540000D01*
X134560000Y-96850000D02*
X131680000Y-91550000D01*
X134560000Y-121270000D02*
X131680000Y-126570000D01*
X134890000Y-91530000D02*
X135040000Y-91440000D01*
X134890000Y-126590000D02*
X135040000Y-126680000D01*
X135040000Y-91440000D02*
X136930000Y-93400000D01*
X135040000Y-126680000D02*
X136930000Y-124720000D01*
X135420000Y-98870000D02*
X131700000Y-96370000D01*
X135420000Y-119250000D02*
X131700000Y-121750000D01*
X135570000Y-93580000D02*
X134890000Y-91530000D01*
X135570000Y-124540000D02*
X134890000Y-126590000D01*
X137460000Y-101160000D02*
X131710000Y-101160000D01*
X137460000Y-109060000D02*
X137460000Y-101160000D01*
X137460000Y-109060000D02*
X137460000Y-116960000D01*
X137460000Y-116960000D02*
X131710000Y-116960000D01*
X139160000Y-101160000D02*
X144910000Y-101160000D01*
X139160000Y-109060000D02*
X139160000Y-101160000D01*
X139160000Y-109060000D02*
X139160000Y-116960000D01*
X139160000Y-116960000D02*
X144910000Y-116960000D01*
X141050000Y-93580000D02*
X141730000Y-91530000D01*
X141050000Y-124540000D02*
X141730000Y-126590000D01*
X141200000Y-98870000D02*
X144920000Y-96370000D01*
X141200000Y-119250000D02*
X144920000Y-121750000D01*
X141580000Y-91440000D02*
X139690000Y-93400000D01*
X141580000Y-126680000D02*
X139690000Y-124720000D01*
X141730000Y-91530000D02*
X141580000Y-91440000D01*
X141730000Y-126590000D02*
X141580000Y-126680000D01*
X142060000Y-96850000D02*
X144940000Y-91550000D01*
X142060000Y-121270000D02*
X144940000Y-126570000D01*
X144820000Y-91430000D02*
X141050000Y-93580000D01*
X144820000Y-126690000D02*
X141050000Y-124540000D01*
X144860000Y-96190000D02*
X142060000Y-96850000D01*
X144860000Y-121930000D02*
X142060000Y-121270000D01*
X144910000Y-100490000D02*
X141200000Y-98880000D01*
X144910000Y-101160000D02*
X144910000Y-100490000D01*
X144910000Y-116960000D02*
X144910000Y-117630000D01*
X144910000Y-117630000D02*
X141200000Y-119240000D01*
X144920000Y-96370000D02*
X144860000Y-96190000D01*
X144920000Y-121750000D02*
X144860000Y-121930000D01*
X144940000Y-91550000D02*
X144820000Y-91430000D01*
X144940000Y-126570000D02*
X144820000Y-126690000D01*
D14*
%TO.C,G1*%
X112796000Y-51656333D02*
X112753667Y-51698667D01*
X112711333Y-51656333D01*
X112753667Y-51614000D01*
X112796000Y-51656333D01*
G36*
X112796000Y-51656333D02*
G01*
X112753667Y-51698667D01*
X112711333Y-51656333D01*
X112753667Y-51614000D01*
X112796000Y-51656333D01*
G37*
X110683112Y-47203444D02*
X110951535Y-47401833D01*
X111146121Y-47618728D01*
X111339914Y-47898520D01*
X111500963Y-48187131D01*
X111597315Y-48430479D01*
X111611245Y-48518403D01*
X111675798Y-48618414D01*
X111836365Y-48758939D01*
X111901392Y-48805508D01*
X112215408Y-49118123D01*
X112444308Y-49559774D01*
X112577955Y-50107667D01*
X112604508Y-50386333D01*
X112633604Y-50714332D01*
X112678999Y-50996602D01*
X112728830Y-51166614D01*
X112777668Y-51359657D01*
X112730055Y-51464442D01*
X112692909Y-51594816D01*
X112663378Y-51875948D01*
X112659620Y-51951150D01*
X112642718Y-52289382D01*
X112632183Y-52816664D01*
X112631500Y-52914332D01*
X112623765Y-53384758D01*
X112607072Y-53804253D01*
X112583494Y-54139557D01*
X112555105Y-54357406D01*
X112537895Y-54415670D01*
X112523911Y-54427421D01*
X112387922Y-54541704D01*
X112367430Y-54544889D01*
X112176822Y-54574522D01*
X111992371Y-54501541D01*
X111985406Y-54494873D01*
X111935199Y-54504265D01*
X111928527Y-54670870D01*
X111933707Y-54734979D01*
X111932599Y-54971201D01*
X111848111Y-55139650D01*
X111705373Y-55275560D01*
X111524760Y-55385923D01*
X111434353Y-55441166D01*
X111087803Y-55568253D01*
X110933333Y-55600966D01*
X110718754Y-55646409D01*
X110380235Y-55665223D01*
X110272441Y-55643687D01*
X110125279Y-55614286D01*
X110086667Y-55593333D01*
X110007623Y-55527183D01*
X110077223Y-55509979D01*
X110078622Y-55509963D01*
X110150898Y-55488001D01*
X110102667Y-55398931D01*
X110070594Y-55360500D01*
X109963247Y-55210182D01*
X109811071Y-54967396D01*
X109760722Y-54880904D01*
X111103922Y-54880904D01*
X111135182Y-55047945D01*
X111232422Y-55160744D01*
X111356226Y-55118672D01*
X111438354Y-55006233D01*
X111524760Y-54770165D01*
X111491168Y-54626187D01*
X111341908Y-54591860D01*
X111336365Y-54592611D01*
X111167412Y-54688479D01*
X111103922Y-54880904D01*
X109760722Y-54880904D01*
X109670258Y-54725500D01*
X109486221Y-54435733D01*
X109861423Y-54435733D01*
X109861947Y-54453804D01*
X109954682Y-54530329D01*
X110075867Y-54606987D01*
X110199199Y-54660472D01*
X110272441Y-54672891D01*
X110248944Y-54631135D01*
X110154049Y-54575581D01*
X110002000Y-54499464D01*
X109861423Y-54435733D01*
X109486221Y-54435733D01*
X109473759Y-54416111D01*
X109321433Y-54263289D01*
X109240000Y-54266942D01*
X109216550Y-54267994D01*
X109162380Y-54431186D01*
X109155333Y-54574387D01*
X109191964Y-54847108D01*
X109323946Y-55092794D01*
X109430500Y-55223626D01*
X109576879Y-55399654D01*
X109609399Y-55469032D01*
X109533707Y-55445078D01*
X109521733Y-55438774D01*
X109322840Y-55288593D01*
X109137329Y-55080479D01*
X109012386Y-54873467D01*
X108986000Y-54768523D01*
X108930339Y-54682959D01*
X108884301Y-54689491D01*
X108857079Y-54693354D01*
X108708065Y-54674382D01*
X108550922Y-54565588D01*
X108453952Y-54447640D01*
X108410925Y-54311416D01*
X108413148Y-54102826D01*
X108435514Y-53900110D01*
X108573239Y-53900110D01*
X108580571Y-54132903D01*
X108618583Y-54266186D01*
X108620875Y-54268653D01*
X108737677Y-54308944D01*
X108832257Y-54202578D01*
X108884301Y-53973340D01*
X108878541Y-53839602D01*
X109084314Y-53839602D01*
X109104915Y-53886918D01*
X109190165Y-53977812D01*
X109239176Y-53959166D01*
X109240000Y-53947330D01*
X109179863Y-53875717D01*
X109142251Y-53849582D01*
X109084314Y-53839602D01*
X108878541Y-53839602D01*
X108872007Y-53687898D01*
X108808920Y-53429552D01*
X108717502Y-53203264D01*
X108708238Y-53180333D01*
X108643892Y-53392000D01*
X108594906Y-53631809D01*
X108573239Y-53900110D01*
X108435514Y-53900110D01*
X108438945Y-53869009D01*
X108470281Y-53555439D01*
X108493400Y-53199202D01*
X108507861Y-52834317D01*
X108513226Y-52494806D01*
X108512128Y-52421120D01*
X108577164Y-52421120D01*
X108592398Y-52628637D01*
X108608848Y-52753151D01*
X108650349Y-52974412D01*
X108689996Y-53097584D01*
X108706218Y-53107337D01*
X108717502Y-53008213D01*
X108702269Y-52800696D01*
X108685818Y-52676182D01*
X108644318Y-52454921D01*
X108604671Y-52331749D01*
X108588449Y-52321996D01*
X108577164Y-52421120D01*
X108512128Y-52421120D01*
X108509052Y-52214688D01*
X108494900Y-52027984D01*
X108470330Y-51968715D01*
X108463445Y-51976216D01*
X108395754Y-51985982D01*
X108314449Y-51840868D01*
X108313528Y-51838453D01*
X108245853Y-51617036D01*
X108229839Y-51471459D01*
X108260558Y-51428954D01*
X108333081Y-51516752D01*
X108361812Y-51571667D01*
X108485870Y-51825667D01*
X108424531Y-51529333D01*
X108395608Y-51303828D01*
X108374067Y-50972393D01*
X108373566Y-50954272D01*
X108488443Y-50954272D01*
X108503716Y-51062891D01*
X108558321Y-51052752D01*
X108631713Y-50913874D01*
X108692952Y-50680344D01*
X108707481Y-50587085D01*
X108801187Y-50219221D01*
X108972859Y-49998782D01*
X109226408Y-49920911D01*
X109244206Y-49920667D01*
X109393633Y-49932288D01*
X109443380Y-49999698D01*
X109419361Y-50171719D01*
X109406998Y-50227352D01*
X109337494Y-50455216D01*
X109257552Y-50612736D01*
X109246581Y-50625285D01*
X109160193Y-50775445D01*
X109234376Y-50899807D01*
X109473248Y-51005098D01*
X109480216Y-51007200D01*
X109784386Y-51130174D01*
X109980091Y-51303448D01*
X110089179Y-51562235D01*
X110133498Y-51941752D01*
X110137134Y-52065989D01*
X110147802Y-52672333D01*
X110096068Y-52164333D01*
X110027402Y-51777162D01*
X109904537Y-51507277D01*
X109844511Y-51430339D01*
X109612862Y-51232810D01*
X109384570Y-51140602D01*
X109192907Y-51150249D01*
X109071145Y-51258284D01*
X109052556Y-51461241D01*
X109063813Y-51511677D01*
X109185013Y-51714085D01*
X109373052Y-51799157D01*
X109490931Y-51832468D01*
X109460717Y-51845978D01*
X109272619Y-51842802D01*
X109240000Y-51841490D01*
X108970035Y-51802987D01*
X108783651Y-51724649D01*
X108755859Y-51698667D01*
X108669890Y-51626345D01*
X108642138Y-51670628D01*
X108666934Y-51791300D01*
X108738605Y-51948148D01*
X108804997Y-52047082D01*
X108904961Y-52248951D01*
X108988295Y-52548065D01*
X109022673Y-52757000D01*
X109145810Y-53347544D01*
X109364699Y-53808599D01*
X109687619Y-54155671D01*
X109819111Y-54248269D01*
X110134362Y-54410536D01*
X110411472Y-54484506D01*
X110616134Y-54465238D01*
X110657774Y-54423878D01*
X111119664Y-54423878D01*
X111166504Y-54415213D01*
X111341977Y-54295788D01*
X111561113Y-54109587D01*
X111607757Y-54064864D01*
X112041187Y-54064864D01*
X112054313Y-54190777D01*
X112120227Y-54234388D01*
X112192426Y-54238667D01*
X112301780Y-54218778D01*
X112353867Y-54130279D01*
X112367430Y-53929919D01*
X112366716Y-53836500D01*
X112357455Y-53683490D01*
X112349907Y-53558783D01*
X112314549Y-53331141D01*
X112296854Y-53271190D01*
X112241059Y-53161583D01*
X112196054Y-53206523D01*
X112178858Y-53248992D01*
X112136284Y-53413239D01*
X112089391Y-53670799D01*
X112068478Y-53814302D01*
X112041187Y-54064864D01*
X111607757Y-54064864D01*
X111649863Y-54024492D01*
X111878701Y-53713286D01*
X112066089Y-53308982D01*
X112181428Y-52887467D01*
X112203333Y-52651969D01*
X112232043Y-52517625D01*
X112288000Y-52503000D01*
X112350626Y-52484181D01*
X112357455Y-52337054D01*
X112308209Y-52093285D01*
X112292092Y-52037333D01*
X112262794Y-51952667D01*
X112457333Y-51952667D01*
X112488311Y-52022357D01*
X112513778Y-52009111D01*
X112523911Y-51908631D01*
X112513778Y-51896222D01*
X112463443Y-51907844D01*
X112457333Y-51952667D01*
X112262794Y-51952667D01*
X112247981Y-51909859D01*
X112218524Y-51919847D01*
X112185072Y-52081147D01*
X112178090Y-52122000D01*
X112136480Y-52397235D01*
X112093815Y-52723815D01*
X112082474Y-52820771D01*
X112015911Y-53082257D01*
X111938149Y-53387739D01*
X111849873Y-53535301D01*
X111639364Y-53887190D01*
X111338420Y-54197608D01*
X111178062Y-54347143D01*
X111119664Y-54423878D01*
X110657774Y-54423878D01*
X110705992Y-54375984D01*
X110693936Y-54217542D01*
X110547277Y-54106445D01*
X110326712Y-54069333D01*
X110097461Y-54005055D01*
X110002647Y-53901209D01*
X109953814Y-53787318D01*
X110009546Y-53774073D01*
X110132180Y-53816542D01*
X110392072Y-53890296D01*
X110585225Y-53863816D01*
X110766021Y-53746055D01*
X110859854Y-53664410D01*
X110869770Y-53619851D01*
X110770838Y-53603261D01*
X110538127Y-53605525D01*
X110393757Y-53609928D01*
X110100429Y-53607230D01*
X109878904Y-53582865D01*
X109779444Y-53543714D01*
X109818393Y-53493217D01*
X110001768Y-53476495D01*
X110097588Y-53479544D01*
X110415364Y-53491286D01*
X110591644Y-53481065D01*
X110653330Y-53444719D01*
X110650354Y-53434333D01*
X110848667Y-53434333D01*
X110891000Y-53476667D01*
X110933333Y-53434333D01*
X110891000Y-53392000D01*
X110848667Y-53434333D01*
X110650354Y-53434333D01*
X110639285Y-53395698D01*
X110527080Y-53343132D01*
X110486122Y-53350606D01*
X110361085Y-53323134D01*
X110179013Y-53210220D01*
X110129000Y-53169802D01*
X109875000Y-52953121D01*
X110205303Y-53009465D01*
X110535605Y-53065810D01*
X110519471Y-52873367D01*
X110607158Y-52873367D01*
X110699477Y-52871249D01*
X110735269Y-52863090D01*
X110863105Y-52859927D01*
X110938782Y-52956197D01*
X110985649Y-53126738D01*
X111026707Y-53372594D01*
X111037837Y-53566618D01*
X111036545Y-53582500D01*
X111075540Y-53704161D01*
X111198317Y-53727840D01*
X111355622Y-53660316D01*
X111490832Y-53519946D01*
X111579799Y-53317719D01*
X111659808Y-53025018D01*
X111696362Y-52821446D01*
X111744260Y-52517157D01*
X111795322Y-52256028D01*
X111824448Y-52141908D01*
X111849873Y-52006559D01*
X111781021Y-51991978D01*
X111733981Y-52008130D01*
X111630291Y-52025334D01*
X111644107Y-51967055D01*
X111626420Y-51901806D01*
X111463224Y-51865933D01*
X111298163Y-51856854D01*
X111067204Y-51848612D01*
X110994462Y-51836828D01*
X111068847Y-51815146D01*
X111187333Y-51793354D01*
X111225765Y-51783333D01*
X111949333Y-51783333D01*
X111980311Y-51853023D01*
X112005778Y-51839778D01*
X112015911Y-51739298D01*
X112005778Y-51726889D01*
X111955443Y-51738511D01*
X111949333Y-51783333D01*
X111225765Y-51783333D01*
X111386483Y-51741426D01*
X111460887Y-51651349D01*
X112376215Y-51651349D01*
X112394641Y-51731970D01*
X112453608Y-51676181D01*
X112537886Y-51529333D01*
X112628347Y-51332631D01*
X112659620Y-51206302D01*
X112654415Y-51190800D01*
X112579649Y-51207181D01*
X112485653Y-51327829D01*
X112406524Y-51496295D01*
X112376215Y-51651349D01*
X111460887Y-51651349D01*
X111468152Y-51642554D01*
X111483667Y-51444667D01*
X111470888Y-51247026D01*
X111403234Y-51170223D01*
X111370790Y-51169422D01*
X111236722Y-51166113D01*
X111229667Y-51166614D01*
X110954521Y-51240826D01*
X110780981Y-51425105D01*
X110701792Y-51732818D01*
X110705670Y-52132088D01*
X110718917Y-52523936D01*
X110680101Y-52754885D01*
X110652312Y-52799773D01*
X110607158Y-52873367D01*
X110519471Y-52873367D01*
X110484382Y-52454820D01*
X110471402Y-51973269D01*
X110534189Y-51615557D01*
X110685844Y-51348212D01*
X110939468Y-51137764D01*
X111017983Y-51091435D01*
X111370790Y-50894333D01*
X111326909Y-50443986D01*
X111283806Y-50165363D01*
X111221694Y-49946605D01*
X111182480Y-49872486D01*
X111001790Y-49771976D01*
X110747538Y-49762005D01*
X110504859Y-49838751D01*
X110329604Y-49878355D01*
X110057592Y-49847008D01*
X109861914Y-49800927D01*
X109415836Y-49732564D01*
X109072813Y-49792541D01*
X108820393Y-49985377D01*
X108678638Y-50230336D01*
X108581294Y-50501153D01*
X108516099Y-50754746D01*
X108488443Y-50954272D01*
X108373566Y-50954272D01*
X108363726Y-50598393D01*
X108363334Y-50513333D01*
X108385833Y-50010194D01*
X108467167Y-49613741D01*
X108628426Y-49265586D01*
X108890703Y-48907342D01*
X108981920Y-48800917D01*
X109184920Y-48531441D01*
X109350080Y-48246377D01*
X109406496Y-48111394D01*
X109531828Y-47854074D01*
X109727490Y-47574541D01*
X109832660Y-47455228D01*
X110129428Y-47210409D01*
X110404350Y-47126889D01*
X110683112Y-47203444D01*
G36*
X110683112Y-47203444D02*
G01*
X110951535Y-47401833D01*
X111146121Y-47618728D01*
X111339914Y-47898520D01*
X111500963Y-48187131D01*
X111597315Y-48430479D01*
X111611245Y-48518403D01*
X111675798Y-48618414D01*
X111836365Y-48758939D01*
X111901392Y-48805508D01*
X112215408Y-49118123D01*
X112444308Y-49559774D01*
X112577955Y-50107667D01*
X112604508Y-50386333D01*
X112633604Y-50714332D01*
X112678999Y-50996602D01*
X112728830Y-51166614D01*
X112777668Y-51359657D01*
X112730055Y-51464442D01*
X112692909Y-51594816D01*
X112663378Y-51875948D01*
X112659620Y-51951150D01*
X112642718Y-52289382D01*
X112632183Y-52816664D01*
X112631500Y-52914332D01*
X112623765Y-53384758D01*
X112607072Y-53804253D01*
X112583494Y-54139557D01*
X112555105Y-54357406D01*
X112537895Y-54415670D01*
X112523911Y-54427421D01*
X112387922Y-54541704D01*
X112367430Y-54544889D01*
X112176822Y-54574522D01*
X111992371Y-54501541D01*
X111985406Y-54494873D01*
X111935199Y-54504265D01*
X111928527Y-54670870D01*
X111933707Y-54734979D01*
X111932599Y-54971201D01*
X111848111Y-55139650D01*
X111705373Y-55275560D01*
X111524760Y-55385923D01*
X111434353Y-55441166D01*
X111087803Y-55568253D01*
X110933333Y-55600966D01*
X110718754Y-55646409D01*
X110380235Y-55665223D01*
X110272441Y-55643687D01*
X110125279Y-55614286D01*
X110086667Y-55593333D01*
X110007623Y-55527183D01*
X110077223Y-55509979D01*
X110078622Y-55509963D01*
X110150898Y-55488001D01*
X110102667Y-55398931D01*
X110070594Y-55360500D01*
X109963247Y-55210182D01*
X109811071Y-54967396D01*
X109760722Y-54880904D01*
X111103922Y-54880904D01*
X111135182Y-55047945D01*
X111232422Y-55160744D01*
X111356226Y-55118672D01*
X111438354Y-55006233D01*
X111524760Y-54770165D01*
X111491168Y-54626187D01*
X111341908Y-54591860D01*
X111336365Y-54592611D01*
X111167412Y-54688479D01*
X111103922Y-54880904D01*
X109760722Y-54880904D01*
X109670258Y-54725500D01*
X109486221Y-54435733D01*
X109861423Y-54435733D01*
X109861947Y-54453804D01*
X109954682Y-54530329D01*
X110075867Y-54606987D01*
X110199199Y-54660472D01*
X110272441Y-54672891D01*
X110248944Y-54631135D01*
X110154049Y-54575581D01*
X110002000Y-54499464D01*
X109861423Y-54435733D01*
X109486221Y-54435733D01*
X109473759Y-54416111D01*
X109321433Y-54263289D01*
X109240000Y-54266942D01*
X109216550Y-54267994D01*
X109162380Y-54431186D01*
X109155333Y-54574387D01*
X109191964Y-54847108D01*
X109323946Y-55092794D01*
X109430500Y-55223626D01*
X109576879Y-55399654D01*
X109609399Y-55469032D01*
X109533707Y-55445078D01*
X109521733Y-55438774D01*
X109322840Y-55288593D01*
X109137329Y-55080479D01*
X109012386Y-54873467D01*
X108986000Y-54768523D01*
X108930339Y-54682959D01*
X108884301Y-54689491D01*
X108857079Y-54693354D01*
X108708065Y-54674382D01*
X108550922Y-54565588D01*
X108453952Y-54447640D01*
X108410925Y-54311416D01*
X108413148Y-54102826D01*
X108435514Y-53900110D01*
X108573239Y-53900110D01*
X108580571Y-54132903D01*
X108618583Y-54266186D01*
X108620875Y-54268653D01*
X108737677Y-54308944D01*
X108832257Y-54202578D01*
X108884301Y-53973340D01*
X108878541Y-53839602D01*
X109084314Y-53839602D01*
X109104915Y-53886918D01*
X109190165Y-53977812D01*
X109239176Y-53959166D01*
X109240000Y-53947330D01*
X109179863Y-53875717D01*
X109142251Y-53849582D01*
X109084314Y-53839602D01*
X108878541Y-53839602D01*
X108872007Y-53687898D01*
X108808920Y-53429552D01*
X108717502Y-53203264D01*
X108708238Y-53180333D01*
X108643892Y-53392000D01*
X108594906Y-53631809D01*
X108573239Y-53900110D01*
X108435514Y-53900110D01*
X108438945Y-53869009D01*
X108470281Y-53555439D01*
X108493400Y-53199202D01*
X108507861Y-52834317D01*
X108513226Y-52494806D01*
X108512128Y-52421120D01*
X108577164Y-52421120D01*
X108592398Y-52628637D01*
X108608848Y-52753151D01*
X108650349Y-52974412D01*
X108689996Y-53097584D01*
X108706218Y-53107337D01*
X108717502Y-53008213D01*
X108702269Y-52800696D01*
X108685818Y-52676182D01*
X108644318Y-52454921D01*
X108604671Y-52331749D01*
X108588449Y-52321996D01*
X108577164Y-52421120D01*
X108512128Y-52421120D01*
X108509052Y-52214688D01*
X108494900Y-52027984D01*
X108470330Y-51968715D01*
X108463445Y-51976216D01*
X108395754Y-51985982D01*
X108314449Y-51840868D01*
X108313528Y-51838453D01*
X108245853Y-51617036D01*
X108229839Y-51471459D01*
X108260558Y-51428954D01*
X108333081Y-51516752D01*
X108361812Y-51571667D01*
X108485870Y-51825667D01*
X108424531Y-51529333D01*
X108395608Y-51303828D01*
X108374067Y-50972393D01*
X108373566Y-50954272D01*
X108488443Y-50954272D01*
X108503716Y-51062891D01*
X108558321Y-51052752D01*
X108631713Y-50913874D01*
X108692952Y-50680344D01*
X108707481Y-50587085D01*
X108801187Y-50219221D01*
X108972859Y-49998782D01*
X109226408Y-49920911D01*
X109244206Y-49920667D01*
X109393633Y-49932288D01*
X109443380Y-49999698D01*
X109419361Y-50171719D01*
X109406998Y-50227352D01*
X109337494Y-50455216D01*
X109257552Y-50612736D01*
X109246581Y-50625285D01*
X109160193Y-50775445D01*
X109234376Y-50899807D01*
X109473248Y-51005098D01*
X109480216Y-51007200D01*
X109784386Y-51130174D01*
X109980091Y-51303448D01*
X110089179Y-51562235D01*
X110133498Y-51941752D01*
X110137134Y-52065989D01*
X110147802Y-52672333D01*
X110096068Y-52164333D01*
X110027402Y-51777162D01*
X109904537Y-51507277D01*
X109844511Y-51430339D01*
X109612862Y-51232810D01*
X109384570Y-51140602D01*
X109192907Y-51150249D01*
X109071145Y-51258284D01*
X109052556Y-51461241D01*
X109063813Y-51511677D01*
X109185013Y-51714085D01*
X109373052Y-51799157D01*
X109490931Y-51832468D01*
X109460717Y-51845978D01*
X109272619Y-51842802D01*
X109240000Y-51841490D01*
X108970035Y-51802987D01*
X108783651Y-51724649D01*
X108755859Y-51698667D01*
X108669890Y-51626345D01*
X108642138Y-51670628D01*
X108666934Y-51791300D01*
X108738605Y-51948148D01*
X108804997Y-52047082D01*
X108904961Y-52248951D01*
X108988295Y-52548065D01*
X109022673Y-52757000D01*
X109145810Y-53347544D01*
X109364699Y-53808599D01*
X109687619Y-54155671D01*
X109819111Y-54248269D01*
X110134362Y-54410536D01*
X110411472Y-54484506D01*
X110616134Y-54465238D01*
X110657774Y-54423878D01*
X111119664Y-54423878D01*
X111166504Y-54415213D01*
X111341977Y-54295788D01*
X111561113Y-54109587D01*
X111607757Y-54064864D01*
X112041187Y-54064864D01*
X112054313Y-54190777D01*
X112120227Y-54234388D01*
X112192426Y-54238667D01*
X112301780Y-54218778D01*
X112353867Y-54130279D01*
X112367430Y-53929919D01*
X112366716Y-53836500D01*
X112357455Y-53683490D01*
X112349907Y-53558783D01*
X112314549Y-53331141D01*
X112296854Y-53271190D01*
X112241059Y-53161583D01*
X112196054Y-53206523D01*
X112178858Y-53248992D01*
X112136284Y-53413239D01*
X112089391Y-53670799D01*
X112068478Y-53814302D01*
X112041187Y-54064864D01*
X111607757Y-54064864D01*
X111649863Y-54024492D01*
X111878701Y-53713286D01*
X112066089Y-53308982D01*
X112181428Y-52887467D01*
X112203333Y-52651969D01*
X112232043Y-52517625D01*
X112288000Y-52503000D01*
X112350626Y-52484181D01*
X112357455Y-52337054D01*
X112308209Y-52093285D01*
X112292092Y-52037333D01*
X112262794Y-51952667D01*
X112457333Y-51952667D01*
X112488311Y-52022357D01*
X112513778Y-52009111D01*
X112523911Y-51908631D01*
X112513778Y-51896222D01*
X112463443Y-51907844D01*
X112457333Y-51952667D01*
X112262794Y-51952667D01*
X112247981Y-51909859D01*
X112218524Y-51919847D01*
X112185072Y-52081147D01*
X112178090Y-52122000D01*
X112136480Y-52397235D01*
X112093815Y-52723815D01*
X112082474Y-52820771D01*
X112015911Y-53082257D01*
X111938149Y-53387739D01*
X111849873Y-53535301D01*
X111639364Y-53887190D01*
X111338420Y-54197608D01*
X111178062Y-54347143D01*
X111119664Y-54423878D01*
X110657774Y-54423878D01*
X110705992Y-54375984D01*
X110693936Y-54217542D01*
X110547277Y-54106445D01*
X110326712Y-54069333D01*
X110097461Y-54005055D01*
X110002647Y-53901209D01*
X109953814Y-53787318D01*
X110009546Y-53774073D01*
X110132180Y-53816542D01*
X110392072Y-53890296D01*
X110585225Y-53863816D01*
X110766021Y-53746055D01*
X110859854Y-53664410D01*
X110869770Y-53619851D01*
X110770838Y-53603261D01*
X110538127Y-53605525D01*
X110393757Y-53609928D01*
X110100429Y-53607230D01*
X109878904Y-53582865D01*
X109779444Y-53543714D01*
X109818393Y-53493217D01*
X110001768Y-53476495D01*
X110097588Y-53479544D01*
X110415364Y-53491286D01*
X110591644Y-53481065D01*
X110653330Y-53444719D01*
X110650354Y-53434333D01*
X110848667Y-53434333D01*
X110891000Y-53476667D01*
X110933333Y-53434333D01*
X110891000Y-53392000D01*
X110848667Y-53434333D01*
X110650354Y-53434333D01*
X110639285Y-53395698D01*
X110527080Y-53343132D01*
X110486122Y-53350606D01*
X110361085Y-53323134D01*
X110179013Y-53210220D01*
X110129000Y-53169802D01*
X109875000Y-52953121D01*
X110205303Y-53009465D01*
X110535605Y-53065810D01*
X110519471Y-52873367D01*
X110607158Y-52873367D01*
X110699477Y-52871249D01*
X110735269Y-52863090D01*
X110863105Y-52859927D01*
X110938782Y-52956197D01*
X110985649Y-53126738D01*
X111026707Y-53372594D01*
X111037837Y-53566618D01*
X111036545Y-53582500D01*
X111075540Y-53704161D01*
X111198317Y-53727840D01*
X111355622Y-53660316D01*
X111490832Y-53519946D01*
X111579799Y-53317719D01*
X111659808Y-53025018D01*
X111696362Y-52821446D01*
X111744260Y-52517157D01*
X111795322Y-52256028D01*
X111824448Y-52141908D01*
X111849873Y-52006559D01*
X111781021Y-51991978D01*
X111733981Y-52008130D01*
X111630291Y-52025334D01*
X111644107Y-51967055D01*
X111626420Y-51901806D01*
X111463224Y-51865933D01*
X111298163Y-51856854D01*
X111067204Y-51848612D01*
X110994462Y-51836828D01*
X111068847Y-51815146D01*
X111187333Y-51793354D01*
X111225765Y-51783333D01*
X111949333Y-51783333D01*
X111980311Y-51853023D01*
X112005778Y-51839778D01*
X112015911Y-51739298D01*
X112005778Y-51726889D01*
X111955443Y-51738511D01*
X111949333Y-51783333D01*
X111225765Y-51783333D01*
X111386483Y-51741426D01*
X111460887Y-51651349D01*
X112376215Y-51651349D01*
X112394641Y-51731970D01*
X112453608Y-51676181D01*
X112537886Y-51529333D01*
X112628347Y-51332631D01*
X112659620Y-51206302D01*
X112654415Y-51190800D01*
X112579649Y-51207181D01*
X112485653Y-51327829D01*
X112406524Y-51496295D01*
X112376215Y-51651349D01*
X111460887Y-51651349D01*
X111468152Y-51642554D01*
X111483667Y-51444667D01*
X111470888Y-51247026D01*
X111403234Y-51170223D01*
X111370790Y-51169422D01*
X111236722Y-51166113D01*
X111229667Y-51166614D01*
X110954521Y-51240826D01*
X110780981Y-51425105D01*
X110701792Y-51732818D01*
X110705670Y-52132088D01*
X110718917Y-52523936D01*
X110680101Y-52754885D01*
X110652312Y-52799773D01*
X110607158Y-52873367D01*
X110519471Y-52873367D01*
X110484382Y-52454820D01*
X110471402Y-51973269D01*
X110534189Y-51615557D01*
X110685844Y-51348212D01*
X110939468Y-51137764D01*
X111017983Y-51091435D01*
X111370790Y-50894333D01*
X111326909Y-50443986D01*
X111283806Y-50165363D01*
X111221694Y-49946605D01*
X111182480Y-49872486D01*
X111001790Y-49771976D01*
X110747538Y-49762005D01*
X110504859Y-49838751D01*
X110329604Y-49878355D01*
X110057592Y-49847008D01*
X109861914Y-49800927D01*
X109415836Y-49732564D01*
X109072813Y-49792541D01*
X108820393Y-49985377D01*
X108678638Y-50230336D01*
X108581294Y-50501153D01*
X108516099Y-50754746D01*
X108488443Y-50954272D01*
X108373566Y-50954272D01*
X108363726Y-50598393D01*
X108363334Y-50513333D01*
X108385833Y-50010194D01*
X108467167Y-49613741D01*
X108628426Y-49265586D01*
X108890703Y-48907342D01*
X108981920Y-48800917D01*
X109184920Y-48531441D01*
X109350080Y-48246377D01*
X109406496Y-48111394D01*
X109531828Y-47854074D01*
X109727490Y-47574541D01*
X109832660Y-47455228D01*
X110129428Y-47210409D01*
X110404350Y-47126889D01*
X110683112Y-47203444D01*
G37*
D13*
%TO.C,HS1*%
X131680000Y-54820000D02*
X131800000Y-54700000D01*
X131680000Y-89840000D02*
X131800000Y-89960000D01*
X131700000Y-59640000D02*
X131760000Y-59460000D01*
X131700000Y-85020000D02*
X131760000Y-85200000D01*
X131710000Y-63760000D02*
X135420000Y-62150000D01*
X131710000Y-64430000D02*
X131710000Y-63760000D01*
X131710000Y-80230000D02*
X131710000Y-80900000D01*
X131710000Y-80900000D02*
X135420000Y-82510000D01*
X131760000Y-59460000D02*
X134560000Y-60120000D01*
X131760000Y-85200000D02*
X134560000Y-84540000D01*
X131800000Y-54700000D02*
X135570000Y-56850000D01*
X131800000Y-89960000D02*
X135570000Y-87810000D01*
X134560000Y-60120000D02*
X131680000Y-54820000D01*
X134560000Y-84540000D02*
X131680000Y-89840000D01*
X134890000Y-54800000D02*
X135040000Y-54710000D01*
X134890000Y-89860000D02*
X135040000Y-89950000D01*
X135040000Y-54710000D02*
X136930000Y-56670000D01*
X135040000Y-89950000D02*
X136930000Y-87990000D01*
X135420000Y-62140000D02*
X131700000Y-59640000D01*
X135420000Y-82520000D02*
X131700000Y-85020000D01*
X135570000Y-56850000D02*
X134890000Y-54800000D01*
X135570000Y-87810000D02*
X134890000Y-89860000D01*
X137460000Y-64430000D02*
X131710000Y-64430000D01*
X137460000Y-72330000D02*
X137460000Y-64430000D01*
X137460000Y-72330000D02*
X137460000Y-80230000D01*
X137460000Y-80230000D02*
X131710000Y-80230000D01*
X139160000Y-64430000D02*
X144910000Y-64430000D01*
X139160000Y-72330000D02*
X139160000Y-64430000D01*
X139160000Y-72330000D02*
X139160000Y-80230000D01*
X139160000Y-80230000D02*
X144910000Y-80230000D01*
X141050000Y-56850000D02*
X141730000Y-54800000D01*
X141050000Y-87810000D02*
X141730000Y-89860000D01*
X141200000Y-62140000D02*
X144920000Y-59640000D01*
X141200000Y-82520000D02*
X144920000Y-85020000D01*
X141580000Y-54710000D02*
X139690000Y-56670000D01*
X141580000Y-89950000D02*
X139690000Y-87990000D01*
X141730000Y-54800000D02*
X141580000Y-54710000D01*
X141730000Y-89860000D02*
X141580000Y-89950000D01*
X142060000Y-60120000D02*
X144940000Y-54820000D01*
X142060000Y-84540000D02*
X144940000Y-89840000D01*
X144820000Y-54700000D02*
X141050000Y-56850000D01*
X144820000Y-89960000D02*
X141050000Y-87810000D01*
X144860000Y-59460000D02*
X142060000Y-60120000D01*
X144860000Y-85200000D02*
X142060000Y-84540000D01*
X144910000Y-63760000D02*
X141200000Y-62150000D01*
X144910000Y-64430000D02*
X144910000Y-63760000D01*
X144910000Y-80230000D02*
X144910000Y-80900000D01*
X144910000Y-80900000D02*
X141200000Y-82510000D01*
X144920000Y-59640000D02*
X144860000Y-59460000D01*
X144920000Y-85020000D02*
X144860000Y-85200000D01*
X144940000Y-54820000D02*
X144820000Y-54700000D01*
X144940000Y-89840000D02*
X144820000Y-89960000D01*
D15*
%TO.C,U1*%
X113930000Y-58560000D02*
X126630000Y-58560000D01*
X113930000Y-101740000D02*
X113930000Y-58560000D01*
X119010000Y-58560000D02*
X119010000Y-59830000D01*
X119010000Y-59830000D02*
X121550000Y-59830000D01*
X121550000Y-59830000D02*
X121550000Y-58560000D01*
X126630000Y-58560000D02*
X126630000Y-101740000D01*
X126630000Y-101740000D02*
X113930000Y-101740000D01*
D13*
%TO.C,P5*%
X99550000Y-95840000D02*
X99550000Y-106000000D01*
X99550000Y-106000000D02*
X107170000Y-106000000D01*
X105900000Y-95840000D02*
X105900000Y-106000000D01*
X107170000Y-95840000D02*
X99550000Y-95840000D01*
X107170000Y-106000000D02*
X107170000Y-95840000D01*
%TD*%
D16*
%TO.C,U1*%
X112660000Y-62370000D03*
D17*
X112660000Y-64910000D03*
X112660000Y-67450000D03*
X112660000Y-69990000D03*
X112660000Y-72530000D03*
X112660000Y-75070000D03*
X112660000Y-77610000D03*
X112660000Y-80150000D03*
X112660000Y-82690000D03*
X112660000Y-85230000D03*
X112660000Y-87770000D03*
X112660000Y-90310000D03*
X112660000Y-92850000D03*
X112660000Y-95390000D03*
X112660000Y-97930000D03*
X127900000Y-97930000D03*
X127900000Y-95390000D03*
X127900000Y-92850000D03*
X127900000Y-90310000D03*
X127900000Y-87770000D03*
X127900000Y-85230000D03*
X127900000Y-82690000D03*
X127900000Y-80150000D03*
X127900000Y-77610000D03*
X127900000Y-75070000D03*
X127900000Y-72530000D03*
X127900000Y-69990000D03*
X127900000Y-67450000D03*
X127900000Y-64910000D03*
X127900000Y-62370000D03*
%TD*%
D18*
X96000000Y-46000000D02*
X146000000Y-46000000D01*
X146000000Y-135000000D01*
X96000000Y-135000000D01*
X96000000Y-46000000D01*
M02*
