G04 #@! TF.FileFunction,Legend,Bot*
%FSLAX46Y46*%
G04 Gerber Fmt 4.6, Leading zero omitted, Abs format (unit mm)*
G04 Created by KiCad (PCBNEW 4.0.4+e1-6308~48~ubuntu16.04.1-stable) date Tue Oct 25 19:36:01 2016*
%MOMM*%
%LPD*%
G01*
G04 APERTURE LIST*
%ADD10C,0.100000*%
%ADD11C,0.381000*%
%ADD12C,0.285750*%
%ADD13C,0.304800*%
%ADD14C,0.254000*%
G04 APERTURE END LIST*
D10*
D11*
X132181600Y-56654700D02*
X133451600Y-56654700D01*
X133451600Y-56654700D02*
X133451600Y-54114700D01*
X133451600Y-54114700D02*
X132181600Y-54114700D01*
X132181600Y-57924700D02*
X142341600Y-57924700D01*
X142341600Y-57924700D02*
X142341600Y-52844700D01*
X142341600Y-52844700D02*
X132181600Y-52844700D01*
X132181600Y-52844700D02*
X132181600Y-57924700D01*
D12*
X136287933Y-53996772D02*
X134509933Y-53996772D01*
X134509933Y-54432200D01*
X134594600Y-54541058D01*
X134679267Y-54595486D01*
X134848600Y-54649915D01*
X135102600Y-54649915D01*
X135271933Y-54595486D01*
X135356600Y-54541058D01*
X135441267Y-54432200D01*
X135441267Y-53996772D01*
X136287933Y-55738486D02*
X136287933Y-55085343D01*
X136287933Y-55411915D02*
X134509933Y-55411915D01*
X134763933Y-55303058D01*
X134933267Y-55194200D01*
X135017933Y-55085343D01*
X135102600Y-56718200D02*
X136287933Y-56718200D01*
X134425267Y-56446057D02*
X135695267Y-56173914D01*
X135695267Y-56881486D01*
D13*
D14*
X140962742Y-61142033D02*
X140962742Y-59364033D01*
X140624076Y-60634033D01*
X140285409Y-59364033D01*
X140285409Y-61142033D01*
X139801599Y-61142033D02*
X139801599Y-59364033D01*
X139414552Y-59364033D01*
X139317790Y-59448700D01*
X139269409Y-59533367D01*
X139221028Y-59702700D01*
X139221028Y-59956700D01*
X139269409Y-60126033D01*
X139317790Y-60210700D01*
X139414552Y-60295367D01*
X139801599Y-60295367D01*
X138882361Y-59364033D02*
X138253409Y-59364033D01*
X138592075Y-60041367D01*
X138446933Y-60041367D01*
X138350171Y-60126033D01*
X138301790Y-60210700D01*
X138253409Y-60380033D01*
X138253409Y-60803367D01*
X138301790Y-60972700D01*
X138350171Y-61057367D01*
X138446933Y-61142033D01*
X138737218Y-61142033D01*
X138833980Y-61057367D01*
X138882361Y-60972700D01*
X137963123Y-59364033D02*
X137624456Y-61142033D01*
X137285790Y-59364033D01*
X136463314Y-59364033D02*
X136947123Y-59364033D01*
X136995504Y-60210700D01*
X136947123Y-60126033D01*
X136850361Y-60041367D01*
X136608457Y-60041367D01*
X136511695Y-60126033D01*
X136463314Y-60210700D01*
X136414933Y-60380033D01*
X136414933Y-60803367D01*
X136463314Y-60972700D01*
X136511695Y-61057367D01*
X136608457Y-61142033D01*
X136850361Y-61142033D01*
X136947123Y-61057367D01*
X136995504Y-60972700D01*
X135785980Y-59364033D02*
X135689219Y-59364033D01*
X135592457Y-59448700D01*
X135544076Y-59533367D01*
X135495695Y-59702700D01*
X135447314Y-60041367D01*
X135447314Y-60464700D01*
X135495695Y-60803367D01*
X135544076Y-60972700D01*
X135592457Y-61057367D01*
X135689219Y-61142033D01*
X135785980Y-61142033D01*
X135882742Y-61057367D01*
X135931123Y-60972700D01*
X135979504Y-60803367D01*
X136027885Y-60464700D01*
X136027885Y-60041367D01*
X135979504Y-59702700D01*
X135931123Y-59533367D01*
X135882742Y-59448700D01*
X135785980Y-59364033D01*
X134528076Y-59364033D02*
X135011885Y-59364033D01*
X135060266Y-60210700D01*
X135011885Y-60126033D01*
X134915123Y-60041367D01*
X134673219Y-60041367D01*
X134576457Y-60126033D01*
X134528076Y-60210700D01*
X134479695Y-60380033D01*
X134479695Y-60803367D01*
X134528076Y-60972700D01*
X134576457Y-61057367D01*
X134673219Y-61142033D01*
X134915123Y-61142033D01*
X135011885Y-61057367D01*
X135060266Y-60972700D01*
X133850742Y-59364033D02*
X133753981Y-59364033D01*
X133657219Y-59448700D01*
X133608838Y-59533367D01*
X133560457Y-59702700D01*
X133512076Y-60041367D01*
X133512076Y-60464700D01*
X133560457Y-60803367D01*
X133608838Y-60972700D01*
X133657219Y-61057367D01*
X133753981Y-61142033D01*
X133850742Y-61142033D01*
X133947504Y-61057367D01*
X133995885Y-60972700D01*
X134044266Y-60803367D01*
X134092647Y-60464700D01*
X134092647Y-60041367D01*
X134044266Y-59702700D01*
X133995885Y-59533367D01*
X133947504Y-59448700D01*
X133850742Y-59364033D01*
M02*
