G04 #@! TF.FileFunction,Copper,L2,Bot,Signal*
%FSLAX46Y46*%
G04 Gerber Fmt 4.6, Leading zero omitted, Abs format (unit mm)*
G04 Created by KiCad (PCBNEW 4.0.4+e1-6308~48~ubuntu16.04.1-stable) date Tue Oct 25 19:36:01 2016*
%MOMM*%
%LPD*%
G01*
G04 APERTURE LIST*
%ADD10C,0.100000*%
%ADD11C,0.300000*%
%ADD12R,1.574800X2.286000*%
%ADD13R,1.727200X2.032000*%
%ADD14O,1.727200X2.032000*%
%ADD15R,1.300000X1.300000*%
%ADD16C,1.300000*%
%ADD17C,4.064000*%
%ADD18C,1.524000*%
%ADD19C,1.016000*%
G04 APERTURE END LIST*
D10*
D11*
X140580466Y-54599140D02*
X140723323Y-54527711D01*
X140937609Y-54527711D01*
X141151894Y-54599140D01*
X141294752Y-54741997D01*
X141366180Y-54884854D01*
X141437609Y-55170569D01*
X141437609Y-55384854D01*
X141366180Y-55670569D01*
X141294752Y-55813426D01*
X141151894Y-55956283D01*
X140937609Y-56027711D01*
X140794752Y-56027711D01*
X140580466Y-55956283D01*
X140509037Y-55884854D01*
X140509037Y-55384854D01*
X140794752Y-55384854D01*
X139866180Y-55027711D02*
X139866180Y-56027711D01*
X139866180Y-55170569D02*
X139794752Y-55099140D01*
X139651894Y-55027711D01*
X139437609Y-55027711D01*
X139294752Y-55099140D01*
X139223323Y-55241997D01*
X139223323Y-56027711D01*
X137866180Y-56027711D02*
X137866180Y-54527711D01*
X137866180Y-55956283D02*
X138009037Y-56027711D01*
X138294751Y-56027711D01*
X138437609Y-55956283D01*
X138509037Y-55884854D01*
X138580466Y-55741997D01*
X138580466Y-55313426D01*
X138509037Y-55170569D01*
X138437609Y-55099140D01*
X138294751Y-55027711D01*
X138009037Y-55027711D01*
X137866180Y-55099140D01*
X133036571Y-40200486D02*
X134536571Y-40700486D01*
X133036571Y-41200486D01*
X134465143Y-42343343D02*
X134536571Y-42200486D01*
X134536571Y-41914772D01*
X134465143Y-41771914D01*
X134393714Y-41700486D01*
X134250857Y-41629057D01*
X133822286Y-41629057D01*
X133679429Y-41700486D01*
X133608000Y-41771914D01*
X133536571Y-41914772D01*
X133536571Y-42200486D01*
X133608000Y-42343343D01*
X134465143Y-43629057D02*
X134536571Y-43486200D01*
X134536571Y-43200486D01*
X134465143Y-43057628D01*
X134393714Y-42986200D01*
X134250857Y-42914771D01*
X133822286Y-42914771D01*
X133679429Y-42986200D01*
X133608000Y-43057628D01*
X133536571Y-43200486D01*
X133536571Y-43486200D01*
X133608000Y-43629057D01*
X142510771Y-40621900D02*
X142510771Y-40907614D01*
X142582200Y-41050472D01*
X142725057Y-41193329D01*
X143010771Y-41264757D01*
X143510771Y-41264757D01*
X143796486Y-41193329D01*
X143939343Y-41050472D01*
X144010771Y-40907614D01*
X144010771Y-40621900D01*
X143939343Y-40479043D01*
X143796486Y-40336186D01*
X143510771Y-40264757D01*
X143010771Y-40264757D01*
X142725057Y-40336186D01*
X142582200Y-40479043D01*
X142510771Y-40621900D01*
X143010771Y-42550472D02*
X144010771Y-42550472D01*
X143010771Y-41907615D02*
X143796486Y-41907615D01*
X143939343Y-41979043D01*
X144010771Y-42121901D01*
X144010771Y-42336186D01*
X143939343Y-42479043D01*
X143867914Y-42550472D01*
X143010771Y-43050472D02*
X143010771Y-43621901D01*
X142510771Y-43264758D02*
X143796486Y-43264758D01*
X143939343Y-43336186D01*
X144010771Y-43479044D01*
X144010771Y-43621901D01*
D12*
X133451600Y-46494700D03*
X135991600Y-46494700D03*
X138531600Y-46494700D03*
X141071600Y-46494700D03*
X141071600Y-64274700D03*
X138531600Y-64274700D03*
X135991600Y-64274700D03*
X133451600Y-64274700D03*
D13*
X135978900Y-37769800D03*
D14*
X138518900Y-37769800D03*
X141058900Y-37769800D03*
D15*
X131711700Y-42773600D03*
D16*
X131711700Y-37773600D03*
D15*
X145351500Y-42773600D03*
D16*
X145351500Y-37773600D03*
D17*
X134999000Y-33018800D03*
X141999000Y-33018800D03*
X134999000Y-69447800D03*
X141999000Y-69447800D03*
D18*
X131711700Y-42773600D02*
X131711700Y-42938700D01*
X131711700Y-42938700D02*
X130784600Y-43865800D01*
X130784600Y-43865800D02*
X130784600Y-48463200D01*
X130784600Y-48463200D02*
X132638800Y-50317400D01*
X132638800Y-50317400D02*
X136728200Y-50317400D01*
X136728200Y-50317400D02*
X138531600Y-48514000D01*
X145351500Y-42773600D02*
X145351500Y-48704500D01*
X138531600Y-48577500D02*
X138531600Y-48514000D01*
X138531600Y-48514000D02*
X138531600Y-46494700D01*
X140271500Y-50317400D02*
X138531600Y-48577500D01*
X143738600Y-50317400D02*
X140271500Y-50317400D01*
X145351500Y-48704500D02*
X143738600Y-50317400D01*
X138518900Y-37769800D02*
X138518900Y-46482000D01*
D19*
X138544300Y-37744400D02*
X138518900Y-37769800D01*
D18*
X135978900Y-37769800D02*
X131715500Y-37769800D01*
X131715500Y-37769800D02*
X131711700Y-37773600D01*
X135978900Y-37769800D02*
X135978900Y-46482000D01*
D19*
X131631700Y-37693600D02*
X131711700Y-37773600D01*
X136004300Y-37744400D02*
X135978900Y-37769800D01*
D18*
X141058900Y-37769800D02*
X145347700Y-37769800D01*
X145347700Y-37769800D02*
X145351500Y-37773600D01*
X141058900Y-37769800D02*
X141058900Y-46482000D01*
D19*
X141113500Y-37715200D02*
X141058900Y-37769800D01*
X141084300Y-37744400D02*
X141058900Y-37769800D01*
M02*
