G04 #@! TF.FileFunction,Legend,Top*
%FSLAX46Y46*%
G04 Gerber Fmt 4.6, Leading zero omitted, Abs format (unit mm)*
G04 Created by KiCad (PCBNEW 4.0.4+e1-6308~48~ubuntu16.04.1-stable) date Tue Oct 25 19:36:01 2016*
%MOMM*%
%LPD*%
G01*
G04 APERTURE LIST*
%ADD10C,0.100000*%
%ADD11C,0.300000*%
%ADD12C,0.150000*%
G04 APERTURE END LIST*
D10*
D11*
X136068729Y-52650403D02*
X136068729Y-53507546D01*
X134568729Y-53078975D02*
X136068729Y-53078975D01*
X134568729Y-54221832D02*
X134640157Y-54078974D01*
X134711586Y-54007546D01*
X134854443Y-53936117D01*
X135283014Y-53936117D01*
X135425871Y-54007546D01*
X135497300Y-54078974D01*
X135568729Y-54221832D01*
X135568729Y-54436117D01*
X135497300Y-54578974D01*
X135425871Y-54650403D01*
X135283014Y-54721832D01*
X134854443Y-54721832D01*
X134711586Y-54650403D01*
X134640157Y-54578974D01*
X134568729Y-54436117D01*
X134568729Y-54221832D01*
X135568729Y-55150403D02*
X135568729Y-55721832D01*
X136068729Y-55364689D02*
X134783014Y-55364689D01*
X134640157Y-55436117D01*
X134568729Y-55578975D01*
X134568729Y-55721832D01*
X134568729Y-56436118D02*
X134640157Y-56293260D01*
X134711586Y-56221832D01*
X134854443Y-56150403D01*
X135283014Y-56150403D01*
X135425871Y-56221832D01*
X135497300Y-56293260D01*
X135568729Y-56436118D01*
X135568729Y-56650403D01*
X135497300Y-56793260D01*
X135425871Y-56864689D01*
X135283014Y-56936118D01*
X134854443Y-56936118D01*
X134711586Y-56864689D01*
X134640157Y-56793260D01*
X134568729Y-56650403D01*
X134568729Y-56436118D01*
X135568729Y-57364689D02*
X135568729Y-57936118D01*
X134568729Y-57578975D02*
X135854443Y-57578975D01*
X135997300Y-57650403D01*
X136068729Y-57793261D01*
X136068729Y-57936118D01*
X133375871Y-52721832D02*
X133447300Y-52793261D01*
X133518729Y-52936118D01*
X133518729Y-53293261D01*
X133447300Y-53436118D01*
X133375871Y-53507547D01*
X133233014Y-53578975D01*
X133090157Y-53578975D01*
X132875871Y-53507547D01*
X132018729Y-52650404D01*
X132018729Y-53578975D01*
X133518729Y-54507546D02*
X133518729Y-54650403D01*
X133447300Y-54793260D01*
X133375871Y-54864689D01*
X133233014Y-54936118D01*
X132947300Y-55007546D01*
X132590157Y-55007546D01*
X132304443Y-54936118D01*
X132161586Y-54864689D01*
X132090157Y-54793260D01*
X132018729Y-54650403D01*
X132018729Y-54507546D01*
X132090157Y-54364689D01*
X132161586Y-54293260D01*
X132304443Y-54221832D01*
X132590157Y-54150403D01*
X132947300Y-54150403D01*
X133233014Y-54221832D01*
X133375871Y-54293260D01*
X133447300Y-54364689D01*
X133518729Y-54507546D01*
X132018729Y-56436117D02*
X132018729Y-55578974D01*
X132018729Y-56007546D02*
X133518729Y-56007546D01*
X133304443Y-55864689D01*
X133161586Y-55721831D01*
X133090157Y-55578974D01*
X133518729Y-57721831D02*
X133518729Y-57436117D01*
X133447300Y-57293260D01*
X133375871Y-57221831D01*
X133161586Y-57078974D01*
X132875871Y-57007545D01*
X132304443Y-57007545D01*
X132161586Y-57078974D01*
X132090157Y-57150402D01*
X132018729Y-57293260D01*
X132018729Y-57578974D01*
X132090157Y-57721831D01*
X132161586Y-57793260D01*
X132304443Y-57864688D01*
X132661586Y-57864688D01*
X132804443Y-57793260D01*
X132875871Y-57721831D01*
X132947300Y-57578974D01*
X132947300Y-57293260D01*
X132875871Y-57150402D01*
X132804443Y-57078974D01*
X132661586Y-57007545D01*
X139434000Y-41542614D02*
X139505429Y-41399757D01*
X139505429Y-41185471D01*
X139434000Y-40971186D01*
X139291143Y-40828328D01*
X139148286Y-40756900D01*
X138862571Y-40685471D01*
X138648286Y-40685471D01*
X138362571Y-40756900D01*
X138219714Y-40828328D01*
X138076857Y-40971186D01*
X138005429Y-41185471D01*
X138005429Y-41328328D01*
X138076857Y-41542614D01*
X138148286Y-41614043D01*
X138648286Y-41614043D01*
X138648286Y-41328328D01*
X139005429Y-42256900D02*
X138005429Y-42256900D01*
X138862571Y-42256900D02*
X138934000Y-42328328D01*
X139005429Y-42471186D01*
X139005429Y-42685471D01*
X138934000Y-42828328D01*
X138791143Y-42899757D01*
X138005429Y-42899757D01*
X138005429Y-44256900D02*
X139505429Y-44256900D01*
X138076857Y-44256900D02*
X138005429Y-44114043D01*
X138005429Y-43828329D01*
X138076857Y-43685471D01*
X138148286Y-43614043D01*
X138291143Y-43542614D01*
X138719714Y-43542614D01*
X138862571Y-43614043D01*
X138934000Y-43685471D01*
X139005429Y-43828329D01*
X139005429Y-44114043D01*
X138934000Y-44256900D01*
X141905729Y-41015600D02*
X141905729Y-41301314D01*
X141834300Y-41444172D01*
X141691443Y-41587029D01*
X141405729Y-41658457D01*
X140905729Y-41658457D01*
X140620014Y-41587029D01*
X140477157Y-41444172D01*
X140405729Y-41301314D01*
X140405729Y-41015600D01*
X140477157Y-40872743D01*
X140620014Y-40729886D01*
X140905729Y-40658457D01*
X141405729Y-40658457D01*
X141691443Y-40729886D01*
X141834300Y-40872743D01*
X141905729Y-41015600D01*
X141405729Y-42944172D02*
X140405729Y-42944172D01*
X141405729Y-42301315D02*
X140620014Y-42301315D01*
X140477157Y-42372743D01*
X140405729Y-42515601D01*
X140405729Y-42729886D01*
X140477157Y-42872743D01*
X140548586Y-42944172D01*
X141405729Y-43444172D02*
X141405729Y-44015601D01*
X141905729Y-43658458D02*
X140620014Y-43658458D01*
X140477157Y-43729886D01*
X140405729Y-43872744D01*
X140405729Y-44015601D01*
X136825729Y-40708486D02*
X135325729Y-41208486D01*
X136825729Y-41708486D01*
X135397157Y-42851343D02*
X135325729Y-42708486D01*
X135325729Y-42422772D01*
X135397157Y-42279914D01*
X135468586Y-42208486D01*
X135611443Y-42137057D01*
X136040014Y-42137057D01*
X136182871Y-42208486D01*
X136254300Y-42279914D01*
X136325729Y-42422772D01*
X136325729Y-42708486D01*
X136254300Y-42851343D01*
X135397157Y-44137057D02*
X135325729Y-43994200D01*
X135325729Y-43708486D01*
X135397157Y-43565628D01*
X135468586Y-43494200D01*
X135611443Y-43422771D01*
X136040014Y-43422771D01*
X136182871Y-43494200D01*
X136254300Y-43565628D01*
X136325729Y-43708486D01*
X136325729Y-43994200D01*
X136254300Y-44137057D01*
D10*
G36*
X142354643Y-57532988D02*
X142249858Y-57485375D01*
X142119484Y-57448229D01*
X141838352Y-57418698D01*
X141763150Y-57414940D01*
X142507998Y-57414940D01*
X142523500Y-57409735D01*
X142507119Y-57334969D01*
X142386471Y-57240973D01*
X142218005Y-57161844D01*
X142062951Y-57131535D01*
X141982330Y-57149961D01*
X142038119Y-57208928D01*
X142184967Y-57293206D01*
X142381669Y-57383667D01*
X142507998Y-57414940D01*
X141763150Y-57414940D01*
X141424918Y-57398038D01*
X140897636Y-57387503D01*
X140799968Y-57386820D01*
X140329542Y-57379085D01*
X139910047Y-57362392D01*
X139574743Y-57338814D01*
X139356894Y-57310425D01*
X139298630Y-57293215D01*
X139286879Y-57279231D01*
X141805669Y-57279231D01*
X141818078Y-57269098D01*
X141806456Y-57218763D01*
X141761633Y-57212653D01*
X141691943Y-57243631D01*
X141705189Y-57269098D01*
X141805669Y-57279231D01*
X139286879Y-57279231D01*
X139172596Y-57143242D01*
X139169411Y-57122750D01*
X139784381Y-57122750D01*
X139877800Y-57122036D01*
X140030810Y-57112775D01*
X141377246Y-57112775D01*
X141621015Y-57063529D01*
X141676967Y-57047412D01*
X141804441Y-57003301D01*
X141794453Y-56973844D01*
X141633153Y-56940392D01*
X141592300Y-56933410D01*
X141317065Y-56891800D01*
X140990485Y-56849135D01*
X140893529Y-56837794D01*
X140632043Y-56771231D01*
X141975002Y-56771231D01*
X141987411Y-56761098D01*
X141975789Y-56710763D01*
X141930967Y-56704653D01*
X141861277Y-56735631D01*
X141874522Y-56761098D01*
X141975002Y-56771231D01*
X140632043Y-56771231D01*
X140326561Y-56693469D01*
X140178999Y-56605193D01*
X141707741Y-56605193D01*
X141722322Y-56536341D01*
X141706170Y-56489301D01*
X141688966Y-56385611D01*
X141747245Y-56399427D01*
X141812494Y-56381740D01*
X141848367Y-56218544D01*
X141857446Y-56053483D01*
X141865688Y-55822524D01*
X141877472Y-55749782D01*
X141899154Y-55824167D01*
X141920946Y-55942653D01*
X141972874Y-56141803D01*
X142071746Y-56223472D01*
X142269633Y-56238987D01*
X142467274Y-56226208D01*
X142544077Y-56158554D01*
X142544878Y-56126110D01*
X142819967Y-56126110D01*
X143270314Y-56082229D01*
X143548937Y-56039126D01*
X143767695Y-55977014D01*
X143841814Y-55937800D01*
X143942324Y-55757110D01*
X143952295Y-55502858D01*
X143875549Y-55260179D01*
X143835945Y-55084924D01*
X143867292Y-54812912D01*
X143913373Y-54617234D01*
X143981736Y-54171156D01*
X143921759Y-53828133D01*
X143728923Y-53575713D01*
X143483964Y-53433958D01*
X143213147Y-53336614D01*
X142959554Y-53271419D01*
X142760028Y-53243763D01*
X142651409Y-53259036D01*
X142661548Y-53313641D01*
X142800426Y-53387033D01*
X143033956Y-53448272D01*
X143127215Y-53462801D01*
X143495079Y-53556507D01*
X143715518Y-53728179D01*
X143793389Y-53981728D01*
X143793633Y-53999526D01*
X143782012Y-54148953D01*
X143714602Y-54198700D01*
X143542581Y-54174681D01*
X143486948Y-54162318D01*
X143259084Y-54092814D01*
X143101564Y-54012872D01*
X143089015Y-54001901D01*
X142938855Y-53915513D01*
X142814493Y-53989696D01*
X142709202Y-54228568D01*
X142707100Y-54235536D01*
X142584126Y-54539706D01*
X142410852Y-54735411D01*
X142152065Y-54844499D01*
X141772548Y-54888818D01*
X141648311Y-54892454D01*
X141041967Y-54903122D01*
X141549967Y-54851388D01*
X141937138Y-54782722D01*
X142207023Y-54659857D01*
X142283961Y-54599831D01*
X142481490Y-54368182D01*
X142573698Y-54139890D01*
X142564051Y-53948227D01*
X142456016Y-53826465D01*
X142253059Y-53807876D01*
X142202623Y-53819133D01*
X142000215Y-53940333D01*
X141915143Y-54128372D01*
X141881832Y-54246251D01*
X141868322Y-54216037D01*
X141871498Y-54027939D01*
X141872810Y-53995320D01*
X141911313Y-53725355D01*
X141989651Y-53538971D01*
X142015633Y-53511179D01*
X142087955Y-53425210D01*
X142043672Y-53397458D01*
X141923000Y-53422254D01*
X141766152Y-53493925D01*
X141667218Y-53560317D01*
X141465349Y-53660281D01*
X141166235Y-53743615D01*
X140957300Y-53777993D01*
X140366756Y-53901130D01*
X139905701Y-54120019D01*
X139558629Y-54442939D01*
X139466031Y-54574431D01*
X139303764Y-54889682D01*
X139229794Y-55166792D01*
X139249062Y-55371454D01*
X139338316Y-55461312D01*
X139496758Y-55449256D01*
X139607855Y-55302597D01*
X139644967Y-55082032D01*
X139709245Y-54852781D01*
X139813091Y-54757967D01*
X139926982Y-54709134D01*
X139940227Y-54764866D01*
X139897758Y-54887500D01*
X139824004Y-55147392D01*
X139850484Y-55340545D01*
X139968245Y-55521341D01*
X140049890Y-55615174D01*
X140094449Y-55625090D01*
X140111039Y-55526158D01*
X140108775Y-55293447D01*
X140104372Y-55149077D01*
X140107070Y-54855749D01*
X140131435Y-54634224D01*
X140170586Y-54534764D01*
X140221083Y-54573713D01*
X140237805Y-54757088D01*
X140234756Y-54852908D01*
X140223014Y-55170684D01*
X140233235Y-55346964D01*
X140269581Y-55408650D01*
X140318602Y-55394605D01*
X140371168Y-55282400D01*
X140363694Y-55241442D01*
X140391166Y-55116405D01*
X140504080Y-54934333D01*
X140544498Y-54884320D01*
X140761179Y-54630320D01*
X140704835Y-54960623D01*
X140648490Y-55290925D01*
X141259480Y-55239702D01*
X141741031Y-55226722D01*
X142098743Y-55289509D01*
X142366088Y-55441164D01*
X142576536Y-55694788D01*
X142622865Y-55773303D01*
X142819967Y-56126110D01*
X142544878Y-56126110D01*
X142548187Y-55992042D01*
X142547686Y-55984987D01*
X142473474Y-55709841D01*
X142289195Y-55536301D01*
X141981482Y-55457112D01*
X141582212Y-55460990D01*
X141190364Y-55474237D01*
X140959415Y-55435421D01*
X140914527Y-55407632D01*
X140840933Y-55362478D01*
X140843051Y-55454797D01*
X140851210Y-55490589D01*
X140854373Y-55618425D01*
X140758103Y-55694102D01*
X140587562Y-55740969D01*
X140341706Y-55782027D01*
X140147682Y-55793157D01*
X140131800Y-55791865D01*
X140010139Y-55830860D01*
X139986460Y-55953637D01*
X140053984Y-56110942D01*
X140194354Y-56246152D01*
X140396581Y-56335119D01*
X140689282Y-56415128D01*
X140892854Y-56451682D01*
X141197143Y-56499580D01*
X141458272Y-56550642D01*
X141572392Y-56579768D01*
X141707741Y-56605193D01*
X140178999Y-56605193D01*
X139827110Y-56394684D01*
X139516692Y-56093740D01*
X139367157Y-55933382D01*
X139290422Y-55874984D01*
X139299087Y-55921824D01*
X139418512Y-56097297D01*
X139604713Y-56316433D01*
X139689808Y-56405183D01*
X140001014Y-56634021D01*
X140405318Y-56821409D01*
X140826833Y-56936748D01*
X141062331Y-56958653D01*
X141196675Y-56987363D01*
X141211300Y-57043320D01*
X141230119Y-57105946D01*
X141377246Y-57112775D01*
X140030810Y-57112775D01*
X140155517Y-57105227D01*
X140383159Y-57069869D01*
X140443110Y-57052174D01*
X140552717Y-56996379D01*
X140507777Y-56951374D01*
X140465308Y-56934178D01*
X140301061Y-56891604D01*
X140043501Y-56844711D01*
X139899998Y-56823798D01*
X139649436Y-56796507D01*
X139523523Y-56809633D01*
X139479912Y-56875547D01*
X139475633Y-56947746D01*
X139495522Y-57057100D01*
X139584021Y-57109187D01*
X139784381Y-57122750D01*
X139169411Y-57122750D01*
X139139778Y-56932142D01*
X139212759Y-56747691D01*
X139219427Y-56740726D01*
X139210035Y-56690519D01*
X139043430Y-56683847D01*
X138979321Y-56689027D01*
X138743099Y-56687919D01*
X138574650Y-56603431D01*
X138438740Y-56460693D01*
X138328377Y-56280080D01*
X138944135Y-56280080D01*
X139088113Y-56246488D01*
X139122440Y-56097228D01*
X139121689Y-56091685D01*
X139025821Y-55922732D01*
X138833396Y-55859242D01*
X138666355Y-55890502D01*
X138553556Y-55987742D01*
X138595628Y-56111546D01*
X138708067Y-56193674D01*
X138944135Y-56280080D01*
X138328377Y-56280080D01*
X138273134Y-56189673D01*
X138146047Y-55843123D01*
X138113334Y-55688653D01*
X140279967Y-55688653D01*
X140322300Y-55646320D01*
X140279967Y-55603987D01*
X140237633Y-55646320D01*
X140279967Y-55688653D01*
X138113334Y-55688653D01*
X138067891Y-55474074D01*
X138049077Y-55135555D01*
X138070613Y-55027761D01*
X139041409Y-55027761D01*
X139083165Y-55004264D01*
X139138719Y-54909369D01*
X139214836Y-54757320D01*
X139278567Y-54616743D01*
X139260496Y-54617267D01*
X139183971Y-54710002D01*
X139107313Y-54831187D01*
X139053828Y-54954519D01*
X139041409Y-55027761D01*
X138070613Y-55027761D01*
X138100014Y-54880599D01*
X138120967Y-54841987D01*
X138187117Y-54762943D01*
X138204321Y-54832543D01*
X138204337Y-54833942D01*
X138226299Y-54906218D01*
X138315369Y-54857987D01*
X138353800Y-54825914D01*
X138504118Y-54718567D01*
X138746904Y-54566391D01*
X138988800Y-54425578D01*
X139298189Y-54229079D01*
X139451011Y-54076753D01*
X139447358Y-53995320D01*
X139766970Y-53995320D01*
X139838583Y-53935183D01*
X139864718Y-53897571D01*
X139874698Y-53839634D01*
X139827382Y-53860235D01*
X139736488Y-53945485D01*
X139755134Y-53994496D01*
X139766970Y-53995320D01*
X139447358Y-53995320D01*
X139446306Y-53971870D01*
X139283114Y-53917700D01*
X139139913Y-53910653D01*
X138867192Y-53947284D01*
X138621506Y-54079266D01*
X138490674Y-54185820D01*
X138314646Y-54332199D01*
X138245268Y-54364719D01*
X138269222Y-54289027D01*
X138275526Y-54277053D01*
X138425707Y-54078160D01*
X138633821Y-53892649D01*
X138840833Y-53767706D01*
X138945777Y-53741320D01*
X139031341Y-53685659D01*
X139024809Y-53639621D01*
X139740960Y-53639621D01*
X140026402Y-53627327D01*
X140284748Y-53564240D01*
X140511036Y-53472822D01*
X140706087Y-53472822D01*
X140913604Y-53457589D01*
X141038118Y-53441138D01*
X141259379Y-53399638D01*
X141382551Y-53359991D01*
X141392304Y-53343769D01*
X141293180Y-53332484D01*
X141085663Y-53347718D01*
X140961149Y-53364168D01*
X140739888Y-53405669D01*
X140616716Y-53445316D01*
X140606963Y-53461538D01*
X140706087Y-53472822D01*
X140511036Y-53472822D01*
X140533967Y-53463558D01*
X140322300Y-53399212D01*
X140082491Y-53350226D01*
X139814190Y-53328559D01*
X139581397Y-53335891D01*
X139448114Y-53373903D01*
X139445647Y-53376195D01*
X139405356Y-53492997D01*
X139511722Y-53587577D01*
X139740960Y-53639621D01*
X139024809Y-53639621D01*
X139020946Y-53612399D01*
X139039918Y-53463385D01*
X139148712Y-53306242D01*
X139266660Y-53209272D01*
X139402884Y-53166245D01*
X139611474Y-53168468D01*
X139845291Y-53194265D01*
X140158861Y-53225601D01*
X140515098Y-53248720D01*
X140879983Y-53263181D01*
X141219494Y-53268546D01*
X141499612Y-53264372D01*
X141686316Y-53250220D01*
X141745585Y-53225650D01*
X141738084Y-53218765D01*
X141728318Y-53151074D01*
X141873432Y-53069769D01*
X141875847Y-53068848D01*
X142097264Y-53001173D01*
X142242841Y-52985159D01*
X142285346Y-53015878D01*
X142197548Y-53088401D01*
X142142633Y-53117132D01*
X141888633Y-53241190D01*
X142184967Y-53179851D01*
X142410472Y-53150928D01*
X142741907Y-53129387D01*
X143115907Y-53119046D01*
X143200967Y-53118654D01*
X143704106Y-53141153D01*
X144100559Y-53222487D01*
X144448714Y-53383746D01*
X144806958Y-53646023D01*
X144913383Y-53737240D01*
X145182859Y-53940240D01*
X145467923Y-54105400D01*
X145602906Y-54161816D01*
X145860226Y-54287148D01*
X146139759Y-54482810D01*
X146259072Y-54587980D01*
X146503891Y-54884748D01*
X146587411Y-55159670D01*
X146510856Y-55438432D01*
X146312467Y-55706855D01*
X146095572Y-55901441D01*
X145815780Y-56095234D01*
X145527169Y-56256283D01*
X145283821Y-56352635D01*
X145195897Y-56366565D01*
X145095886Y-56431118D01*
X144955361Y-56591685D01*
X144908792Y-56656712D01*
X144596177Y-56970728D01*
X144154526Y-57199628D01*
X143606633Y-57333275D01*
X143327967Y-57359828D01*
X142999968Y-57388924D01*
X142717698Y-57434319D01*
X142547686Y-57484150D01*
X142354643Y-57532988D01*
X142354643Y-57532988D01*
X142354643Y-57532988D01*
G37*
X142354643Y-57532988D02*
X142249858Y-57485375D01*
X142119484Y-57448229D01*
X141838352Y-57418698D01*
X141763150Y-57414940D01*
X142507998Y-57414940D01*
X142523500Y-57409735D01*
X142507119Y-57334969D01*
X142386471Y-57240973D01*
X142218005Y-57161844D01*
X142062951Y-57131535D01*
X141982330Y-57149961D01*
X142038119Y-57208928D01*
X142184967Y-57293206D01*
X142381669Y-57383667D01*
X142507998Y-57414940D01*
X141763150Y-57414940D01*
X141424918Y-57398038D01*
X140897636Y-57387503D01*
X140799968Y-57386820D01*
X140329542Y-57379085D01*
X139910047Y-57362392D01*
X139574743Y-57338814D01*
X139356894Y-57310425D01*
X139298630Y-57293215D01*
X139286879Y-57279231D01*
X141805669Y-57279231D01*
X141818078Y-57269098D01*
X141806456Y-57218763D01*
X141761633Y-57212653D01*
X141691943Y-57243631D01*
X141705189Y-57269098D01*
X141805669Y-57279231D01*
X139286879Y-57279231D01*
X139172596Y-57143242D01*
X139169411Y-57122750D01*
X139784381Y-57122750D01*
X139877800Y-57122036D01*
X140030810Y-57112775D01*
X141377246Y-57112775D01*
X141621015Y-57063529D01*
X141676967Y-57047412D01*
X141804441Y-57003301D01*
X141794453Y-56973844D01*
X141633153Y-56940392D01*
X141592300Y-56933410D01*
X141317065Y-56891800D01*
X140990485Y-56849135D01*
X140893529Y-56837794D01*
X140632043Y-56771231D01*
X141975002Y-56771231D01*
X141987411Y-56761098D01*
X141975789Y-56710763D01*
X141930967Y-56704653D01*
X141861277Y-56735631D01*
X141874522Y-56761098D01*
X141975002Y-56771231D01*
X140632043Y-56771231D01*
X140326561Y-56693469D01*
X140178999Y-56605193D01*
X141707741Y-56605193D01*
X141722322Y-56536341D01*
X141706170Y-56489301D01*
X141688966Y-56385611D01*
X141747245Y-56399427D01*
X141812494Y-56381740D01*
X141848367Y-56218544D01*
X141857446Y-56053483D01*
X141865688Y-55822524D01*
X141877472Y-55749782D01*
X141899154Y-55824167D01*
X141920946Y-55942653D01*
X141972874Y-56141803D01*
X142071746Y-56223472D01*
X142269633Y-56238987D01*
X142467274Y-56226208D01*
X142544077Y-56158554D01*
X142544878Y-56126110D01*
X142819967Y-56126110D01*
X143270314Y-56082229D01*
X143548937Y-56039126D01*
X143767695Y-55977014D01*
X143841814Y-55937800D01*
X143942324Y-55757110D01*
X143952295Y-55502858D01*
X143875549Y-55260179D01*
X143835945Y-55084924D01*
X143867292Y-54812912D01*
X143913373Y-54617234D01*
X143981736Y-54171156D01*
X143921759Y-53828133D01*
X143728923Y-53575713D01*
X143483964Y-53433958D01*
X143213147Y-53336614D01*
X142959554Y-53271419D01*
X142760028Y-53243763D01*
X142651409Y-53259036D01*
X142661548Y-53313641D01*
X142800426Y-53387033D01*
X143033956Y-53448272D01*
X143127215Y-53462801D01*
X143495079Y-53556507D01*
X143715518Y-53728179D01*
X143793389Y-53981728D01*
X143793633Y-53999526D01*
X143782012Y-54148953D01*
X143714602Y-54198700D01*
X143542581Y-54174681D01*
X143486948Y-54162318D01*
X143259084Y-54092814D01*
X143101564Y-54012872D01*
X143089015Y-54001901D01*
X142938855Y-53915513D01*
X142814493Y-53989696D01*
X142709202Y-54228568D01*
X142707100Y-54235536D01*
X142584126Y-54539706D01*
X142410852Y-54735411D01*
X142152065Y-54844499D01*
X141772548Y-54888818D01*
X141648311Y-54892454D01*
X141041967Y-54903122D01*
X141549967Y-54851388D01*
X141937138Y-54782722D01*
X142207023Y-54659857D01*
X142283961Y-54599831D01*
X142481490Y-54368182D01*
X142573698Y-54139890D01*
X142564051Y-53948227D01*
X142456016Y-53826465D01*
X142253059Y-53807876D01*
X142202623Y-53819133D01*
X142000215Y-53940333D01*
X141915143Y-54128372D01*
X141881832Y-54246251D01*
X141868322Y-54216037D01*
X141871498Y-54027939D01*
X141872810Y-53995320D01*
X141911313Y-53725355D01*
X141989651Y-53538971D01*
X142015633Y-53511179D01*
X142087955Y-53425210D01*
X142043672Y-53397458D01*
X141923000Y-53422254D01*
X141766152Y-53493925D01*
X141667218Y-53560317D01*
X141465349Y-53660281D01*
X141166235Y-53743615D01*
X140957300Y-53777993D01*
X140366756Y-53901130D01*
X139905701Y-54120019D01*
X139558629Y-54442939D01*
X139466031Y-54574431D01*
X139303764Y-54889682D01*
X139229794Y-55166792D01*
X139249062Y-55371454D01*
X139338316Y-55461312D01*
X139496758Y-55449256D01*
X139607855Y-55302597D01*
X139644967Y-55082032D01*
X139709245Y-54852781D01*
X139813091Y-54757967D01*
X139926982Y-54709134D01*
X139940227Y-54764866D01*
X139897758Y-54887500D01*
X139824004Y-55147392D01*
X139850484Y-55340545D01*
X139968245Y-55521341D01*
X140049890Y-55615174D01*
X140094449Y-55625090D01*
X140111039Y-55526158D01*
X140108775Y-55293447D01*
X140104372Y-55149077D01*
X140107070Y-54855749D01*
X140131435Y-54634224D01*
X140170586Y-54534764D01*
X140221083Y-54573713D01*
X140237805Y-54757088D01*
X140234756Y-54852908D01*
X140223014Y-55170684D01*
X140233235Y-55346964D01*
X140269581Y-55408650D01*
X140318602Y-55394605D01*
X140371168Y-55282400D01*
X140363694Y-55241442D01*
X140391166Y-55116405D01*
X140504080Y-54934333D01*
X140544498Y-54884320D01*
X140761179Y-54630320D01*
X140704835Y-54960623D01*
X140648490Y-55290925D01*
X141259480Y-55239702D01*
X141741031Y-55226722D01*
X142098743Y-55289509D01*
X142366088Y-55441164D01*
X142576536Y-55694788D01*
X142622865Y-55773303D01*
X142819967Y-56126110D01*
X142544878Y-56126110D01*
X142548187Y-55992042D01*
X142547686Y-55984987D01*
X142473474Y-55709841D01*
X142289195Y-55536301D01*
X141981482Y-55457112D01*
X141582212Y-55460990D01*
X141190364Y-55474237D01*
X140959415Y-55435421D01*
X140914527Y-55407632D01*
X140840933Y-55362478D01*
X140843051Y-55454797D01*
X140851210Y-55490589D01*
X140854373Y-55618425D01*
X140758103Y-55694102D01*
X140587562Y-55740969D01*
X140341706Y-55782027D01*
X140147682Y-55793157D01*
X140131800Y-55791865D01*
X140010139Y-55830860D01*
X139986460Y-55953637D01*
X140053984Y-56110942D01*
X140194354Y-56246152D01*
X140396581Y-56335119D01*
X140689282Y-56415128D01*
X140892854Y-56451682D01*
X141197143Y-56499580D01*
X141458272Y-56550642D01*
X141572392Y-56579768D01*
X141707741Y-56605193D01*
X140178999Y-56605193D01*
X139827110Y-56394684D01*
X139516692Y-56093740D01*
X139367157Y-55933382D01*
X139290422Y-55874984D01*
X139299087Y-55921824D01*
X139418512Y-56097297D01*
X139604713Y-56316433D01*
X139689808Y-56405183D01*
X140001014Y-56634021D01*
X140405318Y-56821409D01*
X140826833Y-56936748D01*
X141062331Y-56958653D01*
X141196675Y-56987363D01*
X141211300Y-57043320D01*
X141230119Y-57105946D01*
X141377246Y-57112775D01*
X140030810Y-57112775D01*
X140155517Y-57105227D01*
X140383159Y-57069869D01*
X140443110Y-57052174D01*
X140552717Y-56996379D01*
X140507777Y-56951374D01*
X140465308Y-56934178D01*
X140301061Y-56891604D01*
X140043501Y-56844711D01*
X139899998Y-56823798D01*
X139649436Y-56796507D01*
X139523523Y-56809633D01*
X139479912Y-56875547D01*
X139475633Y-56947746D01*
X139495522Y-57057100D01*
X139584021Y-57109187D01*
X139784381Y-57122750D01*
X139169411Y-57122750D01*
X139139778Y-56932142D01*
X139212759Y-56747691D01*
X139219427Y-56740726D01*
X139210035Y-56690519D01*
X139043430Y-56683847D01*
X138979321Y-56689027D01*
X138743099Y-56687919D01*
X138574650Y-56603431D01*
X138438740Y-56460693D01*
X138328377Y-56280080D01*
X138944135Y-56280080D01*
X139088113Y-56246488D01*
X139122440Y-56097228D01*
X139121689Y-56091685D01*
X139025821Y-55922732D01*
X138833396Y-55859242D01*
X138666355Y-55890502D01*
X138553556Y-55987742D01*
X138595628Y-56111546D01*
X138708067Y-56193674D01*
X138944135Y-56280080D01*
X138328377Y-56280080D01*
X138273134Y-56189673D01*
X138146047Y-55843123D01*
X138113334Y-55688653D01*
X140279967Y-55688653D01*
X140322300Y-55646320D01*
X140279967Y-55603987D01*
X140237633Y-55646320D01*
X140279967Y-55688653D01*
X138113334Y-55688653D01*
X138067891Y-55474074D01*
X138049077Y-55135555D01*
X138070613Y-55027761D01*
X139041409Y-55027761D01*
X139083165Y-55004264D01*
X139138719Y-54909369D01*
X139214836Y-54757320D01*
X139278567Y-54616743D01*
X139260496Y-54617267D01*
X139183971Y-54710002D01*
X139107313Y-54831187D01*
X139053828Y-54954519D01*
X139041409Y-55027761D01*
X138070613Y-55027761D01*
X138100014Y-54880599D01*
X138120967Y-54841987D01*
X138187117Y-54762943D01*
X138204321Y-54832543D01*
X138204337Y-54833942D01*
X138226299Y-54906218D01*
X138315369Y-54857987D01*
X138353800Y-54825914D01*
X138504118Y-54718567D01*
X138746904Y-54566391D01*
X138988800Y-54425578D01*
X139298189Y-54229079D01*
X139451011Y-54076753D01*
X139447358Y-53995320D01*
X139766970Y-53995320D01*
X139838583Y-53935183D01*
X139864718Y-53897571D01*
X139874698Y-53839634D01*
X139827382Y-53860235D01*
X139736488Y-53945485D01*
X139755134Y-53994496D01*
X139766970Y-53995320D01*
X139447358Y-53995320D01*
X139446306Y-53971870D01*
X139283114Y-53917700D01*
X139139913Y-53910653D01*
X138867192Y-53947284D01*
X138621506Y-54079266D01*
X138490674Y-54185820D01*
X138314646Y-54332199D01*
X138245268Y-54364719D01*
X138269222Y-54289027D01*
X138275526Y-54277053D01*
X138425707Y-54078160D01*
X138633821Y-53892649D01*
X138840833Y-53767706D01*
X138945777Y-53741320D01*
X139031341Y-53685659D01*
X139024809Y-53639621D01*
X139740960Y-53639621D01*
X140026402Y-53627327D01*
X140284748Y-53564240D01*
X140511036Y-53472822D01*
X140706087Y-53472822D01*
X140913604Y-53457589D01*
X141038118Y-53441138D01*
X141259379Y-53399638D01*
X141382551Y-53359991D01*
X141392304Y-53343769D01*
X141293180Y-53332484D01*
X141085663Y-53347718D01*
X140961149Y-53364168D01*
X140739888Y-53405669D01*
X140616716Y-53445316D01*
X140606963Y-53461538D01*
X140706087Y-53472822D01*
X140511036Y-53472822D01*
X140533967Y-53463558D01*
X140322300Y-53399212D01*
X140082491Y-53350226D01*
X139814190Y-53328559D01*
X139581397Y-53335891D01*
X139448114Y-53373903D01*
X139445647Y-53376195D01*
X139405356Y-53492997D01*
X139511722Y-53587577D01*
X139740960Y-53639621D01*
X139024809Y-53639621D01*
X139020946Y-53612399D01*
X139039918Y-53463385D01*
X139148712Y-53306242D01*
X139266660Y-53209272D01*
X139402884Y-53166245D01*
X139611474Y-53168468D01*
X139845291Y-53194265D01*
X140158861Y-53225601D01*
X140515098Y-53248720D01*
X140879983Y-53263181D01*
X141219494Y-53268546D01*
X141499612Y-53264372D01*
X141686316Y-53250220D01*
X141745585Y-53225650D01*
X141738084Y-53218765D01*
X141728318Y-53151074D01*
X141873432Y-53069769D01*
X141875847Y-53068848D01*
X142097264Y-53001173D01*
X142242841Y-52985159D01*
X142285346Y-53015878D01*
X142197548Y-53088401D01*
X142142633Y-53117132D01*
X141888633Y-53241190D01*
X142184967Y-53179851D01*
X142410472Y-53150928D01*
X142741907Y-53129387D01*
X143115907Y-53119046D01*
X143200967Y-53118654D01*
X143704106Y-53141153D01*
X144100559Y-53222487D01*
X144448714Y-53383746D01*
X144806958Y-53646023D01*
X144913383Y-53737240D01*
X145182859Y-53940240D01*
X145467923Y-54105400D01*
X145602906Y-54161816D01*
X145860226Y-54287148D01*
X146139759Y-54482810D01*
X146259072Y-54587980D01*
X146503891Y-54884748D01*
X146587411Y-55159670D01*
X146510856Y-55438432D01*
X146312467Y-55706855D01*
X146095572Y-55901441D01*
X145815780Y-56095234D01*
X145527169Y-56256283D01*
X145283821Y-56352635D01*
X145195897Y-56366565D01*
X145095886Y-56431118D01*
X144955361Y-56591685D01*
X144908792Y-56656712D01*
X144596177Y-56970728D01*
X144154526Y-57199628D01*
X143606633Y-57333275D01*
X143327967Y-57359828D01*
X142999968Y-57388924D01*
X142717698Y-57434319D01*
X142547686Y-57484150D01*
X142354643Y-57532988D01*
X142354643Y-57532988D01*
G36*
X142057967Y-57551320D02*
X142015633Y-57508987D01*
X142057967Y-57466653D01*
X142100300Y-57508987D01*
X142057967Y-57551320D01*
X142057967Y-57551320D01*
X142057967Y-57551320D01*
G37*
X142057967Y-57551320D02*
X142015633Y-57508987D01*
X142057967Y-57466653D01*
X142100300Y-57508987D01*
X142057967Y-57551320D01*
X142057967Y-57551320D01*
D12*
X135978900Y-36219800D02*
X134428900Y-36219800D01*
X134428900Y-36219800D02*
X134428900Y-39319800D01*
X134428900Y-39319800D02*
X135978900Y-39319800D01*
X137248900Y-36499800D02*
X142328900Y-36499800D01*
X142328900Y-36499800D02*
X142328900Y-39039800D01*
X142328900Y-39039800D02*
X137248900Y-39039800D01*
X137248900Y-39039800D02*
X137248900Y-36499800D01*
X129961700Y-43773600D02*
X129961700Y-36773600D01*
X129961700Y-36773600D02*
X133461700Y-36773600D01*
X133461700Y-36773600D02*
X133461700Y-43773600D01*
X133461700Y-43773600D02*
X129961700Y-43773600D01*
X143601500Y-43773600D02*
X143601500Y-36773600D01*
X143601500Y-36773600D02*
X147101500Y-36773600D01*
X147101500Y-36773600D02*
X147101500Y-43773600D01*
X147101500Y-43773600D02*
X143601500Y-43773600D01*
X137285000Y-33018800D02*
G75*
G03X137285000Y-33018800I-2286000J0D01*
G01*
X144285000Y-33018800D02*
G75*
G03X144285000Y-33018800I-2286000J0D01*
G01*
X137285000Y-69447800D02*
G75*
G03X137285000Y-69447800I-2286000J0D01*
G01*
X144285000Y-69447800D02*
G75*
G03X144285000Y-69447800I-2286000J0D01*
G01*
X137256354Y-35717741D02*
X137256354Y-34717741D01*
X137637307Y-34717741D01*
X137732545Y-34765360D01*
X137780164Y-34812979D01*
X137827783Y-34908217D01*
X137827783Y-35051074D01*
X137780164Y-35146312D01*
X137732545Y-35193931D01*
X137637307Y-35241550D01*
X137256354Y-35241550D01*
X138780164Y-35717741D02*
X138208735Y-35717741D01*
X138494449Y-35717741D02*
X138494449Y-34717741D01*
X138399211Y-34860598D01*
X138303973Y-34955836D01*
X138208735Y-35003455D01*
X139113497Y-34717741D02*
X139732545Y-34717741D01*
X139399211Y-35098693D01*
X139542069Y-35098693D01*
X139637307Y-35146312D01*
X139684926Y-35193931D01*
X139732545Y-35289170D01*
X139732545Y-35527265D01*
X139684926Y-35622503D01*
X139637307Y-35670122D01*
X139542069Y-35717741D01*
X139256354Y-35717741D01*
X139161116Y-35670122D01*
X139113497Y-35622503D01*
X131230643Y-40387566D02*
X131278262Y-40435185D01*
X131325881Y-40578042D01*
X131325881Y-40673280D01*
X131278262Y-40816138D01*
X131183024Y-40911376D01*
X131087786Y-40958995D01*
X130897310Y-41006614D01*
X130754452Y-41006614D01*
X130563976Y-40958995D01*
X130468738Y-40911376D01*
X130373500Y-40816138D01*
X130325881Y-40673280D01*
X130325881Y-40578042D01*
X130373500Y-40435185D01*
X130421119Y-40387566D01*
X130421119Y-40006614D02*
X130373500Y-39958995D01*
X130325881Y-39863757D01*
X130325881Y-39625661D01*
X130373500Y-39530423D01*
X130421119Y-39482804D01*
X130516357Y-39435185D01*
X130611595Y-39435185D01*
X130754452Y-39482804D01*
X131325881Y-40054233D01*
X131325881Y-39435185D01*
X144933943Y-40400266D02*
X144981562Y-40447885D01*
X145029181Y-40590742D01*
X145029181Y-40685980D01*
X144981562Y-40828838D01*
X144886324Y-40924076D01*
X144791086Y-40971695D01*
X144600610Y-41019314D01*
X144457752Y-41019314D01*
X144267276Y-40971695D01*
X144172038Y-40924076D01*
X144076800Y-40828838D01*
X144029181Y-40685980D01*
X144029181Y-40590742D01*
X144076800Y-40447885D01*
X144124419Y-40400266D01*
X144029181Y-40066933D02*
X144029181Y-39447885D01*
X144410133Y-39781219D01*
X144410133Y-39638361D01*
X144457752Y-39543123D01*
X144505371Y-39495504D01*
X144600610Y-39447885D01*
X144838705Y-39447885D01*
X144933943Y-39495504D01*
X144981562Y-39543123D01*
X145029181Y-39638361D01*
X145029181Y-39924076D01*
X144981562Y-40019314D01*
X144933943Y-40066933D01*
X129887814Y-34932881D02*
X129887814Y-33932881D01*
X130268767Y-33932881D01*
X130364005Y-33980500D01*
X130411624Y-34028119D01*
X130459243Y-34123357D01*
X130459243Y-34266214D01*
X130411624Y-34361452D01*
X130364005Y-34409071D01*
X130268767Y-34456690D01*
X129887814Y-34456690D01*
X131411624Y-34932881D02*
X130840195Y-34932881D01*
X131125909Y-34932881D02*
X131125909Y-33932881D01*
X131030671Y-34075738D01*
X130935433Y-34170976D01*
X130840195Y-34218595D01*
X132316386Y-33932881D02*
X131840195Y-33932881D01*
X131792576Y-34409071D01*
X131840195Y-34361452D01*
X131935433Y-34313833D01*
X132173529Y-34313833D01*
X132268767Y-34361452D01*
X132316386Y-34409071D01*
X132364005Y-34504310D01*
X132364005Y-34742405D01*
X132316386Y-34837643D01*
X132268767Y-34885262D01*
X132173529Y-34932881D01*
X131935433Y-34932881D01*
X131840195Y-34885262D01*
X131792576Y-34837643D01*
X144747114Y-34894781D02*
X144747114Y-33894781D01*
X145128067Y-33894781D01*
X145223305Y-33942400D01*
X145270924Y-33990019D01*
X145318543Y-34085257D01*
X145318543Y-34228114D01*
X145270924Y-34323352D01*
X145223305Y-34370971D01*
X145128067Y-34418590D01*
X144747114Y-34418590D01*
X146270924Y-34894781D02*
X145699495Y-34894781D01*
X145985209Y-34894781D02*
X145985209Y-33894781D01*
X145889971Y-34037638D01*
X145794733Y-34132876D01*
X145699495Y-34180495D01*
X147128067Y-33894781D02*
X146937590Y-33894781D01*
X146842352Y-33942400D01*
X146794733Y-33990019D01*
X146699495Y-34132876D01*
X146651876Y-34323352D01*
X146651876Y-34704305D01*
X146699495Y-34799543D01*
X146747114Y-34847162D01*
X146842352Y-34894781D01*
X147032829Y-34894781D01*
X147128067Y-34847162D01*
X147175686Y-34799543D01*
X147223305Y-34704305D01*
X147223305Y-34466210D01*
X147175686Y-34370971D01*
X147128067Y-34323352D01*
X147032829Y-34275733D01*
X146842352Y-34275733D01*
X146747114Y-34323352D01*
X146699495Y-34370971D01*
X146651876Y-34466210D01*
X133784714Y-66852181D02*
X133784714Y-65852181D01*
X134165667Y-65852181D01*
X134260905Y-65899800D01*
X134308524Y-65947419D01*
X134356143Y-66042657D01*
X134356143Y-66185514D01*
X134308524Y-66280752D01*
X134260905Y-66328371D01*
X134165667Y-66375990D01*
X133784714Y-66375990D01*
X135308524Y-66852181D02*
X134737095Y-66852181D01*
X135022809Y-66852181D02*
X135022809Y-65852181D01*
X134927571Y-65995038D01*
X134832333Y-66090276D01*
X134737095Y-66137895D01*
X135641857Y-65852181D02*
X136308524Y-65852181D01*
X135879952Y-66852181D01*
X140784714Y-66852181D02*
X140784714Y-65852181D01*
X141165667Y-65852181D01*
X141260905Y-65899800D01*
X141308524Y-65947419D01*
X141356143Y-66042657D01*
X141356143Y-66185514D01*
X141308524Y-66280752D01*
X141260905Y-66328371D01*
X141165667Y-66375990D01*
X140784714Y-66375990D01*
X142308524Y-66852181D02*
X141737095Y-66852181D01*
X142022809Y-66852181D02*
X142022809Y-65852181D01*
X141927571Y-65995038D01*
X141832333Y-66090276D01*
X141737095Y-66137895D01*
X142879952Y-66280752D02*
X142784714Y-66233133D01*
X142737095Y-66185514D01*
X142689476Y-66090276D01*
X142689476Y-66042657D01*
X142737095Y-65947419D01*
X142784714Y-65899800D01*
X142879952Y-65852181D01*
X143070429Y-65852181D01*
X143165667Y-65899800D01*
X143213286Y-65947419D01*
X143260905Y-66042657D01*
X143260905Y-66090276D01*
X143213286Y-66185514D01*
X143165667Y-66233133D01*
X143070429Y-66280752D01*
X142879952Y-66280752D01*
X142784714Y-66328371D01*
X142737095Y-66375990D01*
X142689476Y-66471229D01*
X142689476Y-66661705D01*
X142737095Y-66756943D01*
X142784714Y-66804562D01*
X142879952Y-66852181D01*
X143070429Y-66852181D01*
X143165667Y-66804562D01*
X143213286Y-66756943D01*
X143260905Y-66661705D01*
X143260905Y-66471229D01*
X143213286Y-66375990D01*
X143165667Y-66328371D01*
X143070429Y-66280752D01*
M02*
