M48
; DRILL file {KiCad 9.0.2-9.0.2-0~ubuntu25.04.1} date 2025-06-29T21:17:16+0200
; FORMAT={-:-/ absolute / metric / decimal}
; #@! TF.CreationDate,2025-06-29T21:17:16+02:00
; #@! TF.GenerationSoftware,Kicad,Pcbnew,9.0.2-9.0.2-0~ubuntu25.04.1
; #@! TF.FileFunction,Plated,1,2,PTH
FMAT,2
METRIC
; #@! TA.AperFunction,Plated,PTH,ViaDrill
T1C0.300
; #@! TA.AperFunction,Plated,PTH,ComponentDrill
T2C0.500
; #@! TA.AperFunction,Plated,PTH,ComponentDrill
T3C0.800
; #@! TA.AperFunction,Plated,PTH,ComponentDrill
T4C1.000
; #@! TA.AperFunction,Plated,PTH,ComponentDrill
T5C1.016
; #@! TA.AperFunction,Plated,PTH,ComponentDrill
T6C1.100
; #@! TA.AperFunction,Plated,PTH,ComponentDrill
T7C1.520
; #@! TA.AperFunction,Plated,PTH,ComponentDrill
T8C2.500
; #@! TA.AperFunction,Plated,PTH,ComponentDrill
T9C3.000
%
G90
G05
T1
X112.33Y-59.55
T2
X97.75Y-50.0
X97.75Y-131.0
X98.409Y-48.409
X98.409Y-51.591
X98.409Y-129.409
X98.409Y-132.591
X100.0Y-47.75
X100.0Y-52.25
X100.0Y-128.75
X100.0Y-133.25
X101.591Y-48.409
X101.591Y-51.591
X101.591Y-129.409
X101.591Y-132.591
X102.25Y-50.0
X102.25Y-131.0
X139.75Y-50.0
X139.75Y-131.0
X140.409Y-48.409
X140.409Y-51.591
X140.409Y-129.409
X140.409Y-132.591
X142.0Y-47.75
X142.0Y-52.25
X142.0Y-128.75
X142.0Y-133.25
X143.591Y-48.409
X143.591Y-51.591
X143.591Y-129.409
X143.591Y-132.591
X144.25Y-50.0
X144.25Y-131.0
T3
X110.46Y-116.26
X110.46Y-121.26
X113.47Y-109.47
X115.97Y-109.47
X123.2Y-109.21
X125.7Y-109.21
X128.65Y-116.26
X128.65Y-121.26
T4
X116.22Y-53.56
X118.76Y-53.56
X121.3Y-53.56
X123.84Y-53.56
T5
X112.66Y-62.37
X112.66Y-64.91
X112.66Y-67.45
X112.66Y-69.99
X112.66Y-72.53
X112.66Y-75.07
X112.66Y-77.61
X112.66Y-80.15
X112.66Y-82.69
X112.66Y-85.23
X112.66Y-87.77
X112.66Y-90.31
X112.66Y-92.85
X112.66Y-95.39
X112.66Y-97.93
X127.9Y-62.37
X127.9Y-64.91
X127.9Y-67.45
X127.9Y-69.99
X127.9Y-72.53
X127.9Y-75.07
X127.9Y-77.61
X127.9Y-80.15
X127.9Y-82.69
X127.9Y-85.23
X127.9Y-87.77
X127.9Y-90.31
X127.9Y-92.85
X127.9Y-95.39
X127.9Y-97.93
T6
X114.61Y-124.98
X117.08Y-119.71
X119.62Y-119.71
X122.16Y-119.71
X124.77Y-124.98
X134.01Y-69.81
X134.01Y-72.35
X134.01Y-74.89
X134.01Y-106.54
X134.01Y-109.08
X134.01Y-111.62
T7
X103.36Y-56.54
X103.36Y-61.62
X103.36Y-66.7
X103.36Y-72.18
X103.36Y-77.26
X103.36Y-82.34
X103.36Y-87.86
X103.36Y-92.94
X103.36Y-98.38
X103.36Y-103.46
X103.36Y-108.88
X103.36Y-113.96
X103.36Y-119.42
X103.36Y-124.5
T8
X138.31Y-59.63
X138.31Y-85.03
X138.31Y-96.36
X138.31Y-121.76
T9
X100.0Y-50.0
X100.0Y-131.0
X142.0Y-50.0
X142.0Y-131.0
M30
