G04 #@! TF.FileFunction,Legend,Top*
%FSLAX46Y46*%
G04 Gerber Fmt 4.6, Leading zero omitted, Abs format (unit mm)*
G04 Created by KiCad (PCBNEW 4.0.4+e1-6308~48~ubuntu16.04.1-stable) date Tue Oct 25 19:37:50 2016*
%MOMM*%
%LPD*%
G01*
G04 APERTURE LIST*
%ADD10C,0.100000*%
%ADD11C,0.300000*%
%ADD12C,0.150000*%
G04 APERTURE END LIST*
D10*
D11*
X135317315Y-97366900D02*
X136031601Y-97366900D01*
X135174458Y-97795471D02*
X135674458Y-96295471D01*
X136174458Y-97795471D01*
X136531601Y-96295471D02*
X137460172Y-96295471D01*
X136960172Y-96866900D01*
X137174458Y-96866900D01*
X137317315Y-96938329D01*
X137388744Y-97009757D01*
X137460172Y-97152614D01*
X137460172Y-97509757D01*
X137388744Y-97652614D01*
X137317315Y-97724043D01*
X137174458Y-97795471D01*
X136745886Y-97795471D01*
X136603029Y-97724043D01*
X136531601Y-97652614D01*
X138888743Y-97795471D02*
X138031600Y-97795471D01*
X138460172Y-97795471D02*
X138460172Y-96295471D01*
X138317315Y-96509757D01*
X138174457Y-96652614D01*
X138031600Y-96724043D01*
X140174457Y-96795471D02*
X140174457Y-97795471D01*
X139817314Y-96224043D02*
X139460171Y-97295471D01*
X140388743Y-97295471D01*
X141603028Y-96795471D02*
X141603028Y-97795471D01*
X141245885Y-96224043D02*
X140888742Y-97295471D01*
X141817314Y-97295471D01*
X140046971Y-110353457D02*
X140046971Y-110067743D01*
X140118400Y-109924885D01*
X140261257Y-109782028D01*
X140546971Y-109710600D01*
X141046971Y-109710600D01*
X141332686Y-109782028D01*
X141475543Y-109924885D01*
X141546971Y-110067743D01*
X141546971Y-110353457D01*
X141475543Y-110496314D01*
X141332686Y-110639171D01*
X141046971Y-110710600D01*
X140546971Y-110710600D01*
X140261257Y-110639171D01*
X140118400Y-110496314D01*
X140046971Y-110353457D01*
X137578400Y-109805043D02*
X137506971Y-109947900D01*
X137506971Y-110162186D01*
X137578400Y-110376471D01*
X137721257Y-110519329D01*
X137864114Y-110590757D01*
X138149829Y-110662186D01*
X138364114Y-110662186D01*
X138649829Y-110590757D01*
X138792686Y-110519329D01*
X138935543Y-110376471D01*
X139006971Y-110162186D01*
X139006971Y-110019329D01*
X138935543Y-109805043D01*
X138864114Y-109733614D01*
X138364114Y-109733614D01*
X138364114Y-110019329D01*
X135043171Y-110710600D02*
X136543171Y-110210600D01*
X135043171Y-109710600D01*
X141766029Y-99257800D02*
X141766029Y-99543514D01*
X141694600Y-99686372D01*
X141551743Y-99829229D01*
X141266029Y-99900657D01*
X140766029Y-99900657D01*
X140480314Y-99829229D01*
X140337457Y-99686372D01*
X140266029Y-99543514D01*
X140266029Y-99257800D01*
X140337457Y-99114943D01*
X140480314Y-98972086D01*
X140766029Y-98900657D01*
X141266029Y-98900657D01*
X141551743Y-98972086D01*
X141694600Y-99114943D01*
X141766029Y-99257800D01*
X141266029Y-101186372D02*
X140266029Y-101186372D01*
X141266029Y-100543515D02*
X140480314Y-100543515D01*
X140337457Y-100614943D01*
X140266029Y-100757801D01*
X140266029Y-100972086D01*
X140337457Y-101114943D01*
X140408886Y-101186372D01*
X141266029Y-101686372D02*
X141266029Y-102257801D01*
X141766029Y-101900658D02*
X140480314Y-101900658D01*
X140337457Y-101972086D01*
X140266029Y-102114944D01*
X140266029Y-102257801D01*
X139319700Y-99695914D02*
X139391129Y-99553057D01*
X139391129Y-99338771D01*
X139319700Y-99124486D01*
X139176843Y-98981628D01*
X139033986Y-98910200D01*
X138748271Y-98838771D01*
X138533986Y-98838771D01*
X138248271Y-98910200D01*
X138105414Y-98981628D01*
X137962557Y-99124486D01*
X137891129Y-99338771D01*
X137891129Y-99481628D01*
X137962557Y-99695914D01*
X138033986Y-99767343D01*
X138533986Y-99767343D01*
X138533986Y-99481628D01*
X138891129Y-100410200D02*
X137891129Y-100410200D01*
X138748271Y-100410200D02*
X138819700Y-100481628D01*
X138891129Y-100624486D01*
X138891129Y-100838771D01*
X138819700Y-100981628D01*
X138676843Y-101053057D01*
X137891129Y-101053057D01*
X137891129Y-102410200D02*
X139391129Y-102410200D01*
X137962557Y-102410200D02*
X137891129Y-102267343D01*
X137891129Y-101981629D01*
X137962557Y-101838771D01*
X138033986Y-101767343D01*
X138176843Y-101695914D01*
X138605414Y-101695914D01*
X138748271Y-101767343D01*
X138819700Y-101838771D01*
X138891129Y-101981629D01*
X138891129Y-102267343D01*
X138819700Y-102410200D01*
X136711429Y-98849086D02*
X135211429Y-99349086D01*
X136711429Y-99849086D01*
X135282857Y-100991943D02*
X135211429Y-100849086D01*
X135211429Y-100563372D01*
X135282857Y-100420514D01*
X135354286Y-100349086D01*
X135497143Y-100277657D01*
X135925714Y-100277657D01*
X136068571Y-100349086D01*
X136140000Y-100420514D01*
X136211429Y-100563372D01*
X136211429Y-100849086D01*
X136140000Y-100991943D01*
X135282857Y-102277657D02*
X135211429Y-102134800D01*
X135211429Y-101849086D01*
X135282857Y-101706228D01*
X135354286Y-101634800D01*
X135497143Y-101563371D01*
X135925714Y-101563371D01*
X136068571Y-101634800D01*
X136140000Y-101706228D01*
X136211429Y-101849086D01*
X136211429Y-102134800D01*
X136140000Y-102277657D01*
D12*
X137198100Y-93804740D02*
X136563100Y-94312740D01*
X139738100Y-93804740D02*
X140373100Y-94312740D01*
X138468100Y-93804740D02*
X138468100Y-94312740D01*
X139738100Y-93804740D02*
X139738100Y-91010740D01*
X138468100Y-93804740D02*
X138468100Y-91010740D01*
X137198100Y-93804740D02*
X137198100Y-91010740D01*
X140868100Y-91010740D02*
X136068100Y-91010740D01*
X136068100Y-91010740D02*
X136068100Y-85820740D01*
X136068100Y-85820740D02*
X140868100Y-85820740D01*
X140868100Y-85820740D02*
X140868100Y-91010740D01*
X140881100Y-109309500D02*
X142431100Y-109309500D01*
X142431100Y-109309500D02*
X142431100Y-106209500D01*
X142431100Y-106209500D02*
X140881100Y-106209500D01*
X139611100Y-109029500D02*
X134531100Y-109029500D01*
X134531100Y-109029500D02*
X134531100Y-106489500D01*
X134531100Y-106489500D02*
X139611100Y-106489500D01*
X139611100Y-106489500D02*
X139611100Y-109029500D01*
X137833195Y-87844381D02*
X137833195Y-88653905D01*
X137880814Y-88749143D01*
X137928433Y-88796762D01*
X138023671Y-88844381D01*
X138214148Y-88844381D01*
X138309386Y-88796762D01*
X138357005Y-88749143D01*
X138404624Y-88653905D01*
X138404624Y-87844381D01*
X138833195Y-87939619D02*
X138880814Y-87892000D01*
X138976052Y-87844381D01*
X139214148Y-87844381D01*
X139309386Y-87892000D01*
X139357005Y-87939619D01*
X139404624Y-88034857D01*
X139404624Y-88130095D01*
X139357005Y-88272952D01*
X138785576Y-88844381D01*
X139404624Y-88844381D01*
X137704605Y-106040181D02*
X137704605Y-105040181D01*
X138085558Y-105040181D01*
X138180796Y-105087800D01*
X138228415Y-105135419D01*
X138276034Y-105230657D01*
X138276034Y-105373514D01*
X138228415Y-105468752D01*
X138180796Y-105516371D01*
X138085558Y-105563990D01*
X137704605Y-105563990D01*
X138609367Y-105040181D02*
X139276034Y-105040181D01*
X138847462Y-106040181D01*
M02*
