G04 #@! TF.FileFunction,Copper,L2,Bot,Signal*
%FSLAX46Y46*%
G04 Gerber Fmt 4.6, Leading zero omitted, Abs format (unit mm)*
G04 Created by KiCad (PCBNEW 4.0.4+e1-6308~48~ubuntu16.04.1-stable) date Tue Oct 25 19:37:50 2016*
%MOMM*%
%LPD*%
G01*
G04 APERTURE LIST*
%ADD10C,0.100000*%
%ADD11C,0.400000*%
%ADD12O,0.899160X1.501140*%
%ADD13R,1.727200X2.032000*%
%ADD14O,1.727200X2.032000*%
%ADD15C,1.524000*%
%ADD16C,1.016000*%
G04 APERTURE END LIST*
D10*
D11*
X140090662Y-109905824D02*
X140090662Y-110286776D01*
X140185900Y-110477252D01*
X140376376Y-110667729D01*
X140757329Y-110762967D01*
X141423995Y-110762967D01*
X141804948Y-110667729D01*
X141995424Y-110477252D01*
X142090662Y-110286776D01*
X142090662Y-109905824D01*
X141995424Y-109715348D01*
X141804948Y-109524871D01*
X141423995Y-109429633D01*
X140757329Y-109429633D01*
X140376376Y-109524871D01*
X140185900Y-109715348D01*
X140090662Y-109905824D01*
X137468100Y-110645510D02*
X137372862Y-110455033D01*
X137372862Y-110169319D01*
X137468100Y-109883605D01*
X137658576Y-109693129D01*
X137849052Y-109597890D01*
X138230005Y-109502652D01*
X138515719Y-109502652D01*
X138896671Y-109597890D01*
X139087148Y-109693129D01*
X139277624Y-109883605D01*
X139372862Y-110169319D01*
X139372862Y-110359795D01*
X139277624Y-110645510D01*
X139182386Y-110740748D01*
X138515719Y-110740748D01*
X138515719Y-110359795D01*
X134705862Y-109429633D02*
X136705862Y-110096300D01*
X134705862Y-110762967D01*
D12*
X138468100Y-94820740D03*
X136563100Y-94820740D03*
X140373100Y-94820740D03*
D13*
X140881100Y-107759500D03*
D14*
X138341100Y-107759500D03*
X135801100Y-107759500D03*
D15*
X140995400Y-107759500D02*
X140995400Y-95443040D01*
X140995400Y-95443040D02*
X140373100Y-94820740D01*
X138468100Y-94820740D02*
X138468100Y-107746800D01*
D16*
X138468100Y-107746800D02*
X138455400Y-107759500D01*
D15*
X135915400Y-107759500D02*
X135915400Y-95468440D01*
X135915400Y-95468440D02*
X136563100Y-94820740D01*
M02*
