G04 #@! TF.FileFunction,Legend,Top*
%FSLAX46Y46*%
G04 Gerber Fmt 4.6, Leading zero omitted, Abs format (unit mm)*
G04 Created by KiCad (PCBNEW 4.0.6-e0-6349~52~ubuntu16.10.1) date Sun Mar 26 20:03:33 2017*
%MOMM*%
%LPD*%
G01*
G04 APERTURE LIST*
%ADD10C,0.100000*%
%ADD11C,0.300000*%
%ADD12C,0.500000*%
%ADD13C,0.304800*%
%ADD14C,0.203200*%
G04 APERTURE END LIST*
D10*
D11*
X113850000Y-63842857D02*
X114064286Y-63914286D01*
X114135714Y-63985714D01*
X114207143Y-64128571D01*
X114207143Y-64342857D01*
X114135714Y-64485714D01*
X114064286Y-64557143D01*
X113921428Y-64628571D01*
X113350000Y-64628571D01*
X113350000Y-63128571D01*
X113850000Y-63128571D01*
X113992857Y-63200000D01*
X114064286Y-63271429D01*
X114135714Y-63414286D01*
X114135714Y-63557143D01*
X114064286Y-63700000D01*
X113992857Y-63771429D01*
X113850000Y-63842857D01*
X113350000Y-63842857D01*
X115064286Y-64628571D02*
X114921428Y-64557143D01*
X114850000Y-64414286D01*
X114850000Y-63128571D01*
X116278571Y-63628571D02*
X116278571Y-64628571D01*
X115635714Y-63628571D02*
X115635714Y-64414286D01*
X115707142Y-64557143D01*
X115850000Y-64628571D01*
X116064285Y-64628571D01*
X116207142Y-64557143D01*
X116278571Y-64485714D01*
X117564285Y-64557143D02*
X117421428Y-64628571D01*
X117135714Y-64628571D01*
X116992857Y-64557143D01*
X116921428Y-64414286D01*
X116921428Y-63842857D01*
X116992857Y-63700000D01*
X117135714Y-63628571D01*
X117421428Y-63628571D01*
X117564285Y-63700000D01*
X117635714Y-63842857D01*
X117635714Y-63985714D01*
X116921428Y-64128571D01*
X118064285Y-63628571D02*
X118635714Y-63628571D01*
X118278571Y-63128571D02*
X118278571Y-64414286D01*
X118349999Y-64557143D01*
X118492857Y-64628571D01*
X118635714Y-64628571D01*
X119350000Y-64628571D02*
X119207142Y-64557143D01*
X119135714Y-64485714D01*
X119064285Y-64342857D01*
X119064285Y-63914286D01*
X119135714Y-63771429D01*
X119207142Y-63700000D01*
X119350000Y-63628571D01*
X119564285Y-63628571D01*
X119707142Y-63700000D01*
X119778571Y-63771429D01*
X119850000Y-63914286D01*
X119850000Y-64342857D01*
X119778571Y-64485714D01*
X119707142Y-64557143D01*
X119564285Y-64628571D01*
X119350000Y-64628571D01*
X120707143Y-64628571D02*
X120564285Y-64557143D01*
X120492857Y-64485714D01*
X120421428Y-64342857D01*
X120421428Y-63914286D01*
X120492857Y-63771429D01*
X120564285Y-63700000D01*
X120707143Y-63628571D01*
X120921428Y-63628571D01*
X121064285Y-63700000D01*
X121135714Y-63771429D01*
X121207143Y-63914286D01*
X121207143Y-64342857D01*
X121135714Y-64485714D01*
X121064285Y-64557143D01*
X120921428Y-64628571D01*
X120707143Y-64628571D01*
X121635714Y-63628571D02*
X122207143Y-63628571D01*
X121850000Y-63128571D02*
X121850000Y-64414286D01*
X121921428Y-64557143D01*
X122064286Y-64628571D01*
X122207143Y-64628571D01*
X122707143Y-64628571D02*
X122707143Y-63128571D01*
X123350000Y-64628571D02*
X123350000Y-63842857D01*
X123278571Y-63700000D01*
X123135714Y-63628571D01*
X122921429Y-63628571D01*
X122778571Y-63700000D01*
X122707143Y-63771429D01*
D12*
X111125000Y-55350000D02*
X111125000Y-72350000D01*
X126125000Y-55350000D02*
X111125000Y-55350000D01*
X126125000Y-72350000D02*
X126125000Y-55350000D01*
X111125000Y-72350000D02*
X126125000Y-72350000D01*
D13*
X115835000Y-67530000D02*
X115835000Y-70070000D01*
X123455000Y-70070000D02*
X113295000Y-70070000D01*
X113295000Y-67530000D02*
X123455000Y-67530000D01*
X113295000Y-70070000D02*
X113295000Y-67530000D01*
X123455000Y-67530000D02*
X123455000Y-70070000D01*
X114590000Y-56560000D02*
X122210000Y-56560000D01*
X122210000Y-56560000D02*
X122210000Y-61640000D01*
X122210000Y-61640000D02*
X114590000Y-61640000D01*
X114590000Y-59100000D02*
X117130000Y-59100000D01*
X117130000Y-59100000D02*
X117130000Y-61640000D01*
X114590000Y-56560000D02*
X114590000Y-61640000D01*
D14*
X118036333Y-66084619D02*
X118036333Y-66810333D01*
X117987953Y-66955476D01*
X117891191Y-67052238D01*
X117746048Y-67100619D01*
X117649286Y-67100619D01*
X119052333Y-67100619D02*
X118471762Y-67100619D01*
X118762048Y-67100619D02*
X118762048Y-66084619D01*
X118665286Y-66229762D01*
X118568524Y-66326524D01*
X118471762Y-66374905D01*
X112918619Y-59438667D02*
X113644333Y-59438667D01*
X113789476Y-59487047D01*
X113886238Y-59583809D01*
X113934619Y-59728952D01*
X113934619Y-59825714D01*
X113015381Y-59003238D02*
X112967000Y-58954857D01*
X112918619Y-58858095D01*
X112918619Y-58616191D01*
X112967000Y-58519429D01*
X113015381Y-58471048D01*
X113112143Y-58422667D01*
X113208905Y-58422667D01*
X113354048Y-58471048D01*
X113934619Y-59051619D01*
X113934619Y-58422667D01*
M02*
