G04 #@! TF.FileFunction,Legend,Bot*
%FSLAX46Y46*%
G04 Gerber Fmt 4.6, Leading zero omitted, Abs format (unit mm)*
G04 Created by KiCad (PCBNEW 4.0.6-e0-6349~52~ubuntu16.10.1) date Sun Mar 26 20:03:33 2017*
%MOMM*%
%LPD*%
G01*
G04 APERTURE LIST*
%ADD10C,0.100000*%
%ADD11C,0.300000*%
%ADD12C,0.500000*%
G04 APERTURE END LIST*
D10*
D11*
X122875000Y-63742857D02*
X122660714Y-63814286D01*
X122589286Y-63885714D01*
X122517857Y-64028571D01*
X122517857Y-64242857D01*
X122589286Y-64385714D01*
X122660714Y-64457143D01*
X122803572Y-64528571D01*
X123375000Y-64528571D01*
X123375000Y-63028571D01*
X122875000Y-63028571D01*
X122732143Y-63100000D01*
X122660714Y-63171429D01*
X122589286Y-63314286D01*
X122589286Y-63457143D01*
X122660714Y-63600000D01*
X122732143Y-63671429D01*
X122875000Y-63742857D01*
X123375000Y-63742857D01*
X121660714Y-64528571D02*
X121803572Y-64457143D01*
X121875000Y-64314286D01*
X121875000Y-63028571D01*
X120446429Y-63528571D02*
X120446429Y-64528571D01*
X121089286Y-63528571D02*
X121089286Y-64314286D01*
X121017858Y-64457143D01*
X120875000Y-64528571D01*
X120660715Y-64528571D01*
X120517858Y-64457143D01*
X120446429Y-64385714D01*
X119160715Y-64457143D02*
X119303572Y-64528571D01*
X119589286Y-64528571D01*
X119732143Y-64457143D01*
X119803572Y-64314286D01*
X119803572Y-63742857D01*
X119732143Y-63600000D01*
X119589286Y-63528571D01*
X119303572Y-63528571D01*
X119160715Y-63600000D01*
X119089286Y-63742857D01*
X119089286Y-63885714D01*
X119803572Y-64028571D01*
X118660715Y-63528571D02*
X118089286Y-63528571D01*
X118446429Y-63028571D02*
X118446429Y-64314286D01*
X118375001Y-64457143D01*
X118232143Y-64528571D01*
X118089286Y-64528571D01*
X117375000Y-64528571D02*
X117517858Y-64457143D01*
X117589286Y-64385714D01*
X117660715Y-64242857D01*
X117660715Y-63814286D01*
X117589286Y-63671429D01*
X117517858Y-63600000D01*
X117375000Y-63528571D01*
X117160715Y-63528571D01*
X117017858Y-63600000D01*
X116946429Y-63671429D01*
X116875000Y-63814286D01*
X116875000Y-64242857D01*
X116946429Y-64385714D01*
X117017858Y-64457143D01*
X117160715Y-64528571D01*
X117375000Y-64528571D01*
X116017857Y-64528571D02*
X116160715Y-64457143D01*
X116232143Y-64385714D01*
X116303572Y-64242857D01*
X116303572Y-63814286D01*
X116232143Y-63671429D01*
X116160715Y-63600000D01*
X116017857Y-63528571D01*
X115803572Y-63528571D01*
X115660715Y-63600000D01*
X115589286Y-63671429D01*
X115517857Y-63814286D01*
X115517857Y-64242857D01*
X115589286Y-64385714D01*
X115660715Y-64457143D01*
X115803572Y-64528571D01*
X116017857Y-64528571D01*
X115089286Y-63528571D02*
X114517857Y-63528571D01*
X114875000Y-63028571D02*
X114875000Y-64314286D01*
X114803572Y-64457143D01*
X114660714Y-64528571D01*
X114517857Y-64528571D01*
X114017857Y-64528571D02*
X114017857Y-63028571D01*
X113375000Y-64528571D02*
X113375000Y-63742857D01*
X113446429Y-63600000D01*
X113589286Y-63528571D01*
X113803571Y-63528571D01*
X113946429Y-63600000D01*
X114017857Y-63671429D01*
D12*
X111125000Y-55350000D02*
X111125000Y-72350000D01*
X126125000Y-55350000D02*
X111125000Y-55350000D01*
X126125000Y-72350000D02*
X126125000Y-55350000D01*
X111125000Y-72350000D02*
X126125000Y-72350000D01*
M02*
