G04 #@! TF.FileFunction,Copper,L1,Top,Signal*
%FSLAX46Y46*%
G04 Gerber Fmt 4.6, Leading zero omitted, Abs format (unit mm)*
G04 Created by KiCad (PCBNEW 4.0.6-e0-6349~52~ubuntu16.10.1) date Sun Mar 26 20:03:33 2017*
%MOMM*%
%LPD*%
G01*
G04 APERTURE LIST*
%ADD10C,0.100000*%
%ADD11C,0.500000*%
%ADD12R,1.524000X6.096000*%
%ADD13R,1.524000X1.998980*%
%ADD14O,1.524000X1.998980*%
%ADD15C,0.600000*%
%ADD16C,1.524000*%
G04 APERTURE END LIST*
D10*
D11*
X111125000Y-55350000D02*
X111125000Y-72350000D01*
X126125000Y-55350000D02*
X111125000Y-55350000D01*
X126125000Y-72350000D02*
X126125000Y-55350000D01*
X111125000Y-72350000D02*
X126125000Y-72350000D01*
D12*
X114565000Y-68800000D03*
X117105000Y-68800000D03*
X119645000Y-68800000D03*
X122185000Y-68800000D03*
D13*
X115860000Y-60618920D03*
D14*
X115860000Y-57581080D03*
X118400000Y-60618920D03*
X118400000Y-57581080D03*
X120940000Y-60618920D03*
X120940000Y-57581080D03*
D15*
X121750000Y-63975000D03*
X112825000Y-63975000D03*
D16*
X121750000Y-63975000D02*
X121750000Y-61180000D01*
X121750000Y-61180000D02*
X120940000Y-60370000D01*
X114565000Y-68800000D02*
X114565000Y-65715000D01*
X114565000Y-65715000D02*
X112825000Y-63975000D01*
X117105000Y-68800000D02*
X117105000Y-64228000D01*
X117105000Y-64228000D02*
X115860000Y-62983000D01*
X115860000Y-62983000D02*
X115860000Y-60370000D01*
X119645000Y-68800000D02*
X119645000Y-64228000D01*
X119645000Y-64228000D02*
X118400000Y-62983000D01*
X118400000Y-62983000D02*
X118400000Y-60370000D01*
X124050000Y-59250000D02*
X122630000Y-57830000D01*
X122630000Y-57830000D02*
X120940000Y-57830000D01*
X124050000Y-64649000D02*
X124050000Y-59250000D01*
X122185000Y-68800000D02*
X122185000Y-66514000D01*
X122185000Y-66514000D02*
X124050000Y-64649000D01*
M02*
