G04 #@! TF.FileFunction,Copper,L2,Bot,Signal*
%FSLAX46Y46*%
G04 Gerber Fmt 4.6, Leading zero omitted, Abs format (unit mm)*
G04 Created by KiCad (PCBNEW 4.0.4+e1-6308~48~ubuntu16.04.1-stable) date Fri Nov 18 09:56:43 2016*
%MOMM*%
%LPD*%
G01*
G04 APERTURE LIST*
%ADD10C,0.100000*%
%ADD11R,2.540000X2.540000*%
%ADD12C,2.540000*%
%ADD13C,5.999480*%
%ADD14R,2.286000X1.574800*%
%ADD15O,2.286000X1.574800*%
%ADD16O,2.499360X1.501140*%
%ADD17O,1.699260X3.500120*%
%ADD18C,4.064000*%
%ADD19R,1.300000X1.300000*%
%ADD20C,1.300000*%
%ADD21C,0.600000*%
%ADD22C,2.032000*%
%ADD23C,3.048000*%
%ADD24C,1.016000*%
%ADD25C,1.524000*%
G04 APERTURE END LIST*
D10*
D11*
X69461380Y-69062600D03*
D12*
X69461380Y-74142600D03*
D13*
X102278180Y-102958900D03*
X102278180Y-77558900D03*
D14*
X77322680Y-46342300D03*
D15*
X77322680Y-48882300D03*
X77322680Y-51422300D03*
X77322680Y-53962300D03*
X77322680Y-56502300D03*
X77322680Y-59042300D03*
X77322680Y-61582300D03*
X77322680Y-64122300D03*
X77322680Y-66662300D03*
X77322680Y-69202300D03*
X77322680Y-71742300D03*
X77322680Y-74282300D03*
X77322680Y-76822300D03*
X77322680Y-79362300D03*
X77322680Y-81902300D03*
X92562680Y-81902300D03*
X92562680Y-79362300D03*
X92562680Y-76822300D03*
X92562680Y-74282300D03*
X92562680Y-71742300D03*
X92562680Y-69202300D03*
X92562680Y-66662300D03*
X92562680Y-64122300D03*
X92562680Y-61582300D03*
X92562680Y-59042300D03*
X92562680Y-56502300D03*
X92562680Y-53962300D03*
X92562680Y-51422300D03*
X92562680Y-48882300D03*
X92562680Y-46342300D03*
D11*
X69486780Y-53670200D03*
D12*
X69486780Y-58750200D03*
X69486780Y-63830200D03*
D11*
X69423280Y-89687400D03*
D12*
X69423280Y-94767400D03*
D11*
X69486780Y-38227000D03*
D12*
X69486780Y-43307000D03*
X69486780Y-48387000D03*
D16*
X98455480Y-53583840D03*
X98455480Y-51043840D03*
X98455480Y-56123840D03*
X98328480Y-90322400D03*
X98328480Y-87782400D03*
X98328480Y-92862400D03*
D17*
X84942680Y-98348800D03*
X82402680Y-98348800D03*
X87482680Y-98348800D03*
D13*
X102417880Y-40805100D03*
X102417880Y-66205100D03*
D18*
X107000000Y-31000000D03*
X107000000Y-112000000D03*
X65000000Y-112000000D03*
X65000000Y-31000000D03*
D19*
X87508080Y-91363800D03*
D20*
X82508080Y-91363800D03*
D11*
X69435980Y-79387700D03*
D12*
X69435980Y-84467700D03*
D11*
X69410580Y-100025200D03*
D12*
X69410580Y-105105200D03*
D21*
X76906120Y-89682320D03*
X69435980Y-79387700D03*
D22*
X69435980Y-84467700D02*
X68054220Y-84467700D01*
X68054220Y-84467700D02*
X66133980Y-86387940D01*
X77322680Y-79362300D02*
X75849480Y-79362300D01*
X75849480Y-79362300D02*
X70744080Y-84467700D01*
X70744080Y-84467700D02*
X69435980Y-84467700D01*
X69423280Y-89687400D02*
X67932300Y-89687400D01*
X67932300Y-89687400D02*
X66133980Y-87889080D01*
X66133980Y-87889080D02*
X66133980Y-86387940D01*
X66133980Y-86387940D02*
X66133980Y-76009500D01*
D23*
X76901040Y-89687400D02*
X69423280Y-89687400D01*
X76906120Y-89682320D02*
X76901040Y-89687400D01*
D22*
X84942680Y-98348800D02*
X84942680Y-93798400D01*
X84942680Y-93798400D02*
X82508080Y-91363800D01*
D23*
X69435980Y-89674700D02*
X69423280Y-89687400D01*
D22*
X69461380Y-74142600D02*
X68000880Y-74142600D01*
X68000880Y-74142600D02*
X66133980Y-76009500D01*
X69486780Y-63830200D02*
X67823080Y-63830200D01*
X67823080Y-63830200D02*
X66133980Y-65519300D01*
X69435980Y-84467700D02*
X69435980Y-84582000D01*
X69486780Y-43307000D02*
X69296280Y-43307000D01*
X69296280Y-43307000D02*
X66133980Y-46469300D01*
X66133980Y-46469300D02*
X66133980Y-65519300D01*
X66133980Y-65519300D02*
X66133980Y-76009500D01*
X69435980Y-89674700D02*
X69423280Y-89687400D01*
X69423280Y-89687400D02*
X80831680Y-89687400D01*
X80831680Y-89687400D02*
X82508080Y-91363800D01*
X69486780Y-63830200D02*
X69126100Y-63830200D01*
D24*
X69486780Y-63830200D02*
X69080380Y-63830200D01*
X98470720Y-56139080D02*
X98455480Y-56123840D01*
X98407220Y-92783660D02*
X98328480Y-92862400D01*
D22*
X98328480Y-90322400D02*
X96093280Y-90322400D01*
X96093280Y-90322400D02*
X93553280Y-92862400D01*
X93553280Y-92862400D02*
X93553280Y-100291900D01*
X93553280Y-100291900D02*
X90238580Y-103606600D01*
X90238580Y-103606600D02*
X80307180Y-103606600D01*
X80307180Y-103606600D02*
X76725780Y-100025200D01*
X76725780Y-100025200D02*
X69410580Y-100025200D01*
X77322680Y-48882300D02*
X75900280Y-48882300D01*
X71112380Y-53670200D02*
X69486780Y-53670200D01*
X75900280Y-48882300D02*
X71112380Y-53670200D01*
D24*
X77299820Y-48905160D02*
X77322680Y-48882300D01*
D22*
X77322680Y-53962300D02*
X75570080Y-53962300D01*
X70782180Y-58750200D02*
X69486780Y-58750200D01*
X75570080Y-53962300D02*
X70782180Y-58750200D01*
D24*
X77299820Y-53985160D02*
X77322680Y-53962300D01*
D25*
X77322680Y-64122300D02*
X74401680Y-64122300D01*
X74401680Y-64122300D02*
X69461380Y-69062600D01*
X69461380Y-69062600D02*
X69537580Y-69062600D01*
D22*
X69486780Y-38227000D02*
X81627980Y-38227000D01*
X89984580Y-71742300D02*
X92562680Y-71742300D01*
X87584280Y-69342000D02*
X89984580Y-71742300D01*
X87584280Y-44183300D02*
X87584280Y-69342000D01*
X81627980Y-38227000D02*
X87584280Y-44183300D01*
X69486780Y-48387000D02*
X71556880Y-48387000D01*
X71556880Y-48387000D02*
X73004680Y-46939200D01*
X73004680Y-46939200D02*
X73004680Y-44272200D01*
X73004680Y-44272200D02*
X74515980Y-42760900D01*
X74515980Y-42760900D02*
X79494380Y-42760900D01*
X79494380Y-42760900D02*
X81716880Y-44983400D01*
X81716880Y-44983400D02*
X81716880Y-72364600D01*
X81716880Y-72364600D02*
X80129380Y-73952100D01*
X87508080Y-91363800D02*
X87508080Y-81330800D01*
X87508080Y-81330800D02*
X80129380Y-73952100D01*
X87482680Y-98348800D02*
X87482680Y-91389200D01*
X87482680Y-91389200D02*
X87508080Y-91363800D01*
X87457280Y-98374200D02*
X87482680Y-98348800D01*
X80129380Y-73952100D02*
X79799180Y-74282300D01*
X79799180Y-74282300D02*
X77322680Y-74282300D01*
D24*
X87482680Y-98348800D02*
X87482680Y-99110800D01*
D22*
X92562680Y-56502300D02*
X94048580Y-56502300D01*
X96878140Y-51043840D02*
X98455480Y-51043840D01*
X95445580Y-52476400D02*
X96878140Y-51043840D01*
X95445580Y-55105300D02*
X95445580Y-52476400D01*
X94048580Y-56502300D02*
X95445580Y-55105300D01*
X92562680Y-66662300D02*
X94772480Y-66662300D01*
X96842580Y-86296500D02*
X98328480Y-87782400D01*
X96842580Y-68732400D02*
X96842580Y-86296500D01*
X94772480Y-66662300D02*
X96842580Y-68732400D01*
D25*
X76192380Y-66662300D02*
X73639680Y-69215000D01*
X71442580Y-79387700D02*
X69435980Y-79387700D01*
X73639680Y-77190600D02*
X71442580Y-79387700D01*
X73639680Y-69215000D02*
X73639680Y-77190600D01*
X77322680Y-66662300D02*
X76192380Y-66662300D01*
D22*
X98455480Y-53583840D02*
X102915720Y-53583840D01*
X75295760Y-105105200D02*
X69410580Y-105105200D01*
X78740000Y-108549440D02*
X75295760Y-105105200D01*
X104068880Y-108549440D02*
X78740000Y-108549440D01*
X107629960Y-104988360D02*
X104068880Y-108549440D01*
X107629960Y-58298080D02*
X107629960Y-104988360D01*
X102915720Y-53583840D02*
X107629960Y-58298080D01*
X69423280Y-94767400D02*
X78821280Y-94767400D01*
X78821280Y-94767400D02*
X82402680Y-98348800D01*
D25*
X82377280Y-98323400D02*
X82402680Y-98348800D01*
M02*
