G04 #@! TF.FileFunction,Legend,Top*
%FSLAX46Y46*%
G04 Gerber Fmt 4.6, Leading zero omitted, Abs format (unit mm)*
G04 Created by KiCad (PCBNEW 4.0.4+e1-6308~48~ubuntu16.04.1-stable) date Fri Nov 18 09:56:43 2016*
%MOMM*%
%LPD*%
G01*
G04 APERTURE LIST*
%ADD10C,0.100000*%
%ADD11C,0.300000*%
%ADD12C,0.400000*%
%ADD13C,0.150000*%
%ADD14C,0.381000*%
%ADD15C,0.304800*%
G04 APERTURE END LIST*
D10*
D11*
X75211714Y-103605685D02*
X75283143Y-103677114D01*
X75354571Y-103891400D01*
X75354571Y-104034257D01*
X75283143Y-104248542D01*
X75140286Y-104391400D01*
X74997429Y-104462828D01*
X74711714Y-104534257D01*
X74497429Y-104534257D01*
X74211714Y-104462828D01*
X74068857Y-104391400D01*
X73926000Y-104248542D01*
X73854571Y-104034257D01*
X73854571Y-103891400D01*
X73926000Y-103677114D01*
X73997429Y-103605685D01*
X75354571Y-102748542D02*
X75283143Y-102891400D01*
X75211714Y-102962828D01*
X75068857Y-103034257D01*
X74640286Y-103034257D01*
X74497429Y-102962828D01*
X74426000Y-102891400D01*
X74354571Y-102748542D01*
X74354571Y-102534257D01*
X74426000Y-102391400D01*
X74497429Y-102319971D01*
X74640286Y-102248542D01*
X75068857Y-102248542D01*
X75211714Y-102319971D01*
X75283143Y-102391400D01*
X75354571Y-102534257D01*
X75354571Y-102748542D01*
X75354571Y-101605685D02*
X74354571Y-101605685D01*
X73854571Y-101605685D02*
X73926000Y-101677114D01*
X73997429Y-101605685D01*
X73926000Y-101534257D01*
X73854571Y-101605685D01*
X73997429Y-101605685D01*
X75354571Y-100677113D02*
X75283143Y-100819971D01*
X75140286Y-100891399D01*
X73854571Y-100891399D01*
X75316471Y-95394885D02*
X73816471Y-95394885D01*
X73816471Y-94823457D01*
X73887900Y-94680599D01*
X73959329Y-94609171D01*
X74102186Y-94537742D01*
X74316471Y-94537742D01*
X74459329Y-94609171D01*
X74530757Y-94680599D01*
X74602186Y-94823457D01*
X74602186Y-95394885D01*
X75316471Y-93680599D02*
X75245043Y-93823457D01*
X75173614Y-93894885D01*
X75030757Y-93966314D01*
X74602186Y-93966314D01*
X74459329Y-93894885D01*
X74387900Y-93823457D01*
X74316471Y-93680599D01*
X74316471Y-93466314D01*
X74387900Y-93323457D01*
X74459329Y-93252028D01*
X74602186Y-93180599D01*
X75030757Y-93180599D01*
X75173614Y-93252028D01*
X75245043Y-93323457D01*
X75316471Y-93466314D01*
X75316471Y-93680599D01*
X74316471Y-92680599D02*
X75316471Y-92394885D01*
X74602186Y-92109171D01*
X75316471Y-91823456D01*
X74316471Y-91537742D01*
X75245043Y-90394885D02*
X75316471Y-90537742D01*
X75316471Y-90823456D01*
X75245043Y-90966313D01*
X75102186Y-91037742D01*
X74530757Y-91037742D01*
X74387900Y-90966313D01*
X74316471Y-90823456D01*
X74316471Y-90537742D01*
X74387900Y-90394885D01*
X74530757Y-90323456D01*
X74673614Y-90323456D01*
X74816471Y-91037742D01*
X75316471Y-89680599D02*
X74316471Y-89680599D01*
X74602186Y-89680599D02*
X74459329Y-89609171D01*
X74387900Y-89537742D01*
X74316471Y-89394885D01*
X74316471Y-89252028D01*
X62953200Y-85470086D02*
X62881771Y-85612943D01*
X62881771Y-85827229D01*
X62953200Y-86041514D01*
X63096057Y-86184372D01*
X63238914Y-86255800D01*
X63524629Y-86327229D01*
X63738914Y-86327229D01*
X64024629Y-86255800D01*
X64167486Y-86184372D01*
X64310343Y-86041514D01*
X64381771Y-85827229D01*
X64381771Y-85684372D01*
X64310343Y-85470086D01*
X64238914Y-85398657D01*
X63738914Y-85398657D01*
X63738914Y-85684372D01*
X63381771Y-84755800D02*
X64381771Y-84755800D01*
X63524629Y-84755800D02*
X63453200Y-84684372D01*
X63381771Y-84541514D01*
X63381771Y-84327229D01*
X63453200Y-84184372D01*
X63596057Y-84112943D01*
X64381771Y-84112943D01*
X64381771Y-82755800D02*
X62881771Y-82755800D01*
X64310343Y-82755800D02*
X64381771Y-82898657D01*
X64381771Y-83184371D01*
X64310343Y-83327229D01*
X64238914Y-83398657D01*
X64096057Y-83470086D01*
X63667486Y-83470086D01*
X63524629Y-83398657D01*
X63453200Y-83327229D01*
X63381771Y-83184371D01*
X63381771Y-82898657D01*
X63453200Y-82755800D01*
X64277014Y-100300599D02*
X64348443Y-100372028D01*
X64419871Y-100586314D01*
X64419871Y-100729171D01*
X64348443Y-100943456D01*
X64205586Y-101086314D01*
X64062729Y-101157742D01*
X63777014Y-101229171D01*
X63562729Y-101229171D01*
X63277014Y-101157742D01*
X63134157Y-101086314D01*
X62991300Y-100943456D01*
X62919871Y-100729171D01*
X62919871Y-100586314D01*
X62991300Y-100372028D01*
X63062729Y-100300599D01*
X63062729Y-99729171D02*
X62991300Y-99657742D01*
X62919871Y-99514885D01*
X62919871Y-99157742D01*
X62991300Y-99014885D01*
X63062729Y-98943456D01*
X63205586Y-98872028D01*
X63348443Y-98872028D01*
X63562729Y-98943456D01*
X64419871Y-99800599D01*
X64419871Y-98872028D01*
X64238914Y-105367899D02*
X64310343Y-105439328D01*
X64381771Y-105653614D01*
X64381771Y-105796471D01*
X64310343Y-106010756D01*
X64167486Y-106153614D01*
X64024629Y-106225042D01*
X63738914Y-106296471D01*
X63524629Y-106296471D01*
X63238914Y-106225042D01*
X63096057Y-106153614D01*
X62953200Y-106010756D01*
X62881771Y-105796471D01*
X62881771Y-105653614D01*
X62953200Y-105439328D01*
X63024629Y-105367899D01*
X64381771Y-103939328D02*
X64381771Y-104796471D01*
X64381771Y-104367899D02*
X62881771Y-104367899D01*
X63096057Y-104510756D01*
X63238914Y-104653614D01*
X63310343Y-104796471D01*
X64254463Y-80476908D02*
X64325891Y-80262622D01*
X64325891Y-79905479D01*
X64254463Y-79762622D01*
X64183034Y-79691193D01*
X64040177Y-79619765D01*
X63897320Y-79619765D01*
X63754463Y-79691193D01*
X63683034Y-79762622D01*
X63611606Y-79905479D01*
X63540177Y-80191193D01*
X63468749Y-80334051D01*
X63397320Y-80405479D01*
X63254463Y-80476908D01*
X63111606Y-80476908D01*
X62968749Y-80405479D01*
X62897320Y-80334051D01*
X62825891Y-80191193D01*
X62825891Y-79834051D01*
X62897320Y-79619765D01*
X62825891Y-79191194D02*
X64325891Y-78691194D01*
X62825891Y-78191194D01*
X64340823Y-70261491D02*
X64412251Y-70047205D01*
X64412251Y-69690062D01*
X64340823Y-69547205D01*
X64269394Y-69475776D01*
X64126537Y-69404348D01*
X63983680Y-69404348D01*
X63840823Y-69475776D01*
X63769394Y-69547205D01*
X63697966Y-69690062D01*
X63626537Y-69975776D01*
X63555109Y-70118634D01*
X63483680Y-70190062D01*
X63340823Y-70261491D01*
X63197966Y-70261491D01*
X63055109Y-70190062D01*
X62983680Y-70118634D01*
X62912251Y-69975776D01*
X62912251Y-69618634D01*
X62983680Y-69404348D01*
X64269394Y-67904348D02*
X64340823Y-67975777D01*
X64412251Y-68190063D01*
X64412251Y-68332920D01*
X64340823Y-68547205D01*
X64197966Y-68690063D01*
X64055109Y-68761491D01*
X63769394Y-68832920D01*
X63555109Y-68832920D01*
X63269394Y-68761491D01*
X63126537Y-68690063D01*
X62983680Y-68547205D01*
X62912251Y-68332920D01*
X62912251Y-68190063D01*
X62983680Y-67975777D01*
X63055109Y-67904348D01*
X64549411Y-59799611D02*
X63049411Y-59799611D01*
X63549411Y-59085325D02*
X64549411Y-59085325D01*
X63692269Y-59085325D02*
X63620840Y-59013897D01*
X63549411Y-58871039D01*
X63549411Y-58656754D01*
X63620840Y-58513897D01*
X63763697Y-58442468D01*
X64549411Y-58442468D01*
X63009080Y-44383046D02*
X62937651Y-44525903D01*
X62937651Y-44740189D01*
X63009080Y-44954474D01*
X63151937Y-45097332D01*
X63294794Y-45168760D01*
X63580509Y-45240189D01*
X63794794Y-45240189D01*
X64080509Y-45168760D01*
X64223366Y-45097332D01*
X64366223Y-44954474D01*
X64437651Y-44740189D01*
X64437651Y-44597332D01*
X64366223Y-44383046D01*
X64294794Y-44311617D01*
X63794794Y-44311617D01*
X63794794Y-44597332D01*
X63437651Y-43668760D02*
X64437651Y-43668760D01*
X63580509Y-43668760D02*
X63509080Y-43597332D01*
X63437651Y-43454474D01*
X63437651Y-43240189D01*
X63509080Y-43097332D01*
X63651937Y-43025903D01*
X64437651Y-43025903D01*
X64437651Y-41668760D02*
X62937651Y-41668760D01*
X64366223Y-41668760D02*
X64437651Y-41811617D01*
X64437651Y-42097331D01*
X64366223Y-42240189D01*
X64294794Y-42311617D01*
X64151937Y-42383046D01*
X63723366Y-42383046D01*
X63580509Y-42311617D01*
X63509080Y-42240189D01*
X63437651Y-42097331D01*
X63437651Y-41811617D01*
X63509080Y-41668760D01*
X62953200Y-90707566D02*
X62881771Y-90850423D01*
X62881771Y-91064709D01*
X62953200Y-91278994D01*
X63096057Y-91421852D01*
X63238914Y-91493280D01*
X63524629Y-91564709D01*
X63738914Y-91564709D01*
X64024629Y-91493280D01*
X64167486Y-91421852D01*
X64310343Y-91278994D01*
X64381771Y-91064709D01*
X64381771Y-90921852D01*
X64310343Y-90707566D01*
X64238914Y-90636137D01*
X63738914Y-90636137D01*
X63738914Y-90921852D01*
X63381771Y-89993280D02*
X64381771Y-89993280D01*
X63524629Y-89993280D02*
X63453200Y-89921852D01*
X63381771Y-89778994D01*
X63381771Y-89564709D01*
X63453200Y-89421852D01*
X63596057Y-89350423D01*
X64381771Y-89350423D01*
X64381771Y-87993280D02*
X62881771Y-87993280D01*
X64310343Y-87993280D02*
X64381771Y-88136137D01*
X64381771Y-88421851D01*
X64310343Y-88564709D01*
X64238914Y-88636137D01*
X64096057Y-88707566D01*
X63667486Y-88707566D01*
X63524629Y-88636137D01*
X63453200Y-88564709D01*
X63381771Y-88421851D01*
X63381771Y-88136137D01*
X63453200Y-87993280D01*
X62953200Y-75172926D02*
X62881771Y-75315783D01*
X62881771Y-75530069D01*
X62953200Y-75744354D01*
X63096057Y-75887212D01*
X63238914Y-75958640D01*
X63524629Y-76030069D01*
X63738914Y-76030069D01*
X64024629Y-75958640D01*
X64167486Y-75887212D01*
X64310343Y-75744354D01*
X64381771Y-75530069D01*
X64381771Y-75387212D01*
X64310343Y-75172926D01*
X64238914Y-75101497D01*
X63738914Y-75101497D01*
X63738914Y-75387212D01*
X63381771Y-74458640D02*
X64381771Y-74458640D01*
X63524629Y-74458640D02*
X63453200Y-74387212D01*
X63381771Y-74244354D01*
X63381771Y-74030069D01*
X63453200Y-73887212D01*
X63596057Y-73815783D01*
X64381771Y-73815783D01*
X64381771Y-72458640D02*
X62881771Y-72458640D01*
X64310343Y-72458640D02*
X64381771Y-72601497D01*
X64381771Y-72887211D01*
X64310343Y-73030069D01*
X64238914Y-73101497D01*
X64096057Y-73172926D01*
X63667486Y-73172926D01*
X63524629Y-73101497D01*
X63453200Y-73030069D01*
X63381771Y-72887211D01*
X63381771Y-72601497D01*
X63453200Y-72458640D01*
D12*
X72429742Y-31909067D02*
X73191647Y-31909067D01*
X72277361Y-32366210D02*
X72810694Y-30766210D01*
X73344028Y-32366210D01*
X74105933Y-32366210D02*
X73953552Y-32290019D01*
X73877361Y-32137638D01*
X73877361Y-30766210D01*
X74944028Y-32366210D02*
X74791647Y-32290019D01*
X74715456Y-32137638D01*
X74715456Y-30766210D01*
X76239266Y-31299543D02*
X76239266Y-32366210D01*
X75553551Y-31299543D02*
X75553551Y-32137638D01*
X75629742Y-32290019D01*
X75782123Y-32366210D01*
X76010694Y-32366210D01*
X76163075Y-32290019D01*
X76239266Y-32213829D01*
X77001170Y-32366210D02*
X77001170Y-31299543D01*
X77001170Y-31451924D02*
X77077361Y-31375733D01*
X77229742Y-31299543D01*
X77458313Y-31299543D01*
X77610694Y-31375733D01*
X77686885Y-31528114D01*
X77686885Y-32366210D01*
X77686885Y-31528114D02*
X77763075Y-31375733D01*
X77915456Y-31299543D01*
X78144028Y-31299543D01*
X78296408Y-31375733D01*
X78372599Y-31528114D01*
X78372599Y-32366210D01*
X79820218Y-32366210D02*
X79820218Y-31528114D01*
X79744027Y-31375733D01*
X79591646Y-31299543D01*
X79286884Y-31299543D01*
X79134503Y-31375733D01*
X79820218Y-32290019D02*
X79667837Y-32366210D01*
X79286884Y-32366210D01*
X79134503Y-32290019D01*
X79058313Y-32137638D01*
X79058313Y-31985257D01*
X79134503Y-31832876D01*
X79286884Y-31756686D01*
X79667837Y-31756686D01*
X79820218Y-31680495D01*
X81267837Y-31299543D02*
X81267837Y-32594781D01*
X81191646Y-32747162D01*
X81115456Y-32823352D01*
X80963075Y-32899543D01*
X80734503Y-32899543D01*
X80582122Y-32823352D01*
X81267837Y-32290019D02*
X81115456Y-32366210D01*
X80810694Y-32366210D01*
X80658313Y-32290019D01*
X80582122Y-32213829D01*
X80505932Y-32061448D01*
X80505932Y-31604305D01*
X80582122Y-31451924D01*
X80658313Y-31375733D01*
X80810694Y-31299543D01*
X81115456Y-31299543D01*
X81267837Y-31375733D01*
X82639265Y-32290019D02*
X82486884Y-32366210D01*
X82182122Y-32366210D01*
X82029741Y-32290019D01*
X81953551Y-32137638D01*
X81953551Y-31528114D01*
X82029741Y-31375733D01*
X82182122Y-31299543D01*
X82486884Y-31299543D01*
X82639265Y-31375733D01*
X82715456Y-31528114D01*
X82715456Y-31680495D01*
X81953551Y-31832876D01*
X85229742Y-32290019D02*
X85077361Y-32366210D01*
X84772599Y-32366210D01*
X84620218Y-32290019D01*
X84544028Y-32137638D01*
X84544028Y-31528114D01*
X84620218Y-31375733D01*
X84772599Y-31299543D01*
X85077361Y-31299543D01*
X85229742Y-31375733D01*
X85305933Y-31528114D01*
X85305933Y-31680495D01*
X84544028Y-31832876D01*
X85077361Y-30690019D02*
X84848790Y-30918590D01*
X86220219Y-32366210D02*
X86067838Y-32290019D01*
X85991647Y-32137638D01*
X85991647Y-30766210D01*
X87439266Y-32290019D02*
X87286885Y-32366210D01*
X86982123Y-32366210D01*
X86829742Y-32290019D01*
X86753552Y-32137638D01*
X86753552Y-31528114D01*
X86829742Y-31375733D01*
X86982123Y-31299543D01*
X87286885Y-31299543D01*
X87439266Y-31375733D01*
X87515457Y-31528114D01*
X87515457Y-31680495D01*
X86753552Y-31832876D01*
X88886886Y-32290019D02*
X88734505Y-32366210D01*
X88429743Y-32366210D01*
X88277362Y-32290019D01*
X88201171Y-32213829D01*
X88124981Y-32061448D01*
X88124981Y-31604305D01*
X88201171Y-31451924D01*
X88277362Y-31375733D01*
X88429743Y-31299543D01*
X88734505Y-31299543D01*
X88886886Y-31375733D01*
X89344029Y-31299543D02*
X89953553Y-31299543D01*
X89572600Y-30766210D02*
X89572600Y-32137638D01*
X89648791Y-32290019D01*
X89801172Y-32366210D01*
X89953553Y-32366210D01*
X90486886Y-32366210D02*
X90486886Y-31299543D01*
X90486886Y-31604305D02*
X90563077Y-31451924D01*
X90639267Y-31375733D01*
X90791648Y-31299543D01*
X90944029Y-31299543D01*
X91705934Y-32366210D02*
X91553553Y-32290019D01*
X91477362Y-32213829D01*
X91401172Y-32061448D01*
X91401172Y-31604305D01*
X91477362Y-31451924D01*
X91553553Y-31375733D01*
X91705934Y-31299543D01*
X91934505Y-31299543D01*
X92086886Y-31375733D01*
X92163077Y-31451924D01*
X92239267Y-31604305D01*
X92239267Y-32061448D01*
X92163077Y-32213829D01*
X92086886Y-32290019D01*
X91934505Y-32366210D01*
X91705934Y-32366210D01*
X92924981Y-31299543D02*
X92924981Y-32366210D01*
X92924981Y-31451924D02*
X93001172Y-31375733D01*
X93153553Y-31299543D01*
X93382124Y-31299543D01*
X93534505Y-31375733D01*
X93610696Y-31528114D01*
X93610696Y-32366210D01*
X94372600Y-32366210D02*
X94372600Y-31299543D01*
X94372600Y-30766210D02*
X94296410Y-30842400D01*
X94372600Y-30918590D01*
X94448791Y-30842400D01*
X94372600Y-30766210D01*
X94372600Y-30918590D01*
X95820220Y-31299543D02*
X95820220Y-32899543D01*
X95820220Y-32290019D02*
X95667839Y-32366210D01*
X95363077Y-32366210D01*
X95210696Y-32290019D01*
X95134505Y-32213829D01*
X95058315Y-32061448D01*
X95058315Y-31604305D01*
X95134505Y-31451924D01*
X95210696Y-31375733D01*
X95363077Y-31299543D01*
X95667839Y-31299543D01*
X95820220Y-31375733D01*
X97267839Y-31299543D02*
X97267839Y-32366210D01*
X96582124Y-31299543D02*
X96582124Y-32137638D01*
X96658315Y-32290019D01*
X96810696Y-32366210D01*
X97039267Y-32366210D01*
X97191648Y-32290019D01*
X97267839Y-32213829D01*
X98639267Y-32290019D02*
X98486886Y-32366210D01*
X98182124Y-32366210D01*
X98029743Y-32290019D01*
X97953553Y-32137638D01*
X97953553Y-31528114D01*
X98029743Y-31375733D01*
X98182124Y-31299543D01*
X98486886Y-31299543D01*
X98639267Y-31375733D01*
X98715458Y-31528114D01*
X98715458Y-31680495D01*
X97953553Y-31832876D01*
X77648791Y-35090019D02*
X77496410Y-35166210D01*
X77191648Y-35166210D01*
X77039267Y-35090019D01*
X76963076Y-35013829D01*
X76886886Y-34861448D01*
X76886886Y-34404305D01*
X76963076Y-34251924D01*
X77039267Y-34175733D01*
X77191648Y-34099543D01*
X77496410Y-34099543D01*
X77648791Y-34175733D01*
X79020220Y-35166210D02*
X79020220Y-34328114D01*
X78944029Y-34175733D01*
X78791648Y-34099543D01*
X78486886Y-34099543D01*
X78334505Y-34175733D01*
X79020220Y-35090019D02*
X78867839Y-35166210D01*
X78486886Y-35166210D01*
X78334505Y-35090019D01*
X78258315Y-34937638D01*
X78258315Y-34785257D01*
X78334505Y-34632876D01*
X78486886Y-34556686D01*
X78867839Y-34556686D01*
X79020220Y-34480495D01*
X79782124Y-35166210D02*
X79782124Y-34099543D01*
X79782124Y-34404305D02*
X79858315Y-34251924D01*
X79934505Y-34175733D01*
X80086886Y-34099543D01*
X80239267Y-34099543D01*
X80544029Y-34099543D02*
X81153553Y-34099543D01*
X80772600Y-33566210D02*
X80772600Y-34937638D01*
X80848791Y-35090019D01*
X81001172Y-35166210D01*
X81153553Y-35166210D01*
X81915458Y-35166210D02*
X81763077Y-35090019D01*
X81686886Y-35013829D01*
X81610696Y-34861448D01*
X81610696Y-34404305D01*
X81686886Y-34251924D01*
X81763077Y-34175733D01*
X81915458Y-34099543D01*
X82144029Y-34099543D01*
X82296410Y-34175733D01*
X82372601Y-34251924D01*
X82448791Y-34404305D01*
X82448791Y-34861448D01*
X82372601Y-35013829D01*
X82296410Y-35090019D01*
X82144029Y-35166210D01*
X81915458Y-35166210D01*
X83820220Y-34099543D02*
X83820220Y-35394781D01*
X83744029Y-35547162D01*
X83667839Y-35623352D01*
X83515458Y-35699543D01*
X83286886Y-35699543D01*
X83134505Y-35623352D01*
X83820220Y-35090019D02*
X83667839Y-35166210D01*
X83363077Y-35166210D01*
X83210696Y-35090019D01*
X83134505Y-35013829D01*
X83058315Y-34861448D01*
X83058315Y-34404305D01*
X83134505Y-34251924D01*
X83210696Y-34175733D01*
X83363077Y-34099543D01*
X83667839Y-34099543D01*
X83820220Y-34175733D01*
X84582124Y-35166210D02*
X84582124Y-34099543D01*
X84582124Y-34404305D02*
X84658315Y-34251924D01*
X84734505Y-34175733D01*
X84886886Y-34099543D01*
X85039267Y-34099543D01*
X86258315Y-35166210D02*
X86258315Y-34328114D01*
X86182124Y-34175733D01*
X86029743Y-34099543D01*
X85724981Y-34099543D01*
X85572600Y-34175733D01*
X86258315Y-35090019D02*
X86105934Y-35166210D01*
X85724981Y-35166210D01*
X85572600Y-35090019D01*
X85496410Y-34937638D01*
X85496410Y-34785257D01*
X85572600Y-34632876D01*
X85724981Y-34556686D01*
X86105934Y-34556686D01*
X86258315Y-34480495D01*
X87020219Y-34099543D02*
X87020219Y-35699543D01*
X87020219Y-34175733D02*
X87172600Y-34099543D01*
X87477362Y-34099543D01*
X87629743Y-34175733D01*
X87705934Y-34251924D01*
X87782124Y-34404305D01*
X87782124Y-34861448D01*
X87705934Y-35013829D01*
X87629743Y-35090019D01*
X87477362Y-35166210D01*
X87172600Y-35166210D01*
X87020219Y-35090019D01*
X88467838Y-35166210D02*
X88467838Y-33566210D01*
X89153553Y-35166210D02*
X89153553Y-34328114D01*
X89077362Y-34175733D01*
X88924981Y-34099543D01*
X88696410Y-34099543D01*
X88544029Y-34175733D01*
X88467838Y-34251924D01*
X89915457Y-35166210D02*
X89915457Y-34099543D01*
X89915457Y-33566210D02*
X89839267Y-33642400D01*
X89915457Y-33718590D01*
X89991648Y-33642400D01*
X89915457Y-33566210D01*
X89915457Y-33718590D01*
X91363077Y-34099543D02*
X91363077Y-35699543D01*
X91363077Y-35090019D02*
X91210696Y-35166210D01*
X90905934Y-35166210D01*
X90753553Y-35090019D01*
X90677362Y-35013829D01*
X90601172Y-34861448D01*
X90601172Y-34404305D01*
X90677362Y-34251924D01*
X90753553Y-34175733D01*
X90905934Y-34099543D01*
X91210696Y-34099543D01*
X91363077Y-34175733D01*
X92810696Y-34099543D02*
X92810696Y-35166210D01*
X92124981Y-34099543D02*
X92124981Y-34937638D01*
X92201172Y-35090019D01*
X92353553Y-35166210D01*
X92582124Y-35166210D01*
X92734505Y-35090019D01*
X92810696Y-35013829D01*
X94182124Y-35090019D02*
X94029743Y-35166210D01*
X93724981Y-35166210D01*
X93572600Y-35090019D01*
X93496410Y-34937638D01*
X93496410Y-34328114D01*
X93572600Y-34175733D01*
X93724981Y-34099543D01*
X94029743Y-34099543D01*
X94182124Y-34175733D01*
X94258315Y-34328114D01*
X94258315Y-34480495D01*
X93496410Y-34632876D01*
X77763076Y-36899543D02*
X77763076Y-38499543D01*
X77763076Y-36975733D02*
X77915457Y-36899543D01*
X78220219Y-36899543D01*
X78372600Y-36975733D01*
X78448791Y-37051924D01*
X78524981Y-37204305D01*
X78524981Y-37661448D01*
X78448791Y-37813829D01*
X78372600Y-37890019D01*
X78220219Y-37966210D01*
X77915457Y-37966210D01*
X77763076Y-37890019D01*
X79439267Y-37966210D02*
X79286886Y-37890019D01*
X79210695Y-37813829D01*
X79134505Y-37661448D01*
X79134505Y-37204305D01*
X79210695Y-37051924D01*
X79286886Y-36975733D01*
X79439267Y-36899543D01*
X79667838Y-36899543D01*
X79820219Y-36975733D01*
X79896410Y-37051924D01*
X79972600Y-37204305D01*
X79972600Y-37661448D01*
X79896410Y-37813829D01*
X79820219Y-37890019D01*
X79667838Y-37966210D01*
X79439267Y-37966210D01*
X81344029Y-36899543D02*
X81344029Y-37966210D01*
X80658314Y-36899543D02*
X80658314Y-37737638D01*
X80734505Y-37890019D01*
X80886886Y-37966210D01*
X81115457Y-37966210D01*
X81267838Y-37890019D01*
X81344029Y-37813829D01*
X82105933Y-37966210D02*
X82105933Y-36899543D01*
X82105933Y-37204305D02*
X82182124Y-37051924D01*
X82258314Y-36975733D01*
X82410695Y-36899543D01*
X82563076Y-36899543D01*
X84315457Y-37966210D02*
X84315457Y-36366210D01*
X84924981Y-36366210D01*
X85077362Y-36442400D01*
X85153553Y-36518590D01*
X85229743Y-36670971D01*
X85229743Y-36899543D01*
X85153553Y-37051924D01*
X85077362Y-37128114D01*
X84924981Y-37204305D01*
X84315457Y-37204305D01*
X86601172Y-37966210D02*
X86601172Y-37128114D01*
X86524981Y-36975733D01*
X86372600Y-36899543D01*
X86067838Y-36899543D01*
X85915457Y-36975733D01*
X86601172Y-37890019D02*
X86448791Y-37966210D01*
X86067838Y-37966210D01*
X85915457Y-37890019D01*
X85839267Y-37737638D01*
X85839267Y-37585257D01*
X85915457Y-37432876D01*
X86067838Y-37356686D01*
X86448791Y-37356686D01*
X86601172Y-37280495D01*
X87363076Y-36899543D02*
X87363076Y-37966210D01*
X87363076Y-37051924D02*
X87439267Y-36975733D01*
X87591648Y-36899543D01*
X87820219Y-36899543D01*
X87972600Y-36975733D01*
X88048791Y-37128114D01*
X88048791Y-37966210D01*
X88810695Y-37966210D02*
X88810695Y-36366210D01*
X89496410Y-37966210D02*
X89496410Y-37128114D01*
X89420219Y-36975733D01*
X89267838Y-36899543D01*
X89039267Y-36899543D01*
X88886886Y-36975733D01*
X88810695Y-37051924D01*
X90944029Y-37966210D02*
X90944029Y-37128114D01*
X90867838Y-36975733D01*
X90715457Y-36899543D01*
X90410695Y-36899543D01*
X90258314Y-36975733D01*
X90944029Y-37890019D02*
X90791648Y-37966210D01*
X90410695Y-37966210D01*
X90258314Y-37890019D01*
X90182124Y-37737638D01*
X90182124Y-37585257D01*
X90258314Y-37432876D01*
X90410695Y-37356686D01*
X90791648Y-37356686D01*
X90944029Y-37280495D01*
X91705933Y-37966210D02*
X91705933Y-36899543D01*
X91705933Y-37204305D02*
X91782124Y-37051924D01*
X91858314Y-36975733D01*
X92010695Y-36899543D01*
X92163076Y-36899543D01*
X93382124Y-37966210D02*
X93382124Y-36366210D01*
X93382124Y-37890019D02*
X93229743Y-37966210D01*
X92924981Y-37966210D01*
X92772600Y-37890019D01*
X92696409Y-37813829D01*
X92620219Y-37661448D01*
X92620219Y-37204305D01*
X92696409Y-37051924D01*
X92772600Y-36975733D01*
X92924981Y-36899543D01*
X93229743Y-36899543D01*
X93382124Y-36975733D01*
D11*
X86429863Y-107037211D02*
X87287006Y-107037211D01*
X86858435Y-108537211D02*
X86858435Y-107037211D01*
X88001292Y-108537211D02*
X87858434Y-108465783D01*
X87787006Y-108394354D01*
X87715577Y-108251497D01*
X87715577Y-107822926D01*
X87787006Y-107680069D01*
X87858434Y-107608640D01*
X88001292Y-107537211D01*
X88215577Y-107537211D01*
X88358434Y-107608640D01*
X88429863Y-107680069D01*
X88501292Y-107822926D01*
X88501292Y-108251497D01*
X88429863Y-108394354D01*
X88358434Y-108465783D01*
X88215577Y-108537211D01*
X88001292Y-108537211D01*
X88929863Y-107537211D02*
X89501292Y-107537211D01*
X89144149Y-107037211D02*
X89144149Y-108322926D01*
X89215577Y-108465783D01*
X89358435Y-108537211D01*
X89501292Y-108537211D01*
X90215578Y-108537211D02*
X90072720Y-108465783D01*
X90001292Y-108394354D01*
X89929863Y-108251497D01*
X89929863Y-107822926D01*
X90001292Y-107680069D01*
X90072720Y-107608640D01*
X90215578Y-107537211D01*
X90429863Y-107537211D01*
X90572720Y-107608640D01*
X90644149Y-107680069D01*
X90715578Y-107822926D01*
X90715578Y-108251497D01*
X90644149Y-108394354D01*
X90572720Y-108465783D01*
X90429863Y-108537211D01*
X90215578Y-108537211D01*
X91144149Y-107537211D02*
X91715578Y-107537211D01*
X91358435Y-108537211D02*
X91358435Y-107251497D01*
X91429863Y-107108640D01*
X91572721Y-107037211D01*
X91715578Y-107037211D01*
X86501292Y-109730069D02*
X86572721Y-109658640D01*
X86715578Y-109587211D01*
X87072721Y-109587211D01*
X87215578Y-109658640D01*
X87287007Y-109730069D01*
X87358435Y-109872926D01*
X87358435Y-110015783D01*
X87287007Y-110230069D01*
X86429864Y-111087211D01*
X87358435Y-111087211D01*
X88287006Y-109587211D02*
X88429863Y-109587211D01*
X88572720Y-109658640D01*
X88644149Y-109730069D01*
X88715578Y-109872926D01*
X88787006Y-110158640D01*
X88787006Y-110515783D01*
X88715578Y-110801497D01*
X88644149Y-110944354D01*
X88572720Y-111015783D01*
X88429863Y-111087211D01*
X88287006Y-111087211D01*
X88144149Y-111015783D01*
X88072720Y-110944354D01*
X88001292Y-110801497D01*
X87929863Y-110515783D01*
X87929863Y-110158640D01*
X88001292Y-109872926D01*
X88072720Y-109730069D01*
X88144149Y-109658640D01*
X88287006Y-109587211D01*
X90215577Y-111087211D02*
X89358434Y-111087211D01*
X89787006Y-111087211D02*
X89787006Y-109587211D01*
X89644149Y-109801497D01*
X89501291Y-109944354D01*
X89358434Y-110015783D01*
X91501291Y-109587211D02*
X91215577Y-109587211D01*
X91072720Y-109658640D01*
X91001291Y-109730069D01*
X90858434Y-109944354D01*
X90787005Y-110230069D01*
X90787005Y-110801497D01*
X90858434Y-110944354D01*
X90929862Y-111015783D01*
X91072720Y-111087211D01*
X91358434Y-111087211D01*
X91501291Y-111015783D01*
X91572720Y-110944354D01*
X91644148Y-110801497D01*
X91644148Y-110444354D01*
X91572720Y-110301497D01*
X91501291Y-110230069D01*
X91358434Y-110158640D01*
X91072720Y-110158640D01*
X90929862Y-110230069D01*
X90858434Y-110301497D01*
X90787005Y-110444354D01*
X63186571Y-55540042D02*
X63186571Y-54611471D01*
X63758000Y-55111471D01*
X63758000Y-54897185D01*
X63829429Y-54754328D01*
X63900857Y-54682899D01*
X64043714Y-54611471D01*
X64400857Y-54611471D01*
X64543714Y-54682899D01*
X64615143Y-54754328D01*
X64686571Y-54897185D01*
X64686571Y-55325757D01*
X64615143Y-55468614D01*
X64543714Y-55540042D01*
X63186571Y-54182900D02*
X64686571Y-53682900D01*
X63186571Y-53182900D01*
X63186571Y-52825757D02*
X63186571Y-51897186D01*
X63758000Y-52397186D01*
X63758000Y-52182900D01*
X63829429Y-52040043D01*
X63900857Y-51968614D01*
X64043714Y-51897186D01*
X64400857Y-51897186D01*
X64543714Y-51968614D01*
X64615143Y-52040043D01*
X64686571Y-52182900D01*
X64686571Y-52611472D01*
X64615143Y-52754329D01*
X64543714Y-52825757D01*
X64508771Y-38819211D02*
X63008771Y-38819211D01*
X63508771Y-38104925D02*
X64508771Y-38104925D01*
X63651629Y-38104925D02*
X63580200Y-38033497D01*
X63508771Y-37890639D01*
X63508771Y-37676354D01*
X63580200Y-37533497D01*
X63723057Y-37462068D01*
X64508771Y-37462068D01*
X63148471Y-48672713D02*
X63148471Y-49386999D01*
X63862757Y-49458428D01*
X63791329Y-49386999D01*
X63719900Y-49244142D01*
X63719900Y-48886999D01*
X63791329Y-48744142D01*
X63862757Y-48672713D01*
X64005614Y-48601285D01*
X64362757Y-48601285D01*
X64505614Y-48672713D01*
X64577043Y-48744142D01*
X64648471Y-48886999D01*
X64648471Y-49244142D01*
X64577043Y-49386999D01*
X64505614Y-49458428D01*
X63148471Y-48172714D02*
X64648471Y-47672714D01*
X63148471Y-47172714D01*
X105285314Y-92011131D02*
X105356743Y-92082560D01*
X105428171Y-92296846D01*
X105428171Y-92439703D01*
X105356743Y-92653988D01*
X105213886Y-92796846D01*
X105071029Y-92868274D01*
X104785314Y-92939703D01*
X104571029Y-92939703D01*
X104285314Y-92868274D01*
X104142457Y-92796846D01*
X103999600Y-92653988D01*
X103928171Y-92439703D01*
X103928171Y-92296846D01*
X103999600Y-92082560D01*
X104071029Y-92011131D01*
X105428171Y-91153988D02*
X105356743Y-91296846D01*
X105285314Y-91368274D01*
X105142457Y-91439703D01*
X104713886Y-91439703D01*
X104571029Y-91368274D01*
X104499600Y-91296846D01*
X104428171Y-91153988D01*
X104428171Y-90939703D01*
X104499600Y-90796846D01*
X104571029Y-90725417D01*
X104713886Y-90653988D01*
X105142457Y-90653988D01*
X105285314Y-90725417D01*
X105356743Y-90796846D01*
X105428171Y-90939703D01*
X105428171Y-91153988D01*
X105428171Y-90011131D02*
X104428171Y-90011131D01*
X103928171Y-90011131D02*
X103999600Y-90082560D01*
X104071029Y-90011131D01*
X103999600Y-89939703D01*
X103928171Y-90011131D01*
X104071029Y-90011131D01*
X105428171Y-89082559D02*
X105356743Y-89225417D01*
X105213886Y-89296845D01*
X103928171Y-89296845D01*
X104071029Y-88582560D02*
X103999600Y-88511131D01*
X103928171Y-88368274D01*
X103928171Y-88011131D01*
X103999600Y-87868274D01*
X104071029Y-87796845D01*
X104213886Y-87725417D01*
X104356743Y-87725417D01*
X104571029Y-87796845D01*
X105428171Y-88653988D01*
X105428171Y-87725417D01*
X105310714Y-55135411D02*
X105382143Y-55206840D01*
X105453571Y-55421126D01*
X105453571Y-55563983D01*
X105382143Y-55778268D01*
X105239286Y-55921126D01*
X105096429Y-55992554D01*
X104810714Y-56063983D01*
X104596429Y-56063983D01*
X104310714Y-55992554D01*
X104167857Y-55921126D01*
X104025000Y-55778268D01*
X103953571Y-55563983D01*
X103953571Y-55421126D01*
X104025000Y-55206840D01*
X104096429Y-55135411D01*
X105453571Y-54278268D02*
X105382143Y-54421126D01*
X105310714Y-54492554D01*
X105167857Y-54563983D01*
X104739286Y-54563983D01*
X104596429Y-54492554D01*
X104525000Y-54421126D01*
X104453571Y-54278268D01*
X104453571Y-54063983D01*
X104525000Y-53921126D01*
X104596429Y-53849697D01*
X104739286Y-53778268D01*
X105167857Y-53778268D01*
X105310714Y-53849697D01*
X105382143Y-53921126D01*
X105453571Y-54063983D01*
X105453571Y-54278268D01*
X105453571Y-53135411D02*
X104453571Y-53135411D01*
X103953571Y-53135411D02*
X104025000Y-53206840D01*
X104096429Y-53135411D01*
X104025000Y-53063983D01*
X103953571Y-53135411D01*
X104096429Y-53135411D01*
X105453571Y-52206839D02*
X105382143Y-52349697D01*
X105239286Y-52421125D01*
X103953571Y-52421125D01*
X105453571Y-50849697D02*
X105453571Y-51706840D01*
X105453571Y-51278268D02*
X103953571Y-51278268D01*
X104167857Y-51421125D01*
X104310714Y-51563983D01*
X104382143Y-51706840D01*
X63146240Y-64784326D02*
X63074811Y-64927183D01*
X63074811Y-65141469D01*
X63146240Y-65355754D01*
X63289097Y-65498612D01*
X63431954Y-65570040D01*
X63717669Y-65641469D01*
X63931954Y-65641469D01*
X64217669Y-65570040D01*
X64360526Y-65498612D01*
X64503383Y-65355754D01*
X64574811Y-65141469D01*
X64574811Y-64998612D01*
X64503383Y-64784326D01*
X64431954Y-64712897D01*
X63931954Y-64712897D01*
X63931954Y-64998612D01*
X63574811Y-64070040D02*
X64574811Y-64070040D01*
X63717669Y-64070040D02*
X63646240Y-63998612D01*
X63574811Y-63855754D01*
X63574811Y-63641469D01*
X63646240Y-63498612D01*
X63789097Y-63427183D01*
X64574811Y-63427183D01*
X64574811Y-62070040D02*
X63074811Y-62070040D01*
X64503383Y-62070040D02*
X64574811Y-62212897D01*
X64574811Y-62498611D01*
X64503383Y-62641469D01*
X64431954Y-62712897D01*
X64289097Y-62784326D01*
X63860526Y-62784326D01*
X63717669Y-62712897D01*
X63646240Y-62641469D01*
X63574811Y-62498611D01*
X63574811Y-62212897D01*
X63646240Y-62070040D01*
X64422411Y-95609611D02*
X64422411Y-96466754D01*
X64422411Y-96038182D02*
X62922411Y-96038182D01*
X63136697Y-96181039D01*
X63279554Y-96323897D01*
X63350983Y-96466754D01*
X63065269Y-95038183D02*
X62993840Y-94966754D01*
X62922411Y-94823897D01*
X62922411Y-94466754D01*
X62993840Y-94323897D01*
X63065269Y-94252468D01*
X63208126Y-94181040D01*
X63350983Y-94181040D01*
X63565269Y-94252468D01*
X64422411Y-95109611D01*
X64422411Y-94181040D01*
X62922411Y-93752469D02*
X64422411Y-93252469D01*
X62922411Y-92752469D01*
X75181543Y-86328485D02*
X75252971Y-86114199D01*
X75252971Y-85757056D01*
X75181543Y-85614199D01*
X75110114Y-85542770D01*
X74967257Y-85471342D01*
X74824400Y-85471342D01*
X74681543Y-85542770D01*
X74610114Y-85614199D01*
X74538686Y-85757056D01*
X74467257Y-86042770D01*
X74395829Y-86185628D01*
X74324400Y-86257056D01*
X74181543Y-86328485D01*
X74038686Y-86328485D01*
X73895829Y-86257056D01*
X73824400Y-86185628D01*
X73752971Y-86042770D01*
X73752971Y-85685628D01*
X73824400Y-85471342D01*
X75181543Y-84257057D02*
X75252971Y-84399914D01*
X75252971Y-84685628D01*
X75181543Y-84828485D01*
X75038686Y-84899914D01*
X74467257Y-84899914D01*
X74324400Y-84828485D01*
X74252971Y-84685628D01*
X74252971Y-84399914D01*
X74324400Y-84257057D01*
X74467257Y-84185628D01*
X74610114Y-84185628D01*
X74752971Y-84899914D01*
X75252971Y-83328485D02*
X75181543Y-83471343D01*
X75038686Y-83542771D01*
X73752971Y-83542771D01*
X75181543Y-82185629D02*
X75252971Y-82328486D01*
X75252971Y-82614200D01*
X75181543Y-82757057D01*
X75038686Y-82828486D01*
X74467257Y-82828486D01*
X74324400Y-82757057D01*
X74252971Y-82614200D01*
X74252971Y-82328486D01*
X74324400Y-82185629D01*
X74467257Y-82114200D01*
X74610114Y-82114200D01*
X74752971Y-82828486D01*
X75181543Y-80828486D02*
X75252971Y-80971343D01*
X75252971Y-81257057D01*
X75181543Y-81399915D01*
X75110114Y-81471343D01*
X74967257Y-81542772D01*
X74538686Y-81542772D01*
X74395829Y-81471343D01*
X74324400Y-81399915D01*
X74252971Y-81257057D01*
X74252971Y-80971343D01*
X74324400Y-80828486D01*
X74252971Y-80399915D02*
X74252971Y-79828486D01*
X73752971Y-80185629D02*
X75038686Y-80185629D01*
X75181543Y-80114201D01*
X75252971Y-79971343D01*
X75252971Y-79828486D01*
X73895829Y-78257058D02*
X73824400Y-78185629D01*
X73752971Y-78042772D01*
X73752971Y-77685629D01*
X73824400Y-77542772D01*
X73895829Y-77471343D01*
X74038686Y-77399915D01*
X74181543Y-77399915D01*
X74395829Y-77471343D01*
X75252971Y-78328486D01*
X75252971Y-77399915D01*
X75181543Y-75853525D02*
X75252971Y-75639239D01*
X75252971Y-75282096D01*
X75181543Y-75139239D01*
X75110114Y-75067810D01*
X74967257Y-74996382D01*
X74824400Y-74996382D01*
X74681543Y-75067810D01*
X74610114Y-75139239D01*
X74538686Y-75282096D01*
X74467257Y-75567810D01*
X74395829Y-75710668D01*
X74324400Y-75782096D01*
X74181543Y-75853525D01*
X74038686Y-75853525D01*
X73895829Y-75782096D01*
X73824400Y-75710668D01*
X73752971Y-75567810D01*
X73752971Y-75210668D01*
X73824400Y-74996382D01*
X75181543Y-73782097D02*
X75252971Y-73924954D01*
X75252971Y-74210668D01*
X75181543Y-74353525D01*
X75038686Y-74424954D01*
X74467257Y-74424954D01*
X74324400Y-74353525D01*
X74252971Y-74210668D01*
X74252971Y-73924954D01*
X74324400Y-73782097D01*
X74467257Y-73710668D01*
X74610114Y-73710668D01*
X74752971Y-74424954D01*
X75252971Y-72853525D02*
X75181543Y-72996383D01*
X75038686Y-73067811D01*
X73752971Y-73067811D01*
X75181543Y-71710669D02*
X75252971Y-71853526D01*
X75252971Y-72139240D01*
X75181543Y-72282097D01*
X75038686Y-72353526D01*
X74467257Y-72353526D01*
X74324400Y-72282097D01*
X74252971Y-72139240D01*
X74252971Y-71853526D01*
X74324400Y-71710669D01*
X74467257Y-71639240D01*
X74610114Y-71639240D01*
X74752971Y-72353526D01*
X75181543Y-70353526D02*
X75252971Y-70496383D01*
X75252971Y-70782097D01*
X75181543Y-70924955D01*
X75110114Y-70996383D01*
X74967257Y-71067812D01*
X74538686Y-71067812D01*
X74395829Y-70996383D01*
X74324400Y-70924955D01*
X74252971Y-70782097D01*
X74252971Y-70496383D01*
X74324400Y-70353526D01*
X74252971Y-69924955D02*
X74252971Y-69353526D01*
X73752971Y-69710669D02*
X75038686Y-69710669D01*
X75181543Y-69639241D01*
X75252971Y-69496383D01*
X75252971Y-69353526D01*
X75252971Y-66924955D02*
X75252971Y-67782098D01*
X75252971Y-67353526D02*
X73752971Y-67353526D01*
X73967257Y-67496383D01*
X74110114Y-67639241D01*
X74181543Y-67782098D01*
X73742811Y-64786068D02*
X75242811Y-64286068D01*
X73742811Y-63786068D01*
X75242811Y-62643211D02*
X74457097Y-62643211D01*
X74314240Y-62714640D01*
X74242811Y-62857497D01*
X74242811Y-63143211D01*
X74314240Y-63286068D01*
X75171383Y-62643211D02*
X75242811Y-62786068D01*
X75242811Y-63143211D01*
X75171383Y-63286068D01*
X75028526Y-63357497D01*
X74885669Y-63357497D01*
X74742811Y-63286068D01*
X74671383Y-63143211D01*
X74671383Y-62786068D01*
X74599954Y-62643211D01*
X75171383Y-61286068D02*
X75242811Y-61428925D01*
X75242811Y-61714639D01*
X75171383Y-61857497D01*
X75099954Y-61928925D01*
X74957097Y-62000354D01*
X74528526Y-62000354D01*
X74385669Y-61928925D01*
X74314240Y-61857497D01*
X74242811Y-61714639D01*
X74242811Y-61428925D01*
X74314240Y-61286068D01*
X75171383Y-59571783D02*
X75242811Y-59428926D01*
X75242811Y-59143211D01*
X75171383Y-59000354D01*
X75028526Y-58928926D01*
X74957097Y-58928926D01*
X74814240Y-59000354D01*
X74742811Y-59143211D01*
X74742811Y-59357497D01*
X74671383Y-59500354D01*
X74528526Y-59571783D01*
X74457097Y-59571783D01*
X74314240Y-59500354D01*
X74242811Y-59357497D01*
X74242811Y-59143211D01*
X74314240Y-59000354D01*
X75171383Y-57714640D02*
X75242811Y-57857497D01*
X75242811Y-58143211D01*
X75171383Y-58286068D01*
X75028526Y-58357497D01*
X74457097Y-58357497D01*
X74314240Y-58286068D01*
X74242811Y-58143211D01*
X74242811Y-57857497D01*
X74314240Y-57714640D01*
X74457097Y-57643211D01*
X74599954Y-57643211D01*
X74742811Y-58357497D01*
X74242811Y-57000354D02*
X75242811Y-57000354D01*
X74385669Y-57000354D02*
X74314240Y-56928926D01*
X74242811Y-56786068D01*
X74242811Y-56571783D01*
X74314240Y-56428926D01*
X74457097Y-56357497D01*
X75242811Y-56357497D01*
X75171383Y-55714640D02*
X75242811Y-55571783D01*
X75242811Y-55286068D01*
X75171383Y-55143211D01*
X75028526Y-55071783D01*
X74957097Y-55071783D01*
X74814240Y-55143211D01*
X74742811Y-55286068D01*
X74742811Y-55500354D01*
X74671383Y-55643211D01*
X74528526Y-55714640D01*
X74457097Y-55714640D01*
X74314240Y-55643211D01*
X74242811Y-55500354D01*
X74242811Y-55286068D01*
X74314240Y-55143211D01*
X75242811Y-54214639D02*
X75171383Y-54357497D01*
X75099954Y-54428925D01*
X74957097Y-54500354D01*
X74528526Y-54500354D01*
X74385669Y-54428925D01*
X74314240Y-54357497D01*
X74242811Y-54214639D01*
X74242811Y-54000354D01*
X74314240Y-53857497D01*
X74385669Y-53786068D01*
X74528526Y-53714639D01*
X74957097Y-53714639D01*
X75099954Y-53786068D01*
X75171383Y-53857497D01*
X75242811Y-54000354D01*
X75242811Y-54214639D01*
X75242811Y-53071782D02*
X74242811Y-53071782D01*
X74528526Y-53071782D02*
X74385669Y-53000354D01*
X74314240Y-52928925D01*
X74242811Y-52786068D01*
X74242811Y-52643211D01*
X95997151Y-59425742D02*
X94497151Y-59425742D01*
X95997151Y-57854313D02*
X95282866Y-58354313D01*
X95997151Y-58711456D02*
X94497151Y-58711456D01*
X94497151Y-58140028D01*
X94568580Y-57997170D01*
X94640009Y-57925742D01*
X94782866Y-57854313D01*
X94997151Y-57854313D01*
X95140009Y-57925742D01*
X95211437Y-57997170D01*
X95282866Y-58140028D01*
X95282866Y-58711456D01*
X94568580Y-56425742D02*
X94497151Y-56568599D01*
X94497151Y-56782885D01*
X94568580Y-56997170D01*
X94711437Y-57140028D01*
X94854294Y-57211456D01*
X95140009Y-57282885D01*
X95354294Y-57282885D01*
X95640009Y-57211456D01*
X95782866Y-57140028D01*
X95925723Y-56997170D01*
X95997151Y-56782885D01*
X95997151Y-56640028D01*
X95925723Y-56425742D01*
X95854294Y-56354313D01*
X95354294Y-56354313D01*
X95354294Y-56640028D01*
X95211437Y-55211456D02*
X95282866Y-54997170D01*
X95354294Y-54925742D01*
X95497151Y-54854313D01*
X95711437Y-54854313D01*
X95854294Y-54925742D01*
X95925723Y-54997170D01*
X95997151Y-55140028D01*
X95997151Y-55711456D01*
X94497151Y-55711456D01*
X94497151Y-55211456D01*
X94568580Y-55068599D01*
X94640009Y-54997170D01*
X94782866Y-54925742D01*
X94925723Y-54925742D01*
X95068580Y-54997170D01*
X95140009Y-55068599D01*
X95211437Y-55211456D01*
X95211437Y-55711456D01*
X95997151Y-53425742D02*
X95997151Y-54282885D01*
X95997151Y-53854313D02*
X94497151Y-53854313D01*
X94711437Y-53997170D01*
X94854294Y-54140028D01*
X94925723Y-54282885D01*
X94997151Y-52140028D02*
X95997151Y-52140028D01*
X94425723Y-52497171D02*
X95497151Y-52854314D01*
X95497151Y-51925742D01*
X95854294Y-50497171D02*
X95925723Y-50568600D01*
X95997151Y-50782886D01*
X95997151Y-50925743D01*
X95925723Y-51140028D01*
X95782866Y-51282886D01*
X95640009Y-51354314D01*
X95354294Y-51425743D01*
X95140009Y-51425743D01*
X94854294Y-51354314D01*
X94711437Y-51282886D01*
X94568580Y-51140028D01*
X94497151Y-50925743D01*
X94497151Y-50782886D01*
X94568580Y-50568600D01*
X94640009Y-50497171D01*
X94997151Y-49211457D02*
X95997151Y-49211457D01*
X94425723Y-49568600D02*
X95497151Y-49925743D01*
X95497151Y-48997171D01*
X94497151Y-48140029D02*
X94497151Y-47997172D01*
X94568580Y-47854315D01*
X94640009Y-47782886D01*
X94782866Y-47711457D01*
X95068580Y-47640029D01*
X95425723Y-47640029D01*
X95711437Y-47711457D01*
X95854294Y-47782886D01*
X95925723Y-47854315D01*
X95997151Y-47997172D01*
X95997151Y-48140029D01*
X95925723Y-48282886D01*
X95854294Y-48354315D01*
X95711437Y-48425743D01*
X95425723Y-48497172D01*
X95068580Y-48497172D01*
X94782866Y-48425743D01*
X94640009Y-48354315D01*
X94568580Y-48282886D01*
X94497151Y-48140029D01*
X95908251Y-96052542D02*
X94408251Y-96052542D01*
X95908251Y-94481113D02*
X95193966Y-94981113D01*
X95908251Y-95338256D02*
X94408251Y-95338256D01*
X94408251Y-94766828D01*
X94479680Y-94623970D01*
X94551109Y-94552542D01*
X94693966Y-94481113D01*
X94908251Y-94481113D01*
X95051109Y-94552542D01*
X95122537Y-94623970D01*
X95193966Y-94766828D01*
X95193966Y-95338256D01*
X94479680Y-93052542D02*
X94408251Y-93195399D01*
X94408251Y-93409685D01*
X94479680Y-93623970D01*
X94622537Y-93766828D01*
X94765394Y-93838256D01*
X95051109Y-93909685D01*
X95265394Y-93909685D01*
X95551109Y-93838256D01*
X95693966Y-93766828D01*
X95836823Y-93623970D01*
X95908251Y-93409685D01*
X95908251Y-93266828D01*
X95836823Y-93052542D01*
X95765394Y-92981113D01*
X95265394Y-92981113D01*
X95265394Y-93266828D01*
X95122537Y-91838256D02*
X95193966Y-91623970D01*
X95265394Y-91552542D01*
X95408251Y-91481113D01*
X95622537Y-91481113D01*
X95765394Y-91552542D01*
X95836823Y-91623970D01*
X95908251Y-91766828D01*
X95908251Y-92338256D01*
X94408251Y-92338256D01*
X94408251Y-91838256D01*
X94479680Y-91695399D01*
X94551109Y-91623970D01*
X94693966Y-91552542D01*
X94836823Y-91552542D01*
X94979680Y-91623970D01*
X95051109Y-91695399D01*
X95122537Y-91838256D01*
X95122537Y-92338256D01*
X95908251Y-90052542D02*
X95908251Y-90909685D01*
X95908251Y-90481113D02*
X94408251Y-90481113D01*
X94622537Y-90623970D01*
X94765394Y-90766828D01*
X94836823Y-90909685D01*
X94908251Y-88766828D02*
X95908251Y-88766828D01*
X94336823Y-89123971D02*
X95408251Y-89481114D01*
X95408251Y-88552542D01*
X95765394Y-87123971D02*
X95836823Y-87195400D01*
X95908251Y-87409686D01*
X95908251Y-87552543D01*
X95836823Y-87766828D01*
X95693966Y-87909686D01*
X95551109Y-87981114D01*
X95265394Y-88052543D01*
X95051109Y-88052543D01*
X94765394Y-87981114D01*
X94622537Y-87909686D01*
X94479680Y-87766828D01*
X94408251Y-87552543D01*
X94408251Y-87409686D01*
X94479680Y-87195400D01*
X94551109Y-87123971D01*
X94908251Y-85838257D02*
X95908251Y-85838257D01*
X94336823Y-86195400D02*
X95408251Y-86552543D01*
X95408251Y-85623971D01*
X94408251Y-84766829D02*
X94408251Y-84623972D01*
X94479680Y-84481115D01*
X94551109Y-84409686D01*
X94693966Y-84338257D01*
X94979680Y-84266829D01*
X95336823Y-84266829D01*
X95622537Y-84338257D01*
X95765394Y-84409686D01*
X95836823Y-84481115D01*
X95908251Y-84623972D01*
X95908251Y-84766829D01*
X95836823Y-84909686D01*
X95765394Y-84981115D01*
X95622537Y-85052543D01*
X95336823Y-85123972D01*
X94979680Y-85123972D01*
X94693966Y-85052543D01*
X94551109Y-84981115D01*
X94479680Y-84909686D01*
X94408251Y-84766829D01*
X75319011Y-49541297D02*
X73819011Y-49541297D01*
X74533297Y-49541297D02*
X74533297Y-48684154D01*
X75319011Y-48684154D02*
X73819011Y-48684154D01*
X75319011Y-47327011D02*
X74533297Y-47327011D01*
X74390440Y-47398440D01*
X74319011Y-47541297D01*
X74319011Y-47827011D01*
X74390440Y-47969868D01*
X75247583Y-47327011D02*
X75319011Y-47469868D01*
X75319011Y-47827011D01*
X75247583Y-47969868D01*
X75104726Y-48041297D01*
X74961869Y-48041297D01*
X74819011Y-47969868D01*
X74747583Y-47827011D01*
X74747583Y-47469868D01*
X74676154Y-47327011D01*
X75319011Y-46398439D02*
X75247583Y-46541297D01*
X75104726Y-46612725D01*
X73819011Y-46612725D01*
X75319011Y-45612725D02*
X75247583Y-45755583D01*
X75104726Y-45827011D01*
X73819011Y-45827011D01*
X75247583Y-43969869D02*
X75319011Y-43827012D01*
X75319011Y-43541297D01*
X75247583Y-43398440D01*
X75104726Y-43327012D01*
X75033297Y-43327012D01*
X74890440Y-43398440D01*
X74819011Y-43541297D01*
X74819011Y-43755583D01*
X74747583Y-43898440D01*
X74604726Y-43969869D01*
X74533297Y-43969869D01*
X74390440Y-43898440D01*
X74319011Y-43755583D01*
X74319011Y-43541297D01*
X74390440Y-43398440D01*
X75247583Y-42112726D02*
X75319011Y-42255583D01*
X75319011Y-42541297D01*
X75247583Y-42684154D01*
X75104726Y-42755583D01*
X74533297Y-42755583D01*
X74390440Y-42684154D01*
X74319011Y-42541297D01*
X74319011Y-42255583D01*
X74390440Y-42112726D01*
X74533297Y-42041297D01*
X74676154Y-42041297D01*
X74819011Y-42755583D01*
X74319011Y-41398440D02*
X75319011Y-41398440D01*
X74461869Y-41398440D02*
X74390440Y-41327012D01*
X74319011Y-41184154D01*
X74319011Y-40969869D01*
X74390440Y-40827012D01*
X74533297Y-40755583D01*
X75319011Y-40755583D01*
X75247583Y-40112726D02*
X75319011Y-39969869D01*
X75319011Y-39684154D01*
X75247583Y-39541297D01*
X75104726Y-39469869D01*
X75033297Y-39469869D01*
X74890440Y-39541297D01*
X74819011Y-39684154D01*
X74819011Y-39898440D01*
X74747583Y-40041297D01*
X74604726Y-40112726D01*
X74533297Y-40112726D01*
X74390440Y-40041297D01*
X74319011Y-39898440D01*
X74319011Y-39684154D01*
X74390440Y-39541297D01*
X75319011Y-38612725D02*
X75247583Y-38755583D01*
X75176154Y-38827011D01*
X75033297Y-38898440D01*
X74604726Y-38898440D01*
X74461869Y-38827011D01*
X74390440Y-38755583D01*
X74319011Y-38612725D01*
X74319011Y-38398440D01*
X74390440Y-38255583D01*
X74461869Y-38184154D01*
X74604726Y-38112725D01*
X75033297Y-38112725D01*
X75176154Y-38184154D01*
X75247583Y-38255583D01*
X75319011Y-38398440D01*
X75319011Y-38612725D01*
X75319011Y-37469868D02*
X74319011Y-37469868D01*
X74604726Y-37469868D02*
X74461869Y-37398440D01*
X74390440Y-37327011D01*
X74319011Y-37184154D01*
X74319011Y-37041297D01*
X80345853Y-103802571D02*
X79631567Y-103802571D01*
X79631567Y-102302571D01*
X80845853Y-103802571D02*
X80845853Y-102302571D01*
X81345853Y-103374000D01*
X81845853Y-102302571D01*
X81845853Y-103802571D01*
X82417282Y-102302571D02*
X83417282Y-102302571D01*
X82774425Y-103802571D01*
X84202996Y-102945429D02*
X84060138Y-102874000D01*
X83988710Y-102802571D01*
X83917281Y-102659714D01*
X83917281Y-102588286D01*
X83988710Y-102445429D01*
X84060138Y-102374000D01*
X84202996Y-102302571D01*
X84488710Y-102302571D01*
X84631567Y-102374000D01*
X84702996Y-102445429D01*
X84774424Y-102588286D01*
X84774424Y-102659714D01*
X84702996Y-102802571D01*
X84631567Y-102874000D01*
X84488710Y-102945429D01*
X84202996Y-102945429D01*
X84060138Y-103016857D01*
X83988710Y-103088286D01*
X83917281Y-103231143D01*
X83917281Y-103516857D01*
X83988710Y-103659714D01*
X84060138Y-103731143D01*
X84202996Y-103802571D01*
X84488710Y-103802571D01*
X84631567Y-103731143D01*
X84702996Y-103659714D01*
X84774424Y-103516857D01*
X84774424Y-103231143D01*
X84702996Y-103088286D01*
X84631567Y-103016857D01*
X84488710Y-102945429D01*
X85702995Y-102302571D02*
X85845852Y-102302571D01*
X85988709Y-102374000D01*
X86060138Y-102445429D01*
X86131567Y-102588286D01*
X86202995Y-102874000D01*
X86202995Y-103231143D01*
X86131567Y-103516857D01*
X86060138Y-103659714D01*
X85988709Y-103731143D01*
X85845852Y-103802571D01*
X85702995Y-103802571D01*
X85560138Y-103731143D01*
X85488709Y-103659714D01*
X85417281Y-103516857D01*
X85345852Y-103231143D01*
X85345852Y-102874000D01*
X85417281Y-102588286D01*
X85488709Y-102445429D01*
X85560138Y-102374000D01*
X85702995Y-102302571D01*
X87560138Y-102302571D02*
X86845852Y-102302571D01*
X86774423Y-103016857D01*
X86845852Y-102945429D01*
X86988709Y-102874000D01*
X87345852Y-102874000D01*
X87488709Y-102945429D01*
X87560138Y-103016857D01*
X87631566Y-103159714D01*
X87631566Y-103516857D01*
X87560138Y-103659714D01*
X87488709Y-103731143D01*
X87345852Y-103802571D01*
X86988709Y-103802571D01*
X86845852Y-103731143D01*
X86774423Y-103659714D01*
X89131566Y-103659714D02*
X89060137Y-103731143D01*
X88845851Y-103802571D01*
X88702994Y-103802571D01*
X88488709Y-103731143D01*
X88345851Y-103588286D01*
X88274423Y-103445429D01*
X88202994Y-103159714D01*
X88202994Y-102945429D01*
X88274423Y-102659714D01*
X88345851Y-102516857D01*
X88488709Y-102374000D01*
X88702994Y-102302571D01*
X88845851Y-102302571D01*
X89060137Y-102374000D01*
X89131566Y-102445429D01*
X89560137Y-102302571D02*
X90417280Y-102302571D01*
X89988709Y-103802571D02*
X89988709Y-102302571D01*
D13*
X66921380Y-76682600D02*
X66921380Y-66522600D01*
X65651380Y-76682600D02*
X73271380Y-76682600D01*
X73271380Y-76682600D02*
X73271380Y-66522600D01*
X73271380Y-66522600D02*
X65651380Y-66522600D01*
X65651380Y-66522600D02*
X65651380Y-76682600D01*
X103040180Y-88480900D02*
X101516180Y-88480900D01*
X103040180Y-92036900D02*
X101516180Y-92036900D01*
X95928180Y-81749900D02*
X95928180Y-82257900D01*
X108628180Y-107784900D02*
X105834180Y-102323900D01*
X105834180Y-102323900D02*
X108628180Y-102958900D01*
X104945180Y-80225900D02*
X108628180Y-77558900D01*
X108628180Y-77558900D02*
X105834180Y-78066900D01*
X105834180Y-78066900D02*
X108628180Y-72732900D01*
X99611180Y-80098900D02*
X95928180Y-77558900D01*
X95928180Y-77558900D02*
X98595180Y-78066900D01*
X98595180Y-78066900D02*
X95928180Y-72732900D01*
X99738180Y-75018900D02*
X95928180Y-72732900D01*
X104818180Y-75018900D02*
X108628180Y-72732900D01*
X108628180Y-98259900D02*
X108628180Y-98640900D01*
X95928180Y-98259900D02*
X95928180Y-98767900D01*
X99611180Y-100291900D02*
X95928180Y-102958900D01*
X95928180Y-102958900D02*
X98722180Y-102323900D01*
X98722180Y-102323900D02*
X95928180Y-107784900D01*
X99865180Y-105498900D02*
X98976180Y-107784900D01*
X98976180Y-107784900D02*
X100754180Y-106260900D01*
X95928180Y-107784900D02*
X99865180Y-105498900D01*
X104818180Y-105498900D02*
X105580180Y-107657900D01*
X105580180Y-107657900D02*
X104056180Y-106133900D01*
X108628180Y-107784900D02*
X104818180Y-105498900D01*
X104945180Y-100418900D02*
X108628180Y-102958900D01*
X95928180Y-98767900D02*
X99611180Y-100291900D01*
X108628180Y-98767900D02*
X104945180Y-100418900D01*
X95928180Y-81749900D02*
X99738180Y-80098900D01*
X108628180Y-82257900D02*
X108628180Y-81749900D01*
X108628180Y-81749900D02*
X104945180Y-80225900D01*
X98976180Y-72732900D02*
X100373180Y-74510900D01*
X105580180Y-72605900D02*
X104056180Y-74383900D01*
X98976180Y-72732900D02*
X99738180Y-75018900D01*
X105580180Y-72732900D02*
X104818180Y-75018900D01*
X101516180Y-90258900D02*
X101516180Y-82257900D01*
X101516180Y-82257900D02*
X95928180Y-82257900D01*
X101516180Y-90258900D02*
X101516180Y-98259900D01*
X101516180Y-98259900D02*
X95928180Y-98259900D01*
X103040180Y-90258900D02*
X103040180Y-82257900D01*
X103040180Y-82257900D02*
X108628180Y-82257900D01*
X103040180Y-90258900D02*
X103040180Y-98259900D01*
X103040180Y-98259900D02*
X108628180Y-98259900D01*
D14*
X91292680Y-42532300D02*
X91292680Y-85712300D01*
X91292680Y-85712300D02*
X78592680Y-85712300D01*
X78592680Y-85712300D02*
X78592680Y-42532300D01*
X78592680Y-42532300D02*
X91292680Y-42532300D01*
X83672680Y-42532300D02*
X83672680Y-43802300D01*
X83672680Y-43802300D02*
X86212680Y-43802300D01*
X86212680Y-43802300D02*
X86212680Y-42532300D01*
D13*
X65676780Y-51130200D02*
X73296780Y-51130200D01*
X65676780Y-66370200D02*
X73296780Y-66370200D01*
X66946780Y-51130200D02*
X66946780Y-66370200D01*
X73296780Y-51130200D02*
X73296780Y-66370200D01*
X65676780Y-51130200D02*
X65676780Y-66370200D01*
X66883280Y-97307400D02*
X66883280Y-87147400D01*
X65613280Y-97307400D02*
X73233280Y-97307400D01*
X73233280Y-97307400D02*
X73233280Y-87147400D01*
X73233280Y-87147400D02*
X65613280Y-87147400D01*
X65613280Y-87147400D02*
X65613280Y-97307400D01*
X65676780Y-35687000D02*
X73296780Y-35687000D01*
X65676780Y-50927000D02*
X73296780Y-50927000D01*
X66946780Y-35687000D02*
X66946780Y-50927000D01*
X73296780Y-35687000D02*
X73296780Y-50927000D01*
X65676780Y-35687000D02*
X65676780Y-50927000D01*
X101503480Y-52059840D02*
X100360480Y-52059840D01*
X101503480Y-55107840D02*
X100360480Y-55107840D01*
X100360480Y-58917840D02*
X96677480Y-58917840D01*
X96677480Y-58917840D02*
X96677480Y-48249840D01*
X96677480Y-48249840D02*
X100360480Y-48249840D01*
X101503480Y-58917840D02*
X100360480Y-58917840D01*
X100360480Y-58917840D02*
X100360480Y-48249840D01*
X100360480Y-48249840D02*
X101503480Y-48249840D01*
X101503480Y-53583840D02*
X101503480Y-48249840D01*
X101503480Y-53583840D02*
X101503480Y-58917840D01*
X101376480Y-88798400D02*
X100233480Y-88798400D01*
X101376480Y-91846400D02*
X100233480Y-91846400D01*
X100233480Y-95656400D02*
X96550480Y-95656400D01*
X96550480Y-95656400D02*
X96550480Y-84988400D01*
X96550480Y-84988400D02*
X100233480Y-84988400D01*
X101376480Y-95656400D02*
X100233480Y-95656400D01*
X100233480Y-95656400D02*
X100233480Y-84988400D01*
X100233480Y-84988400D02*
X101376480Y-84988400D01*
X101376480Y-90322400D02*
X101376480Y-84988400D01*
X101376480Y-90322400D02*
X101376480Y-95656400D01*
X90276680Y-96443800D02*
X88371680Y-96443800D01*
X85831680Y-96443800D02*
X86593680Y-96443800D01*
X83418680Y-96443800D02*
X83291680Y-96443800D01*
X83418680Y-96443800D02*
X84053680Y-96443800D01*
X79608680Y-96443800D02*
X81386680Y-96443800D01*
X79608680Y-100126800D02*
X81259680Y-100126800D01*
X83926680Y-100253800D02*
X83291680Y-100253800D01*
X86466680Y-100253800D02*
X85831680Y-100253800D01*
X90276680Y-100126800D02*
X88625680Y-100126800D01*
X83418680Y-95300800D02*
X83418680Y-96443800D01*
X86466680Y-95300800D02*
X86466680Y-96443800D01*
X90276680Y-96443800D02*
X90276680Y-100126800D01*
X79608680Y-100126800D02*
X79608680Y-96443800D01*
X90276680Y-95300800D02*
X90276680Y-96443800D01*
X79608680Y-96443800D02*
X79608680Y-95300800D01*
X84942680Y-95300800D02*
X79608680Y-95300800D01*
X84942680Y-95300800D02*
X90276680Y-95300800D01*
X101655880Y-55283100D02*
X103179880Y-55283100D01*
X101655880Y-51727100D02*
X103179880Y-51727100D01*
X108767880Y-62014100D02*
X108767880Y-61506100D01*
X96067880Y-35979100D02*
X98861880Y-41440100D01*
X98861880Y-41440100D02*
X96067880Y-40805100D01*
X99750880Y-63538100D02*
X96067880Y-66205100D01*
X96067880Y-66205100D02*
X98861880Y-65697100D01*
X98861880Y-65697100D02*
X96067880Y-71031100D01*
X105084880Y-63665100D02*
X108767880Y-66205100D01*
X108767880Y-66205100D02*
X106100880Y-65697100D01*
X106100880Y-65697100D02*
X108767880Y-71031100D01*
X104957880Y-68745100D02*
X108767880Y-71031100D01*
X99877880Y-68745100D02*
X96067880Y-71031100D01*
X96067880Y-45504100D02*
X96067880Y-45123100D01*
X108767880Y-45504100D02*
X108767880Y-44996100D01*
X105084880Y-43472100D02*
X108767880Y-40805100D01*
X108767880Y-40805100D02*
X105973880Y-41440100D01*
X105973880Y-41440100D02*
X108767880Y-35979100D01*
X104830880Y-38265100D02*
X105719880Y-35979100D01*
X105719880Y-35979100D02*
X103941880Y-37503100D01*
X108767880Y-35979100D02*
X104830880Y-38265100D01*
X99877880Y-38265100D02*
X99115880Y-36106100D01*
X99115880Y-36106100D02*
X100639880Y-37630100D01*
X96067880Y-35979100D02*
X99877880Y-38265100D01*
X99750880Y-43345100D02*
X96067880Y-40805100D01*
X108767880Y-44996100D02*
X105084880Y-43472100D01*
X96067880Y-44996100D02*
X99750880Y-43345100D01*
X108767880Y-62014100D02*
X104957880Y-63665100D01*
X96067880Y-61506100D02*
X96067880Y-62014100D01*
X96067880Y-62014100D02*
X99750880Y-63538100D01*
X105719880Y-71031100D02*
X104322880Y-69253100D01*
X99115880Y-71158100D02*
X100639880Y-69380100D01*
X105719880Y-71031100D02*
X104957880Y-68745100D01*
X99115880Y-71031100D02*
X99877880Y-68745100D01*
X103179880Y-53505100D02*
X103179880Y-61506100D01*
X103179880Y-61506100D02*
X108767880Y-61506100D01*
X103179880Y-53505100D02*
X103179880Y-45504100D01*
X103179880Y-45504100D02*
X108767880Y-45504100D01*
X101655880Y-53505100D02*
X101655880Y-61506100D01*
X101655880Y-61506100D02*
X96067880Y-61506100D01*
X101655880Y-53505100D02*
X101655880Y-45504100D01*
X101655880Y-45504100D02*
X96067880Y-45504100D01*
X109286000Y-31000000D02*
G75*
G03X109286000Y-31000000I-2286000J0D01*
G01*
X109286000Y-112000000D02*
G75*
G03X109286000Y-112000000I-2286000J0D01*
G01*
X67286000Y-112000000D02*
G75*
G03X67286000Y-112000000I-2286000J0D01*
G01*
X67286000Y-31000000D02*
G75*
G03X67286000Y-31000000I-2286000J0D01*
G01*
X88508080Y-93113800D02*
X81508080Y-93113800D01*
X81508080Y-93113800D02*
X81508080Y-89613800D01*
X81508080Y-89613800D02*
X88508080Y-89613800D01*
X88508080Y-89613800D02*
X88508080Y-93113800D01*
X66895980Y-87007700D02*
X66895980Y-76847700D01*
X65625980Y-87007700D02*
X73245980Y-87007700D01*
X73245980Y-87007700D02*
X73245980Y-76847700D01*
X73245980Y-76847700D02*
X65625980Y-76847700D01*
X65625980Y-76847700D02*
X65625980Y-87007700D01*
D10*
G36*
X84970068Y-109636217D02*
X84922455Y-109741002D01*
X84885309Y-109871376D01*
X84855778Y-110152508D01*
X84852020Y-110227710D01*
X84852020Y-109482862D01*
X84846815Y-109467360D01*
X84772049Y-109483741D01*
X84678053Y-109604389D01*
X84598924Y-109772855D01*
X84568615Y-109927909D01*
X84587041Y-110008530D01*
X84646008Y-109952741D01*
X84730286Y-109805893D01*
X84820747Y-109609191D01*
X84852020Y-109482862D01*
X84852020Y-110227710D01*
X84835118Y-110565942D01*
X84824583Y-111093224D01*
X84823900Y-111190892D01*
X84816165Y-111661318D01*
X84799472Y-112080813D01*
X84775894Y-112416117D01*
X84747505Y-112633966D01*
X84730295Y-112692230D01*
X84716311Y-112703981D01*
X84716311Y-110185191D01*
X84706178Y-110172782D01*
X84655843Y-110184404D01*
X84649733Y-110229227D01*
X84680711Y-110298917D01*
X84706178Y-110285671D01*
X84716311Y-110185191D01*
X84716311Y-112703981D01*
X84580322Y-112818264D01*
X84559830Y-112821449D01*
X84559830Y-112206479D01*
X84559116Y-112113060D01*
X84549855Y-111960050D01*
X84549855Y-110613614D01*
X84500609Y-110369845D01*
X84484492Y-110313893D01*
X84440381Y-110186419D01*
X84410924Y-110196407D01*
X84377472Y-110357707D01*
X84370490Y-110398560D01*
X84328880Y-110673795D01*
X84286215Y-111000375D01*
X84274874Y-111097331D01*
X84208311Y-111358817D01*
X84208311Y-110015858D01*
X84198178Y-110003449D01*
X84147843Y-110015071D01*
X84141733Y-110059893D01*
X84172711Y-110129583D01*
X84198178Y-110116338D01*
X84208311Y-110015858D01*
X84208311Y-111358817D01*
X84130549Y-111664299D01*
X84042273Y-111811861D01*
X84042273Y-110283119D01*
X83973421Y-110268538D01*
X83926381Y-110284690D01*
X83822691Y-110301894D01*
X83836507Y-110243615D01*
X83818820Y-110178366D01*
X83655624Y-110142493D01*
X83490563Y-110133414D01*
X83259604Y-110125172D01*
X83186862Y-110113388D01*
X83261247Y-110091706D01*
X83379733Y-110069914D01*
X83578883Y-110017986D01*
X83660552Y-109919114D01*
X83676067Y-109721227D01*
X83663288Y-109523586D01*
X83595634Y-109446783D01*
X83563190Y-109445982D01*
X83563190Y-109170893D01*
X83519309Y-108720546D01*
X83476206Y-108441923D01*
X83414094Y-108223165D01*
X83374880Y-108149046D01*
X83194190Y-108048536D01*
X82939938Y-108038565D01*
X82697259Y-108115311D01*
X82522004Y-108154915D01*
X82249992Y-108123568D01*
X82054314Y-108077487D01*
X81608236Y-108009124D01*
X81265213Y-108069101D01*
X81012793Y-108261937D01*
X80871038Y-108506896D01*
X80773694Y-108777713D01*
X80708499Y-109031306D01*
X80680843Y-109230832D01*
X80696116Y-109339451D01*
X80750721Y-109329312D01*
X80824113Y-109190434D01*
X80885352Y-108956904D01*
X80899881Y-108863645D01*
X80993587Y-108495781D01*
X81165259Y-108275342D01*
X81418808Y-108197471D01*
X81436606Y-108197227D01*
X81586033Y-108208848D01*
X81635780Y-108276258D01*
X81611761Y-108448279D01*
X81599398Y-108503912D01*
X81529894Y-108731776D01*
X81449952Y-108889296D01*
X81438981Y-108901845D01*
X81352593Y-109052005D01*
X81426776Y-109176367D01*
X81665648Y-109281658D01*
X81672616Y-109283760D01*
X81976786Y-109406734D01*
X82172491Y-109580008D01*
X82281579Y-109838795D01*
X82325898Y-110218312D01*
X82329534Y-110342549D01*
X82340202Y-110948893D01*
X82288468Y-110440893D01*
X82219802Y-110053722D01*
X82096937Y-109783837D01*
X82036911Y-109706899D01*
X81805262Y-109509370D01*
X81576970Y-109417162D01*
X81385307Y-109426809D01*
X81263545Y-109534844D01*
X81244956Y-109737801D01*
X81256213Y-109788237D01*
X81377413Y-109990645D01*
X81565452Y-110075717D01*
X81683331Y-110109028D01*
X81653117Y-110122538D01*
X81465019Y-110119362D01*
X81432400Y-110118050D01*
X81162435Y-110079547D01*
X80976051Y-110001209D01*
X80948259Y-109975227D01*
X80862290Y-109902905D01*
X80834538Y-109947188D01*
X80859334Y-110067860D01*
X80931005Y-110224708D01*
X80997397Y-110323642D01*
X81097361Y-110525511D01*
X81180695Y-110824625D01*
X81215073Y-111033560D01*
X81338210Y-111624104D01*
X81557099Y-112085159D01*
X81880019Y-112432231D01*
X82011511Y-112524829D01*
X82326762Y-112687096D01*
X82603872Y-112761066D01*
X82808534Y-112741798D01*
X82898392Y-112652544D01*
X82886336Y-112494102D01*
X82739677Y-112383005D01*
X82519112Y-112345893D01*
X82289861Y-112281615D01*
X82195047Y-112177769D01*
X82146214Y-112063878D01*
X82201946Y-112050633D01*
X82324580Y-112093102D01*
X82584472Y-112166856D01*
X82777625Y-112140376D01*
X82958421Y-112022615D01*
X83052254Y-111940970D01*
X83062170Y-111896411D01*
X82963238Y-111879821D01*
X82730527Y-111882085D01*
X82586157Y-111886488D01*
X82292829Y-111883790D01*
X82071304Y-111859425D01*
X81971844Y-111820274D01*
X82010793Y-111769777D01*
X82194168Y-111753055D01*
X82289988Y-111756104D01*
X82607764Y-111767846D01*
X82784044Y-111757625D01*
X82845730Y-111721279D01*
X82831685Y-111672258D01*
X82719480Y-111619692D01*
X82678522Y-111627166D01*
X82553485Y-111599694D01*
X82371413Y-111486780D01*
X82321400Y-111446362D01*
X82067400Y-111229681D01*
X82397703Y-111286025D01*
X82728005Y-111342370D01*
X82676782Y-110731380D01*
X82663802Y-110249829D01*
X82726589Y-109892117D01*
X82878244Y-109624772D01*
X83131868Y-109414324D01*
X83210383Y-109367995D01*
X83563190Y-109170893D01*
X83563190Y-109445982D01*
X83429122Y-109442673D01*
X83422067Y-109443174D01*
X83146921Y-109517386D01*
X82973381Y-109701665D01*
X82894192Y-110009378D01*
X82898070Y-110408648D01*
X82911317Y-110800496D01*
X82872501Y-111031445D01*
X82844712Y-111076333D01*
X82799558Y-111149927D01*
X82891877Y-111147809D01*
X82927669Y-111139650D01*
X83055505Y-111136487D01*
X83131182Y-111232757D01*
X83178049Y-111403298D01*
X83219107Y-111649154D01*
X83230237Y-111843178D01*
X83228945Y-111859060D01*
X83267940Y-111980721D01*
X83390717Y-112004400D01*
X83548022Y-111936876D01*
X83683232Y-111796506D01*
X83772199Y-111594279D01*
X83852208Y-111301578D01*
X83888762Y-111098006D01*
X83936660Y-110793717D01*
X83987722Y-110532588D01*
X84016848Y-110418468D01*
X84042273Y-110283119D01*
X84042273Y-111811861D01*
X83831764Y-112163750D01*
X83530820Y-112474168D01*
X83370462Y-112623703D01*
X83312064Y-112700438D01*
X83358904Y-112691773D01*
X83534377Y-112572348D01*
X83753513Y-112386147D01*
X83842263Y-112301052D01*
X84071101Y-111989846D01*
X84258489Y-111585542D01*
X84373828Y-111164027D01*
X84395733Y-110928529D01*
X84424443Y-110794185D01*
X84480400Y-110779560D01*
X84543026Y-110760741D01*
X84549855Y-110613614D01*
X84549855Y-111960050D01*
X84542307Y-111835343D01*
X84506949Y-111607701D01*
X84489254Y-111547750D01*
X84433459Y-111438143D01*
X84388454Y-111483083D01*
X84371258Y-111525552D01*
X84328684Y-111689799D01*
X84281791Y-111947359D01*
X84260878Y-112090862D01*
X84233587Y-112341424D01*
X84246713Y-112467337D01*
X84312627Y-112510948D01*
X84384826Y-112515227D01*
X84494180Y-112495338D01*
X84546267Y-112406839D01*
X84559830Y-112206479D01*
X84559830Y-112821449D01*
X84369222Y-112851082D01*
X84184771Y-112778101D01*
X84177806Y-112771433D01*
X84127599Y-112780825D01*
X84120927Y-112947430D01*
X84126107Y-113011539D01*
X84124999Y-113247761D01*
X84040511Y-113416210D01*
X83897773Y-113552120D01*
X83717160Y-113662483D01*
X83717160Y-113046725D01*
X83683568Y-112902747D01*
X83534308Y-112868420D01*
X83528765Y-112869171D01*
X83359812Y-112965039D01*
X83296322Y-113157464D01*
X83327582Y-113324505D01*
X83424822Y-113437304D01*
X83548626Y-113395232D01*
X83630754Y-113282793D01*
X83717160Y-113046725D01*
X83717160Y-113662483D01*
X83626753Y-113717726D01*
X83280203Y-113844813D01*
X83125733Y-113877526D01*
X83125733Y-111710893D01*
X83083400Y-111668560D01*
X83041067Y-111710893D01*
X83083400Y-111753227D01*
X83125733Y-111710893D01*
X83125733Y-113877526D01*
X82911154Y-113922969D01*
X82572635Y-113941783D01*
X82464841Y-113920247D01*
X82464841Y-112949451D01*
X82441344Y-112907695D01*
X82346449Y-112852141D01*
X82194400Y-112776024D01*
X82053823Y-112712293D01*
X82054347Y-112730364D01*
X82147082Y-112806889D01*
X82268267Y-112883547D01*
X82391599Y-112937032D01*
X82464841Y-112949451D01*
X82464841Y-113920247D01*
X82317679Y-113890846D01*
X82279067Y-113869893D01*
X82200023Y-113803743D01*
X82269623Y-113786539D01*
X82271022Y-113786523D01*
X82343298Y-113764561D01*
X82295067Y-113675491D01*
X82262994Y-113637060D01*
X82155647Y-113486742D01*
X82003471Y-113243956D01*
X81862658Y-113002060D01*
X81666159Y-112692671D01*
X81513833Y-112539849D01*
X81432400Y-112543502D01*
X81432400Y-112223890D01*
X81372263Y-112152277D01*
X81334651Y-112126142D01*
X81276714Y-112116162D01*
X81297315Y-112163478D01*
X81382565Y-112254372D01*
X81431576Y-112235726D01*
X81432400Y-112223890D01*
X81432400Y-112543502D01*
X81408950Y-112544554D01*
X81354780Y-112707746D01*
X81347733Y-112850947D01*
X81384364Y-113123668D01*
X81516346Y-113369354D01*
X81622900Y-113500186D01*
X81769279Y-113676214D01*
X81801799Y-113745592D01*
X81726107Y-113721638D01*
X81714133Y-113715334D01*
X81515240Y-113565153D01*
X81329729Y-113357039D01*
X81204786Y-113150027D01*
X81178400Y-113045083D01*
X81122739Y-112959519D01*
X81076701Y-112966051D01*
X81076701Y-112249900D01*
X81064407Y-111964458D01*
X81001320Y-111706112D01*
X80909902Y-111479824D01*
X80909902Y-111284773D01*
X80894669Y-111077256D01*
X80878218Y-110952742D01*
X80836718Y-110731481D01*
X80797071Y-110608309D01*
X80780849Y-110598556D01*
X80769564Y-110697680D01*
X80784798Y-110905197D01*
X80801248Y-111029711D01*
X80842749Y-111250972D01*
X80882396Y-111374144D01*
X80898618Y-111383897D01*
X80909902Y-111284773D01*
X80909902Y-111479824D01*
X80900638Y-111456893D01*
X80836292Y-111668560D01*
X80787306Y-111908369D01*
X80765639Y-112176670D01*
X80772971Y-112409463D01*
X80810983Y-112542746D01*
X80813275Y-112545213D01*
X80930077Y-112585504D01*
X81024657Y-112479138D01*
X81076701Y-112249900D01*
X81076701Y-112966051D01*
X81049479Y-112969914D01*
X80900465Y-112950942D01*
X80743322Y-112842148D01*
X80646352Y-112724200D01*
X80603325Y-112587976D01*
X80605548Y-112379386D01*
X80631345Y-112145569D01*
X80662681Y-111831999D01*
X80685800Y-111475762D01*
X80700261Y-111110877D01*
X80705626Y-110771366D01*
X80701452Y-110491248D01*
X80687300Y-110304544D01*
X80662730Y-110245275D01*
X80655845Y-110252776D01*
X80588154Y-110262542D01*
X80506849Y-110117428D01*
X80505928Y-110115013D01*
X80438253Y-109893596D01*
X80422239Y-109748019D01*
X80452958Y-109705514D01*
X80525481Y-109793312D01*
X80554212Y-109848227D01*
X80678270Y-110102227D01*
X80616931Y-109805893D01*
X80588008Y-109580388D01*
X80566467Y-109248953D01*
X80556126Y-108874953D01*
X80555734Y-108789893D01*
X80578233Y-108286754D01*
X80659567Y-107890301D01*
X80820826Y-107542146D01*
X81083103Y-107183902D01*
X81174320Y-107077477D01*
X81377320Y-106808001D01*
X81542480Y-106522937D01*
X81598896Y-106387954D01*
X81724228Y-106130634D01*
X81919890Y-105851101D01*
X82025060Y-105731788D01*
X82321828Y-105486969D01*
X82596750Y-105403449D01*
X82875512Y-105480004D01*
X83143935Y-105678393D01*
X83338521Y-105895288D01*
X83532314Y-106175080D01*
X83693363Y-106463691D01*
X83789715Y-106707039D01*
X83803645Y-106794963D01*
X83868198Y-106894974D01*
X84028765Y-107035499D01*
X84093792Y-107082068D01*
X84407808Y-107394683D01*
X84636708Y-107836334D01*
X84770355Y-108384227D01*
X84796908Y-108662893D01*
X84826004Y-108990892D01*
X84871399Y-109273162D01*
X84921230Y-109443174D01*
X84970068Y-109636217D01*
X84970068Y-109636217D01*
X84970068Y-109636217D01*
G37*
X84970068Y-109636217D02*
X84922455Y-109741002D01*
X84885309Y-109871376D01*
X84855778Y-110152508D01*
X84852020Y-110227710D01*
X84852020Y-109482862D01*
X84846815Y-109467360D01*
X84772049Y-109483741D01*
X84678053Y-109604389D01*
X84598924Y-109772855D01*
X84568615Y-109927909D01*
X84587041Y-110008530D01*
X84646008Y-109952741D01*
X84730286Y-109805893D01*
X84820747Y-109609191D01*
X84852020Y-109482862D01*
X84852020Y-110227710D01*
X84835118Y-110565942D01*
X84824583Y-111093224D01*
X84823900Y-111190892D01*
X84816165Y-111661318D01*
X84799472Y-112080813D01*
X84775894Y-112416117D01*
X84747505Y-112633966D01*
X84730295Y-112692230D01*
X84716311Y-112703981D01*
X84716311Y-110185191D01*
X84706178Y-110172782D01*
X84655843Y-110184404D01*
X84649733Y-110229227D01*
X84680711Y-110298917D01*
X84706178Y-110285671D01*
X84716311Y-110185191D01*
X84716311Y-112703981D01*
X84580322Y-112818264D01*
X84559830Y-112821449D01*
X84559830Y-112206479D01*
X84559116Y-112113060D01*
X84549855Y-111960050D01*
X84549855Y-110613614D01*
X84500609Y-110369845D01*
X84484492Y-110313893D01*
X84440381Y-110186419D01*
X84410924Y-110196407D01*
X84377472Y-110357707D01*
X84370490Y-110398560D01*
X84328880Y-110673795D01*
X84286215Y-111000375D01*
X84274874Y-111097331D01*
X84208311Y-111358817D01*
X84208311Y-110015858D01*
X84198178Y-110003449D01*
X84147843Y-110015071D01*
X84141733Y-110059893D01*
X84172711Y-110129583D01*
X84198178Y-110116338D01*
X84208311Y-110015858D01*
X84208311Y-111358817D01*
X84130549Y-111664299D01*
X84042273Y-111811861D01*
X84042273Y-110283119D01*
X83973421Y-110268538D01*
X83926381Y-110284690D01*
X83822691Y-110301894D01*
X83836507Y-110243615D01*
X83818820Y-110178366D01*
X83655624Y-110142493D01*
X83490563Y-110133414D01*
X83259604Y-110125172D01*
X83186862Y-110113388D01*
X83261247Y-110091706D01*
X83379733Y-110069914D01*
X83578883Y-110017986D01*
X83660552Y-109919114D01*
X83676067Y-109721227D01*
X83663288Y-109523586D01*
X83595634Y-109446783D01*
X83563190Y-109445982D01*
X83563190Y-109170893D01*
X83519309Y-108720546D01*
X83476206Y-108441923D01*
X83414094Y-108223165D01*
X83374880Y-108149046D01*
X83194190Y-108048536D01*
X82939938Y-108038565D01*
X82697259Y-108115311D01*
X82522004Y-108154915D01*
X82249992Y-108123568D01*
X82054314Y-108077487D01*
X81608236Y-108009124D01*
X81265213Y-108069101D01*
X81012793Y-108261937D01*
X80871038Y-108506896D01*
X80773694Y-108777713D01*
X80708499Y-109031306D01*
X80680843Y-109230832D01*
X80696116Y-109339451D01*
X80750721Y-109329312D01*
X80824113Y-109190434D01*
X80885352Y-108956904D01*
X80899881Y-108863645D01*
X80993587Y-108495781D01*
X81165259Y-108275342D01*
X81418808Y-108197471D01*
X81436606Y-108197227D01*
X81586033Y-108208848D01*
X81635780Y-108276258D01*
X81611761Y-108448279D01*
X81599398Y-108503912D01*
X81529894Y-108731776D01*
X81449952Y-108889296D01*
X81438981Y-108901845D01*
X81352593Y-109052005D01*
X81426776Y-109176367D01*
X81665648Y-109281658D01*
X81672616Y-109283760D01*
X81976786Y-109406734D01*
X82172491Y-109580008D01*
X82281579Y-109838795D01*
X82325898Y-110218312D01*
X82329534Y-110342549D01*
X82340202Y-110948893D01*
X82288468Y-110440893D01*
X82219802Y-110053722D01*
X82096937Y-109783837D01*
X82036911Y-109706899D01*
X81805262Y-109509370D01*
X81576970Y-109417162D01*
X81385307Y-109426809D01*
X81263545Y-109534844D01*
X81244956Y-109737801D01*
X81256213Y-109788237D01*
X81377413Y-109990645D01*
X81565452Y-110075717D01*
X81683331Y-110109028D01*
X81653117Y-110122538D01*
X81465019Y-110119362D01*
X81432400Y-110118050D01*
X81162435Y-110079547D01*
X80976051Y-110001209D01*
X80948259Y-109975227D01*
X80862290Y-109902905D01*
X80834538Y-109947188D01*
X80859334Y-110067860D01*
X80931005Y-110224708D01*
X80997397Y-110323642D01*
X81097361Y-110525511D01*
X81180695Y-110824625D01*
X81215073Y-111033560D01*
X81338210Y-111624104D01*
X81557099Y-112085159D01*
X81880019Y-112432231D01*
X82011511Y-112524829D01*
X82326762Y-112687096D01*
X82603872Y-112761066D01*
X82808534Y-112741798D01*
X82898392Y-112652544D01*
X82886336Y-112494102D01*
X82739677Y-112383005D01*
X82519112Y-112345893D01*
X82289861Y-112281615D01*
X82195047Y-112177769D01*
X82146214Y-112063878D01*
X82201946Y-112050633D01*
X82324580Y-112093102D01*
X82584472Y-112166856D01*
X82777625Y-112140376D01*
X82958421Y-112022615D01*
X83052254Y-111940970D01*
X83062170Y-111896411D01*
X82963238Y-111879821D01*
X82730527Y-111882085D01*
X82586157Y-111886488D01*
X82292829Y-111883790D01*
X82071304Y-111859425D01*
X81971844Y-111820274D01*
X82010793Y-111769777D01*
X82194168Y-111753055D01*
X82289988Y-111756104D01*
X82607764Y-111767846D01*
X82784044Y-111757625D01*
X82845730Y-111721279D01*
X82831685Y-111672258D01*
X82719480Y-111619692D01*
X82678522Y-111627166D01*
X82553485Y-111599694D01*
X82371413Y-111486780D01*
X82321400Y-111446362D01*
X82067400Y-111229681D01*
X82397703Y-111286025D01*
X82728005Y-111342370D01*
X82676782Y-110731380D01*
X82663802Y-110249829D01*
X82726589Y-109892117D01*
X82878244Y-109624772D01*
X83131868Y-109414324D01*
X83210383Y-109367995D01*
X83563190Y-109170893D01*
X83563190Y-109445982D01*
X83429122Y-109442673D01*
X83422067Y-109443174D01*
X83146921Y-109517386D01*
X82973381Y-109701665D01*
X82894192Y-110009378D01*
X82898070Y-110408648D01*
X82911317Y-110800496D01*
X82872501Y-111031445D01*
X82844712Y-111076333D01*
X82799558Y-111149927D01*
X82891877Y-111147809D01*
X82927669Y-111139650D01*
X83055505Y-111136487D01*
X83131182Y-111232757D01*
X83178049Y-111403298D01*
X83219107Y-111649154D01*
X83230237Y-111843178D01*
X83228945Y-111859060D01*
X83267940Y-111980721D01*
X83390717Y-112004400D01*
X83548022Y-111936876D01*
X83683232Y-111796506D01*
X83772199Y-111594279D01*
X83852208Y-111301578D01*
X83888762Y-111098006D01*
X83936660Y-110793717D01*
X83987722Y-110532588D01*
X84016848Y-110418468D01*
X84042273Y-110283119D01*
X84042273Y-111811861D01*
X83831764Y-112163750D01*
X83530820Y-112474168D01*
X83370462Y-112623703D01*
X83312064Y-112700438D01*
X83358904Y-112691773D01*
X83534377Y-112572348D01*
X83753513Y-112386147D01*
X83842263Y-112301052D01*
X84071101Y-111989846D01*
X84258489Y-111585542D01*
X84373828Y-111164027D01*
X84395733Y-110928529D01*
X84424443Y-110794185D01*
X84480400Y-110779560D01*
X84543026Y-110760741D01*
X84549855Y-110613614D01*
X84549855Y-111960050D01*
X84542307Y-111835343D01*
X84506949Y-111607701D01*
X84489254Y-111547750D01*
X84433459Y-111438143D01*
X84388454Y-111483083D01*
X84371258Y-111525552D01*
X84328684Y-111689799D01*
X84281791Y-111947359D01*
X84260878Y-112090862D01*
X84233587Y-112341424D01*
X84246713Y-112467337D01*
X84312627Y-112510948D01*
X84384826Y-112515227D01*
X84494180Y-112495338D01*
X84546267Y-112406839D01*
X84559830Y-112206479D01*
X84559830Y-112821449D01*
X84369222Y-112851082D01*
X84184771Y-112778101D01*
X84177806Y-112771433D01*
X84127599Y-112780825D01*
X84120927Y-112947430D01*
X84126107Y-113011539D01*
X84124999Y-113247761D01*
X84040511Y-113416210D01*
X83897773Y-113552120D01*
X83717160Y-113662483D01*
X83717160Y-113046725D01*
X83683568Y-112902747D01*
X83534308Y-112868420D01*
X83528765Y-112869171D01*
X83359812Y-112965039D01*
X83296322Y-113157464D01*
X83327582Y-113324505D01*
X83424822Y-113437304D01*
X83548626Y-113395232D01*
X83630754Y-113282793D01*
X83717160Y-113046725D01*
X83717160Y-113662483D01*
X83626753Y-113717726D01*
X83280203Y-113844813D01*
X83125733Y-113877526D01*
X83125733Y-111710893D01*
X83083400Y-111668560D01*
X83041067Y-111710893D01*
X83083400Y-111753227D01*
X83125733Y-111710893D01*
X83125733Y-113877526D01*
X82911154Y-113922969D01*
X82572635Y-113941783D01*
X82464841Y-113920247D01*
X82464841Y-112949451D01*
X82441344Y-112907695D01*
X82346449Y-112852141D01*
X82194400Y-112776024D01*
X82053823Y-112712293D01*
X82054347Y-112730364D01*
X82147082Y-112806889D01*
X82268267Y-112883547D01*
X82391599Y-112937032D01*
X82464841Y-112949451D01*
X82464841Y-113920247D01*
X82317679Y-113890846D01*
X82279067Y-113869893D01*
X82200023Y-113803743D01*
X82269623Y-113786539D01*
X82271022Y-113786523D01*
X82343298Y-113764561D01*
X82295067Y-113675491D01*
X82262994Y-113637060D01*
X82155647Y-113486742D01*
X82003471Y-113243956D01*
X81862658Y-113002060D01*
X81666159Y-112692671D01*
X81513833Y-112539849D01*
X81432400Y-112543502D01*
X81432400Y-112223890D01*
X81372263Y-112152277D01*
X81334651Y-112126142D01*
X81276714Y-112116162D01*
X81297315Y-112163478D01*
X81382565Y-112254372D01*
X81431576Y-112235726D01*
X81432400Y-112223890D01*
X81432400Y-112543502D01*
X81408950Y-112544554D01*
X81354780Y-112707746D01*
X81347733Y-112850947D01*
X81384364Y-113123668D01*
X81516346Y-113369354D01*
X81622900Y-113500186D01*
X81769279Y-113676214D01*
X81801799Y-113745592D01*
X81726107Y-113721638D01*
X81714133Y-113715334D01*
X81515240Y-113565153D01*
X81329729Y-113357039D01*
X81204786Y-113150027D01*
X81178400Y-113045083D01*
X81122739Y-112959519D01*
X81076701Y-112966051D01*
X81076701Y-112249900D01*
X81064407Y-111964458D01*
X81001320Y-111706112D01*
X80909902Y-111479824D01*
X80909902Y-111284773D01*
X80894669Y-111077256D01*
X80878218Y-110952742D01*
X80836718Y-110731481D01*
X80797071Y-110608309D01*
X80780849Y-110598556D01*
X80769564Y-110697680D01*
X80784798Y-110905197D01*
X80801248Y-111029711D01*
X80842749Y-111250972D01*
X80882396Y-111374144D01*
X80898618Y-111383897D01*
X80909902Y-111284773D01*
X80909902Y-111479824D01*
X80900638Y-111456893D01*
X80836292Y-111668560D01*
X80787306Y-111908369D01*
X80765639Y-112176670D01*
X80772971Y-112409463D01*
X80810983Y-112542746D01*
X80813275Y-112545213D01*
X80930077Y-112585504D01*
X81024657Y-112479138D01*
X81076701Y-112249900D01*
X81076701Y-112966051D01*
X81049479Y-112969914D01*
X80900465Y-112950942D01*
X80743322Y-112842148D01*
X80646352Y-112724200D01*
X80603325Y-112587976D01*
X80605548Y-112379386D01*
X80631345Y-112145569D01*
X80662681Y-111831999D01*
X80685800Y-111475762D01*
X80700261Y-111110877D01*
X80705626Y-110771366D01*
X80701452Y-110491248D01*
X80687300Y-110304544D01*
X80662730Y-110245275D01*
X80655845Y-110252776D01*
X80588154Y-110262542D01*
X80506849Y-110117428D01*
X80505928Y-110115013D01*
X80438253Y-109893596D01*
X80422239Y-109748019D01*
X80452958Y-109705514D01*
X80525481Y-109793312D01*
X80554212Y-109848227D01*
X80678270Y-110102227D01*
X80616931Y-109805893D01*
X80588008Y-109580388D01*
X80566467Y-109248953D01*
X80556126Y-108874953D01*
X80555734Y-108789893D01*
X80578233Y-108286754D01*
X80659567Y-107890301D01*
X80820826Y-107542146D01*
X81083103Y-107183902D01*
X81174320Y-107077477D01*
X81377320Y-106808001D01*
X81542480Y-106522937D01*
X81598896Y-106387954D01*
X81724228Y-106130634D01*
X81919890Y-105851101D01*
X82025060Y-105731788D01*
X82321828Y-105486969D01*
X82596750Y-105403449D01*
X82875512Y-105480004D01*
X83143935Y-105678393D01*
X83338521Y-105895288D01*
X83532314Y-106175080D01*
X83693363Y-106463691D01*
X83789715Y-106707039D01*
X83803645Y-106794963D01*
X83868198Y-106894974D01*
X84028765Y-107035499D01*
X84093792Y-107082068D01*
X84407808Y-107394683D01*
X84636708Y-107836334D01*
X84770355Y-108384227D01*
X84796908Y-108662893D01*
X84826004Y-108990892D01*
X84871399Y-109273162D01*
X84921230Y-109443174D01*
X84970068Y-109636217D01*
X84970068Y-109636217D01*
G36*
X84988400Y-109932893D02*
X84946067Y-109975227D01*
X84903733Y-109932893D01*
X84946067Y-109890560D01*
X84988400Y-109932893D01*
X84988400Y-109932893D01*
X84988400Y-109932893D01*
G37*
X84988400Y-109932893D02*
X84946067Y-109975227D01*
X84903733Y-109932893D01*
X84946067Y-109890560D01*
X84988400Y-109932893D01*
X84988400Y-109932893D01*
D13*
X66870580Y-107645200D02*
X66870580Y-97485200D01*
X65600580Y-107645200D02*
X73220580Y-107645200D01*
X73220580Y-107645200D02*
X73220580Y-97485200D01*
X73220580Y-97485200D02*
X65600580Y-97485200D01*
X65600580Y-97485200D02*
X65600580Y-107645200D01*
X72093081Y-72310215D02*
X71093081Y-72310215D01*
X71093081Y-71929262D01*
X71140700Y-71834024D01*
X71188319Y-71786405D01*
X71283557Y-71738786D01*
X71426414Y-71738786D01*
X71521652Y-71786405D01*
X71569271Y-71834024D01*
X71616890Y-71929262D01*
X71616890Y-72310215D01*
X71426414Y-70881643D02*
X72093081Y-70881643D01*
X71045462Y-71119739D02*
X71759748Y-71357834D01*
X71759748Y-70738786D01*
X102755961Y-91357295D02*
X101755961Y-91357295D01*
X102232151Y-91357295D02*
X102232151Y-90785866D01*
X102755961Y-90785866D02*
X101755961Y-90785866D01*
X102708342Y-90357295D02*
X102755961Y-90214438D01*
X102755961Y-89976342D01*
X102708342Y-89881104D01*
X102660723Y-89833485D01*
X102565485Y-89785866D01*
X102470247Y-89785866D01*
X102375009Y-89833485D01*
X102327390Y-89881104D01*
X102279770Y-89976342D01*
X102232151Y-90166819D01*
X102184532Y-90262057D01*
X102136913Y-90309676D01*
X102041675Y-90357295D01*
X101946437Y-90357295D01*
X101851199Y-90309676D01*
X101803580Y-90262057D01*
X101755961Y-90166819D01*
X101755961Y-89928723D01*
X101803580Y-89785866D01*
X101851199Y-89404914D02*
X101803580Y-89357295D01*
X101755961Y-89262057D01*
X101755961Y-89023961D01*
X101803580Y-88928723D01*
X101851199Y-88881104D01*
X101946437Y-88833485D01*
X102041675Y-88833485D01*
X102184532Y-88881104D01*
X102755961Y-89452533D01*
X102755961Y-88833485D01*
D15*
X87779013Y-52776967D02*
X89218347Y-52776967D01*
X89387680Y-52692300D01*
X89472347Y-52607633D01*
X89557013Y-52438300D01*
X89557013Y-52099633D01*
X89472347Y-51930300D01*
X89387680Y-51845633D01*
X89218347Y-51760967D01*
X87779013Y-51760967D01*
X89557013Y-49982966D02*
X89557013Y-50998966D01*
X89557013Y-50490966D02*
X87779013Y-50490966D01*
X88033013Y-50660300D01*
X88202347Y-50829633D01*
X88287013Y-50998966D01*
X82064013Y-75679301D02*
X82064013Y-74832635D01*
X82572013Y-75848635D02*
X80794013Y-75255968D01*
X82572013Y-74663301D01*
X82572013Y-74070635D02*
X81386680Y-74070635D01*
X81725347Y-74070635D02*
X81556013Y-73985968D01*
X81471347Y-73901301D01*
X81386680Y-73731968D01*
X81386680Y-73562635D01*
X82572013Y-72207968D02*
X80794013Y-72207968D01*
X82487347Y-72207968D02*
X82572013Y-72377301D01*
X82572013Y-72715968D01*
X82487347Y-72885301D01*
X82402680Y-72969968D01*
X82233347Y-73054634D01*
X81725347Y-73054634D01*
X81556013Y-72969968D01*
X81471347Y-72885301D01*
X81386680Y-72715968D01*
X81386680Y-72377301D01*
X81471347Y-72207968D01*
X81386680Y-70599301D02*
X82572013Y-70599301D01*
X81386680Y-71361301D02*
X82318013Y-71361301D01*
X82487347Y-71276634D01*
X82572013Y-71107301D01*
X82572013Y-70853301D01*
X82487347Y-70683967D01*
X82402680Y-70599301D01*
X82572013Y-69752634D02*
X81386680Y-69752634D01*
X80794013Y-69752634D02*
X80878680Y-69837300D01*
X80963347Y-69752634D01*
X80878680Y-69667967D01*
X80794013Y-69752634D01*
X80963347Y-69752634D01*
X81386680Y-68905967D02*
X82572013Y-68905967D01*
X81556013Y-68905967D02*
X81471347Y-68821300D01*
X81386680Y-68651967D01*
X81386680Y-68397967D01*
X81471347Y-68228633D01*
X81640680Y-68143967D01*
X82572013Y-68143967D01*
X82572013Y-67043300D02*
X82487347Y-67212633D01*
X82402680Y-67297300D01*
X82233347Y-67381966D01*
X81725347Y-67381966D01*
X81556013Y-67297300D01*
X81471347Y-67212633D01*
X81386680Y-67043300D01*
X81386680Y-66789300D01*
X81471347Y-66619966D01*
X81556013Y-66535300D01*
X81725347Y-66450633D01*
X82233347Y-66450633D01*
X82402680Y-66535300D01*
X82487347Y-66619966D01*
X82572013Y-66789300D01*
X82572013Y-67043300D01*
X82741347Y-66111966D02*
X82741347Y-64757299D01*
X82572013Y-64333966D02*
X80794013Y-64333966D01*
X82572013Y-63317966D01*
X80794013Y-63317966D01*
X82572013Y-61709299D02*
X81640680Y-61709299D01*
X81471347Y-61793965D01*
X81386680Y-61963299D01*
X81386680Y-62301965D01*
X81471347Y-62471299D01*
X82487347Y-61709299D02*
X82572013Y-61878632D01*
X82572013Y-62301965D01*
X82487347Y-62471299D01*
X82318013Y-62555965D01*
X82148680Y-62555965D01*
X81979347Y-62471299D01*
X81894680Y-62301965D01*
X81894680Y-61878632D01*
X81810013Y-61709299D01*
X81386680Y-60862632D02*
X82572013Y-60862632D01*
X81556013Y-60862632D02*
X81471347Y-60777965D01*
X81386680Y-60608632D01*
X81386680Y-60354632D01*
X81471347Y-60185298D01*
X81640680Y-60100632D01*
X82572013Y-60100632D01*
X82572013Y-58999965D02*
X82487347Y-59169298D01*
X82402680Y-59253965D01*
X82233347Y-59338631D01*
X81725347Y-59338631D01*
X81556013Y-59253965D01*
X81471347Y-59169298D01*
X81386680Y-58999965D01*
X81386680Y-58745965D01*
X81471347Y-58576631D01*
X81556013Y-58491965D01*
X81725347Y-58407298D01*
X82233347Y-58407298D01*
X82402680Y-58491965D01*
X82487347Y-58576631D01*
X82572013Y-58745965D01*
X82572013Y-58999965D01*
X82741347Y-58068631D02*
X82741347Y-56713964D01*
X80794013Y-56544631D02*
X82572013Y-55951964D01*
X80794013Y-55359297D01*
X80794013Y-54935964D02*
X80794013Y-53835297D01*
X81471347Y-54427964D01*
X81471347Y-54173964D01*
X81556013Y-54004631D01*
X81640680Y-53919964D01*
X81810013Y-53835297D01*
X82233347Y-53835297D01*
X82402680Y-53919964D01*
X82487347Y-54004631D01*
X82572013Y-54173964D01*
X82572013Y-54681964D01*
X82487347Y-54851297D01*
X82402680Y-54935964D01*
D13*
X72502021Y-59518775D02*
X71502021Y-59518775D01*
X71502021Y-59137822D01*
X71549640Y-59042584D01*
X71597259Y-58994965D01*
X71692497Y-58947346D01*
X71835354Y-58947346D01*
X71930592Y-58994965D01*
X71978211Y-59042584D01*
X72025830Y-59137822D01*
X72025830Y-59518775D01*
X71502021Y-58614013D02*
X71502021Y-57994965D01*
X71882973Y-58328299D01*
X71882973Y-58185441D01*
X71930592Y-58090203D01*
X71978211Y-58042584D01*
X72073450Y-57994965D01*
X72311545Y-57994965D01*
X72406783Y-58042584D01*
X72454402Y-58090203D01*
X72502021Y-58185441D01*
X72502021Y-58471156D01*
X72454402Y-58566394D01*
X72406783Y-58614013D01*
X72209921Y-92983275D02*
X71209921Y-92983275D01*
X71209921Y-92602322D01*
X71257540Y-92507084D01*
X71305159Y-92459465D01*
X71400397Y-92411846D01*
X71543254Y-92411846D01*
X71638492Y-92459465D01*
X71686111Y-92507084D01*
X71733730Y-92602322D01*
X71733730Y-92983275D01*
X71209921Y-91507084D02*
X71209921Y-91983275D01*
X71686111Y-92030894D01*
X71638492Y-91983275D01*
X71590873Y-91888037D01*
X71590873Y-91649941D01*
X71638492Y-91554703D01*
X71686111Y-91507084D01*
X71781350Y-91459465D01*
X72019445Y-91459465D01*
X72114683Y-91507084D01*
X72162302Y-91554703D01*
X72209921Y-91649941D01*
X72209921Y-91888037D01*
X72162302Y-91983275D01*
X72114683Y-92030894D01*
X72484241Y-44019695D02*
X71484241Y-44019695D01*
X71484241Y-43638742D01*
X71531860Y-43543504D01*
X71579479Y-43495885D01*
X71674717Y-43448266D01*
X71817574Y-43448266D01*
X71912812Y-43495885D01*
X71960431Y-43543504D01*
X72008050Y-43638742D01*
X72008050Y-44019695D01*
X71484241Y-42591123D02*
X71484241Y-42781600D01*
X71531860Y-42876838D01*
X71579479Y-42924457D01*
X71722336Y-43019695D01*
X71912812Y-43067314D01*
X72293765Y-43067314D01*
X72389003Y-43019695D01*
X72436622Y-42972076D01*
X72484241Y-42876838D01*
X72484241Y-42686361D01*
X72436622Y-42591123D01*
X72389003Y-42543504D01*
X72293765Y-42495885D01*
X72055670Y-42495885D01*
X71960431Y-42543504D01*
X71912812Y-42591123D01*
X71865193Y-42686361D01*
X71865193Y-42876838D01*
X71912812Y-42972076D01*
X71960431Y-43019695D01*
X72055670Y-43067314D01*
X99003099Y-47034438D02*
X98955480Y-47129676D01*
X98860242Y-47224914D01*
X98717385Y-47367771D01*
X98669766Y-47463010D01*
X98669766Y-47558248D01*
X98907861Y-47510629D02*
X98860242Y-47605867D01*
X98765004Y-47701105D01*
X98574528Y-47748724D01*
X98241194Y-47748724D01*
X98050718Y-47701105D01*
X97955480Y-47605867D01*
X97907861Y-47510629D01*
X97907861Y-47320152D01*
X97955480Y-47224914D01*
X98050718Y-47129676D01*
X98241194Y-47082057D01*
X98574528Y-47082057D01*
X98765004Y-47129676D01*
X98860242Y-47224914D01*
X98907861Y-47320152D01*
X98907861Y-47510629D01*
X98907861Y-46129676D02*
X98907861Y-46701105D01*
X98907861Y-46415391D02*
X97907861Y-46415391D01*
X98050718Y-46510629D01*
X98145956Y-46605867D01*
X98193575Y-46701105D01*
X98876099Y-83839038D02*
X98828480Y-83934276D01*
X98733242Y-84029514D01*
X98590385Y-84172371D01*
X98542766Y-84267610D01*
X98542766Y-84362848D01*
X98780861Y-84315229D02*
X98733242Y-84410467D01*
X98638004Y-84505705D01*
X98447528Y-84553324D01*
X98114194Y-84553324D01*
X97923718Y-84505705D01*
X97828480Y-84410467D01*
X97780861Y-84315229D01*
X97780861Y-84124752D01*
X97828480Y-84029514D01*
X97923718Y-83934276D01*
X98114194Y-83886657D01*
X98447528Y-83886657D01*
X98638004Y-83934276D01*
X98733242Y-84029514D01*
X98780861Y-84124752D01*
X98780861Y-84315229D01*
X97876099Y-83505705D02*
X97828480Y-83458086D01*
X97780861Y-83362848D01*
X97780861Y-83124752D01*
X97828480Y-83029514D01*
X97876099Y-82981895D01*
X97971337Y-82934276D01*
X98066575Y-82934276D01*
X98209432Y-82981895D01*
X98780861Y-83553324D01*
X98780861Y-82934276D01*
X84193475Y-100582481D02*
X84193475Y-101392005D01*
X84241094Y-101487243D01*
X84288713Y-101534862D01*
X84383951Y-101582481D01*
X84574428Y-101582481D01*
X84669666Y-101534862D01*
X84717285Y-101487243D01*
X84764904Y-101392005D01*
X84764904Y-100582481D01*
X85145856Y-100582481D02*
X85764904Y-100582481D01*
X85431570Y-100963433D01*
X85574428Y-100963433D01*
X85669666Y-101011052D01*
X85717285Y-101058671D01*
X85764904Y-101153910D01*
X85764904Y-101392005D01*
X85717285Y-101487243D01*
X85669666Y-101534862D01*
X85574428Y-101582481D01*
X85288713Y-101582481D01*
X85193475Y-101534862D01*
X85145856Y-101487243D01*
X102971861Y-54641595D02*
X101971861Y-54641595D01*
X102448051Y-54641595D02*
X102448051Y-54070166D01*
X102971861Y-54070166D02*
X101971861Y-54070166D01*
X102924242Y-53641595D02*
X102971861Y-53498738D01*
X102971861Y-53260642D01*
X102924242Y-53165404D01*
X102876623Y-53117785D01*
X102781385Y-53070166D01*
X102686147Y-53070166D01*
X102590909Y-53117785D01*
X102543290Y-53165404D01*
X102495670Y-53260642D01*
X102448051Y-53451119D01*
X102400432Y-53546357D01*
X102352813Y-53593976D01*
X102257575Y-53641595D01*
X102162337Y-53641595D01*
X102067099Y-53593976D01*
X102019480Y-53546357D01*
X101971861Y-53451119D01*
X101971861Y-53213023D01*
X102019480Y-53070166D01*
X102971861Y-52117785D02*
X102971861Y-52689214D01*
X102971861Y-52403500D02*
X101971861Y-52403500D01*
X102114718Y-52498738D01*
X102209956Y-52593976D01*
X102257575Y-52689214D01*
X102764105Y-32892981D02*
X102764105Y-31892981D01*
X103145058Y-31892981D01*
X103240296Y-31940600D01*
X103287915Y-31988219D01*
X103335534Y-32083457D01*
X103335534Y-32226314D01*
X103287915Y-32321552D01*
X103240296Y-32369171D01*
X103145058Y-32416790D01*
X102764105Y-32416790D01*
X103906962Y-32321552D02*
X103811724Y-32273933D01*
X103764105Y-32226314D01*
X103716486Y-32131076D01*
X103716486Y-32083457D01*
X103764105Y-31988219D01*
X103811724Y-31940600D01*
X103906962Y-31892981D01*
X104097439Y-31892981D01*
X104192677Y-31940600D01*
X104240296Y-31988219D01*
X104287915Y-32083457D01*
X104287915Y-32131076D01*
X104240296Y-32226314D01*
X104192677Y-32273933D01*
X104097439Y-32321552D01*
X103906962Y-32321552D01*
X103811724Y-32369171D01*
X103764105Y-32416790D01*
X103716486Y-32512029D01*
X103716486Y-32702505D01*
X103764105Y-32797743D01*
X103811724Y-32845362D01*
X103906962Y-32892981D01*
X104097439Y-32892981D01*
X104192677Y-32845362D01*
X104240296Y-32797743D01*
X104287915Y-32702505D01*
X104287915Y-32512029D01*
X104240296Y-32416790D01*
X104192677Y-32369171D01*
X104097439Y-32321552D01*
X102611705Y-111374181D02*
X102611705Y-110374181D01*
X102992658Y-110374181D01*
X103087896Y-110421800D01*
X103135515Y-110469419D01*
X103183134Y-110564657D01*
X103183134Y-110707514D01*
X103135515Y-110802752D01*
X103087896Y-110850371D01*
X102992658Y-110897990D01*
X102611705Y-110897990D01*
X103659324Y-111374181D02*
X103849800Y-111374181D01*
X103945039Y-111326562D01*
X103992658Y-111278943D01*
X104087896Y-111136086D01*
X104135515Y-110945610D01*
X104135515Y-110564657D01*
X104087896Y-110469419D01*
X104040277Y-110421800D01*
X103945039Y-110374181D01*
X103754562Y-110374181D01*
X103659324Y-110421800D01*
X103611705Y-110469419D01*
X103564086Y-110564657D01*
X103564086Y-110802752D01*
X103611705Y-110897990D01*
X103659324Y-110945610D01*
X103754562Y-110993229D01*
X103945039Y-110993229D01*
X104040277Y-110945610D01*
X104087896Y-110897990D01*
X104135515Y-110802752D01*
X67909274Y-111318301D02*
X67909274Y-110318301D01*
X68290227Y-110318301D01*
X68385465Y-110365920D01*
X68433084Y-110413539D01*
X68480703Y-110508777D01*
X68480703Y-110651634D01*
X68433084Y-110746872D01*
X68385465Y-110794491D01*
X68290227Y-110842110D01*
X67909274Y-110842110D01*
X69433084Y-111318301D02*
X68861655Y-111318301D01*
X69147369Y-111318301D02*
X69147369Y-110318301D01*
X69052131Y-110461158D01*
X68956893Y-110556396D01*
X68861655Y-110604015D01*
X70052131Y-110318301D02*
X70147370Y-110318301D01*
X70242608Y-110365920D01*
X70290227Y-110413539D01*
X70337846Y-110508777D01*
X70385465Y-110699253D01*
X70385465Y-110937349D01*
X70337846Y-111127825D01*
X70290227Y-111223063D01*
X70242608Y-111270682D01*
X70147370Y-111318301D01*
X70052131Y-111318301D01*
X69956893Y-111270682D01*
X69909274Y-111223063D01*
X69861655Y-111127825D01*
X69814036Y-110937349D01*
X69814036Y-110699253D01*
X69861655Y-110508777D01*
X69909274Y-110413539D01*
X69956893Y-110365920D01*
X70052131Y-110318301D01*
X67797514Y-32816781D02*
X67797514Y-31816781D01*
X68178467Y-31816781D01*
X68273705Y-31864400D01*
X68321324Y-31912019D01*
X68368943Y-32007257D01*
X68368943Y-32150114D01*
X68321324Y-32245352D01*
X68273705Y-32292971D01*
X68178467Y-32340590D01*
X67797514Y-32340590D01*
X69321324Y-32816781D02*
X68749895Y-32816781D01*
X69035609Y-32816781D02*
X69035609Y-31816781D01*
X68940371Y-31959638D01*
X68845133Y-32054876D01*
X68749895Y-32102495D01*
X70273705Y-32816781D02*
X69702276Y-32816781D01*
X69987990Y-32816781D02*
X69987990Y-31816781D01*
X69892752Y-31959638D01*
X69797514Y-32054876D01*
X69702276Y-32102495D01*
X84791254Y-91146903D02*
X84743635Y-91194522D01*
X84600778Y-91242141D01*
X84505540Y-91242141D01*
X84362682Y-91194522D01*
X84267444Y-91099284D01*
X84219825Y-91004046D01*
X84172206Y-90813570D01*
X84172206Y-90670712D01*
X84219825Y-90480236D01*
X84267444Y-90384998D01*
X84362682Y-90289760D01*
X84505540Y-90242141D01*
X84600778Y-90242141D01*
X84743635Y-90289760D01*
X84791254Y-90337379D01*
X85743635Y-91242141D02*
X85172206Y-91242141D01*
X85457920Y-91242141D02*
X85457920Y-90242141D01*
X85362682Y-90384998D01*
X85267444Y-90480236D01*
X85172206Y-90527855D01*
X72339461Y-83129286D02*
X71339461Y-83129286D01*
X71339461Y-82748333D01*
X71387080Y-82653095D01*
X71434699Y-82605476D01*
X71529937Y-82557857D01*
X71672794Y-82557857D01*
X71768032Y-82605476D01*
X71815651Y-82653095D01*
X71863270Y-82748333D01*
X71863270Y-83129286D01*
X72339461Y-81605476D02*
X72339461Y-82176905D01*
X72339461Y-81891191D02*
X71339461Y-81891191D01*
X71482318Y-81986429D01*
X71577556Y-82081667D01*
X71625175Y-82176905D01*
X71434699Y-81224524D02*
X71387080Y-81176905D01*
X71339461Y-81081667D01*
X71339461Y-80843571D01*
X71387080Y-80748333D01*
X71434699Y-80700714D01*
X71529937Y-80653095D01*
X71625175Y-80653095D01*
X71768032Y-80700714D01*
X72339461Y-81272143D01*
X72339461Y-80653095D01*
X72428361Y-103277895D02*
X71428361Y-103277895D01*
X71428361Y-102896942D01*
X71475980Y-102801704D01*
X71523599Y-102754085D01*
X71618837Y-102706466D01*
X71761694Y-102706466D01*
X71856932Y-102754085D01*
X71904551Y-102801704D01*
X71952170Y-102896942D01*
X71952170Y-103277895D01*
X72428361Y-101754085D02*
X72428361Y-102325514D01*
X72428361Y-102039800D02*
X71428361Y-102039800D01*
X71571218Y-102135038D01*
X71666456Y-102230276D01*
X71714075Y-102325514D01*
M02*
