M48
;DRILL file {KiCad 4.0.4+e1-6308~48~ubuntu16.04.1-stable} date Fri Nov 18 09:56:47 2016
;FORMAT={-:-/ absolute / inch / decimal}
FMAT,2
INCH,TZ
T1C0.016
T2C0.031
T3C0.040
T4C0.060
T5C0.098
T6C0.120
%
G90
G05
M72
T1
X2.7337Y-3.1255
X3.0278Y-3.5308
T2
X3.2483Y-3.597
X3.4452Y-3.597
T3
X3.0442Y-1.8245
X3.0442Y-1.9245
X3.0442Y-2.0245
X3.0442Y-2.1245
X3.0442Y-2.2245
X3.0442Y-2.3245
X3.0442Y-2.4245
X3.0442Y-2.5245
X3.0442Y-2.6245
X3.0442Y-2.7245
X3.0442Y-2.8245
X3.0442Y-2.9245
X3.0442Y-3.0245
X3.0442Y-3.1245
X3.0442Y-3.2245
X3.2442Y-3.872
X3.3442Y-3.872
X3.4442Y-3.872
X3.6442Y-1.8245
X3.6442Y-1.9245
X3.6442Y-2.0245
X3.6442Y-2.1245
X3.6442Y-2.2245
X3.6442Y-2.3245
X3.6442Y-2.4245
X3.6442Y-2.5245
X3.6442Y-2.6245
X3.6442Y-2.7245
X3.6442Y-2.8245
X3.6442Y-2.9245
X3.6442Y-3.0245
X3.6442Y-3.1245
X3.6442Y-3.2245
X3.8712Y-3.456
X3.8712Y-3.556
X3.8712Y-3.656
X3.8762Y-2.0096
X3.8762Y-2.1096
X3.8762Y-2.2096
T4
X2.7327Y-3.938
X2.7327Y-4.138
X2.7332Y-3.531
X2.7332Y-3.731
X2.7337Y-3.1255
X2.7337Y-3.3255
X2.7347Y-2.719
X2.7347Y-2.919
X2.7357Y-1.505
X2.7357Y-1.705
X2.7357Y-1.905
X2.7357Y-2.113
X2.7357Y-2.313
X2.7357Y-2.513
T5
X4.0267Y-3.0535
X4.0267Y-4.0535
X4.0322Y-1.6065
X4.0322Y-2.6065
T6
X2.5591Y-1.2205
X2.5591Y-4.4094
X4.2126Y-1.2205
X4.2126Y-4.4094
T0
M30
