G04 #@! TF.FileFunction,Copper,L1,Top,Signal*
%FSLAX46Y46*%
G04 Gerber Fmt 4.6, Leading zero omitted, Abs format (unit mm)*
G04 Created by KiCad (PCBNEW 4.0.4+e1-6308~48~ubuntu16.04.1-stable) date Fri Nov 18 09:56:43 2016*
%MOMM*%
%LPD*%
G01*
G04 APERTURE LIST*
%ADD10C,0.100000*%
%ADD11R,2.540000X2.540000*%
%ADD12C,2.540000*%
%ADD13C,5.999480*%
%ADD14R,2.286000X1.574800*%
%ADD15O,2.286000X1.574800*%
%ADD16O,2.499360X1.501140*%
%ADD17O,1.699260X3.500120*%
%ADD18C,4.064000*%
%ADD19R,1.300000X1.300000*%
%ADD20C,1.300000*%
%ADD21C,0.600000*%
%ADD22C,3.048000*%
%ADD23C,2.032000*%
G04 APERTURE END LIST*
D10*
D11*
X69461380Y-69062600D03*
D12*
X69461380Y-74142600D03*
D13*
X102278180Y-102958900D03*
X102278180Y-77558900D03*
D14*
X77322680Y-46342300D03*
D15*
X77322680Y-48882300D03*
X77322680Y-51422300D03*
X77322680Y-53962300D03*
X77322680Y-56502300D03*
X77322680Y-59042300D03*
X77322680Y-61582300D03*
X77322680Y-64122300D03*
X77322680Y-66662300D03*
X77322680Y-69202300D03*
X77322680Y-71742300D03*
X77322680Y-74282300D03*
X77322680Y-76822300D03*
X77322680Y-79362300D03*
X77322680Y-81902300D03*
X92562680Y-81902300D03*
X92562680Y-79362300D03*
X92562680Y-76822300D03*
X92562680Y-74282300D03*
X92562680Y-71742300D03*
X92562680Y-69202300D03*
X92562680Y-66662300D03*
X92562680Y-64122300D03*
X92562680Y-61582300D03*
X92562680Y-59042300D03*
X92562680Y-56502300D03*
X92562680Y-53962300D03*
X92562680Y-51422300D03*
X92562680Y-48882300D03*
X92562680Y-46342300D03*
D11*
X69486780Y-53670200D03*
D12*
X69486780Y-58750200D03*
X69486780Y-63830200D03*
D11*
X69423280Y-89687400D03*
D12*
X69423280Y-94767400D03*
D11*
X69486780Y-38227000D03*
D12*
X69486780Y-43307000D03*
X69486780Y-48387000D03*
D16*
X98455480Y-53583840D03*
X98455480Y-51043840D03*
X98455480Y-56123840D03*
X98328480Y-90322400D03*
X98328480Y-87782400D03*
X98328480Y-92862400D03*
D17*
X84942680Y-98348800D03*
X82402680Y-98348800D03*
X87482680Y-98348800D03*
D13*
X102417880Y-40805100D03*
X102417880Y-66205100D03*
D18*
X107000000Y-31000000D03*
X107000000Y-112000000D03*
X65000000Y-112000000D03*
X65000000Y-31000000D03*
D19*
X87508080Y-91363800D03*
D20*
X82508080Y-91363800D03*
D11*
X69435980Y-79387700D03*
D12*
X69435980Y-84467700D03*
D11*
X69410580Y-100025200D03*
D12*
X69410580Y-105105200D03*
D21*
X76906120Y-89682320D03*
X69435980Y-79387700D03*
D22*
X91577160Y-87452200D02*
X79136240Y-87452200D01*
X79136240Y-87452200D02*
X76906120Y-89682320D01*
D23*
X98455480Y-56123840D02*
X98455480Y-60756800D01*
X96845120Y-82184240D02*
X91577160Y-87452200D01*
X91577160Y-87452200D02*
X91434920Y-87594440D01*
X96845120Y-62367160D02*
X96845120Y-82184240D01*
X98455480Y-60756800D02*
X96845120Y-62367160D01*
X98328480Y-92862400D02*
X96702880Y-92862400D01*
X96702880Y-92862400D02*
X91434920Y-87594440D01*
M02*
