%TF.GenerationSoftware,KiCad,Pcbnew,9.0.3-9.0.3-0~ubuntu25.04.1*%
%TF.CreationDate,2025-07-23T19:04:44+02:00*%
%TF.ProjectId,aecp_Nano_V3_hall_sensor,61656370-5f4e-4616-9e6f-5f56335f6861,rev?*%
%TF.SameCoordinates,Original*%
%TF.FileFunction,Copper,L1,Top*%
%TF.FilePolarity,Positive*%
%FSLAX46Y46*%
G04 Gerber Fmt 4.6, Leading zero omitted, Abs format (unit mm)*
G04 Created by KiCad (PCBNEW 9.0.3-9.0.3-0~ubuntu25.04.1) date 2025-07-23 19:04:44*
%MOMM*%
%LPD*%
G01*
G04 APERTURE LIST*
G04 Aperture macros list*
%AMRoundRect*
0 Rectangle with rounded corners*
0 $1 Rounding radius*
0 $2 $3 $4 $5 $6 $7 $8 $9 X,Y pos of 4 corners*
0 Add a 4 corners polygon primitive as box body*
4,1,4,$2,$3,$4,$5,$6,$7,$8,$9,$2,$3,0*
0 Add four circle primitives for the rounded corners*
1,1,$1+$1,$2,$3*
1,1,$1+$1,$4,$5*
1,1,$1+$1,$6,$7*
1,1,$1+$1,$8,$9*
0 Add four rect primitives between the rounded corners*
20,1,$1+$1,$2,$3,$4,$5,0*
20,1,$1+$1,$4,$5,$6,$7,0*
20,1,$1+$1,$6,$7,$8,$9,0*
20,1,$1+$1,$8,$9,$2,$3,0*%
G04 Aperture macros list end*
%TA.AperFunction,ComponentPad*%
%ADD10C,0.800000*%
%TD*%
%TA.AperFunction,ComponentPad*%
%ADD11C,6.000000*%
%TD*%
%TA.AperFunction,SMDPad,CuDef*%
%ADD12RoundRect,0.150000X-0.587500X-0.150000X0.587500X-0.150000X0.587500X0.150000X-0.587500X0.150000X0*%
%TD*%
%TA.AperFunction,SMDPad,CuDef*%
%ADD13RoundRect,0.225000X-0.250000X0.225000X-0.250000X-0.225000X0.250000X-0.225000X0.250000X0.225000X0*%
%TD*%
%TA.AperFunction,ComponentPad*%
%ADD14R,1.700000X1.700000*%
%TD*%
%TA.AperFunction,ComponentPad*%
%ADD15O,1.700000X1.700000*%
%TD*%
%TA.AperFunction,Conductor*%
%ADD16C,0.508000*%
%TD*%
G04 APERTURE END LIST*
D10*
%TO.P,H2,1*%
%TO.N,N/C*%
X97750000Y-110000000D03*
X98409010Y-108409010D03*
X98409010Y-111590990D03*
X100000000Y-107750000D03*
D11*
X100000000Y-110000000D03*
D10*
X100000000Y-112250000D03*
X101590990Y-108409010D03*
X101590990Y-111590990D03*
X102250000Y-110000000D03*
%TD*%
%TO.P,H1,1*%
%TO.N,N/C*%
X97750000Y-100000000D03*
X98409010Y-98409010D03*
X98409010Y-101590990D03*
X100000000Y-97750000D03*
D11*
X100000000Y-100000000D03*
D10*
X100000000Y-102250000D03*
X101590990Y-98409010D03*
X101590990Y-101590990D03*
X102250000Y-100000000D03*
%TD*%
D12*
%TO.P,U1,1,VCC*%
%TO.N,Net-(J1-Pad1)*%
X118062500Y-104050000D03*
%TO.P,U1,2,VOUT*%
%TO.N,Net-(C1-Pad1)*%
X118062500Y-105950000D03*
%TO.P,U1,3,GND*%
%TO.N,Net-(C1-Pad2)*%
X119937500Y-105000000D03*
%TD*%
D13*
%TO.P,C1,1*%
%TO.N,Net-(C1-Pad1)*%
X113538000Y-104140000D03*
%TO.P,C1,2*%
%TO.N,Net-(C1-Pad2)*%
X113538000Y-105690000D03*
%TD*%
D14*
%TO.P,J1,1,P1*%
%TO.N,Net-(J1-Pad1)*%
X94361000Y-102362000D03*
D15*
%TO.P,J1,2,P2*%
%TO.N,Net-(C1-Pad1)*%
X94361000Y-104902000D03*
%TO.P,J1,3,P3*%
%TO.N,Net-(C1-Pad2)*%
X94361000Y-107442000D03*
%TD*%
D16*
%TO.N,Net-(C1-Pad1)*%
X94742000Y-104902000D02*
X110363000Y-104902000D01*
X110363000Y-104902000D02*
X111125000Y-104140000D01*
X111125000Y-104140000D02*
X115026250Y-104140000D01*
X116836250Y-105950000D02*
X117562500Y-105950000D01*
X115026250Y-104140000D02*
X116836250Y-105950000D01*
%TO.N,Net-(C1-Pad2)*%
X109093000Y-105918000D02*
X97536000Y-105918000D01*
X113538000Y-105690000D02*
X113538000Y-106172000D01*
X112395000Y-107315000D02*
X110490000Y-107315000D01*
X96012000Y-107442000D02*
X94742000Y-107442000D01*
X118999000Y-107315000D02*
X112395000Y-107315000D01*
X113538000Y-106172000D02*
X112395000Y-107315000D01*
X120015000Y-105000000D02*
X120015000Y-106299000D01*
X120015000Y-106299000D02*
X118999000Y-107315000D01*
X110490000Y-107315000D02*
X109093000Y-105918000D01*
X97536000Y-105918000D02*
X96012000Y-107442000D01*
%TO.N,Net-(J1-Pad1)*%
X95885000Y-102362000D02*
X97409000Y-103886000D01*
X97409000Y-103886000D02*
X108839000Y-103886000D01*
X110490000Y-102235000D02*
X116713000Y-102235000D01*
X94742000Y-102362000D02*
X95885000Y-102362000D01*
X108839000Y-103886000D02*
X110490000Y-102235000D01*
X117983000Y-103505000D02*
X117983000Y-104013000D01*
X116713000Y-102235000D02*
X117983000Y-103505000D01*
%TD*%
M02*
