%TF.GenerationSoftware,KiCad,Pcbnew,9.0.3-9.0.3-0~ubuntu25.04.1*%
%TF.CreationDate,2025-07-23T19:05:47+02:00*%
%TF.ProjectId,aecp_Nano_V3_vaccum_sensor,61656370-5f4e-4616-9e6f-5f56335f7661,rev?*%
%TF.SameCoordinates,Original*%
%TF.FileFunction,Legend,Top*%
%TF.FilePolarity,Positive*%
%FSLAX46Y46*%
G04 Gerber Fmt 4.6, Leading zero omitted, Abs format (unit mm)*
G04 Created by KiCad (PCBNEW 9.0.3-9.0.3-0~ubuntu25.04.1) date 2025-07-23 19:05:47*
%MOMM*%
%LPD*%
G01*
G04 APERTURE LIST*
%ADD10C,0.300000*%
%ADD11C,0.150000*%
%ADD12C,0.100000*%
%ADD13R,1.727200X2.032000*%
%ADD14O,1.727200X2.032000*%
%ADD15R,1.300000X1.300000*%
%ADD16C,1.300000*%
%ADD17C,4.064000*%
G04 APERTURE END LIST*
D10*
X136001429Y-52650403D02*
X136001429Y-53507546D01*
X134501429Y-53078974D02*
X136001429Y-53078974D01*
X134501429Y-54221831D02*
X134572858Y-54078974D01*
X134572858Y-54078974D02*
X134644286Y-54007545D01*
X134644286Y-54007545D02*
X134787143Y-53936117D01*
X134787143Y-53936117D02*
X135215715Y-53936117D01*
X135215715Y-53936117D02*
X135358572Y-54007545D01*
X135358572Y-54007545D02*
X135430000Y-54078974D01*
X135430000Y-54078974D02*
X135501429Y-54221831D01*
X135501429Y-54221831D02*
X135501429Y-54436117D01*
X135501429Y-54436117D02*
X135430000Y-54578974D01*
X135430000Y-54578974D02*
X135358572Y-54650403D01*
X135358572Y-54650403D02*
X135215715Y-54721831D01*
X135215715Y-54721831D02*
X134787143Y-54721831D01*
X134787143Y-54721831D02*
X134644286Y-54650403D01*
X134644286Y-54650403D02*
X134572858Y-54578974D01*
X134572858Y-54578974D02*
X134501429Y-54436117D01*
X134501429Y-54436117D02*
X134501429Y-54221831D01*
X135501429Y-55150403D02*
X135501429Y-55721831D01*
X136001429Y-55364688D02*
X134715715Y-55364688D01*
X134715715Y-55364688D02*
X134572858Y-55436117D01*
X134572858Y-55436117D02*
X134501429Y-55578974D01*
X134501429Y-55578974D02*
X134501429Y-55721831D01*
X134501429Y-56436117D02*
X134572858Y-56293260D01*
X134572858Y-56293260D02*
X134644286Y-56221831D01*
X134644286Y-56221831D02*
X134787143Y-56150403D01*
X134787143Y-56150403D02*
X135215715Y-56150403D01*
X135215715Y-56150403D02*
X135358572Y-56221831D01*
X135358572Y-56221831D02*
X135430000Y-56293260D01*
X135430000Y-56293260D02*
X135501429Y-56436117D01*
X135501429Y-56436117D02*
X135501429Y-56650403D01*
X135501429Y-56650403D02*
X135430000Y-56793260D01*
X135430000Y-56793260D02*
X135358572Y-56864689D01*
X135358572Y-56864689D02*
X135215715Y-56936117D01*
X135215715Y-56936117D02*
X134787143Y-56936117D01*
X134787143Y-56936117D02*
X134644286Y-56864689D01*
X134644286Y-56864689D02*
X134572858Y-56793260D01*
X134572858Y-56793260D02*
X134501429Y-56650403D01*
X134501429Y-56650403D02*
X134501429Y-56436117D01*
X135501429Y-57364689D02*
X135501429Y-57936117D01*
X134501429Y-57578974D02*
X135787143Y-57578974D01*
X135787143Y-57578974D02*
X135930000Y-57650403D01*
X135930000Y-57650403D02*
X136001429Y-57793260D01*
X136001429Y-57793260D02*
X136001429Y-57936117D01*
X133443656Y-52721832D02*
X133515084Y-52793260D01*
X133515084Y-52793260D02*
X133586513Y-52936118D01*
X133586513Y-52936118D02*
X133586513Y-53293260D01*
X133586513Y-53293260D02*
X133515084Y-53436118D01*
X133515084Y-53436118D02*
X133443656Y-53507546D01*
X133443656Y-53507546D02*
X133300799Y-53578975D01*
X133300799Y-53578975D02*
X133157942Y-53578975D01*
X133157942Y-53578975D02*
X132943656Y-53507546D01*
X132943656Y-53507546D02*
X132086513Y-52650403D01*
X132086513Y-52650403D02*
X132086513Y-53578975D01*
X133586513Y-54507546D02*
X133586513Y-54650403D01*
X133586513Y-54650403D02*
X133515084Y-54793260D01*
X133515084Y-54793260D02*
X133443656Y-54864689D01*
X133443656Y-54864689D02*
X133300799Y-54936117D01*
X133300799Y-54936117D02*
X133015084Y-55007546D01*
X133015084Y-55007546D02*
X132657942Y-55007546D01*
X132657942Y-55007546D02*
X132372227Y-54936117D01*
X132372227Y-54936117D02*
X132229370Y-54864689D01*
X132229370Y-54864689D02*
X132157942Y-54793260D01*
X132157942Y-54793260D02*
X132086513Y-54650403D01*
X132086513Y-54650403D02*
X132086513Y-54507546D01*
X132086513Y-54507546D02*
X132157942Y-54364689D01*
X132157942Y-54364689D02*
X132229370Y-54293260D01*
X132229370Y-54293260D02*
X132372227Y-54221831D01*
X132372227Y-54221831D02*
X132657942Y-54150403D01*
X132657942Y-54150403D02*
X133015084Y-54150403D01*
X133015084Y-54150403D02*
X133300799Y-54221831D01*
X133300799Y-54221831D02*
X133443656Y-54293260D01*
X133443656Y-54293260D02*
X133515084Y-54364689D01*
X133515084Y-54364689D02*
X133586513Y-54507546D01*
X132086513Y-56436117D02*
X132086513Y-55578974D01*
X132086513Y-56007545D02*
X133586513Y-56007545D01*
X133586513Y-56007545D02*
X133372227Y-55864688D01*
X133372227Y-55864688D02*
X133229370Y-55721831D01*
X133229370Y-55721831D02*
X133157942Y-55578974D01*
X133586513Y-57721831D02*
X133586513Y-57436116D01*
X133586513Y-57436116D02*
X133515084Y-57293259D01*
X133515084Y-57293259D02*
X133443656Y-57221831D01*
X133443656Y-57221831D02*
X133229370Y-57078973D01*
X133229370Y-57078973D02*
X132943656Y-57007545D01*
X132943656Y-57007545D02*
X132372227Y-57007545D01*
X132372227Y-57007545D02*
X132229370Y-57078973D01*
X132229370Y-57078973D02*
X132157942Y-57150402D01*
X132157942Y-57150402D02*
X132086513Y-57293259D01*
X132086513Y-57293259D02*
X132086513Y-57578973D01*
X132086513Y-57578973D02*
X132157942Y-57721831D01*
X132157942Y-57721831D02*
X132229370Y-57793259D01*
X132229370Y-57793259D02*
X132372227Y-57864688D01*
X132372227Y-57864688D02*
X132729370Y-57864688D01*
X132729370Y-57864688D02*
X132872227Y-57793259D01*
X132872227Y-57793259D02*
X132943656Y-57721831D01*
X132943656Y-57721831D02*
X133015084Y-57578973D01*
X133015084Y-57578973D02*
X133015084Y-57293259D01*
X133015084Y-57293259D02*
X132943656Y-57150402D01*
X132943656Y-57150402D02*
X132872227Y-57078973D01*
X132872227Y-57078973D02*
X132729370Y-57007545D01*
X141905971Y-41015600D02*
X141905971Y-41301314D01*
X141905971Y-41301314D02*
X141834542Y-41444171D01*
X141834542Y-41444171D02*
X141691685Y-41587028D01*
X141691685Y-41587028D02*
X141405971Y-41658457D01*
X141405971Y-41658457D02*
X140905971Y-41658457D01*
X140905971Y-41658457D02*
X140620257Y-41587028D01*
X140620257Y-41587028D02*
X140477400Y-41444171D01*
X140477400Y-41444171D02*
X140405971Y-41301314D01*
X140405971Y-41301314D02*
X140405971Y-41015600D01*
X140405971Y-41015600D02*
X140477400Y-40872743D01*
X140477400Y-40872743D02*
X140620257Y-40729885D01*
X140620257Y-40729885D02*
X140905971Y-40658457D01*
X140905971Y-40658457D02*
X141405971Y-40658457D01*
X141405971Y-40658457D02*
X141691685Y-40729885D01*
X141691685Y-40729885D02*
X141834542Y-40872743D01*
X141834542Y-40872743D02*
X141905971Y-41015600D01*
X141405971Y-42944172D02*
X140405971Y-42944172D01*
X141405971Y-42301314D02*
X140620257Y-42301314D01*
X140620257Y-42301314D02*
X140477400Y-42372743D01*
X140477400Y-42372743D02*
X140405971Y-42515600D01*
X140405971Y-42515600D02*
X140405971Y-42729886D01*
X140405971Y-42729886D02*
X140477400Y-42872743D01*
X140477400Y-42872743D02*
X140548828Y-42944172D01*
X141405971Y-43444172D02*
X141405971Y-44015600D01*
X141905971Y-43658457D02*
X140620257Y-43658457D01*
X140620257Y-43658457D02*
X140477400Y-43729886D01*
X140477400Y-43729886D02*
X140405971Y-43872743D01*
X140405971Y-43872743D02*
X140405971Y-44015600D01*
X136825971Y-40708486D02*
X135325971Y-41208486D01*
X135325971Y-41208486D02*
X136825971Y-41708486D01*
X135397400Y-42851343D02*
X135325971Y-42708485D01*
X135325971Y-42708485D02*
X135325971Y-42422771D01*
X135325971Y-42422771D02*
X135397400Y-42279914D01*
X135397400Y-42279914D02*
X135468828Y-42208485D01*
X135468828Y-42208485D02*
X135611685Y-42137057D01*
X135611685Y-42137057D02*
X136040257Y-42137057D01*
X136040257Y-42137057D02*
X136183114Y-42208485D01*
X136183114Y-42208485D02*
X136254542Y-42279914D01*
X136254542Y-42279914D02*
X136325971Y-42422771D01*
X136325971Y-42422771D02*
X136325971Y-42708485D01*
X136325971Y-42708485D02*
X136254542Y-42851343D01*
X135397400Y-44137057D02*
X135325971Y-43994199D01*
X135325971Y-43994199D02*
X135325971Y-43708485D01*
X135325971Y-43708485D02*
X135397400Y-43565628D01*
X135397400Y-43565628D02*
X135468828Y-43494199D01*
X135468828Y-43494199D02*
X135611685Y-43422771D01*
X135611685Y-43422771D02*
X136040257Y-43422771D01*
X136040257Y-43422771D02*
X136183114Y-43494199D01*
X136183114Y-43494199D02*
X136254542Y-43565628D01*
X136254542Y-43565628D02*
X136325971Y-43708485D01*
X136325971Y-43708485D02*
X136325971Y-43994199D01*
X136325971Y-43994199D02*
X136254542Y-44137057D01*
X139434242Y-41542614D02*
X139505671Y-41399757D01*
X139505671Y-41399757D02*
X139505671Y-41185471D01*
X139505671Y-41185471D02*
X139434242Y-40971185D01*
X139434242Y-40971185D02*
X139291385Y-40828328D01*
X139291385Y-40828328D02*
X139148528Y-40756899D01*
X139148528Y-40756899D02*
X138862814Y-40685471D01*
X138862814Y-40685471D02*
X138648528Y-40685471D01*
X138648528Y-40685471D02*
X138362814Y-40756899D01*
X138362814Y-40756899D02*
X138219957Y-40828328D01*
X138219957Y-40828328D02*
X138077100Y-40971185D01*
X138077100Y-40971185D02*
X138005671Y-41185471D01*
X138005671Y-41185471D02*
X138005671Y-41328328D01*
X138005671Y-41328328D02*
X138077100Y-41542614D01*
X138077100Y-41542614D02*
X138148528Y-41614042D01*
X138148528Y-41614042D02*
X138648528Y-41614042D01*
X138648528Y-41614042D02*
X138648528Y-41328328D01*
X139005671Y-42256899D02*
X138005671Y-42256899D01*
X138862814Y-42256899D02*
X138934242Y-42328328D01*
X138934242Y-42328328D02*
X139005671Y-42471185D01*
X139005671Y-42471185D02*
X139005671Y-42685471D01*
X139005671Y-42685471D02*
X138934242Y-42828328D01*
X138934242Y-42828328D02*
X138791385Y-42899757D01*
X138791385Y-42899757D02*
X138005671Y-42899757D01*
X138005671Y-44256900D02*
X139505671Y-44256900D01*
X138077100Y-44256900D02*
X138005671Y-44114042D01*
X138005671Y-44114042D02*
X138005671Y-43828328D01*
X138005671Y-43828328D02*
X138077100Y-43685471D01*
X138077100Y-43685471D02*
X138148528Y-43614042D01*
X138148528Y-43614042D02*
X138291385Y-43542614D01*
X138291385Y-43542614D02*
X138719957Y-43542614D01*
X138719957Y-43542614D02*
X138862814Y-43614042D01*
X138862814Y-43614042D02*
X138934242Y-43685471D01*
X138934242Y-43685471D02*
X139005671Y-43828328D01*
X139005671Y-43828328D02*
X139005671Y-44114042D01*
X139005671Y-44114042D02*
X138934242Y-44256900D01*
D11*
X137256354Y-35720179D02*
X137256354Y-34720179D01*
X137256354Y-34720179D02*
X137637306Y-34720179D01*
X137637306Y-34720179D02*
X137732544Y-34767798D01*
X137732544Y-34767798D02*
X137780163Y-34815417D01*
X137780163Y-34815417D02*
X137827782Y-34910655D01*
X137827782Y-34910655D02*
X137827782Y-35053512D01*
X137827782Y-35053512D02*
X137780163Y-35148750D01*
X137780163Y-35148750D02*
X137732544Y-35196369D01*
X137732544Y-35196369D02*
X137637306Y-35243988D01*
X137637306Y-35243988D02*
X137256354Y-35243988D01*
X138780163Y-35720179D02*
X138208735Y-35720179D01*
X138494449Y-35720179D02*
X138494449Y-34720179D01*
X138494449Y-34720179D02*
X138399211Y-34863036D01*
X138399211Y-34863036D02*
X138303973Y-34958274D01*
X138303973Y-34958274D02*
X138208735Y-35005893D01*
X139113497Y-34720179D02*
X139732544Y-34720179D01*
X139732544Y-34720179D02*
X139399211Y-35101131D01*
X139399211Y-35101131D02*
X139542068Y-35101131D01*
X139542068Y-35101131D02*
X139637306Y-35148750D01*
X139637306Y-35148750D02*
X139684925Y-35196369D01*
X139684925Y-35196369D02*
X139732544Y-35291607D01*
X139732544Y-35291607D02*
X139732544Y-35529702D01*
X139732544Y-35529702D02*
X139684925Y-35624940D01*
X139684925Y-35624940D02*
X139637306Y-35672560D01*
X139637306Y-35672560D02*
X139542068Y-35720179D01*
X139542068Y-35720179D02*
X139256354Y-35720179D01*
X139256354Y-35720179D02*
X139161116Y-35672560D01*
X139161116Y-35672560D02*
X139113497Y-35624940D01*
X131233080Y-40387566D02*
X131280700Y-40435185D01*
X131280700Y-40435185D02*
X131328319Y-40578042D01*
X131328319Y-40578042D02*
X131328319Y-40673280D01*
X131328319Y-40673280D02*
X131280700Y-40816137D01*
X131280700Y-40816137D02*
X131185461Y-40911375D01*
X131185461Y-40911375D02*
X131090223Y-40958994D01*
X131090223Y-40958994D02*
X130899747Y-41006613D01*
X130899747Y-41006613D02*
X130756890Y-41006613D01*
X130756890Y-41006613D02*
X130566414Y-40958994D01*
X130566414Y-40958994D02*
X130471176Y-40911375D01*
X130471176Y-40911375D02*
X130375938Y-40816137D01*
X130375938Y-40816137D02*
X130328319Y-40673280D01*
X130328319Y-40673280D02*
X130328319Y-40578042D01*
X130328319Y-40578042D02*
X130375938Y-40435185D01*
X130375938Y-40435185D02*
X130423557Y-40387566D01*
X130423557Y-40006613D02*
X130375938Y-39958994D01*
X130375938Y-39958994D02*
X130328319Y-39863756D01*
X130328319Y-39863756D02*
X130328319Y-39625661D01*
X130328319Y-39625661D02*
X130375938Y-39530423D01*
X130375938Y-39530423D02*
X130423557Y-39482804D01*
X130423557Y-39482804D02*
X130518795Y-39435185D01*
X130518795Y-39435185D02*
X130614033Y-39435185D01*
X130614033Y-39435185D02*
X130756890Y-39482804D01*
X130756890Y-39482804D02*
X131328319Y-40054232D01*
X131328319Y-40054232D02*
X131328319Y-39435185D01*
X144936380Y-40400266D02*
X144984000Y-40447885D01*
X144984000Y-40447885D02*
X145031619Y-40590742D01*
X145031619Y-40590742D02*
X145031619Y-40685980D01*
X145031619Y-40685980D02*
X144984000Y-40828837D01*
X144984000Y-40828837D02*
X144888761Y-40924075D01*
X144888761Y-40924075D02*
X144793523Y-40971694D01*
X144793523Y-40971694D02*
X144603047Y-41019313D01*
X144603047Y-41019313D02*
X144460190Y-41019313D01*
X144460190Y-41019313D02*
X144269714Y-40971694D01*
X144269714Y-40971694D02*
X144174476Y-40924075D01*
X144174476Y-40924075D02*
X144079238Y-40828837D01*
X144079238Y-40828837D02*
X144031619Y-40685980D01*
X144031619Y-40685980D02*
X144031619Y-40590742D01*
X144031619Y-40590742D02*
X144079238Y-40447885D01*
X144079238Y-40447885D02*
X144126857Y-40400266D01*
X144031619Y-40066932D02*
X144031619Y-39447885D01*
X144031619Y-39447885D02*
X144412571Y-39781218D01*
X144412571Y-39781218D02*
X144412571Y-39638361D01*
X144412571Y-39638361D02*
X144460190Y-39543123D01*
X144460190Y-39543123D02*
X144507809Y-39495504D01*
X144507809Y-39495504D02*
X144603047Y-39447885D01*
X144603047Y-39447885D02*
X144841142Y-39447885D01*
X144841142Y-39447885D02*
X144936380Y-39495504D01*
X144936380Y-39495504D02*
X144984000Y-39543123D01*
X144984000Y-39543123D02*
X145031619Y-39638361D01*
X145031619Y-39638361D02*
X145031619Y-39924075D01*
X145031619Y-39924075D02*
X144984000Y-40019313D01*
X144984000Y-40019313D02*
X144936380Y-40066932D01*
X129887814Y-34935319D02*
X129887814Y-33935319D01*
X129887814Y-33935319D02*
X130268766Y-33935319D01*
X130268766Y-33935319D02*
X130364004Y-33982938D01*
X130364004Y-33982938D02*
X130411623Y-34030557D01*
X130411623Y-34030557D02*
X130459242Y-34125795D01*
X130459242Y-34125795D02*
X130459242Y-34268652D01*
X130459242Y-34268652D02*
X130411623Y-34363890D01*
X130411623Y-34363890D02*
X130364004Y-34411509D01*
X130364004Y-34411509D02*
X130268766Y-34459128D01*
X130268766Y-34459128D02*
X129887814Y-34459128D01*
X131411623Y-34935319D02*
X130840195Y-34935319D01*
X131125909Y-34935319D02*
X131125909Y-33935319D01*
X131125909Y-33935319D02*
X131030671Y-34078176D01*
X131030671Y-34078176D02*
X130935433Y-34173414D01*
X130935433Y-34173414D02*
X130840195Y-34221033D01*
X132316385Y-33935319D02*
X131840195Y-33935319D01*
X131840195Y-33935319D02*
X131792576Y-34411509D01*
X131792576Y-34411509D02*
X131840195Y-34363890D01*
X131840195Y-34363890D02*
X131935433Y-34316271D01*
X131935433Y-34316271D02*
X132173528Y-34316271D01*
X132173528Y-34316271D02*
X132268766Y-34363890D01*
X132268766Y-34363890D02*
X132316385Y-34411509D01*
X132316385Y-34411509D02*
X132364004Y-34506747D01*
X132364004Y-34506747D02*
X132364004Y-34744842D01*
X132364004Y-34744842D02*
X132316385Y-34840080D01*
X132316385Y-34840080D02*
X132268766Y-34887700D01*
X132268766Y-34887700D02*
X132173528Y-34935319D01*
X132173528Y-34935319D02*
X131935433Y-34935319D01*
X131935433Y-34935319D02*
X131840195Y-34887700D01*
X131840195Y-34887700D02*
X131792576Y-34840080D01*
X144747114Y-34897219D02*
X144747114Y-33897219D01*
X144747114Y-33897219D02*
X145128066Y-33897219D01*
X145128066Y-33897219D02*
X145223304Y-33944838D01*
X145223304Y-33944838D02*
X145270923Y-33992457D01*
X145270923Y-33992457D02*
X145318542Y-34087695D01*
X145318542Y-34087695D02*
X145318542Y-34230552D01*
X145318542Y-34230552D02*
X145270923Y-34325790D01*
X145270923Y-34325790D02*
X145223304Y-34373409D01*
X145223304Y-34373409D02*
X145128066Y-34421028D01*
X145128066Y-34421028D02*
X144747114Y-34421028D01*
X146270923Y-34897219D02*
X145699495Y-34897219D01*
X145985209Y-34897219D02*
X145985209Y-33897219D01*
X145985209Y-33897219D02*
X145889971Y-34040076D01*
X145889971Y-34040076D02*
X145794733Y-34135314D01*
X145794733Y-34135314D02*
X145699495Y-34182933D01*
X147128066Y-33897219D02*
X146937590Y-33897219D01*
X146937590Y-33897219D02*
X146842352Y-33944838D01*
X146842352Y-33944838D02*
X146794733Y-33992457D01*
X146794733Y-33992457D02*
X146699495Y-34135314D01*
X146699495Y-34135314D02*
X146651876Y-34325790D01*
X146651876Y-34325790D02*
X146651876Y-34706742D01*
X146651876Y-34706742D02*
X146699495Y-34801980D01*
X146699495Y-34801980D02*
X146747114Y-34849600D01*
X146747114Y-34849600D02*
X146842352Y-34897219D01*
X146842352Y-34897219D02*
X147032828Y-34897219D01*
X147032828Y-34897219D02*
X147128066Y-34849600D01*
X147128066Y-34849600D02*
X147175685Y-34801980D01*
X147175685Y-34801980D02*
X147223304Y-34706742D01*
X147223304Y-34706742D02*
X147223304Y-34468647D01*
X147223304Y-34468647D02*
X147175685Y-34373409D01*
X147175685Y-34373409D02*
X147128066Y-34325790D01*
X147128066Y-34325790D02*
X147032828Y-34278171D01*
X147032828Y-34278171D02*
X146842352Y-34278171D01*
X146842352Y-34278171D02*
X146747114Y-34325790D01*
X146747114Y-34325790D02*
X146699495Y-34373409D01*
X146699495Y-34373409D02*
X146651876Y-34468647D01*
X133784714Y-66854619D02*
X133784714Y-65854619D01*
X133784714Y-65854619D02*
X134165666Y-65854619D01*
X134165666Y-65854619D02*
X134260904Y-65902238D01*
X134260904Y-65902238D02*
X134308523Y-65949857D01*
X134308523Y-65949857D02*
X134356142Y-66045095D01*
X134356142Y-66045095D02*
X134356142Y-66187952D01*
X134356142Y-66187952D02*
X134308523Y-66283190D01*
X134308523Y-66283190D02*
X134260904Y-66330809D01*
X134260904Y-66330809D02*
X134165666Y-66378428D01*
X134165666Y-66378428D02*
X133784714Y-66378428D01*
X135308523Y-66854619D02*
X134737095Y-66854619D01*
X135022809Y-66854619D02*
X135022809Y-65854619D01*
X135022809Y-65854619D02*
X134927571Y-65997476D01*
X134927571Y-65997476D02*
X134832333Y-66092714D01*
X134832333Y-66092714D02*
X134737095Y-66140333D01*
X135641857Y-65854619D02*
X136308523Y-65854619D01*
X136308523Y-65854619D02*
X135879952Y-66854619D01*
X140784714Y-66854619D02*
X140784714Y-65854619D01*
X140784714Y-65854619D02*
X141165666Y-65854619D01*
X141165666Y-65854619D02*
X141260904Y-65902238D01*
X141260904Y-65902238D02*
X141308523Y-65949857D01*
X141308523Y-65949857D02*
X141356142Y-66045095D01*
X141356142Y-66045095D02*
X141356142Y-66187952D01*
X141356142Y-66187952D02*
X141308523Y-66283190D01*
X141308523Y-66283190D02*
X141260904Y-66330809D01*
X141260904Y-66330809D02*
X141165666Y-66378428D01*
X141165666Y-66378428D02*
X140784714Y-66378428D01*
X142308523Y-66854619D02*
X141737095Y-66854619D01*
X142022809Y-66854619D02*
X142022809Y-65854619D01*
X142022809Y-65854619D02*
X141927571Y-65997476D01*
X141927571Y-65997476D02*
X141832333Y-66092714D01*
X141832333Y-66092714D02*
X141737095Y-66140333D01*
X142879952Y-66283190D02*
X142784714Y-66235571D01*
X142784714Y-66235571D02*
X142737095Y-66187952D01*
X142737095Y-66187952D02*
X142689476Y-66092714D01*
X142689476Y-66092714D02*
X142689476Y-66045095D01*
X142689476Y-66045095D02*
X142737095Y-65949857D01*
X142737095Y-65949857D02*
X142784714Y-65902238D01*
X142784714Y-65902238D02*
X142879952Y-65854619D01*
X142879952Y-65854619D02*
X143070428Y-65854619D01*
X143070428Y-65854619D02*
X143165666Y-65902238D01*
X143165666Y-65902238D02*
X143213285Y-65949857D01*
X143213285Y-65949857D02*
X143260904Y-66045095D01*
X143260904Y-66045095D02*
X143260904Y-66092714D01*
X143260904Y-66092714D02*
X143213285Y-66187952D01*
X143213285Y-66187952D02*
X143165666Y-66235571D01*
X143165666Y-66235571D02*
X143070428Y-66283190D01*
X143070428Y-66283190D02*
X142879952Y-66283190D01*
X142879952Y-66283190D02*
X142784714Y-66330809D01*
X142784714Y-66330809D02*
X142737095Y-66378428D01*
X142737095Y-66378428D02*
X142689476Y-66473666D01*
X142689476Y-66473666D02*
X142689476Y-66664142D01*
X142689476Y-66664142D02*
X142737095Y-66759380D01*
X142737095Y-66759380D02*
X142784714Y-66807000D01*
X142784714Y-66807000D02*
X142879952Y-66854619D01*
X142879952Y-66854619D02*
X143070428Y-66854619D01*
X143070428Y-66854619D02*
X143165666Y-66807000D01*
X143165666Y-66807000D02*
X143213285Y-66759380D01*
X143213285Y-66759380D02*
X143260904Y-66664142D01*
X143260904Y-66664142D02*
X143260904Y-66473666D01*
X143260904Y-66473666D02*
X143213285Y-66378428D01*
X143213285Y-66378428D02*
X143165666Y-66330809D01*
X143165666Y-66330809D02*
X143070428Y-66283190D01*
%TO.C,P13*%
X134428900Y-36219800D02*
X134428900Y-39319800D01*
X134428900Y-39319800D02*
X135978900Y-39319800D01*
X135978900Y-36219800D02*
X134428900Y-36219800D01*
X137248900Y-36499800D02*
X142328900Y-36499800D01*
X137248900Y-39039800D02*
X137248900Y-36499800D01*
X142328900Y-36499800D02*
X142328900Y-39039800D01*
X142328900Y-39039800D02*
X137248900Y-39039800D01*
%TO.C,C2*%
X129961700Y-36773600D02*
X133461700Y-36773600D01*
X129961700Y-43773600D02*
X129961700Y-36773600D01*
X133461700Y-36773600D02*
X133461700Y-43773600D01*
X133461700Y-43773600D02*
X129961700Y-43773600D01*
%TO.C,C3*%
X143601500Y-36773600D02*
X147101500Y-36773600D01*
X143601500Y-43773600D02*
X143601500Y-36773600D01*
X147101500Y-36773600D02*
X147101500Y-43773600D01*
X147101500Y-43773600D02*
X143601500Y-43773600D01*
D12*
%TO.C,G1*%
X142100300Y-57508987D02*
X142057967Y-57551320D01*
X142015633Y-57508987D01*
X142057967Y-57466653D01*
X142100300Y-57508987D01*
G36*
X142100300Y-57508987D02*
G01*
X142057967Y-57551320D01*
X142015633Y-57508987D01*
X142057967Y-57466653D01*
X142100300Y-57508987D01*
G37*
X142285346Y-53015878D02*
X142197548Y-53088401D01*
X142142633Y-53117132D01*
X141888633Y-53241190D01*
X142184967Y-53179851D01*
X142410472Y-53150928D01*
X142741907Y-53129387D01*
X143115907Y-53119046D01*
X143200967Y-53118654D01*
X143704106Y-53141153D01*
X144100559Y-53222487D01*
X144448714Y-53383746D01*
X144806958Y-53646023D01*
X144913383Y-53737240D01*
X145182859Y-53940240D01*
X145467923Y-54105400D01*
X145602906Y-54161816D01*
X145860226Y-54287148D01*
X146139759Y-54482810D01*
X146259072Y-54587980D01*
X146503891Y-54884748D01*
X146587411Y-55159670D01*
X146510856Y-55438432D01*
X146312467Y-55706855D01*
X146095572Y-55901441D01*
X145815780Y-56095234D01*
X145527169Y-56256283D01*
X145283821Y-56352635D01*
X145195897Y-56366565D01*
X145095886Y-56431118D01*
X144955361Y-56591685D01*
X144908792Y-56656712D01*
X144596177Y-56970728D01*
X144154526Y-57199628D01*
X143606633Y-57333275D01*
X143327967Y-57359828D01*
X142999968Y-57388924D01*
X142717698Y-57434319D01*
X142547686Y-57484150D01*
X142354643Y-57532988D01*
X142249858Y-57485375D01*
X142119484Y-57448229D01*
X141838352Y-57418698D01*
X141763150Y-57414940D01*
X141424918Y-57398038D01*
X140897636Y-57387503D01*
X140799968Y-57386820D01*
X140329542Y-57379085D01*
X139910047Y-57362392D01*
X139574743Y-57338814D01*
X139356894Y-57310425D01*
X139298630Y-57293215D01*
X139286879Y-57279231D01*
X139256961Y-57243631D01*
X141691943Y-57243631D01*
X141705189Y-57269098D01*
X141805669Y-57279231D01*
X141818078Y-57269098D01*
X141806456Y-57218763D01*
X141761633Y-57212653D01*
X141691943Y-57243631D01*
X139256961Y-57243631D01*
X139178243Y-57149961D01*
X141982330Y-57149961D01*
X142038119Y-57208928D01*
X142184967Y-57293206D01*
X142381669Y-57383667D01*
X142507998Y-57414940D01*
X142523500Y-57409735D01*
X142507119Y-57334969D01*
X142386471Y-57240973D01*
X142218005Y-57161844D01*
X142062951Y-57131535D01*
X141982330Y-57149961D01*
X139178243Y-57149961D01*
X139172596Y-57143242D01*
X139169411Y-57122750D01*
X139142204Y-56947746D01*
X139475633Y-56947746D01*
X139495522Y-57057100D01*
X139584021Y-57109187D01*
X139784381Y-57122750D01*
X139877800Y-57122036D01*
X140030810Y-57112775D01*
X140155517Y-57105227D01*
X140383159Y-57069869D01*
X140443110Y-57052174D01*
X140552717Y-56996379D01*
X140507777Y-56951374D01*
X140465308Y-56934178D01*
X140301061Y-56891604D01*
X140043501Y-56844711D01*
X139899998Y-56823798D01*
X139649436Y-56796507D01*
X139523523Y-56809633D01*
X139479912Y-56875547D01*
X139475633Y-56947746D01*
X139142204Y-56947746D01*
X139139778Y-56932142D01*
X139212759Y-56747691D01*
X139219427Y-56740726D01*
X139210035Y-56690519D01*
X139043430Y-56683847D01*
X138979321Y-56689027D01*
X138743099Y-56687919D01*
X138574650Y-56603431D01*
X138438740Y-56460693D01*
X138328377Y-56280080D01*
X138273134Y-56189673D01*
X138199082Y-55987742D01*
X138553556Y-55987742D01*
X138595628Y-56111546D01*
X138708067Y-56193674D01*
X138944135Y-56280080D01*
X139088113Y-56246488D01*
X139122440Y-56097228D01*
X139121689Y-56091685D01*
X139025821Y-55922732D01*
X138881107Y-55874984D01*
X139290422Y-55874984D01*
X139299087Y-55921824D01*
X139418512Y-56097297D01*
X139604713Y-56316433D01*
X139689808Y-56405183D01*
X140001014Y-56634021D01*
X140405318Y-56821409D01*
X140826833Y-56936748D01*
X141062331Y-56958653D01*
X141196675Y-56987363D01*
X141211300Y-57043320D01*
X141230119Y-57105946D01*
X141377246Y-57112775D01*
X141621015Y-57063529D01*
X141676967Y-57047412D01*
X141804441Y-57003301D01*
X141794453Y-56973844D01*
X141633153Y-56940392D01*
X141592300Y-56933410D01*
X141317065Y-56891800D01*
X140990485Y-56849135D01*
X140893529Y-56837794D01*
X140632043Y-56771231D01*
X140492191Y-56735631D01*
X141861277Y-56735631D01*
X141874522Y-56761098D01*
X141975002Y-56771231D01*
X141987411Y-56761098D01*
X141975789Y-56710763D01*
X141930967Y-56704653D01*
X141861277Y-56735631D01*
X140492191Y-56735631D01*
X140326561Y-56693469D01*
X140178999Y-56605193D01*
X139827110Y-56394684D01*
X139516692Y-56093740D01*
X139386045Y-55953637D01*
X139986460Y-55953637D01*
X140053984Y-56110942D01*
X140194354Y-56246152D01*
X140396581Y-56335119D01*
X140689282Y-56415128D01*
X140892854Y-56451682D01*
X141197143Y-56499580D01*
X141458272Y-56550642D01*
X141572392Y-56579768D01*
X141707741Y-56605193D01*
X141722322Y-56536341D01*
X141706170Y-56489301D01*
X141688966Y-56385611D01*
X141747245Y-56399427D01*
X141812494Y-56381740D01*
X141848367Y-56218544D01*
X141857446Y-56053483D01*
X141865688Y-55822524D01*
X141877472Y-55749782D01*
X141899154Y-55824167D01*
X141920946Y-55942653D01*
X141972874Y-56141803D01*
X142071746Y-56223472D01*
X142269633Y-56238987D01*
X142467274Y-56226208D01*
X142544077Y-56158554D01*
X142544878Y-56126110D01*
X142548187Y-55992042D01*
X142547686Y-55984987D01*
X142473474Y-55709841D01*
X142289195Y-55536301D01*
X141981482Y-55457112D01*
X141582212Y-55460990D01*
X141190364Y-55474237D01*
X140959415Y-55435421D01*
X140914527Y-55407632D01*
X140840933Y-55362478D01*
X140843051Y-55454797D01*
X140851210Y-55490589D01*
X140854373Y-55618425D01*
X140758103Y-55694102D01*
X140587562Y-55740969D01*
X140341706Y-55782027D01*
X140147682Y-55793157D01*
X140131800Y-55791865D01*
X140010139Y-55830860D01*
X139986460Y-55953637D01*
X139386045Y-55953637D01*
X139367157Y-55933382D01*
X139290422Y-55874984D01*
X138881107Y-55874984D01*
X138833396Y-55859242D01*
X138666355Y-55890502D01*
X138553556Y-55987742D01*
X138199082Y-55987742D01*
X138146047Y-55843123D01*
X138113334Y-55688653D01*
X138104369Y-55646320D01*
X140237633Y-55646320D01*
X140279967Y-55688653D01*
X140322300Y-55646320D01*
X140279967Y-55603987D01*
X140237633Y-55646320D01*
X138104369Y-55646320D01*
X138067891Y-55474074D01*
X138050813Y-55166792D01*
X139229794Y-55166792D01*
X139249062Y-55371454D01*
X139338316Y-55461312D01*
X139496758Y-55449256D01*
X139607855Y-55302597D01*
X139644967Y-55082032D01*
X139709245Y-54852781D01*
X139813091Y-54757967D01*
X139926982Y-54709134D01*
X139940227Y-54764866D01*
X139897758Y-54887500D01*
X139824004Y-55147392D01*
X139850484Y-55340545D01*
X139968245Y-55521341D01*
X140049890Y-55615174D01*
X140094449Y-55625090D01*
X140111039Y-55526158D01*
X140108775Y-55293447D01*
X140104372Y-55149077D01*
X140107070Y-54855749D01*
X140131435Y-54634224D01*
X140170586Y-54534764D01*
X140221083Y-54573713D01*
X140237805Y-54757088D01*
X140234756Y-54852908D01*
X140223014Y-55170684D01*
X140233235Y-55346964D01*
X140269581Y-55408650D01*
X140318602Y-55394605D01*
X140371168Y-55282400D01*
X140363694Y-55241442D01*
X140391166Y-55116405D01*
X140504080Y-54934333D01*
X140544498Y-54884320D01*
X140761179Y-54630320D01*
X140704835Y-54960623D01*
X140648490Y-55290925D01*
X141259480Y-55239702D01*
X141741031Y-55226722D01*
X142098743Y-55289509D01*
X142366088Y-55441164D01*
X142576536Y-55694788D01*
X142622865Y-55773303D01*
X142819967Y-56126110D01*
X143270314Y-56082229D01*
X143548937Y-56039126D01*
X143767695Y-55977014D01*
X143841814Y-55937800D01*
X143942324Y-55757110D01*
X143952295Y-55502858D01*
X143875549Y-55260179D01*
X143835945Y-55084924D01*
X143867292Y-54812912D01*
X143913373Y-54617234D01*
X143981736Y-54171156D01*
X143921759Y-53828133D01*
X143728923Y-53575713D01*
X143483964Y-53433958D01*
X143213147Y-53336614D01*
X142959554Y-53271419D01*
X142760028Y-53243763D01*
X142651409Y-53259036D01*
X142661548Y-53313641D01*
X142800426Y-53387033D01*
X143033956Y-53448272D01*
X143127215Y-53462801D01*
X143495079Y-53556507D01*
X143715518Y-53728179D01*
X143793389Y-53981728D01*
X143793633Y-53999526D01*
X143782012Y-54148953D01*
X143714602Y-54198700D01*
X143542581Y-54174681D01*
X143486948Y-54162318D01*
X143259084Y-54092814D01*
X143101564Y-54012872D01*
X143089015Y-54001901D01*
X142938855Y-53915513D01*
X142814493Y-53989696D01*
X142709202Y-54228568D01*
X142707100Y-54235536D01*
X142584126Y-54539706D01*
X142410852Y-54735411D01*
X142152065Y-54844499D01*
X141772548Y-54888818D01*
X141648311Y-54892454D01*
X141041967Y-54903122D01*
X141549967Y-54851388D01*
X141937138Y-54782722D01*
X142207023Y-54659857D01*
X142283961Y-54599831D01*
X142481490Y-54368182D01*
X142573698Y-54139890D01*
X142564051Y-53948227D01*
X142456016Y-53826465D01*
X142253059Y-53807876D01*
X142202623Y-53819133D01*
X142000215Y-53940333D01*
X141915143Y-54128372D01*
X141881832Y-54246251D01*
X141868322Y-54216037D01*
X141871498Y-54027939D01*
X141872810Y-53995320D01*
X141911313Y-53725355D01*
X141989651Y-53538971D01*
X142015633Y-53511179D01*
X142087955Y-53425210D01*
X142043672Y-53397458D01*
X141923000Y-53422254D01*
X141766152Y-53493925D01*
X141667218Y-53560317D01*
X141465349Y-53660281D01*
X141166235Y-53743615D01*
X140957300Y-53777993D01*
X140366756Y-53901130D01*
X139905701Y-54120019D01*
X139558629Y-54442939D01*
X139466031Y-54574431D01*
X139303764Y-54889682D01*
X139229794Y-55166792D01*
X138050813Y-55166792D01*
X138049077Y-55135555D01*
X138070613Y-55027761D01*
X139041409Y-55027761D01*
X139083165Y-55004264D01*
X139138719Y-54909369D01*
X139214836Y-54757320D01*
X139278567Y-54616743D01*
X139260496Y-54617267D01*
X139183971Y-54710002D01*
X139107313Y-54831187D01*
X139053828Y-54954519D01*
X139041409Y-55027761D01*
X138070613Y-55027761D01*
X138100014Y-54880599D01*
X138120967Y-54841987D01*
X138187117Y-54762943D01*
X138204321Y-54832543D01*
X138204337Y-54833942D01*
X138226299Y-54906218D01*
X138315369Y-54857987D01*
X138353800Y-54825914D01*
X138504118Y-54718567D01*
X138746904Y-54566391D01*
X138988800Y-54425578D01*
X139298189Y-54229079D01*
X139451011Y-54076753D01*
X139447358Y-53995320D01*
X139446306Y-53971870D01*
X139366819Y-53945485D01*
X139736488Y-53945485D01*
X139755134Y-53994496D01*
X139766970Y-53995320D01*
X139838583Y-53935183D01*
X139864718Y-53897571D01*
X139874698Y-53839634D01*
X139827382Y-53860235D01*
X139736488Y-53945485D01*
X139366819Y-53945485D01*
X139283114Y-53917700D01*
X139139913Y-53910653D01*
X138867192Y-53947284D01*
X138621506Y-54079266D01*
X138490674Y-54185820D01*
X138314646Y-54332199D01*
X138245268Y-54364719D01*
X138269222Y-54289027D01*
X138275526Y-54277053D01*
X138425707Y-54078160D01*
X138633821Y-53892649D01*
X138840833Y-53767706D01*
X138945777Y-53741320D01*
X139031341Y-53685659D01*
X139024809Y-53639621D01*
X139020946Y-53612399D01*
X139036148Y-53492997D01*
X139405356Y-53492997D01*
X139511722Y-53587577D01*
X139740960Y-53639621D01*
X140026402Y-53627327D01*
X140284748Y-53564240D01*
X140511036Y-53472822D01*
X140533967Y-53463558D01*
X140527322Y-53461538D01*
X140606963Y-53461538D01*
X140706087Y-53472822D01*
X140913604Y-53457589D01*
X141038118Y-53441138D01*
X141259379Y-53399638D01*
X141382551Y-53359991D01*
X141392304Y-53343769D01*
X141293180Y-53332484D01*
X141085663Y-53347718D01*
X140961149Y-53364168D01*
X140739888Y-53405669D01*
X140616716Y-53445316D01*
X140606963Y-53461538D01*
X140527322Y-53461538D01*
X140322300Y-53399212D01*
X140082491Y-53350226D01*
X139814190Y-53328559D01*
X139581397Y-53335891D01*
X139448114Y-53373903D01*
X139445647Y-53376195D01*
X139405356Y-53492997D01*
X139036148Y-53492997D01*
X139039918Y-53463385D01*
X139148712Y-53306242D01*
X139266660Y-53209272D01*
X139402884Y-53166245D01*
X139611474Y-53168468D01*
X139845291Y-53194265D01*
X140158861Y-53225601D01*
X140515098Y-53248720D01*
X140879983Y-53263181D01*
X141219494Y-53268546D01*
X141499612Y-53264372D01*
X141686316Y-53250220D01*
X141745585Y-53225650D01*
X141738084Y-53218765D01*
X141728318Y-53151074D01*
X141873432Y-53069769D01*
X141875847Y-53068848D01*
X142097264Y-53001173D01*
X142242841Y-52985159D01*
X142285346Y-53015878D01*
G36*
X142285346Y-53015878D02*
G01*
X142197548Y-53088401D01*
X142142633Y-53117132D01*
X141888633Y-53241190D01*
X142184967Y-53179851D01*
X142410472Y-53150928D01*
X142741907Y-53129387D01*
X143115907Y-53119046D01*
X143200967Y-53118654D01*
X143704106Y-53141153D01*
X144100559Y-53222487D01*
X144448714Y-53383746D01*
X144806958Y-53646023D01*
X144913383Y-53737240D01*
X145182859Y-53940240D01*
X145467923Y-54105400D01*
X145602906Y-54161816D01*
X145860226Y-54287148D01*
X146139759Y-54482810D01*
X146259072Y-54587980D01*
X146503891Y-54884748D01*
X146587411Y-55159670D01*
X146510856Y-55438432D01*
X146312467Y-55706855D01*
X146095572Y-55901441D01*
X145815780Y-56095234D01*
X145527169Y-56256283D01*
X145283821Y-56352635D01*
X145195897Y-56366565D01*
X145095886Y-56431118D01*
X144955361Y-56591685D01*
X144908792Y-56656712D01*
X144596177Y-56970728D01*
X144154526Y-57199628D01*
X143606633Y-57333275D01*
X143327967Y-57359828D01*
X142999968Y-57388924D01*
X142717698Y-57434319D01*
X142547686Y-57484150D01*
X142354643Y-57532988D01*
X142249858Y-57485375D01*
X142119484Y-57448229D01*
X141838352Y-57418698D01*
X141763150Y-57414940D01*
X141424918Y-57398038D01*
X140897636Y-57387503D01*
X140799968Y-57386820D01*
X140329542Y-57379085D01*
X139910047Y-57362392D01*
X139574743Y-57338814D01*
X139356894Y-57310425D01*
X139298630Y-57293215D01*
X139286879Y-57279231D01*
X139256961Y-57243631D01*
X141691943Y-57243631D01*
X141705189Y-57269098D01*
X141805669Y-57279231D01*
X141818078Y-57269098D01*
X141806456Y-57218763D01*
X141761633Y-57212653D01*
X141691943Y-57243631D01*
X139256961Y-57243631D01*
X139178243Y-57149961D01*
X141982330Y-57149961D01*
X142038119Y-57208928D01*
X142184967Y-57293206D01*
X142381669Y-57383667D01*
X142507998Y-57414940D01*
X142523500Y-57409735D01*
X142507119Y-57334969D01*
X142386471Y-57240973D01*
X142218005Y-57161844D01*
X142062951Y-57131535D01*
X141982330Y-57149961D01*
X139178243Y-57149961D01*
X139172596Y-57143242D01*
X139169411Y-57122750D01*
X139142204Y-56947746D01*
X139475633Y-56947746D01*
X139495522Y-57057100D01*
X139584021Y-57109187D01*
X139784381Y-57122750D01*
X139877800Y-57122036D01*
X140030810Y-57112775D01*
X140155517Y-57105227D01*
X140383159Y-57069869D01*
X140443110Y-57052174D01*
X140552717Y-56996379D01*
X140507777Y-56951374D01*
X140465308Y-56934178D01*
X140301061Y-56891604D01*
X140043501Y-56844711D01*
X139899998Y-56823798D01*
X139649436Y-56796507D01*
X139523523Y-56809633D01*
X139479912Y-56875547D01*
X139475633Y-56947746D01*
X139142204Y-56947746D01*
X139139778Y-56932142D01*
X139212759Y-56747691D01*
X139219427Y-56740726D01*
X139210035Y-56690519D01*
X139043430Y-56683847D01*
X138979321Y-56689027D01*
X138743099Y-56687919D01*
X138574650Y-56603431D01*
X138438740Y-56460693D01*
X138328377Y-56280080D01*
X138273134Y-56189673D01*
X138199082Y-55987742D01*
X138553556Y-55987742D01*
X138595628Y-56111546D01*
X138708067Y-56193674D01*
X138944135Y-56280080D01*
X139088113Y-56246488D01*
X139122440Y-56097228D01*
X139121689Y-56091685D01*
X139025821Y-55922732D01*
X138881107Y-55874984D01*
X139290422Y-55874984D01*
X139299087Y-55921824D01*
X139418512Y-56097297D01*
X139604713Y-56316433D01*
X139689808Y-56405183D01*
X140001014Y-56634021D01*
X140405318Y-56821409D01*
X140826833Y-56936748D01*
X141062331Y-56958653D01*
X141196675Y-56987363D01*
X141211300Y-57043320D01*
X141230119Y-57105946D01*
X141377246Y-57112775D01*
X141621015Y-57063529D01*
X141676967Y-57047412D01*
X141804441Y-57003301D01*
X141794453Y-56973844D01*
X141633153Y-56940392D01*
X141592300Y-56933410D01*
X141317065Y-56891800D01*
X140990485Y-56849135D01*
X140893529Y-56837794D01*
X140632043Y-56771231D01*
X140492191Y-56735631D01*
X141861277Y-56735631D01*
X141874522Y-56761098D01*
X141975002Y-56771231D01*
X141987411Y-56761098D01*
X141975789Y-56710763D01*
X141930967Y-56704653D01*
X141861277Y-56735631D01*
X140492191Y-56735631D01*
X140326561Y-56693469D01*
X140178999Y-56605193D01*
X139827110Y-56394684D01*
X139516692Y-56093740D01*
X139386045Y-55953637D01*
X139986460Y-55953637D01*
X140053984Y-56110942D01*
X140194354Y-56246152D01*
X140396581Y-56335119D01*
X140689282Y-56415128D01*
X140892854Y-56451682D01*
X141197143Y-56499580D01*
X141458272Y-56550642D01*
X141572392Y-56579768D01*
X141707741Y-56605193D01*
X141722322Y-56536341D01*
X141706170Y-56489301D01*
X141688966Y-56385611D01*
X141747245Y-56399427D01*
X141812494Y-56381740D01*
X141848367Y-56218544D01*
X141857446Y-56053483D01*
X141865688Y-55822524D01*
X141877472Y-55749782D01*
X141899154Y-55824167D01*
X141920946Y-55942653D01*
X141972874Y-56141803D01*
X142071746Y-56223472D01*
X142269633Y-56238987D01*
X142467274Y-56226208D01*
X142544077Y-56158554D01*
X142544878Y-56126110D01*
X142548187Y-55992042D01*
X142547686Y-55984987D01*
X142473474Y-55709841D01*
X142289195Y-55536301D01*
X141981482Y-55457112D01*
X141582212Y-55460990D01*
X141190364Y-55474237D01*
X140959415Y-55435421D01*
X140914527Y-55407632D01*
X140840933Y-55362478D01*
X140843051Y-55454797D01*
X140851210Y-55490589D01*
X140854373Y-55618425D01*
X140758103Y-55694102D01*
X140587562Y-55740969D01*
X140341706Y-55782027D01*
X140147682Y-55793157D01*
X140131800Y-55791865D01*
X140010139Y-55830860D01*
X139986460Y-55953637D01*
X139386045Y-55953637D01*
X139367157Y-55933382D01*
X139290422Y-55874984D01*
X138881107Y-55874984D01*
X138833396Y-55859242D01*
X138666355Y-55890502D01*
X138553556Y-55987742D01*
X138199082Y-55987742D01*
X138146047Y-55843123D01*
X138113334Y-55688653D01*
X138104369Y-55646320D01*
X140237633Y-55646320D01*
X140279967Y-55688653D01*
X140322300Y-55646320D01*
X140279967Y-55603987D01*
X140237633Y-55646320D01*
X138104369Y-55646320D01*
X138067891Y-55474074D01*
X138050813Y-55166792D01*
X139229794Y-55166792D01*
X139249062Y-55371454D01*
X139338316Y-55461312D01*
X139496758Y-55449256D01*
X139607855Y-55302597D01*
X139644967Y-55082032D01*
X139709245Y-54852781D01*
X139813091Y-54757967D01*
X139926982Y-54709134D01*
X139940227Y-54764866D01*
X139897758Y-54887500D01*
X139824004Y-55147392D01*
X139850484Y-55340545D01*
X139968245Y-55521341D01*
X140049890Y-55615174D01*
X140094449Y-55625090D01*
X140111039Y-55526158D01*
X140108775Y-55293447D01*
X140104372Y-55149077D01*
X140107070Y-54855749D01*
X140131435Y-54634224D01*
X140170586Y-54534764D01*
X140221083Y-54573713D01*
X140237805Y-54757088D01*
X140234756Y-54852908D01*
X140223014Y-55170684D01*
X140233235Y-55346964D01*
X140269581Y-55408650D01*
X140318602Y-55394605D01*
X140371168Y-55282400D01*
X140363694Y-55241442D01*
X140391166Y-55116405D01*
X140504080Y-54934333D01*
X140544498Y-54884320D01*
X140761179Y-54630320D01*
X140704835Y-54960623D01*
X140648490Y-55290925D01*
X141259480Y-55239702D01*
X141741031Y-55226722D01*
X142098743Y-55289509D01*
X142366088Y-55441164D01*
X142576536Y-55694788D01*
X142622865Y-55773303D01*
X142819967Y-56126110D01*
X143270314Y-56082229D01*
X143548937Y-56039126D01*
X143767695Y-55977014D01*
X143841814Y-55937800D01*
X143942324Y-55757110D01*
X143952295Y-55502858D01*
X143875549Y-55260179D01*
X143835945Y-55084924D01*
X143867292Y-54812912D01*
X143913373Y-54617234D01*
X143981736Y-54171156D01*
X143921759Y-53828133D01*
X143728923Y-53575713D01*
X143483964Y-53433958D01*
X143213147Y-53336614D01*
X142959554Y-53271419D01*
X142760028Y-53243763D01*
X142651409Y-53259036D01*
X142661548Y-53313641D01*
X142800426Y-53387033D01*
X143033956Y-53448272D01*
X143127215Y-53462801D01*
X143495079Y-53556507D01*
X143715518Y-53728179D01*
X143793389Y-53981728D01*
X143793633Y-53999526D01*
X143782012Y-54148953D01*
X143714602Y-54198700D01*
X143542581Y-54174681D01*
X143486948Y-54162318D01*
X143259084Y-54092814D01*
X143101564Y-54012872D01*
X143089015Y-54001901D01*
X142938855Y-53915513D01*
X142814493Y-53989696D01*
X142709202Y-54228568D01*
X142707100Y-54235536D01*
X142584126Y-54539706D01*
X142410852Y-54735411D01*
X142152065Y-54844499D01*
X141772548Y-54888818D01*
X141648311Y-54892454D01*
X141041967Y-54903122D01*
X141549967Y-54851388D01*
X141937138Y-54782722D01*
X142207023Y-54659857D01*
X142283961Y-54599831D01*
X142481490Y-54368182D01*
X142573698Y-54139890D01*
X142564051Y-53948227D01*
X142456016Y-53826465D01*
X142253059Y-53807876D01*
X142202623Y-53819133D01*
X142000215Y-53940333D01*
X141915143Y-54128372D01*
X141881832Y-54246251D01*
X141868322Y-54216037D01*
X141871498Y-54027939D01*
X141872810Y-53995320D01*
X141911313Y-53725355D01*
X141989651Y-53538971D01*
X142015633Y-53511179D01*
X142087955Y-53425210D01*
X142043672Y-53397458D01*
X141923000Y-53422254D01*
X141766152Y-53493925D01*
X141667218Y-53560317D01*
X141465349Y-53660281D01*
X141166235Y-53743615D01*
X140957300Y-53777993D01*
X140366756Y-53901130D01*
X139905701Y-54120019D01*
X139558629Y-54442939D01*
X139466031Y-54574431D01*
X139303764Y-54889682D01*
X139229794Y-55166792D01*
X138050813Y-55166792D01*
X138049077Y-55135555D01*
X138070613Y-55027761D01*
X139041409Y-55027761D01*
X139083165Y-55004264D01*
X139138719Y-54909369D01*
X139214836Y-54757320D01*
X139278567Y-54616743D01*
X139260496Y-54617267D01*
X139183971Y-54710002D01*
X139107313Y-54831187D01*
X139053828Y-54954519D01*
X139041409Y-55027761D01*
X138070613Y-55027761D01*
X138100014Y-54880599D01*
X138120967Y-54841987D01*
X138187117Y-54762943D01*
X138204321Y-54832543D01*
X138204337Y-54833942D01*
X138226299Y-54906218D01*
X138315369Y-54857987D01*
X138353800Y-54825914D01*
X138504118Y-54718567D01*
X138746904Y-54566391D01*
X138988800Y-54425578D01*
X139298189Y-54229079D01*
X139451011Y-54076753D01*
X139447358Y-53995320D01*
X139446306Y-53971870D01*
X139366819Y-53945485D01*
X139736488Y-53945485D01*
X139755134Y-53994496D01*
X139766970Y-53995320D01*
X139838583Y-53935183D01*
X139864718Y-53897571D01*
X139874698Y-53839634D01*
X139827382Y-53860235D01*
X139736488Y-53945485D01*
X139366819Y-53945485D01*
X139283114Y-53917700D01*
X139139913Y-53910653D01*
X138867192Y-53947284D01*
X138621506Y-54079266D01*
X138490674Y-54185820D01*
X138314646Y-54332199D01*
X138245268Y-54364719D01*
X138269222Y-54289027D01*
X138275526Y-54277053D01*
X138425707Y-54078160D01*
X138633821Y-53892649D01*
X138840833Y-53767706D01*
X138945777Y-53741320D01*
X139031341Y-53685659D01*
X139024809Y-53639621D01*
X139020946Y-53612399D01*
X139036148Y-53492997D01*
X139405356Y-53492997D01*
X139511722Y-53587577D01*
X139740960Y-53639621D01*
X140026402Y-53627327D01*
X140284748Y-53564240D01*
X140511036Y-53472822D01*
X140533967Y-53463558D01*
X140527322Y-53461538D01*
X140606963Y-53461538D01*
X140706087Y-53472822D01*
X140913604Y-53457589D01*
X141038118Y-53441138D01*
X141259379Y-53399638D01*
X141382551Y-53359991D01*
X141392304Y-53343769D01*
X141293180Y-53332484D01*
X141085663Y-53347718D01*
X140961149Y-53364168D01*
X140739888Y-53405669D01*
X140616716Y-53445316D01*
X140606963Y-53461538D01*
X140527322Y-53461538D01*
X140322300Y-53399212D01*
X140082491Y-53350226D01*
X139814190Y-53328559D01*
X139581397Y-53335891D01*
X139448114Y-53373903D01*
X139445647Y-53376195D01*
X139405356Y-53492997D01*
X139036148Y-53492997D01*
X139039918Y-53463385D01*
X139148712Y-53306242D01*
X139266660Y-53209272D01*
X139402884Y-53166245D01*
X139611474Y-53168468D01*
X139845291Y-53194265D01*
X140158861Y-53225601D01*
X140515098Y-53248720D01*
X140879983Y-53263181D01*
X141219494Y-53268546D01*
X141499612Y-53264372D01*
X141686316Y-53250220D01*
X141745585Y-53225650D01*
X141738084Y-53218765D01*
X141728318Y-53151074D01*
X141873432Y-53069769D01*
X141875847Y-53068848D01*
X142097264Y-53001173D01*
X142242841Y-52985159D01*
X142285346Y-53015878D01*
G37*
D11*
%TO.C,P15*%
X137285000Y-33018800D02*
G75*
G02*
X132713000Y-33018800I-2286000J0D01*
G01*
X132713000Y-33018800D02*
G75*
G02*
X137285000Y-33018800I2286000J0D01*
G01*
%TO.C,P16*%
X144285000Y-33018800D02*
G75*
G02*
X139713000Y-33018800I-2286000J0D01*
G01*
X139713000Y-33018800D02*
G75*
G02*
X144285000Y-33018800I2286000J0D01*
G01*
%TO.C,P17*%
X137285000Y-69447800D02*
G75*
G02*
X132713000Y-69447800I-2286000J0D01*
G01*
X132713000Y-69447800D02*
G75*
G02*
X137285000Y-69447800I2286000J0D01*
G01*
%TO.C,P18*%
X144285000Y-69447800D02*
G75*
G02*
X139713000Y-69447800I-2286000J0D01*
G01*
X139713000Y-69447800D02*
G75*
G02*
X144285000Y-69447800I2286000J0D01*
G01*
%TD*%
D13*
%TO.C,P13*%
X135978900Y-37769800D03*
D14*
X138518900Y-37769800D03*
X141058900Y-37769800D03*
%TD*%
D15*
%TO.C,C2*%
X131711700Y-42773600D03*
D16*
X131711700Y-37773600D03*
%TD*%
D15*
%TO.C,C3*%
X145351500Y-42773600D03*
D16*
X145351500Y-37773600D03*
%TD*%
D17*
%TO.C,P15*%
X134999000Y-33018800D03*
%TD*%
%TO.C,P16*%
X141999000Y-33018800D03*
%TD*%
%TO.C,P17*%
X134999000Y-69447800D03*
%TD*%
%TO.C,P18*%
X141999000Y-69447800D03*
%TD*%
M02*
